<?xml version="1.0" encoding="UTF-8"?>
<svg id="Layer_1" data-name="Layer 1" xmlns="http://www.w3.org/2000/svg" viewBox="0 0 161.92 57.3">
  <defs>
    <style>
      .cls-1 {
        fill: #fff;
        stroke-width: 0px;
      }
    </style>
  </defs>
  <path class="cls-1" d="M21.97,14.97h3.01c.2,0,.36-.16.36-.35,0-.2-.16-.36-.36-.36h-3.01c-.19,0-.36.16-.36.36,0,.19.16.35.36.35ZM23.47,41.38c-.86,0-1.57.71-1.57,1.57s.7,1.57,1.57,1.57,1.57-.7,1.57-1.57-.7-1.57-1.57-1.57ZM15.79,40.04h15.38v-22.74h-15.38v22.74ZM65.08,32.57c-.73,0-1.39.24-1.98.72-.59.49-.98,1.12-1.16,1.91-.09.37-.13.67-.13.9v2.21c0,.97.29,1.79.89,2.45.59.66,1.36,1,2.31,1,1.11,0,1.98-.43,2.6-1.29.62-.86.93-1.99.93-3.4,0-1.29-.29-2.36-.87-3.2-.64-.87-1.5-1.32-2.58-1.32ZM119.01,32.38c-1.18,0-2.09.53-2.7,1.58-.54.87-.8,1.93-.8,3.19s.26,2.27.8,3.14c.63,1.05,1.53,1.58,2.68,1.58s2.01-.53,2.65-1.61c.55-.88.83-1.94.83-3.16s-.26-2.27-.79-3.14c-.63-1.06-1.51-1.58-2.66-1.58ZM79.7,32.57c-.73,0-1.39.24-1.98.72-.59.49-.98,1.12-1.17,1.91-.09.37-.13.67-.13.9v2.21c0,.97.29,1.79.89,2.45.59.66,1.36,1,2.31,1,1.12,0,1.98-.43,2.61-1.29.62-.86.93-1.99.93-3.4,0-1.29-.29-2.36-.88-3.2-.64-.87-1.5-1.32-2.58-1.32ZM49.16,27.81h-.05c-.19.78-.47,1.94-.88,3.48l-1.53,4.82h4.95l-1.55-4.82c-.17-.5-.48-1.65-.94-3.48ZM141.43,32.24c-.96,0-1.75.41-2.35,1.21-.49.64-.79,1.4-.88,2.29h6.16c.02-.87-.17-1.63-.57-2.27-.51-.82-1.3-1.23-2.36-1.23ZM62.19,19.11c.04-.13.04-.25.04-.38v-.94c-1.22-.01-2.39.24-2.39,1.28,0,.68.44.99.98.99.7,0,1.2-.45,1.37-.94ZM46.06,14.81c-.18-.58-.34-1.22-.48-1.77h-.03c-.14.55-.29,1.21-.45,1.77l-.73,2.34h2.43l-.75-2.34ZM144.16,14.13c2.22,0,2.96,1.83,2.96,3.34,0,.32-.03.58-.06.73h-4.59c.04,1.24,1,1.77,2.11,1.77.8,0,1.37-.13,1.9-.31l.25,1.18c-.59.25-1.41.44-2.39.44-2.22,0-3.53-1.36-3.53-3.46,0-1.9,1.15-3.69,3.35-3.69ZM116.7,14.29l.08,1.03h.04c.31-.54,1.05-1.18,2.19-1.18,1.2,0,2.43.77,2.43,2.94v4.07h-1.73v-3.87c0-.98-.37-1.73-1.31-1.73-.69,0-1.17.49-1.35,1.01-.06.14-.08.35-.08.55v4.04h-1.73v-4.81c0-.79-.03-1.45-.06-2.04h1.51ZM98.52,14.13c2.22,0,2.96,1.83,2.96,3.34,0,.32-.03.58-.06.73h-4.59c.04,1.24,1,1.77,2.11,1.77.8,0,1.36-.13,1.9-.31l.25,1.18c-.59.25-1.41.44-2.39.44-2.22,0-3.53-1.36-3.53-3.46,0-1.9,1.15-3.69,3.35-3.69ZM91.43,11.15h1.73v9.99h-1.73v-9.99ZM77.71,15.35c-.68,0-1.38.21-1.84.51l-.34-1.13c.51-.31,1.39-.61,2.48-.61,2.2,0,2.83,1.39,2.83,2.9v2.46c0,.62.03,1.22.11,1.65h-1.56l-.13-.76h-.04c-.41.53-1.13.91-2.03.91-1.38,0-2.15-1-2.15-2.04,0-1.72,1.53-2.6,4.07-2.59v-.11c0-.45-.18-1.2-1.39-1.2ZM67.47,11.43c.59,0,.96.41.97.94,0,.51-.38.93-.99.93s-.96-.42-.96-.93c0-.53.39-.94.97-.94ZM68.33,14.29v6.85h-1.73v-6.85h1.73ZM44.53,11.65h2.21l3.08,9.48h-1.87l-.86-2.69h-3l-.82,2.69h-1.79l3.04-9.48ZM33,43.1c0,1.67-1.36,3.03-3.03,3.03h-13c-1.67,0-3.03-1.35-3.03-3.03V14.22c0-1.67,1.36-3.03,3.03-3.03h13c1.67,0,3.03,1.36,3.03,3.03v28.88ZM53.89,43.79l-1.72-5.41h-6l-1.64,5.41h-3.06l5.93-18.45h3.67l5.97,18.45h-3.15ZM54.56,21.14h-1.7l-2.55-6.85h1.87l1.11,3.48c.2.6.34,1.15.46,1.72h.04c.13-.56.28-1.1.46-1.72l1.1-3.48h1.82l-2.62,6.85ZM58.13,19.25c0-1.72,1.53-2.6,4.07-2.59v-.11c0-.45-.18-1.2-1.39-1.2-.68,0-1.38.21-1.84.51l-.34-1.13c.51-.31,1.39-.61,2.48-.61,2.19,0,2.83,1.39,2.83,2.9v2.46c0,.62.03,1.22.11,1.65h-1.56l-.13-.76h-.04c-.41.53-1.13.91-2.03.91-1.38,0-2.15-1-2.15-2.04ZM69.7,42.35c-1.1,1.16-2.47,1.75-4.1,1.75-1.77,0-3.03-.63-3.8-1.89v6.99h-2.95v-14.33c0-1.42-.04-2.88-.11-4.37h2.6l.16,2.11h.05c.99-1.58,2.48-2.38,4.49-2.38,1.57,0,2.87.62,3.93,1.86,1.05,1.24,1.57,2.88,1.57,4.9,0,2.27-.61,4.05-1.85,5.37ZM72.78,21.14h-1.73v-9.99h1.73v9.99ZM84.32,42.35c-1.1,1.16-2.47,1.75-4.1,1.75-1.76,0-3.03-.63-3.79-1.89v6.99h-2.96v-14.33c0-1.42-.04-2.88-.11-4.37h2.59l.17,2.11h.05c.99-1.58,2.48-2.38,4.49-2.38,1.57,0,2.88.62,3.93,1.86,1.05,1.24,1.58,2.88,1.58,4.9,0,2.27-.61,4.05-1.85,5.37ZM86.35,21.29c-.89,0-1.67-.34-2.17-1.18h-.03l-.08,1.03h-1.48c.03-.46.06-1.22.06-1.93v-8.06h1.73v4.08h.03c.42-.66,1.17-1.1,2.2-1.1,1.67,0,2.87,1.39,2.86,3.48,0,2.46-1.56,3.69-3.11,3.69ZM101.23,42.45c-1.21,1.08-2.88,1.61-5.03,1.61-1.99,0-3.58-.38-4.78-1.15l.69-2.46c1.29.76,2.72,1.15,4.26,1.15,1.12,0,1.98-.25,2.6-.75.62-.5.93-1.17.93-2.02,0-.74-.26-1.37-.76-1.88-.52-.51-1.36-.98-2.54-1.42-3.23-1.2-4.84-2.96-4.84-5.28,0-1.52.56-2.76,1.71-3.73,1.14-.96,2.65-1.45,4.53-1.45,1.68,0,3.07.29,4.19.87l-.75,2.41c-1.04-.56-2.22-.85-3.54-.85-1.04,0-1.86.26-2.45.76-.49.46-.74,1.02-.74,1.68,0,.72.28,1.33.85,1.81.49.44,1.39.91,2.68,1.42,1.59.63,2.76,1.39,3.51,2.25.75.86,1.12,1.92,1.12,3.2,0,1.57-.55,2.85-1.64,3.83ZM111.65,32.7h-3.26v6.47c0,1.64.58,2.46,1.73,2.46.53,0,.96-.04,1.31-.13l.08,2.24c-.58.22-1.35.33-2.3.33-1.16,0-2.08-.35-2.74-1.07-.66-.71-.99-1.91-.99-3.58v-6.71h-1.94v-2.21h1.94v-2.43l2.9-.88v3.31h3.26v2.21ZM109.98,21.29c-1.93,0-3.43-1.32-3.43-3.53s1.48-3.63,3.55-3.63,3.41,1.44,3.41,3.52c0,2.52-1.77,3.64-3.52,3.64ZM123.78,42.07c-1.23,1.35-2.85,2.02-4.87,2.02s-3.52-.65-4.67-1.94c-1.16-1.29-1.73-2.93-1.73-4.9s.6-3.75,1.79-5.06c1.2-1.32,2.8-1.97,4.83-1.97s3.53.64,4.71,1.94c1.13,1.25,1.69,2.88,1.69,4.87s-.58,3.72-1.75,5.04ZM126.83,14.29h.97v-1.28l1.7-.48v1.76h1.65v1.29h-1.65v3.03c0,.84.22,1.27.89,1.27.31,0,.48-.01.68-.07l.03,1.31c-.25.1-.72.18-1.25.18-.65,0-1.17-.21-1.49-.56-.38-.39-.55-1.03-.55-1.93v-3.22h-.97v-1.29ZM134.42,33.09c-.29-.05-.6-.08-.93-.08-1.04,0-1.84.39-2.41,1.17-.49.7-.74,1.56-.74,2.62v6.98h-2.96v-9.12c0-1.52-.03-2.92-.08-4.18h2.57l.11,2.55h.08c.31-.87.8-1.58,1.48-2.1.66-.48,1.37-.71,2.14-.71.27,0,.52.01.73.05v2.82ZM134.87,17.03v4.11h-1.73v-9.99h1.73v4.07h.03c.21-.32.51-.59.86-.77.35-.2.76-.31,1.2-.31,1.17,0,2.39.77,2.39,2.97v4.04h-1.73v-3.85c0-.98-.37-1.75-1.32-1.75-.68,0-1.15.45-1.35.97-.06.15-.07.34-.07.52ZM147.07,37.86h-8.87c.04,1.31.46,2.31,1.29,3,.75.62,1.71.93,2.9.93,1.32,0,2.51-.21,3.59-.63l.47,2.06c-1.25.55-2.75.82-4.46.82-2.06,0-3.68-.6-4.85-1.82-1.18-1.21-1.77-2.84-1.77-4.88s.55-3.68,1.64-5.01c1.16-1.42,2.71-2.13,4.66-2.13s3.37.71,4.35,2.13c.78,1.13,1.18,2.53,1.18,4.19,0,.53-.04.97-.11,1.34ZM85.97,15.48c-.7,0-1.35.51-1.53,1.27-.03.13-.06.28-.06.45v1.11c0,.14.01.28.04.41.18.7.79,1.21,1.53,1.21,1.08,0,1.75-.86,1.75-2.25,0-1.21-.58-2.2-1.73-2.2ZM98.42,15.31c-1.07,0-1.52.97-1.59,1.67h3.01c.01-.63-.27-1.67-1.42-1.67ZM110.05,15.38c-1.22,0-1.72,1.2-1.72,2.34,0,1.32.66,2.32,1.7,2.32.98,0,1.67-.96,1.67-2.35,0-1.07-.48-2.31-1.66-2.31ZM76.75,19.07c0,.68.44.99.98.99.7,0,1.2-.45,1.37-.94.04-.13.04-.25.04-.38v-.94c-1.22-.01-2.39.24-2.39,1.28ZM144.06,15.31c-1.07,0-1.52.97-1.59,1.67h3.01c.01-.63-.27-1.67-1.42-1.67Z"/>
  <path class="cls-1" d="M153.39,57.3H7.72c-4.26,0-7.72-3.46-7.72-7.71V7.72C0,3.46,3.46,0,7.72,0h145.67c4.26,0,7.72,3.46,7.72,7.72v41.86c0,4.25-3.46,7.71-7.72,7.71ZM7.72,2c-3.16,0-5.72,2.57-5.72,5.72v41.86c0,3.15,2.57,5.71,5.72,5.71h145.67c3.16,0,5.72-2.56,5.72-5.71V7.72c0-3.16-2.57-5.72-5.72-5.72H7.72Z"/>
</svg>