<?xml version="1.0" encoding="UTF-8"?>
<svg id="Layer_1" data-name="Layer 1" xmlns="http://www.w3.org/2000/svg" viewBox="0 0 170.91 57.28">
  <defs>
    <style>
      .cls-1 {
        fill: #fff;
      }

      .cls-1, .cls-2 {
        stroke-width: 0px;
      }

      .cls-2 {
        fill: #fff;
      }
    </style>
  </defs>
  <path class="cls-1" d="M162.44,57.25H8.47c-4.67,0-8.47-3.8-8.47-8.47V8.47C0,3.8,3.8,0,8.47,0h153.98c4.67,0,8.47,3.8,8.47,8.47v40.32c0,4.67-3.8,8.47-8.47,8.47ZM8.47,2c-3.57,0-6.47,2.9-6.47,6.47v40.32c0,3.57,2.9,6.47,6.47,6.47h153.98c3.57,0,6.47-2.9,6.47-6.47V8.47c0-3.57-2.9-6.47-6.47-6.47H8.47Z"/>
  <g>
    <path class="cls-2" d="M56.79,16.71h-1.14c0-.16-.11-.6-.32-1.33h-1.64c-.22.72-.33,1.16-.33,1.33h-1.07c0-.09.28-.85.83-2.27.55-1.42.83-2.2.83-2.35h1.34c0,.13.25.91.75,2.31.5,1.41.75,2.18.75,2.3ZM55.16,14.71c-.4-1.22-.61-1.88-.61-1.98h-.06c0,.09-.21.75-.63,1.98h1.29Z"/>
    <path class="cls-2" d="M61.37,16.71h-.88c0-.1-.33-.61-.98-1.54-.68-.98-1.07-1.64-1.16-2h-.06c.06.52.09.99.09,1.4,0,.58.02,1.3.05,2.14h-.87c.04-.73.05-1.54.05-2.42s-.02-1.6-.05-2.2h1.05c0,.13.29.63.88,1.5.62.93.98,1.56,1.07,1.89h.05c-.06-.53-.09-1-.09-1.42,0-.64-.02-1.3-.05-1.97h.89c-.03.59-.05,1.32-.05,2.2s.02,1.69.05,2.42Z"/>
    <path class="cls-2" d="M66.51,14.24c0,.67-.22,1.26-.65,1.76-.43.5-1.03.75-1.81.75-.35,0-.83-.01-1.45-.04.03-.71.05-1.52.05-2.42s-.02-1.59-.05-2.2h.62c.1,0,.25,0,.45-.01.2,0,.33-.01.39-.01.85,0,1.47.21,1.86.64.38.43.58.94.58,1.53ZM65.54,14.39c0-.45-.13-.84-.4-1.15-.26-.31-.67-.47-1.21-.47-.1,0-.24.01-.42.03.02.47.04.97.04,1.48,0,.57.01,1.13.04,1.68.15.03.31.05.46.05.51,0,.89-.16,1.13-.47.24-.32.37-.7.37-1.15Z"/>
    <path class="cls-2" d="M71.25,16.71h-1.05c-.27-.84-.48-1.35-.63-1.55-.15-.2-.38-.29-.71-.29-.14,0-.27,0-.39,0,0,.61.01,1.22.03,1.84h-.99c.03-.71.05-1.52.05-2.42s-.02-1.59-.05-2.2h.61c.07,0,.22,0,.45-.01.23,0,.43-.01.63-.01,1.09,0,1.63.37,1.63,1.11,0,.59-.31,1-.93,1.23v.05c.24.07.45.25.63.56.18.31.42.87.73,1.68ZM69.92,13.45c0-.47-.3-.71-.91-.71-.22,0-.42.02-.59.05.03.37.04.84.04,1.43.13,0,.24,0,.33,0,.75,0,1.13-.26,1.13-.78Z"/>
    <path class="cls-2" d="M76.34,14.32c0,.73-.22,1.33-.67,1.81-.44.48-.99.72-1.65.72s-1.15-.22-1.57-.66c-.42-.44-.63-1-.63-1.67,0-.73.22-1.33.67-1.81.44-.48.99-.72,1.65-.72s1.15.22,1.57.66c.42.44.63,1,.63,1.67ZM75.36,14.42c0-.49-.13-.9-.38-1.2-.25-.31-.57-.46-.94-.46-.35,0-.64.16-.88.46-.24.31-.36.7-.36,1.17s.13.89.38,1.2c.25.31.57.46.93.46.35,0,.64-.16.88-.47.24-.31.36-.7.36-1.17Z"/>
    <path class="cls-2" d="M78.34,16.71h-1c.03-.73.05-1.54.05-2.42s-.02-1.6-.05-2.2h1c-.03.6-.05,1.33-.05,2.2s.02,1.7.05,2.42Z"/>
    <path class="cls-2" d="M83.48,14.24c0,.67-.22,1.26-.65,1.76-.43.5-1.03.75-1.81.75-.35,0-.83-.01-1.45-.04.03-.71.05-1.52.05-2.42s-.02-1.59-.05-2.2h.62c.1,0,.25,0,.45-.01s.33-.01.39-.01c.85,0,1.47.21,1.86.64.38.43.58.94.58,1.53ZM82.52,14.39c0-.45-.13-.84-.4-1.15-.26-.31-.67-.47-1.21-.47-.1,0-.24.01-.42.03.02.47.04.97.04,1.48,0,.57.01,1.13.04,1.68.15.03.31.05.46.05.51,0,.89-.16,1.13-.47.24-.32.37-.7.37-1.15Z"/>
    <path class="cls-2" d="M90.31,16.71h-1.14c0-.16-.11-.6-.32-1.33h-1.64c-.22.72-.33,1.16-.33,1.33h-1.07c0-.09.28-.85.83-2.27.55-1.42.83-2.2.83-2.35h1.34c0,.13.25.91.75,2.31.5,1.41.75,2.18.75,2.3ZM88.67,14.71c-.4-1.22-.61-1.88-.61-1.98h-.06c0,.09-.21.75-.63,1.98h1.29Z"/>
    <path class="cls-2" d="M94.44,13.3c0,.57-.21.98-.63,1.25-.42.27-.93.4-1.54.4-.11,0-.19,0-.24,0,0,.44.01,1.03.04,1.76h-1c.03-.68.05-1.49.05-2.42,0-.85-.02-1.59-.05-2.2h.62c.09,0,.26,0,.5-.01s.46-.01.65-.01c.45,0,.83.1,1.14.31.31.2.46.51.46.93ZM93.53,13.5c0-.51-.34-.76-1.01-.76-.17,0-.35.02-.53.05.03.45.04.95.04,1.52.06,0,.13,0,.21,0,.86,0,1.29-.27,1.29-.82Z"/>
    <path class="cls-2" d="M98.7,13.3c0,.57-.21.98-.63,1.25-.42.27-.93.4-1.55.4-.11,0-.19,0-.24,0,0,.44.01,1.03.04,1.76h-1c.03-.68.05-1.49.05-2.42,0-.85-.02-1.59-.05-2.2h.62c.09,0,.26,0,.5-.01s.46-.01.65-.01c.45,0,.83.1,1.14.31.31.2.46.51.46.93ZM97.78,13.5c0-.51-.34-.76-1.01-.76-.17,0-.35.02-.53.05.03.45.04.95.04,1.52.06,0,.13,0,.21,0,.86,0,1.29-.27,1.29-.82Z"/>
    <path class="cls-2" d="M105.65,14.32c0,.73-.22,1.33-.67,1.81-.44.48-.99.72-1.65.72s-1.15-.22-1.57-.66c-.42-.44-.63-1-.63-1.67,0-.73.22-1.33.67-1.81.44-.48.99-.72,1.65-.72s1.15.22,1.57.66c.42.44.63,1,.63,1.67ZM104.68,14.42c0-.49-.13-.9-.38-1.2-.25-.31-.57-.46-.94-.46-.35,0-.64.16-.88.46-.24.31-.36.7-.36,1.17s.13.89.38,1.2c.25.31.57.46.93.46.35,0,.64-.16.88-.47.24-.31.36-.7.36-1.17Z"/>
    <path class="cls-2" d="M110.46,16.71h-.88c0-.1-.33-.61-.98-1.54-.68-.98-1.07-1.64-1.16-2h-.06c.06.52.09.99.09,1.4,0,.58.02,1.3.05,2.14h-.87c.04-.73.05-1.54.05-2.42s-.02-1.6-.05-2.2h1.05c0,.13.29.63.88,1.5.62.93.98,1.56,1.07,1.89h.05c-.06-.53-.09-1-.09-1.42,0-.64-.02-1.3-.05-1.97h.89c-.03.59-.05,1.32-.05,2.2s.02,1.69.05,2.42Z"/>
  </g>
  <g>
    <path class="cls-2" d="M68.61,31.51c0,2.29-.68,4.12-2.04,5.48-1.54,1.62-3.55,2.43-6.03,2.43s-4.38-.82-6.04-2.46c-1.66-1.64-2.49-3.68-2.49-6.11s.83-4.47,2.49-6.11c1.66-1.64,3.67-2.46,6.04-2.46,1.18,0,2.3.23,3.37.69,1.07.46,1.93,1.07,2.57,1.83l-1.44,1.44c-1.08-1.3-2.58-1.95-4.49-1.95-1.73,0-3.22.61-4.48,1.82-1.26,1.21-1.89,2.79-1.89,4.73s.63,3.52,1.89,4.73c1.26,1.21,2.75,1.82,4.48,1.82,1.83,0,3.36-.61,4.58-1.83.79-.79,1.25-1.9,1.37-3.32h-5.96v-1.97h7.96c.08.43.11.84.11,1.24Z"/>
    <path class="cls-2" d="M71.11,29.16c1.08-1.14,2.47-1.71,4.15-1.71s3.06.57,4.15,1.71c1.08,1.14,1.63,2.56,1.63,4.28s-.54,3.14-1.63,4.28c-1.09,1.14-2.47,1.71-4.15,1.71s-3.06-.57-4.15-1.71c-1.08-1.14-1.63-2.56-1.63-4.28s.54-3.14,1.63-4.28ZM72.68,36.38c.73.74,1.58,1.11,2.58,1.11s1.85-.37,2.58-1.11c.73-.74,1.09-1.72,1.09-2.95s-.36-2.2-1.09-2.95c-.73-.74-1.59-1.11-2.58-1.11s-1.85.37-2.58,1.11c-.73.74-1.09,1.72-1.09,2.95s.36,2.2,1.09,2.95Z"/>
    <path class="cls-2" d="M83.38,29.16c1.08-1.14,2.47-1.71,4.15-1.71s3.06.57,4.15,1.71c1.08,1.14,1.63,2.56,1.63,4.28s-.54,3.14-1.63,4.28c-1.09,1.14-2.47,1.71-4.15,1.71s-3.06-.57-4.15-1.71-1.63-2.56-1.63-4.28.54-3.14,1.63-4.28ZM84.95,36.38c.73.74,1.58,1.11,2.58,1.11s1.85-.37,2.58-1.11c.73-.74,1.09-1.72,1.09-2.95s-.36-2.2-1.09-2.95c-.73-.74-1.59-1.11-2.58-1.11s-1.85.37-2.58,1.11c-.73.74-1.09,1.72-1.09,2.95s.36,2.2,1.09,2.95Z"/>
    <path class="cls-2" d="M99.54,44.37c-1.33,0-2.41-.33-3.26-1-.84-.66-1.44-1.43-1.81-2.28l1.93-.8c.21.61.61,1.12,1.18,1.54.57.41,1.23.62,1.96.62,1.16,0,2.07-.35,2.74-1.04.66-.7,1-1.64,1-2.83v-1.08h-.09c-.37.55-.89,1.01-1.56,1.38-.67.37-1.43.55-2.27.55-1.45,0-2.71-.57-3.76-1.72-1.05-1.15-1.58-2.57-1.58-4.26s.53-3.12,1.58-4.26c1.05-1.15,2.31-1.72,3.76-1.72.84,0,1.6.18,2.27.55.67.37,1.19.83,1.56,1.38h.09v-1.56h2.02v10.66c0,1.93-.56,3.39-1.67,4.39-1.12,1-2.48,1.5-4.08,1.5ZM99.7,37.49c.99,0,1.84-.37,2.53-1.1s1.04-1.72,1.04-2.96-.35-2.22-1.04-2.96c-.7-.73-1.54-1.1-2.53-1.1s-1.82.37-2.52,1.11c-.7.74-1.05,1.72-1.05,2.95s.35,2.2,1.05,2.95c.7.74,1.54,1.11,2.52,1.11Z"/>
    <path class="cls-2" d="M109.4,39.05h-2.11v-16.41h2.11v16.41Z"/>
    <path class="cls-2" d="M116.36,39.42c-1.7,0-3.08-.57-4.14-1.7-1.06-1.13-1.59-2.56-1.59-4.29,0-1.64.52-3.04,1.55-4.22,1.03-1.18,2.35-1.76,3.95-1.76s3,.54,4,1.63c1,1.09,1.5,2.54,1.5,4.36l-.02.39h-8.87c.06,1.13.44,2.03,1.13,2.68.7.66,1.51.99,2.44.99,1.51,0,2.54-.64,3.07-1.93l1.88.78c-.37.87-.97,1.6-1.81,2.19-.84.59-1.87.88-3.09.88ZM119.39,32.08c-.05-.64-.34-1.25-.88-1.83-.54-.58-1.35-.87-2.42-.87-.78,0-1.46.24-2.03.73s-.97,1.15-1.18,1.97h6.51Z"/>
    <path class="cls-2" d="M129.94,39.05h-2.11v-16.41h5.59c1.39,0,2.59.46,3.61,1.39,1.02.93,1.52,2.09,1.52,3.5s-.51,2.57-1.52,3.5c-1.02.92-2.22,1.39-3.61,1.39h-3.48v6.65ZM129.94,30.39h3.53c.89,0,1.6-.3,2.13-.89.54-.6.8-1.25.8-1.97s-.27-1.38-.8-1.97c-.54-.6-1.25-.89-2.13-.89h-3.53v5.73Z"/>
    <path class="cls-2" d="M142.04,39.05h-2.11v-16.41h2.11v16.41Z"/>
    <path class="cls-2" d="M147.47,39.42c-1.19,0-2.19-.34-2.99-1.03-.8-.69-1.2-1.6-1.2-2.73,0-1.22.47-2.18,1.42-2.88.95-.7,2.12-1.04,3.51-1.04,1.24,0,2.25.23,3.05.69v-.32c0-.83-.28-1.49-.85-1.98-.57-.5-1.26-.75-2.09-.75-.61,0-1.17.15-1.66.44-.5.29-.84.69-1.02,1.19l-1.93-.83c.26-.67.77-1.3,1.54-1.87.76-.57,1.77-.86,3.03-.86,1.44,0,2.63.42,3.58,1.26.95.84,1.42,2.03,1.42,3.55v6.79h-2.02v-1.56h-.09c-.84,1.28-2.07,1.93-3.69,1.93ZM147.82,37.49c.87,0,1.66-.33,2.37-.97.71-.65,1.07-1.42,1.07-2.3-.6-.49-1.49-.73-2.68-.73-1.02,0-1.8.22-2.32.66-.52.44-.78.96-.78,1.56,0,.55.24.99.71,1.31.47.32,1.02.48,1.63.48Z"/>
    <path class="cls-2" d="M157.86,44h-2.18l2.61-5.66-4.63-10.52h2.29l3.35,8.07h.05l3.25-8.07h2.29l-7.04,16.18Z"/>
  </g>
  <g>
    <path class="cls-1" d="M12.68,30.57c0-5.24,0-10.49,0-15.73,0-.64.12-1.23.58-1.72.18-.19.3-.24.52-.02,3.53,3.6,7.06,7.19,10.6,10.78,2.29,2.33,4.58,4.65,6.88,6.97.22.22.24.34,0,.58-5.62,5.59-11.24,11.19-16.84,16.8-.34.34-.58.31-.91.05-.6-.46-.83-1.08-.83-1.82,0-3.11,0-6.21,0-9.32,0-2.2,0-4.39,0-6.59h0Z"/>
    <path class="cls-1" d="M14.69,12.52c.43,0,.73.12,1.02.28,7.18,4.02,14.36,8.05,21.54,12.06.33.18.32.29.07.54-1.61,1.58-3.2,3.17-4.79,4.77-.17.17-.28.27-.51.04-5.71-5.83-11.43-11.64-17.15-17.46-.05-.05-.09-.11-.18-.23Z"/>
    <path class="cls-1" d="M16.3,48.1c5.21-5.27,10.43-10.53,15.63-15.81.32-.33.47-.28.76.02,1.32,1.38,2.66,2.73,4.01,4.08.24.24.26.33-.06.51-6.69,3.66-13.38,7.34-20.06,11.01-.11.06-.21.16-.27.2Z"/>
    <path class="cls-1" d="M46.07,30.71c-.02.59-.3,1.01-.72,1.32-.31.23-.66.42-1,.61-2.02,1.12-4.05,2.23-6.07,3.35-.27.15-.43.15-.66-.09-1.44-1.48-2.89-2.96-4.34-4.42-.21-.21-.22-.33,0-.54,1.7-1.67,3.39-3.36,5.07-5.05.2-.2.34-.22.59-.08,2,1.13,4.01,2.25,6.01,3.37.62.35,1.1.8,1.13,1.53Z"/>
  </g>
</svg>