<?xml version="1.0" encoding="UTF-8"?>
<svg id="Layer_1" data-name="Layer 1" xmlns="http://www.w3.org/2000/svg" viewBox="0 0 1496.07 85.09">
  <defs>
    <style>
      .cls-1 {
        fill: #328d43;
      }
    </style>
  </defs>
  <rect class="cls-1" x="1.41" y="3.84" width="1491.78" height="78.46"/>
  <g>
    <path class="cls-1" d="m1495.61,78.63c-.04,4.64.38,2.97.46,3.67-.09-7.76-.56-3.47-.46-3.67Z"/>
    <polygon class="cls-1" points="1492.25 2.37 1494.27 2.19 1490.23 2.3 1487.15 2.4 1481.51 2.61 1492.25 2.37"/>
    <path class="cls-1" d="m1419.87,2.36c6.77.71,25.93-.11,38.69.14l2.1.16,5.75-.57c-15.5.09-35.63.47-46.54.27Z"/>
    <path class="cls-1" d="m1381.7.82c2.36.28-8.25.24,8.9.09-.86-.04-1.11-.05-1.61-.07-1.54,0-3.67,0-7.29-.02Z"/>
    <path class="cls-1" d="m1388.99.84c7.54-.02-4.93-.23,0,0h0Z"/>
    <path class="cls-1" d="m1354.18.99l9.93-.25c-2.07-.16-10.91-.2-7.63-.32-10.19.14-8.09.3-2.3.57Z"/>
    <path class="cls-1" d="m1344.77,1.51l5.15-.1c-.9-.07-2.26-.09-5.15.1Z"/>
    <path class="cls-1" d="m1360.83,1.19l-10.91.22c1.44.11,1.59.35,5.01-.08-.89.21,1.26,0,5.9-.14Z"/>
    <path class="cls-1" d="m1367,1.3c5.57.15,12.76.25,2.8.5,18.99-.1,16.2-.6-2.8-.5Z"/>
    <path class="cls-1" d="m1416.21,3.09l7.45.21,6.44-.24c-3.22.12-14.35-.19-13.89.03Z"/>
    <path class="cls-1" d="m1292.33.63c-.62.15,3.34.4,4.08.6l7.33-.17c-3.77-.1-10.91-.2-11.41-.42Z"/>
    <path class="cls-1" d="m1296.41,1.22l-10.97.26c9.8.03,11.59-.09,10.97-.26Z"/>
    <polygon class="cls-1" points="1343 2.3 1361.02 1.76 1339.52 2.31 1343 2.3"/>
    <polygon class="cls-1" points="1250.43 .61 1256.65 .26 1245.57 .79 1250.43 .61"/>
    <path class="cls-1" d="m1222.63.67c4.6-.29-6.31-.49-1.44-.67-7.55.05-14,.3-19.8.52,6.17-.12,12.74-.09,21.25.14Z"/>
    <path class="cls-1" d="m1191.63.85c3.08-.07,6.27-.19,9.75-.33-3.28.07-6.5.16-9.75.33Z"/>
    <path class="cls-1" d="m1266.75,1.41c-.85-.09-2.48-.33-8.64-.43l4.31.43c1.32,0,2.81,0,4.32,0Z"/>
    <path class="cls-1" d="m1262.58,1.42h-.15c-4.68-.03-7.93-.03-9.32-.04,1.2,0,4.05.02,9.48.04Z"/>
    <path class="cls-1" d="m1267.84,1.41c-.4,0-.69,0-1.09,0,.42.04.67.06,1.09,0Z"/>
    <path class="cls-1" d="m1314.23,1.92c-6.45.24-19.89.49-6.88.86,4.62-.29-2.82-.5,6.88-.86Z"/>
    <path class="cls-1" d="m1273.2,1.94l11.65.1c-.23-.11-2.33-.28.86-.39l-12.52.3Z"/>
    <polygon class="cls-1" points="1267.49 2.08 1273.2 1.94 1268.88 1.91 1267.49 2.08"/>
    <path class="cls-1" d="m1211.6,1.25c-5.03.19-10.54.2-16.76.23,6.67.08,13.56.13,20.11.13.92-.13,3.8-.37-3.34-.36Z"/>
    <path class="cls-1" d="m1236.37,1.37c-.35,0-.79.02-1.12.02.69.04,1.24.05,1.12-.02Z"/>
    <path class="cls-1" d="m1133.59,1.48c.34.03.64.05.98.08.08-.02.13-.05.23-.07h-1.21Z"/>
    <path class="cls-1" d="m1216.06,1.69c5.01.08,8.01-.02,10.86-.15-3.75.02-7.72.05-11.98.07-.42.06-.49.1,1.12.08Z"/>
    <path class="cls-1" d="m1174.55,1.05c2.61.07,5.57.15,8.68.23-2.55-.13-7.76-.34-8.68-.23Z"/>
    <path class="cls-1" d="m1233.56,1.27c.25,0,.48-.01.75-.02-1.64-.09-1.44-.05-.75.02Z"/>
    <path class="cls-1" d="m1233.56,1.27c-2.58.06-4.61.17-6.64.26,3.05-.03,5.88-.08,8.33-.14-.62-.03-1.24-.08-1.69-.12Z"/>
    <path class="cls-1" d="m1115.04,4.21c.88-.39,14.06-.76,25.43-.34,11.19-.3,3.87-1.59-5.9-2.32-.35.17-.35.33-11.87.56,4.03.22,25.56.5,15.84.86-15.26.2-12.5-.14-19.92-.35,6.3.49-19.41.72-16.09,1.44l13.38-.25c.25.11-4.6.29-.88.39Z"/>
    <path class="cls-1" d="m1156.52,1.59l4.74-.05c-5.4-.07-9.27-.23-16.39-.54-7.89.19-9.52.34-10.06.47l23.34.05-1.62.06Z"/>
    <path class="cls-1" d="m1182.54,1.54c-3.7.43-15.08.61-8.11,1.08,13.91-.03,9.75-.36,18.06-.54-22.44.11,6.45-.24-9.77-.48,4.41-.07,8.38-.1,12.12-.11-4.04-.07-7.94-.13-11.61-.2.2.01.35.02.51.03h.11s-.02,0-.02,0c.97.05,1.29.09.2.05-.07,0-.35,0-.47,0-.15.06-.57.11-1.01.16-6.5-.09-1.02-.11,1.01-.16.07-.02.25-.04.27-.06-.02,0-.05,0-.08,0l-22.48.24c4.76.06,10.72.05,21.28,0Z"/>
    <path class="cls-1" d="m1295.36,3.7c-.7-.04-.67-.07-.72-.1-1.45.05-2.01.09.72.1Z"/>
    <path class="cls-1" d="m1286.11,3.44c1.64-.06,3-.23,8.31-.19,4.61.13-.02.21.22.35,3.2-.11,11.21-.31,1.17-.52l-1.59.06c-9.05-.15-20.68-.68-19.1-.74,2.64.39,4.97.66,10.99,1.04Z"/>
    <path class="cls-1" d="m1233.68,2.6l-18.72.21,9.53.37-.48-.22c10.65.09,8.35-.19,9.67-.36Z"/>
    <polygon class="cls-1" points="1131.45 1.26 1133.93 .81 1123.12 1.45 1131.45 1.26"/>
    <polygon class="cls-1" points="1107.12 1.32 1108.02 .92 1101.6 1.16 1107.12 1.32"/>
    <path class="cls-1" d="m190.16,79.94l5.5-.11c-2.6.03-4.28.07-5.5.11Z"/>
    <path class="cls-1" d="m150.33,79.91l-.98.19c1.84-.11,2.6-.19.98-.19Z"/>
    <path class="cls-1" d="m509.6,1.36c-8.01-.37-16.96-.94-16-.5l2.46.43c5.6-.08,9.89-.03,13.54.06Z"/>
    <path class="cls-1" d="m100.37,3.94c.76.04,1.56.09,2.34.13,1.95-.15,3.78-.29,5.41-.41-2.33.08-4.98.18-7.76.28Z"/>
    <path class="cls-1" d="m94.72,5.73l-10.56-.28c2.37.1,5.77.19,10.56.28Z"/>
    <path class="cls-1" d="m407.68,79.48l6.42-.44c-10.04,0-5.62.22-6.42.44Z"/>
    <path class="cls-1" d="m857.94,1.48c-6.92-.17-12.42-.24-17.25-.26,8.33.25,15.05.62,17.25.26Z"/>
    <path class="cls-1" d="m174.49,84.52c3.37-.08,4.8-.17,4.71-.26-3.47.07-5.42.16-4.71.26Z"/>
    <path class="cls-1" d="m820.72,1.22c1.22.03,2.41.07,3.65.1,5.06-.07,10.14-.13,16.32-.1-6.15-.18-13.2-.3-19.97,0Z"/>
    <path class="cls-1" d="m1196.54,79.84c.57.02,1.26.04,1.79.05.17-.06-.62-.06-1.79-.05Z"/>
    <path class="cls-1" d="m1426.37,84.2c-2.26,0-5.95.02-9.44.03,1.7.03,4.54.03,9.44-.03Z"/>
    <path class="cls-1" d="m1009.23,1.13c5.16-.03.82-.05,0,0h0Z"/>
    <path class="cls-1" d="m1034.32,2.84c-1.1.05-1.93.11-2.06.21.42-.1,1.14-.17,2.06-.21Z"/>
    <path class="cls-1" d="m769.32,3.91c-.15,0-.27,0-.45,0,1.53.08,1.27.07.45,0Z"/>
    <path class="cls-1" d="m1016.99,1.33c-1.94-.04-4.17-.08-6.6-.13,1.07.02,3.07.06,6.6.13Z"/>
    <path class="cls-1" d="m1015.95,1.12c1.78.02,3.18.03,4.51.04.65-.07.07-.12-4.51-.04Z"/>
    <path class="cls-1" d="m1002.04,1.15c2.95,0,5.7.01,8.35.04-1.01-.03-1.44-.05-1.17-.07-1.51,0-3.65.01-7.19.02Z"/>
    <path class="cls-1" d="m773.86,81c.34.01.73.03,1.11.04,5.2-.18,2.92-.15-1.11-.04Z"/>
    <path class="cls-1" d="m375.3,5.85c.24,0,.37-.01.59-.02-.24,0-.55-.01-.76-.02l.17.04Z"/>
    <path class="cls-1" d="m356.77,6.17c7.89-.54,12.38-.47,18.36-.36l-6.13-1.25-12.23,1.6Z"/>
    <path class="cls-1" d="m285.52,79.81l-13.02-.39c15.71-.64,27.08-.42,14.86-.96-1.84,1.35-50.59.14-52.4,1.49l-8.58-.28c2.46.01,2.85-.07,5.28-.05-16.69-.65-12.4.98-33.89.79-7.49-.1-12.72-.3-7.61-.46l-16.69.33c-4.86-.03-3.67-.26,1.17-.24l-25.46.11.19-.04c-3.63.21-11.87.54-15.89.68-6.47-.19,3.25-.14,1.59-.31l-14.1.33c-5.74-.35,5.94-.69,15.68-.64-13.17-1.35-11.7.34-40.12-.45l13.31-.17c-8.58-.77-18.97-.49-34.02-.97,3.57.25,30.13,1.21,14.83,1.54-4.31-.1-10-.15-18.25.12-.08-.48-8.14-.36-18.22-.34l.69-.64c-10.9.18-10.04.51-16.46.8-12.15-.06-14.67-.56-17.53-.97-19.46-.1,13.44.79-9.6.91-2.63-.03-5.09-.06-7.47-.09,0-2.08-.01-4.1-.02-6.14-.03-2.83-.07-5.67-.1-8.63-.11-5.92-.23-12.29-.37-19.89.22-11.33.39,1.98.57-2.08l-.51-10.04c.01-2.46.17-1.66.25-1.26-.2-8.46-.64-.7-.81-14-.15-.79-.19-2.54-.16-4.97.02-1.22.05-2.6.08-4.12.01-.37.02-.75.03-1.14.01-.25.02-.51.03-.77.02-.5.05-1.02.08-1.55.7.03,1.42.07,2.16.1,1.14.03,2.32.07,3.51.1,2.49.05,5.06.1,7.64.15,5.16.06,10.36.04,14.98-.18,4.06.18-1.96.39-.72.64,22.59-.52,19.37-.38,37.91-1.08l15.8.42c-11.61-.48,3.22-1.04,16.22-1.51-4.12-.23-7.64-.43-10-.53l20.74-.34c2.5.1.42.32-2.98.59,1.41-.06,2.76-.11,3.8-.15,7.41.24,3.57.6-1.74.96-2.53-.13-5.03-.26-7.47-.39-5.12.39-9.91.82-8.85,1.19,1.35-.07,3.94-.14,6.8-.17-1.34.1-2.19.2-1.57.26.7.07,2.87-.07,6.26-.24l4.71.71,1.14-.28,27.13.44c19.41-.71,36.29-1.77,67.1-2.06-7.64.52-1.64.85-2.06,1.47-8.41-.65-23.86.28-39.83.14,8.33.07,6.5.36,4.38.47l28.48-.59c-.64.5,6.05.38,13.49.59-5.62-1,21.23-.66,32.81-.97.72.34-2.06.68-16.2.6,15.6.75,20.15-1.17,35.46-.53-3.45,0-5.31-.04-6.68.13,8.06-.3,27.77-.06,23.14.23h-3.44c22.92.12,69.76.01,73.18-.83.23.11-3,1.02-4.39,1.19l40.89-2.85c-3.6.73,10.23,2.46-8.78,2.87,5.46.1,12.21.22,23.71-.03-3.72-.1-9.28-1.05-4.19-1.12,13.96.81,9.69.43,26.9,1.12-5.58-.16.62-1.3,9.44-1.26-1.38.17.73,1.13-2.49,1.24l21.95-1.12c-5.48.2-.97.95,3.94,1.27-2.28-.22,18.97.02,24.82-.09l-9.3-.26c24.78.17,24.47-1.57,49.05-1.52-2.98.23-7.35,1.42,5.15,1.56,5.73-.57,25.37-2.76,47.11-3.2l4.17.33,16.69-.37c-10.39.86-39.55,2.68-55.47,3.39,9.27.26,2.58.39,16.47.36,4.9.31-7.57.47-11.65.48l32.33.2c-1.44-.67,24.72-.67,23.49-1.23l-35.11.69c-1.42-.67,20.3-1.9,43.21-1.78,5.83.27-4.36,1.19-3.88,1.41,2.97-.23,21.74-.44,23.85-.28l-9.72.36c12.75.25,20.81-.89,36.14-.25,5.29.04,15.79.86,16.71.47-8.63-.76-10.31-3.13-4.56-3.7,1.85.05,27.77.73,33.81,1.11,8.71.6-13.07,1.43-5.66,1.94.32-.18,5.13-.41,7.14-.48,5.55.16-2.3.57,9.77.48,2.01-.68,24.55.06,5.71-.57,11.81-.19,12.55.14,26.41.11-4.41-.44,12.45-1.49,24.28-1.69-.7.17,1.96.4,3.25.5,24.2.06,37.19.37,59.76.38,2.08.16,12.97.36,8.33.66,3.25-.12,6.23-.35,13.19-.37,13.47.59-15.52.09-5.25.8.88-.39,18-.54,27.92-.79-3.05-.61-22.91-.12-32.83.13-.05-.84,17.24-1.72,40.83-2.11,18.75-.21,8.13.54,11.38.42,35.21.15,30-1.47,59.24-.86,11.6.54.52,1.07,3.1,1.45-15.27.2-23.45-.34-33.8-.32l12.74.25c-4.86.18-15.05.31-20.61.16,9.72.48,59.49.09,86.66.54,4.83-.18,13.16-.37,9.22-.58l-8.6.07c-7.9-.43,16.18-.6,5.3-.8,11.53-.3,24.46-.78,40.69-.54l3.05.61c-.35-.18-10.61-.36-15.17-.18,6.77-.27,24.89.83,32.3.03l-11.38-.42c11.58-.31,25.89-.95,40.27-.76-6.55-.6-3.32.07-13.54-.64,8.86.88-36.8-.04-22.57.89-10.49-.82-18.15-.35-31.87-1.05.42.2,4.86.39-7.22.29-.55.06-1.83.13-2.65.18-.37,0-.5,0-.82-.02.24,0,.42.02.67.02-.52.03-.57.04.25,0,2.88.09,5.21.19,6.15.31-5.99.46-25.2.45-31.69.69-7.17-.1,3-.23-.91-.45l-9.7.36c-.96-.45-19.04-.74-2.16-1.01l-15.19-.02c-8.95-.25-21.25-.35-28.84-.16-7.17-.1-18.1.5-11.86.14l-23.83.28-.22-.11c-23.51-.06-48.4.74-75.28-.07-7.92.11-16.1.25-29.34.12l-2.58-.39c-10.16.14-30.52-.39-34.89.02-10.96-1.04-49.32-.23-67.2-.41l-.68.51c-12.3-.03-24.1.11-39.37.32l.94.45c-13.17.37-33.85-.32-54.68-.27,1.42-.17,6.7-.13,10.44-.02-24.88-1.01-52.5.73-75.06,0-5.62.16-9.7.11-13.64,0,.52,0,.99-.02,1.39-.02-.58,0-1.43,0-2.31,0-2.48-.08-5.04-.15-7.81-.24,2.36.11,4.61.2,6.57.24-4.34,0-10.91.06-17.36.18l-2.75-.48c-.52,0-.95,0-1.49.01-6.33-.18-5.09.23-1.71.59-3.25.08-6.22.17-8.53.29-5.14-.77-16.91.26-23.93-.56-4.35.4-32.41.3-35.85,1.15-.22-.11-2.12-.16,1.36-.17-7.19-.1-14.37-.19-20.82.05l-3.05-.61-15.69.82c-9.53-.37-13.49-.59-4.02-1.06-22.86.72-18.55.27-37.99.99l.95-.39c-6.95.02-18.06.54-22.25.22-15.54-.75-76.92-.1-116.82-.8,7.74,1.16-18.55-.52-20.13.38-2.32-.27-7.89-.43-1.42-.67-20.36.27-30.6-.44-44.66.32-2.33-.28,4.36-.4,2.28-.57-1.63.06-6.47.24-8.59.07-2.07-.16,2.98-.23,6.21-.35-20.8.05-22.91.89-24.42,1.69-10.54-.38-15.8-.32-23.41.2-3.67-.26-9.79-.53,3.13-.62-7.27-.04-44.42-.38-45.16.26-2.28-.16-10.16-.05-12.08.03-8.16-.03-12.6-.04-17-.05-4.5,0-8.95.01-17.14.02l4.8.1c-1.13.14-2.25.23-3.48.29-1.49.06-2.98.09-4.59.1,0,1.46,0,3-.01,4.65-.02,1.36-.04,2.8-.06,4.36-.04,3.11-.09,6.66-.06,10.82l-.08-.37c-.55,29.62.27,12.79-.37,42.01l.48-1.59c.29.77.37,3.18.34,6.61-.03,1.72-.07,3.7-.11,5.86-.06,2.44-.12,5.08-.19,7.84,4.05.09,8.36.18,12.66.27,4,.06,7.97.07,11.65-.02l-6.12-.27c9.26-.35,25.89,1.4,35.19,1.53,2.03.09-3.2.14-6.03.21,24.35.61,3.16-.63,21.3-.77,3.35.34-4.31.86,7.9.92,6.08.27,35.43-1.1,52.09-.45-3.67-.26-7.32-.52,1.11-.72,12.92-.09,34.93.98,46.59.16,1.64.07,2.26.14,2.33.2,9.88-.21,32.09-.35,38.04-.8,9.13,1.65,61.39-.8,61.17.72l30.38-.08-.79.16c19.42.1,26.28-.26,33.11-.63,4.49.1,1.21.25.84.33,28.37.31,31.19.24,54.98-.52l2.47.49c6.45-.29,41.02.77,68.84.2-.27.06-.85.15-3.06.22,31.31-.58,74.95,1.37,86.42-.43l20.66-.44c-26.73-.14,3.98-.78-7.01-1.08,10.51-.11,27.17.54,14.26.63l-2.02-.09c-4.75.94,33.21.33,32.49.97,52.59-.05,103.86.47,153.12.51l-5.68-.73,17.18.04c4.51.17,6.05.57-6.21.54,3.22.21,8.36.12,12.74-.04,4.38-.16,7.99-.39,8.17-.47,24,.3-9.38.85-2.01.87l10-.05-2.25-.09c8.1-.3,8.82-.61,23.56-.58,9.32.15,4.78.45,8.45.48-.01.03.29.04,1.15.05.86,0,2.27-.01,4.48-.03l21.65.06-8.66-.58c9.6-.28,20.36.03,10.37-.62,14.66,1,80.76.36,89.77.67,13.44-.42,26.71-.41,43.14-.36-4.09-.12-6.53-.77,7.64-.69-5.18,1.33,25.96.58,37.41,1.54-10.24-.64,40.3-.16,24.23-1.06,11.83.11.72.5,9.69.81,28.15-.52,62.04.34,96.84.16.54-.18-5.28-.44,2.18-.7l18.37.88c6.87-.09,6.33-1.01,18.88-.4-1.77-.15-4.42-.37.19-.43,68.17.85,139.29-.7,208.52.9-9.38-.34-3.13-.37,4.03-.39-4.66-.08.11-.43-.81-.67l28.98.66c5.28-.66,31.07-.04,34.1-.67l-9.18.11c12.21-.74-17.08-1.65-15.29-2.61-13.67.85-36.04-1.25-58.46-.04-4.95-.19,4.22-.31,1.57-.53-5.68.41-12.55.49-25.27.31l1.44-.1c-35.74.1-51.06-.3-91.2-.57l2.97.47c-8.63-.06-10.44-.21-14.48-.33-9.9.72,24.23.04,15.21.83-11.44-.96-60.84-.01-68.57-1.11-13.27,0,3.89.55-9.38.54l-3.52-.3-3.35.38c-8.7-.06-13.09-.43-13.42-.68,2.11.03,6-.07,8.26-.09-11.28-.35-31.81.12-35.69,0l12.75.18c-36.22.28-80.44-.11-115.43.49l2.66.22c-26.72.41-21.4-.24-50.74-.05l1.07-.05c-5.87.22-13.71.33-21.74.31,7.41-.26-13.94-.51-4.22-.79-28.98.44-14.33.35-33.47,1.17l-4.41-.37c-6.52.33-7.07.51-21.72.61,12.02-.32-9.35-.56,4.11-.98-30.75-.81-45.65.82-59.76-.37-14.12,1.02,26.61.57,18.7.79,6.62.33-11.65.76-21.3.66-9.82-.02-16.7-1.31-41.41-1.29,2.46,0,2.63-.07,5.08-.07-9.25-.26-18.12.35-29.46-.07-6.36.62-14.73-.04-16.56.75l22.66-.18c-12.85.21-24.9,1.13-46.06.68,1.65-.16,7.95-.37,12.27-.48-6.19-.23-11.92.15-18.33-.08,1.83-.79,27.54-.17,41.31-.77-6.64-.33-26.04.57-19.12-.28-9.94,1.09-24.34-.14-41.08.69l1.1-.47c-2.65.07-8.13.3-13.01.29l8.82-.61c-13.55.52-26.11-.46-39.11-.17,27.21-.01,6.11.57,17.61.91-33.55.63-19.3-1.24-56.86-1.01,5.09-.07,19.09.28,11.14.5-7.15-.1-16.6-.28-20.98-.53-24.89.1,3.82.49-6.77.78-8.47-.58-12.22.23-23.13.42l-.08-.48c-28.36-.31-7.52,1-33.05.63l10.79-.67-13.31.17,2.75-.55c-14.48.41-18.99.3-33.18.15,3.3.34-1.85.87-14.42.89-8.57-.29,4.8-.46-13.01-.39,4.02-.3,8.42-.68,16.17-.24.79-.16,3.96-.3,4.78-.46-9.23-.33-23.19-.07-29.64-.07,2.48.02,5.45.04,6.97.11l-25.81.67c-4.06-.18-.84-.33,2.35-.47-5.23.05-8.85.27-16.53.31,1.99-.39,1.51-.79,12.4-.98l-24.6.43c-1.64-.17-12.62-.47-9.43-.61-13.64-.23-33.45.76-51.52.45-.94.08-2.82.15-6.67.2-16.99-.09-32.04-.57-52.18-.03l-11.43-.7c-15.77.16,15.47.88-10.79,1.15-18.59.22-6.94-.6-13.46-.79-9.25.35-25.32,1.07-42.4.5,5.65-.13,10.09-.03,15.37-.08Zm-194.5.31c3.77-.1,11.28-.41,14.04-.13-4.29.55-7.61.29-14.04.13ZM129.01,4.86c-2.8.16-7.14.08-12.03-.1,3.55-.04,7.57-.02,12.03.1ZM952.67,1.52c-.16,0-.27.02-.4.02-8.41-.19-5.42-.11.4-.02Zm17.46.21c1.75-.07,1.63-.13.89-.2-1.22.12-5.14.13-9.6.1,1.24.13,3.5.21,8.71.1Zm-141.15,82.5l-3.4-.13c7.67-.14,5.52-.01,3.4.13Z"/>
    <path class="cls-1" d="m95.48,5.52c-1.07-.08-1.36-.17-1.61-.26-1.48.08-1.51.17,1.61.26Z"/>
    <path class="cls-1" d="m406.49,79.56h.59c.33-.02.5-.05.6-.08l-1.19.08Z"/>
    <path class="cls-1" d="m699.7,5.8c-3.59-.07-5.6-.16-6.93-.25-.2.12,1.44.22,6.93.25Z"/>
    <path class="cls-1" d="m1062.64.91l-11.18.12c5.41-.02,7.34.08,10.07.16-.25-.11-2.38-.27,1.11-.28Z"/>
    <path class="cls-1" d="m1159.7,3.89c1.63-.06,3.47,0,5.08-.07l-.45-.22c-6.96.01-11.83.19-4.63.29Z"/>
    <path class="cls-1" d="m1072.99,2.51c.89.4,7.9.27,15.73.19h-1.39c2.31-.57-6.04-.38-14.35-.19Z"/>
    <path class="cls-1" d="m1090.54,2.69c2.41-.02,4.88-.03,7.24-.01.92-.23-2.94-.05-7.24.01Z"/>
    <path class="cls-1" d="m992.27,1.46c3.71.1,2.33-.52,4.43-.35,4.15-.51-24.77.62-4.43.35Z"/>
    <polygon class="cls-1" points="1079.33 3.84 1076.53 3.34 1072.14 3.74 1079.33 3.84"/>
    <path class="cls-1" d="m1017.48,3.47l12.52.14c-.19-.08,1.4-.13,3.35-.17-7.71-.02-16.16-.12-15.87.03Z"/>
    <path class="cls-1" d="m1033.35,3.44c4.02,0,7.84,0,10.07-.08-2.17,0-6.85.02-10.07.08Z"/>
    <polygon class="cls-1" points="1062.22 3.99 1058.52 3.89 1049.69 3.85 1062.22 3.99"/>
    <path class="cls-1" d="m882.94,3.38l-13.66.14c-1.39.17,2.33.28,7.42.21,3.27-.12,8.34-.19,6.24-.35Z"/>
    <path class="cls-1" d="m924.25,4.74c-3.69-.1-3.94-.21-6.03-.38l-.42.62,6.44-.24Z"/>
    <path class="cls-1" d="m884.41,4.89c-1.36.17-19.83.49-2.51.45,1.39-.17,15.07-.31,2.51-.45Z"/>
    <polygon class="cls-1" points="678.58 4.11 682.06 4.1 681.56 3.08 678.58 4.11"/>
    <path class="cls-1" d="m497.17,6.53c16.19.24,3.84-.63,18.47-.32,3.8-.24-11.96-.25-8.06-.45-9.77.25-14.9.11-10.41.78Z"/>
    <path class="cls-1" d="m507.58,5.76c1.57-.05,3.22-.1,4.99-.15-2.83.06-4.16.11-4.99.15Z"/>
    <polygon class="cls-1" points="1464.5 84.74 1474.91 84.95 1468.19 84.61 1464.5 84.74"/>
    <path class="cls-1" d="m1484.48,83.99l2.45.65,6.25-.58c-2.35.03-6.92.08-8.7-.06Z"/>
    <path class="cls-1" d="m62.1,78.82l-.79.16c1.61.17,4.05.18,8.93.21l-8.14-.36Z"/>
    <polygon class="cls-1" points="203.27 79.31 200.84 79.29 205.38 79.88 203.27 79.31"/>
    <path class="cls-1" d="m321.76,78.56c-4.84.03-10.52.06-15.38.08,10.54-.11,16.69.65,15.38-.08Z"/>
  </g>
</svg>