<?xml version="1.0" encoding="UTF-8"?>
<svg id="Layer_1" data-name="Layer 1" xmlns="http://www.w3.org/2000/svg" viewBox="0 0 197.92 55.87">
  <defs>
    <style>
      .cls-1, .cls-2 {
        fill: #27aae1;
      }

      .cls-2 {
        fill-rule: evenodd;
      }
    </style>
  </defs>
  <rect class="cls-1" x="1.86" y="2.18" width="193.84" height="51.08"/>
  <path class="cls-2" d="m32.19,3.55c-.01.06-.6.04-.45.12h-.65c-.11-.05.86-.07.23-.09.07-.04.55-.02.88-.03Zm2.86-.21c-.06.03-.44.02-.44.06-.45.03-.31-.05-.43-.06-.35-.02-1.29.05-1.08-.06.91-.01,1.48.02,1.96.07Zm-2.87.27h1.09c-.01.1-1.3.13-1.09,0Zm12.28-.43c-.52.04-.41.06-1.09.03-.4,0-.15.1-.45.12h-2.18c-.69-.03.39-.04.66-.03-.06-.07-.75-.06-.63-.15-.4,0-.15.1-.45.12-1.27.02-1.43-.11-1.94-.19-.65.04-1.36.03-1.74-.04.99-.06,2.49.06,3.48.1-.14-.03-.5-.03-.42-.09.8.01,1.72,0,1.73.13,1.22.07,2.03-.1,3.07-.08-.06,0,.14.1.43.06.05-.09-.73-.06-.41-.18.7.07.97-.03,1.53-.03.4,0,.67.06,1.31.03-.01.03-.27.02-.44.03-.74.08-.57.29-1.78.3.55-.03.43-.17.9-.21-.03-.04-.39-.03-.65-.03-.16.07-.27.09-.46.21-.47.01-.41-.04-.42-.09Zm-7.91.41c.14.11-.78.11-1.1.06.04-.07.56-.06,1.1-.06Zm4.8.01h-.44c-.7.02-.67-.05-1.08-.07-1.92-.03.32-.01.66-.06.25.05.9.04.86.12Zm-3.28.05c-.46.01-.58-.02-.87-.03.26-.06,1.16-.02.89-.15.48.01.15.16-.02.18Zm-2.58-.31c-.6-.01,0-.1.44-.06-.18-.08-1.52,0-1.74-.07.51-.06.77.02,1.53-.03.06.07.75.06.63.15-.41.03-.72-.09-.87,0Zm-4.59.05c-.24-.13,1.8-.13,1.53,0-.61-.03-.91-.03-1.53,0Zm28.87,49.54c-.24.1.67.05,1.08.06-.18.06-1.04.09-1.09,0-.41,0-.15.1-.45.12-.51-.06-1.23,0-1.74-.04-.09,0,.08-.08.01-.09-.14-.02-1.54.02-.86-.06.88-.03.96.05,1.3.1.56,0,1.04-.01,1.32-.06-.27-.13-.72,0-1.31,0-.71-.15-3.97-.01-5.44-.11,3.16-.03,7.23,0,10.25.03-.53.09-2.53-.04-3.06.05Zm7.03-.38c.29-.13,1.19-.04,1.76-.09.35-.03.22-.02.87,0,.38.22-2.43.08-2.63.09Zm-1.95-.1c-.15.02-.35.08-.01.09.45.02.53-.06.23-.06.42-.09,1.03.04,1.74,0v.06c-1.68.02-3.26.12-4.6.11-.73,0-.82-.1-1.74-.03-.26-.04-.08-.05.01-.09-.2-.08-1.09-.07-1.73-.1-.19-.12,1.79.04,1.32-.06.44-.1.64.09.86.12.55-.05.54.06.65.06.23.01.66-.02.87,0,.1,0,.02.09.43.06.23,0,.1-.04,0-.06-.27-.08-.46,0-1.08-.06-.04,0,.32-.05.23-.06-.38-.03-1.27.05-1.08-.06,1.75.03,2.66.05,3.92.07Zm-.45.09c-.41-.01-.38-.09-1.08-.06-.27.09.9.13,1.08.06ZM33.76,3.21c-.9,0-.86-.12-1.95-.1.62-.1,1.21-.09,1.75,0,.44-.07,1.43-.13,1.97-.03.5.07-.57-.03-1.09,0-.45,0-.45.08-.67.12Zm37.43,49.16c.85-.02,1.94.15.63.15.76-.1-.77-.05-.63-.15Zm-1.77.21h1.09c.32.1-1.44.09-1.09,0ZM30.23,3.57h.65s-.02.12-.02.12h-.65c.37-.06-.02-.04.02-.12Zm27.88,48.77c.16-.08,1-.06,1.11-.15,1.52.02,3.4-.02,4.58.04-1.32.08-2.88-.02-4.15.02-.67.02-.87.08-1.54.09ZM3.57,39.34c.16.7.1,1.92.08,3.5-.1-.19-.02-1.08-.03-1.75-.01-.69-.07-1.14-.06-1.75ZM46.84,3.34c-.94,0,.35.13-.67.12.14.03.5.03.42.09-.41.03-.7-.02-1.09-.03-.37-.01-1.28.04-1.08-.06.51,0,.84,0,1.09.03.47,0,.04-.1.01-.09.16-.06.98,0,.67-.12,1.01.08,1.22-.06,1.96,0-.12.02-.23.05-.23.09-.31-.02-1.13.03-1.09-.03Zm7.13,48.87c.34-.08.95-.05,1.31,0,.21,0,.17-.04.23-.06.5.06,1.04-.03,1.53-.03.25,0,.98-.03.87.06-.93-.04-1.43.08-1.98.09-.69,0-1.03-.08-1.96-.07Zm101.15.96c.3.12-1.99.2-1.75.03.43,0,.27.08.87.06.52,0-.23-.08-.43-.09-.94-.01-.56.17-1.55.15.16-.1.95-.21,1.77-.21.53,0,.52.06,1.08.06Zm-18.1-.14c-.53.01-1.39.07-1.3-.06.41.01.38.09,1.08.06.18-.1-.88-.04-.63-.15.58.02,2.1.12,1.75,0,.33-.08,1.2.02,1.08.09-.25.01-.63-.02-.87,0-.13,0-.18.06-.23.06-.28,0-.6,0-.87,0Zm3.22.41c-.67.07-2.25,0-3.28.02.3-.05.59-.1.46-.21.74-.03.33.1.42.15.58.03.27-.06.45-.09.12-.02.51-.03.44,0,.11-.05.08-.08-.2-.12-.13-.02-.27.03-.22.03-.22-.02-.87-.14-1.3-.1.25-.07,1.12-.08,1.31,0,1.17,0,1.1-.09,2.19-.03-.03.08-.74.06-1.32.06v.09c.84,0,.87-.1,1.74-.03.26,0,.19-.06.23-.09.6-.02.43.06.87.06.62,0,.44-.1,1.32-.06-.02.1-.64.12-1.33.12-.79.06-.67.11-.9.21-.83.04-.03-.14-.86-.09-.28,0-.23.06,0,.06Zm12.08-.61c.31-.05.42.03.87.03.41,0,.65-.04.88-.03.59.02.93.09,1.51.1-.59.17-1.52-.08-2.4.02-.19-.05-.48-.1-.86-.12Zm-3.07.08c-.1-.06,1.01-.1,1.1-.03.53-.04.82-.11,1.76-.09-1.11.04-.39.13.42.15-.96.16-1.84-.06-3.06.02.04-.04-.04-.05-.21-.06Zm-19.44.1h.65c-.13.08-.21.16-.89.15-.17-.09.32-.08.24-.15Zm.17.4c.41.01.38.09,1.08.06.23-.02.24-.07.66-.06-.02.04-.05.09.21.09-.54.03-1.9.06-1.95-.1Zm2.17.07c.25-.12,1.04.01,1.97-.03-.4-.13,1.47.02,2.19-.06.15.13-1.14.08-1.76.09-.89.02-1.88.06-2.4,0Zm-.42-.15s.27-.02.44-.03c.02-.05-.15-.08-.42-.09-.03-.04,1.27-.04.45-.09.11-.11.77.03.87.03.26.01.63-.01.87,0,.11,0,.13.06.21.06.32.02.77-.02.65.06.39,0,1.1-.03.87.06-.56-.04-1.33-.03-1.96-.07-.39-.02-.75-.19-1.3-.06.38.06,1.44.03,1.29.16-1.09.02-1.05-.11-1.96-.04Zm23.41-.43c-.13-.03-.26-.06,0-.06.92-.02,3.02.03,4.58.01.79-.02.78.05,0,.03-1.54.02-3.14.07-4.59.02Zm-22.05.04c.41-.04.28-.17,1.11-.15-.66.04.55.16-.46.15.13.06,1.1.01.86.12-.82-.09-1.85,0-3.05-.07.58-.08-.35-.02-.2-.12,1-.03.85.09,1.74.07Zm.48-.3c-.71-.08,1.56.02,1.54-.06.61.05.93-.03,1.52.03-.81.02-1.93.12-2.41.09.74-.06.18-.07-.65-.06Zm15.21.53c.45.02.5-.06.66-.06.56,0,.26.08.86.09-.52.1.06.16-.9.18-.15-.09.39-.09.24-.18-.56-.02-1.25.1-.67.15-.05.03-.22.02-.22,0h-.44c-.15-.1.61-.06.46-.15-.97.03-1.16.08-1.97.03.03-.09.51-.11.89-.15.71,0,.58.07,1.08.09Zm26-.24c-.41-.06,1.75-.01,2.4-.02-.39.14-1.48,0-2.4.02Zm-8.59.59c.35.05.9.08,1.74.07-.09.1-1.51.09-1.53.03-.09.07-.88.04-1.1.09.67.1,2.11-.01,2.4-.02-.04,0,.03.06,0,.06.46-.02.67-.08.89-.12.37,0,.56.02.65.06.55-.01,1.21-.05,1.53-.03.83-.04.02.14.86.09.31-.01.02-.05-.21-.06.17-.07,1.23,0,1.75-.03-.27.04-.84.04-1.1.09.04.03.21.03.21.06.49-.01.7-.06,1.1-.09-.21.1,1.66.08,2.17.1-.42.03-.77.07-1.32.09.06.04.54.03.87.03-.7.09-3.23.12-4.6.11-.37,0-.41-.02-.43-.06-.23.01-.17.05-.44.06-.46.01-.34-.06-.43-.06-.27,0-.37.05-.66.06-.47.01-1.12-.06-1.74-.07-.97,0-1.86.04-2.84.02-.83-.03-1.7-.06-2.61-.1-.37,0-.57.03-.66.03-1.45,0-2.87-.11-4.15-.01-.16-.03-.39-.05-.65-.06.18-.07,1.35,0,1.11-.12-.63.04-1.28.08-1.76.15-1.02-.11-2.92-.02-4.36-.07-.52-.02-.48-.06-.86-.09-.54-.04-1.32-.01-1.51-.1.18-.14,1.26-.03,1.75-.03.67,0,1.46,0,1.96,0,.23,0,.44-.03.44-.03.16,0,.58.06.65.06.26,0,.78-.02,1.1-.03.77,0,1,.04,1.75-.03.05.09-.89.11-.02.15.32-.01-.08-.04.01-.09.48-.03,1.21-.03,1.32-.12,1.71.06,2.83.02,4.13.1.84-.02,1.46-.08,1.77-.18.54.03,1.16.04,1.96.04l-.02.12c.57.01.94,0,.88-.09Zm-7.87.07s.24.05.43.06c.01-.14-.61-.06-1.3-.06.19.05.06.15.41.18.48-.07-.27-.14.46-.18Zm1.52.07c-.68-.02-.59.08-1.1.09,0-.03-.38-.04-.44,0,.82-.03.33.12,1.08.09-.22-.11.55-.09.46-.18Zm1.52.07c-.09-.09-.82-.09-1.29-.13-.19.09.3.08.2.15.52.01.48-.05,1.1-.03Zm9.36.21c.17,0,.25.03.21.06.53-.02,1.12-.02,1.11-.12-.63,0-1.11,0-1.32.06Zm-6.53-.11c-.7.03-2.14-.08-1.75,0,.26.03,2.25.07,1.75,0Zm.68-.21c-.13-.18-2.23-.02-2.41.09,1.25.04,1.05-.14,2.41-.09Zm-92.17-1.15c.74.02.29-.12,1.1-.09-.09.09-.91.08-.68.21-.38,0-.49-.05-.42-.12Zm122.99.83c-.3.13-1.08,0-1.97.03-.52-.06,1.44-.02,1.97-.03Zm-40.15-.07c.83-.04.41.09,1.08.06-.32.1-1.07-.04-1.31.03-.74-.03.61,0,.23-.09Zm1.49.28c.11.07-.42.04-.45.09-.61-.03-.9-.03-1.53,0,.35-.14.98-.05,1.98-.09Zm4.88-.63h.87c-.12.03-.24.05-.23.09h.44c.28,0,.23-.06,0-.06.28-.09.83.02,1.09.03.03-.05-.26-.06-.2-.12.52.11,1.14.08,2.17.07-.08.07-1.04.02-.89.12-.13,0-.65-.06-.65-.06-.14,0-.23.06-.23.06-.48,0-.94-.03-1.96,0,0-.06-.59-.04-.42-.12ZM50.76,3.44c.03.09-.79.11-1.1.06.04-.07.56-.06,1.1-.06Zm109.61,49.68c.9,0,1.58.13,1.97-.03.82-.03.61.08,1.3.06.85.03,1.15-.11,1.75-.03-.21.06-.91.08-1.76.09-1.09.01-3.07.04-3.26-.1Zm-.44.03c-.2.24-1.88.01-2.85.12.27-.14.13-.04-.43-.09.77-.15,2.12.09,3.28-.02Zm1.71.28c.39,0,.47-.03.88-.03.33.12-.94,0-.88.09-1.03-.03-1.97-.07-3.26-.07-.35-.09,2.66,0,3.27,0Zm33.05-2.43c-.57.13-.8.31-1.8.39-.15.01-.75,0-1.09.03-.34.02-1.2.11-1.97.06-.46.02-.71.06-1.1.09-3.13-.03-5.12.05-7.2-.02.16-.03.4-.05.66-.06-.14-.1-.58-.04-1.09-.03-.15-.1-1.28-.17-1.73-.13.62.09,1.26.18,1.94.19-.86.07-1.61-.03-2.62.02.39-.1-.63-.11.45-.12-.3-.04-1.07-.07-1.31-.03.03.1.85.09.63.22h-1.09c1.41-.04-.23-.2-.86-.13-.03.05.48.01.65.03.51.06-1.21,0-1.75.06-.14-.03-.5-.03-.43-.09-.67.07-1.66-.05-2.39-.1,1.13-.04,2.47-.06,2.65-.24.23,0,.14.06.43.06.66-.02-.2-.07.02-.12.82.03,1.05-.03,1.75-.03.21.09-.49.05-.88.06-.22.14,1.53.07,1.75,0,.69-.01.48.1,1.3.06l.67-.09c0-.07-.7,0-.66,0-.28,0-.33-.06-.65-.06-.35,0-.99.05-1.75,0,1.92-.03,3.93-.05,5.9-.08-.28.13-.26.21-.04.31.66.02.65-.05,1.31-.03.6-.03-.57-.06-.2-.15h1.09c-.07-.14-.68-.12-1.51-.09.55-.12,2.25-.07,3.29-.11-.12.02-.23.05-.23.09.54,0,.68-.05,1.1-.06-.09-.03-.18-.06-.43-.06.93-.09,2.6-.08,3.94-.11-.25.04-.25.07.21.09.48.02.91-.11.45-.12.04-.07.93-.01,1.31-.03.56.09.63.26,1.27.34Zm-15.53.3c.04-.1-1.62-.14-1.74-.03.61.05.9,0,1.74.03Zm3.93-.02c-.65-.08-.91-.08-.62-.25-1.12-.04-.34.18-.68.18-.32-.08-2.03-.1-1.97.06.68.04.54-.05.88-.06.88.04,1.64.18,2.39.07Zm4.61-.17c-.86-.05-1.08,0-1.53.03-.31.01-1.4-.04-1.1.06.05.06.96.01,1.08.06.31-.15,1.01-.07,1.55-.15Zm-.46.18c-.08.08.45.08.86.09.23-.1-.29-.1-.86-.09Zm1.56-.24c-.54,0-.69.05-.88.09.29.01.41.04.87.03l.02-.12Zm.67-.09c-.18.02-.61.21.19.18.34,0,.51-.23-.19-.18Zm3.07-.11c.23,0,.18-.04-.21-.03-.07.1.24.15.85.16.2-.1-.72-.04-.64-.12Zm-103.44,1.64c-.54-.04-1.7,0-1.73-.1.96-.02,1.22.06,2.18.04-.06.03-.44.02-.44.06Zm-.64-.12c-.73-.07,1.01-.13,1.32-.06-.25.07-1.07-.05-1.32.06Zm7.21-.04c-.11.06-1.91.22-2.63.05-.41.02-.81.05-1.32.06-.04-.03.09-.03.22-.03.04-.03-.08-.03-.21-.03.68-.14,2.86.14,2.85-.08.62-.02.56.04,1.09.03Zm-8.96.1c-1.06-.03-1.13.08-2.19.06.03-.13,1.38-.07,1.77-.15.34.03,1.28.12.63.19,0,.09.86-.09.87,0-.05.12-.99.09-1.54.06-.17-.1.36-.09.46-.15Zm5.87.2c-1.4-.02-1.98-.02-3.49-.04.2-.14,1.07-.18,2.21-.18.33.12-.94,0-.89.09.66.11,1.83-.03,2.17.13Zm46.7.06c-.04-.05.38-.08.01-.09.34-.09.97.02.86.09h-.87Zm-56.29-.14c.59-.02,1.07.06,2.18,0-.08.07-1.04.02-.89.12-.51-.03-1.38-.01-1.29-.13Zm-8.47-.36c.19-.07,2.26-.09,2.84,0,.18.12-.39,0-.65,0-.62,0-1.64.03-2.18,0Zm20.46.42c1.39,0,.18-.2,1.55-.18-.14.08-.7.11-.68.21-.9,0-1.92.08-2.17-.07.66.02,1.85-.09,1.31.03Zm-16.53-.47c.53-.07,1.96,0,2.84-.02-1,.06-1.99.07-2.84.02Zm2.37.28c.56.06.66-.01,1.3.03-.07.06-.82.03-.88.09-.29-.02-.4-.07-.42-.12Zm-5.69.08c.08-.08-.29-.1-.86-.09.52-.14,1.74.02,2.63-.05.21.04.19.11.64.12.66-.02-.2-.07.02-.12.19.02.49.03.87.03.2.06-.67.1-.02.12-.08.04-1.12.1-1.31.03-.43,0-.29.08-.88.06-.09-.07.32-.06.66-.06.07-.05-.2-.05-.21-.09-.81.05-1.06.18-2.2.18.56-.14-.3-.06-.87-.03-.02-.05.27-.06.23-.12.67-.02.64.05,1.31.03Zm8.35-.44c.5.07,1.35,0,2.18,0,.39,0,.46.03.87.03.39,0,.46-.03.88-.03,1.69,0,3.95,0,6.11.02-.08.17-1.46.05-1.97.06-.63,0-1.02.08-1.53.03-.28,0-.23.06,0,.06-.23.08-.96-.03-.86-.09-1.87.03-3.22-.02-4.59.05-.41-.04-1-.05-1.08-.13Zm57.76.57c-.57-.08,1.31-.11,1.75-.06-.11.09-1.64-.03-1.75.06Zm2.52.77c-.42-.01-.86-.08-1.3-.06-.11-.12,1.47.04,1.3.03.18,0,1.07-.02,1.75-.03.65,0,1.19.04,1.74,0,.05.05.37.07.87.06-.69.09-1.57-.03-2.61-.04-.67,0-1.18.04-1.75.03Zm-1.89-.59c.15.09-.76.04-.46.15-.37,0-.56-.02-.65-.06.39-.03.29-.12,1.1-.09Zm-1.1.09c-.62,0,.24.2-.67.15-.27-.08.66-.13.02-.15.07-.07.6-.07.65,0Zm.81.49c.67,0,.84.1,1.31.03.7.03-1.8.14-1.31-.03Zm-35.38-1.53c.91,0,.84.04,1.53,0,0,.17-1.3-.04-1.11.15-.74.03-.33-.1-.42-.15Zm24.01,0c1.17-.1,2.72.02,3.93.01.96,0,1.55-.11,2.19-.06.05.09-.84.04-1.32.06-.39.02-.79.04-1.1.06-.32,0-.32-.03-.43-.03-.25,0-.87.07-1.09-.03-1.13.05-1.07.05-2.18,0Zm14.67,1.35c-.19.04-.71.04-1.1.06-.14-.11.78-.11,1.1-.06Zm2.24-.42c.33.05.84.07,1.3.1-.7.23-2.68.11-4.16.11-.26,0-.19.06-.23.09-.6-.12-1.18,0-1.97.03-.69.01-.57-.08-1.08-.09.72-.08,1.53.04,2.4-.02.39-.05.4-.15,1.11-.15.06.05-.21.05-.23.09,1.29-.05,2.81.1,2.86-.15Zm-3.84-.68c.23-.13,1.06-.13,1.98-.09.25-.06,1.88-.12,1.74.03-1.25,0-2.94.08-3.72.05Zm13.17-48.91c-1.05.06-2.76.01-3.93.05,1.08-.08,2.71-.08,3.93-.05ZM59.15,54.39c.14-.1.83-.04,1.31-.03-.14.1-.83.04-1.31.03Zm1.55-.15h-1.96c-.06-.09,2.09-.11,1.96,0Zm-.26.31c-.16.1-.59.04-1.1.03.03-.08.82-.07,1.1-.03Zm-13.27-.37c-.1.07-1.08,0-1.53.03.21-.12.88-.02,1.53-.03Zm13.67.65c1.55-.04,2.31.02,3.49,0-.34.12.97,0,.64.12-.71-.04-1.39-.01-1.96-.04-.04,0,.05-.06,0-.06-.18-.03-.86.02-1.09,0-.33.03.05.05-.23.12-.52-.1-1.15,0-1.96-.07-.25,0-.12.03,0,.03-.23.09-.58-.04-.87-.03-.08-.07,1.32-.07.67-.12.42-.07,1.1.05.64.12.21-.03.81,0,.67-.09Zm4.45-.63c-.17.11-1.6.04-2.41.06.47-.13,1.54.02,2.41-.06Zm-21.66.4c.05-.08-.32-.1-.64-.12-.21.02-.34.05-.45.09-.51-.01-.81-.05-1.52-.03.53-.08.11-.1.67-.15.85.05-.05.04-.02.12.76-.01.76-.14,1.98-.09-.09.17.41.09,1.3.1-.03.13-.82.15-1.77.15-.07-.05.18-.06.44-.06Zm20.95.05c.25-.06,1.17.04,1.96,0-.07.1-1.43.02-1.96,0Zm-2.24.42c.03.07-.78.01-1.09.03.1-.12.76-.08,1.09-.03Zm-22.86-.42c-.38.04-.59.1-1.32.09,0-.09.78-.07,1.32-.09Zm-6.11-.05c.17.02.35.03.65.03-.38.04-.58.1-1.32.09.07-.06.6-.06.67-.12Zm32.79-.41c2.98.02,3.77.03,6.76.05.68.05-.79.03-1.31.03-1.6,0-4.13-.01-5.89-.01-.07-.05.18-.06.44-.06Zm-41.75.48c-.94,0-.83-.08-.63-.15.66,0,.44.1.63.15Zm-9.87.34c-.57,0-.94-.01-.86-.09.57,0,.94.01.86.09Zm8.51,0c-1.28.05-2.93.02-4.36-.04-.69-.02-.51.09-1.32.06.04-.02.22-.03.23-.06-1.18-.04-1.62.03-2.41.06.3-.15-.53-.15-1.07-.19.55-.14,1.99,0,2.39.07.16-.11,1.16-.23,1.77-.18.08.08-.82.03-.88.09.2.09.74-.01.88-.03.21.03,1.04-.04,1.31,0,.03,0-.03.06,0,.06.28,0,.51-.05.88-.06.34,0,.31.03.43.03.3,0,.57-.07,1.09,0,.12,0,.32.02.43.03.26.04-.49.16.64.15Zm-.86-.09c-.98.02-1.71-.17-1.75.06.66,0,1.69.04,1.75-.06Zm18.21-.72c.13-.1,1.06-.04,1.53-.03-.1.07-1.08,0-1.53.03Zm-.46.15c.45-.07,1.81,0,2.62-.02-.45.07-1.81,0-2.62.02Zm-29.65-.23c-.43.1-.88.02-1.75.03-.58-.06,1.28-.02,1.75-.03Zm7.42.02c-.78.05-1.89.02-3.06.02-.99,0-4.51-.02-2.61-.04,1.44,0,4.09.01,5.67.01ZM6.57,2.53c.59.14-1.73,0-2.36.05.37-.07,1.26-.12,1.7-.03.31,0,.62,0,.66-.03Zm3.26.1c-.79-.02-1.58-.05-2.61-.04.58-.07,2.52-.09,2.61.04Zm1.5.25c.54,0,.05.1-.02.12-.54,0-.67-.05-1.08-.06.18-.08,1.02.07,1.1-.06Zm63.34,51.4c.63-.05,2.64-.04,3.27,0-1.04.08-2.58,0-3.27,0Zm-60.73.46c-.13.27-1.94.26-3.29.14-.31.01-.03.05.21.06-.63.09-1.42-.05-1.96-.07-.27,0-.1.04,0,.03-.51.04-1.94.03-2.39-.04-.33.05-1.25,0-1.11.12-.58-.09-2.47-.05-4.43-.04-.36-.02-.52-.05-.7-.08.04-.31.08-.64.08-1.37-.06-.83-.07,2-.18.81,0-.72,0-1.14.06-1.11-.01-2.93.04-4.32-.02-5.57,0-.48.03-.69.09-.64-.11-.33-.11-1.56-.05-2.63-.08-.24-.05-1.2-.09-1.76.07-.09.06.32.06.66.09-.55-.04-1.37.04-1.96,0-.25-.03-.12-.03,0-.12-.24.02-.35.03-.65,0,0,0-.96,0-1.09,0-.36,0-.73,0-1.09,0-.26.06-.65.06-.65,0-.25-.08-.55-.09-.89-.01-.34.03-.38.03-.65,0-.18-.03-.22-.03-.44.01-.85.08-1.4.04-1.96,0-.07-.04.32-.04.55-.04-.98.03-2.02.04-2.95,0-.34-.02-.72-.03-1.09,0-.12.04-.48.03-.87,0-.3-.05-.05-.06-.23-.03-.4.03-1.11,0-1.53.05.06.07.38.06.88.05-.87.11.31.18-.2,0-.18-.03-.22-.03-.44-.02-.66-.07.2-.12-.02-.05-.18.01-.47,0-.87,0-.07-.06-.63-.06-.66,0-.1.1-.98-.03-.88-.02-.49.06-.3.06-.65.01-.37-.02-.42-.06-.44.06-.94.09-1.63,0-2.62.04-.55.09-.99.1-1.73-.05-.09-.06.16-.06.43-.05-.38.01-.79-.03-1.53,0-.4-.1-.15-.12-.45.05-.68-.07-.95-.09-1.32,0-.21,0-.71,0-1.09-.05-1.56,0-4.58.02-6.98,0-.47-.08-1.23.03-1.52.02-.48-.06-.32-.06-.66C.03,4.37.04,2.31.04.37c.73.02,1.44.03,2.18.05-.65.04-1.36.03-2.12.02-.01.73-.03,1.49,0,2.26.11.56.07-1.23.06-2.11v-.08c.44,0,1.07.03,1.01.03.85,0,1.2-.07,1.78-.06.5.01,1,.03,1.49.04.32,0,.62.01.92.02.59,0,1.12-.02,1.46-.08,1.93.05,3.51-.04,4.79.07,1.27-.11,3.67-.02,5.24.01.5-.13,2.18-.02,3.71-.02,1.16-.02,2.3-.04,3.28-.05,1.39,0,2.78,0,3.93,0,1.18,0,2.41.08,3.28-.02.56.1,1.04,0,1.74,0,.36,0,.37.03.65.03,1.2-.01,2.72-.03,4.15-.05.77.01,1.48.02,2.18.04.45,0,.85-.05,1.32-.06.49,0,1.01.04,1.52.03.74,0,1.48-.08,2.19-.03.21,0,.17-.04.23-.06.52.02.99.05,1.74.03.66.07,1.03.18,2.38.16.43.09-.91.14-.69.3.25.08,1.14,0,1.53,0,.33-.03-.05-.05.23-.12.82-.02.46.12,1.08.13.81.03.63-.07,1.32-.06-.04.05.26.07.2.12.75.03.84-.04,1.53-.03.05.05-.21.05-.23.09.8-.02,1.5-.05,1.96.04.26,0,.11-.04,0-.03.64-.04,2.08-.03,2.61.04.42-.02.16-.09.66-.03.59-.02,1.03-.06,1.32-.12.29.03.27.1.64.12.18-.02.36-.03.66-.03.01-.07-.36-.09-.19-.18.56,0,.26.02.21.06.61.03.58-.05,1.1-.03.54.02,1.07.25,1.52.07-.04-.04-.65-.04-.65,0-.36-.03-.22-.13-.41-.18.53-.02,1-.04,1.75-.03-.1.07-1.2,0-1.1.09.8.07,2.47,0,2.85-.08.71.03,2.08-.02,1.95.13.81.03.63-.07,1.32-.06.4.02-.13.03-.44.03.08.1,1.38.13.62.25.29.04,1.23.05,1.53,0-.18-.05-.7-.05-1.08-.06.36-.04-.32-.18.68-.18,1.02,0-.24.04-.02.12.74,0,.96-.1,1.31,0,.66-.02-.2-.07.02-.12.41.06,1.44.03,2.18.04.42.05-.4.13.42.15.37,0,.57-.02.66-.06-.04-.04-.65-.01-.65-.06-.21-.1.68-.05,1.1-.06-.18-.12-.87-.02-1.52-.03.38-.16,1.49-.03,2.63-.05-.08.04-.39.05-.45.09,1.43-.05,1.39.09,1.94.16.18,0,.22-.03.44-.03-.32-.1-.92-.16-1.06-.28.48.03.86.06.85.16.68.02.9-.04,1.1-.09.29.02.4.07.42.12.7-.02.27-.07,1.31-.03.34.01.88.02.87.06.81-.02-.08-.09.46-.15h-.66c.23-.06,1.59-.02,1.3.09.97-.02,1.3.04,2.18.04-.51-.06-2.32-.07-1.72-.19.62,0,.5.09,1.08.09.18,0,.22-.03.44-.03.03-.05-.26-.07-.2-.12-.45-.01-.58.02-.88.03-.38-.08,1.35-.06,1.74,0,.02.05-.27.06-.23.12.85-.05,2.31-.04,2.61.07.43-.06-.17-.1-.42-.15,1.21-.08,2.24.18,3.7.07.67-.02.25.11,1.08.06.7.03.46-.08.88-.09,1.04.07,1.71.01,2.39.1.22-.02.24-.07.66-.06.3-.03.3-.1.67-.12-.24-.04-.18-.06.23-.06.05.09-.63.18.19.21.56,0-.29-.05.02-.12.84.02,1.37-.06,1.97-.06.81,0,1.37.11,2.39.1.52.01-.1-.14.67-.09.68-.01.1.04.21.06.13.03.7.01.64.09.88-.03.28-.1.68-.18.65.04,1.74.05,2.4,0,.46.06-.04.1-.24.15.36.07,1.34,0,2.19-.02-.2.11.13.14-.68.18.06.04.54.03.87.03.48,0,.11-.13.24-.18.67,0,.54-.11,1.32-.09.26,0,.19-.06.23-.09,1.42.05,2.73,0,3.92.04.21,0,.17-.04.23-.06.91.02,1.59-.02,2.18,0,.04,0-.04.06,0,.06.18.03.86-.02,1.09,0,.24,0,.16-.06.44-.06.28-.1-.7-.02-.42-.12.99-.08.52.18,1.74.07.06.05-.21.05-.23.09.67.04,1.22-.09,1.53,0,.26,0,.19-.06.23-.09,1.29.05,2.1.01,3.28-.02-.06.04-.65,0-.66.06.26.1,2.41-.12.88-.09.1-.07,1.08,0,1.53-.03-.1.06.14.08.2.12.25,0,.12-.03,0-.03.53-.11,2.1.11,2.41-.06.69-.01.48.1,1.3.06.11-.07-.3-.06-.65-.06.22-.07,1.26,0,1.52.03.38,0-.27-.11.67-.09.47-.01.41.04.42.09.72.02,1.37-.07,2.19-.09.13,0,.26.03.43.03.28,0,.37-.03.44-.03.54,0,1.48,0,2.4,0,.4,0,1.12,0,1.53,0,.56,0,1.07-.08,1.53,0,.1.02.54.05.87.03.03,0,.23-.06.23-.06.08,0,1.51.15,1.75-.03.86,0,1.35-.01,2.62-.02.24,0,.81-.03.88-.03.29,0,.33.06.65.06.69,0,.61-.1,1.09,0l.67-.09c3.23,0,6.36-.03,9.18-.1.2.02.32.06.42.09,2.1-.15,4.25-.13,6.35-.17.57.01.19-.12.88-.09-.12.1.26.13.63.15.17-.09-.59-.06-.42-.15.54,0,1.06,0,1.08.06.3-.02.42-.06.45-.12,1.51-.02,2.03,0,3.71,0-.61.14-.58.16-.7.33.46.02.42-.04.45-.09.6.02.6.12.85.19,1.07-.06,2.02.06,2.63-.05.49-.02.3.06.65.06.24,0,.16-.06.44-.06.76-.02.83.05,1.52.03.12.06.32.12,1.08.09.51-.1-1.78-.04-.42-.09.36-.01.8,0,.87,0,.54-.02.66-.06.88-.06.38,0,.46.03.87.03,1.7,0,3.81-.05,4.8-.02.26,0,.19-.06.23-.09,1.05.06,2.9.02,3.94-.08.45-.01.71.03,1.09.03.41,0,.53-.06.66-.06.26,0,.3.06.43.06.19,0,1.74-.03,1.87-.03.7,0,1.22-.04,2.33-.03-.07-.04-.94-.03-1.51-.03-.61-.04.78-.03,2.04-.03,0,.61,0,1.18,0,1.49-.08-.85-.1,1.16-.15-.31-.08.38.08.67.03,1.88.07.52.12-1.01.12-.01,0,1.53-.05-.12-.09.77-.01.71.07.47.09.78.02.22-.04,1.17.06.9.01,1.21-.02,2.06-.04,3.05-.1-.12-.12.46-.18-.02-.05.84-.06,3.02,0,3.93,0,.19.03.19.06.23.04,1.81-.09,3.82.02,4.8-.03.94-.09,2.37.06,2.41-.03.59.02,1.13.03,1.75-.01.41-.03.97-.03,1.31,0,.24.05.51.06.66.04.87.01,1.94.02,2.84,0,.75-.01,2.11.02,3.28.02.75.08,1.28.09,1.98,0,.8-.02,1.59.02,2.4-.09-.17-.11.21-.18.19.03-.82-.12-.49-.12-1.11-.08.19.04.69,0,1.31-.1-.55-.27-.75-.34.17,0,.12.06.49.06.66,0,.47,0,1.51,0,2.4.01.79.09,1.19.03,1.97.11.5.07,2.75.11,4.16.01.44.07.65.09,1.1.05,1.26-.03,2.54-.04,3.7-.12-.13-.13.54-.22.63-.05,1.2-.25,1.28-.31,2.36-.11-.45-.12,0-.15.63-.15-.82-.21.54-.34.61,0-.35-.03-.38-.03-.66-.04.06-.03.54-.03.87-.08-.53-.1-.11-.15-.67-.05-.09-.06.16-.06.43-.02-.29-.08-.17-.12-.45,0-.06.01-.39,0-.44-.05-.23-.14.1-.15-.24,0-.15.04-.25.03-.43-.03-.43-.06-.61-.15-.89.03-.75-.04-.84-.03-1.53,0-.26-.06-.19-.09-.23.12-1.04.1-3.12.25-3.9v-1.75c-.18-.1-.25.65-.4.82-.02-1.45-.19.12-.27-.47v-.87c-.07-.01-.09.36-.18.19.02-1.2.02-1.38.04-2.4.06-.12.11-.41.12-.86,0-.76-.08,0-.09-.45v-.87s.12.02.12.02c-.03-.86.1-1.5-.03-1.75-.05.01.06,1.31-.09,1.08l.02-6.76c-.01-.29-.05-.35-.06-.66-.07-.01-.09.36-.18.19-.03-1.06-.11-.95-.06-2.19-.09-.23-.06.48-.06.86-.03.69-.04-.39-.03-.66.04-1.51-.07-4.08.1-4.57-.05-.43-.12-.72-.09-1.76.04.06,0,.65.06.66.02-.04.03-.21.06-.21-.02-.52-.04-1.02-.12-1.11-.02-1.52.09-2.7,0-3.93.09,1.13.07-.91,0-1.09,0-1.37,0-2.96.01-4.15-.02-1.59,0-3.41.02-5.13,0-.84,0-1.66,0-2.41,0-.52-.02-.98-.06-1.34.02-.28.06-.07.09-.07,0-.17,0-.28.03-.33,0,0,0-.02,0-.03-.41,0-.4.06-.78.06-.26,0-.6-.07-.88-.06-.14,0-.3.02-.46.04-.15.02-.31.03-.57.02-.48,0-.69-.03-.64-.09-.47.03-.54.13-1.54.09.06-.03.44-.02.44-.06-.25-.05-.92,0-1.52-.03-.05,0-.41-.06-.43-.06-1.59-.03-3.36.05-4.37.02-.21.02-.34.05-.45.09-.84-.11-2.38-.03-3.49,0v-.09c-.48.02-1.17.01-1.31.09-.67-.03.26-.08.23-.12-.75,0-1.04.06-1.54.09-.95-.03-2.27-.02-3.06.05-.3-.02-.56-.04-.87-.06-3.1.13-6.7.17-10.27.1-.52.03-1.04.06-1.54.09-.87-.02-1.55-.07-2.61-.07l.02-.12c-.79.05-2.14.18-2.84.05.27-.08,1.14,0,1.53,0,.54-.03.51-.13,1.32-.12-.14-.04-.46-.06-.86-.06.71-.05.35-.19.69-.24.8-.13,1.94-.04,3.07-.11.42.01.94.01.86.09.31-.02.58-.04.88-.06-.05-.05-.37-.07-.86-.06.51-.07,2.06-.02,2.62,0-.25.1-.11.08.2.15.55,0,.74-.11,1.31-.03-.03-.04.05-.05.23-.06-.04-.09-1.8.04-1.52-.1.95,0,1.96,0,2.61.04.82-.02.03-.11.46-.15-.67,0-1.24.07-1.75,0,.04-.06.16-.1.45-.12-.12-.04-.33-.08-.64-.09-.8.05.37.09.2.15-.46-.02-.42.04-.45.09-.67.02-.79-.03-1.31-.03.07-.04.55-.02.88-.03-.32-.14-1.17.01-1.54.06-.81,0-1.05-.08-1.51-.13-.45.02-.08.15-.89.12-.37-.03-.47-.1-.63-.15-.3.03-.3.1-.67.12-2.06,0-4.79-.01-7.42-.02-.5-.01-.25.09-.67.09.14.04.46.06.86.06-.61.1.22.19.4.28h-.44s-.44,0-.44,0c.32-.09.2-.18-.63-.19-.17.09.75.04.42.15-.84-.09-1.46-.04-2.19.03.38.06.83,0,1.31,0,.85.01,1.29.09,1.95.13-.31.04-.81.16-.02.18-.72.04-1.42.09-1.98.15-.6.02-.43-.06-.86-.06-.6-.03-1.11.02-1.75.03-.36,0-.37-.03-.65-.03-.74,0-1.32.04-1.97.03-1.32-.03-4.03-.01-5.45-.01-.4,0-1.07-.09-1.31.03-.6.02-.43-.06-.86-.06-.37-.01-.42.02-.44.06-.7.03-.29-.1-.86-.09-.8-.02-1.22.07-1.75,0-.26,0-.19.06-.23.09-.65-.06-1.65-.08-2.83-.07-.21.02-.34.05-.45.09-2.41-.01-8.38-.04-12.44,0-.6.02-1.1.04-1.75.06-1.42.02-2.78-.04-3.93.02,1.12.03.77.09-.45.09-.69,0-4.51-.01-6.33-.02-.36,0-.37-.03-.65-.03-.39,0-.98.03-1.53.03-.46-.01-.85-.03-1.09-.03-.51,0-.89.09-1.97.06-.22,0-.69-.06-.65-.06-.33,0-.72.08-1.1.09-.12,0-.39-.03-.65-.03-.56,0-1.14.06-1.75.06-.56,0-2.91-.03-3.71,0-.24,0-.22.08-.66.06-.06-.05.21-.05.23-.09-.39,0-.46.04-.88.03-.04.04.04.05.21.06-.11.08-.69,0-.43-.06-.52.04-.79.04-1.31.03-.16,0-1.22.05-1.53.06-.41-.01-.84-.02-1.31-.03-1.31,0-2.98.01-4.15.02-.56,0-1.21.06-1.75.06-.35,0-.37-.02-.65-.03-.65-.02-1.26.03-1.75.03-.43,0-.79-.06-1.08-.06-.41-.01-1.03-.03-1.31-.03-.19,0-.58.06-.66.06-.36,0-.37-.03-.65-.03-.39,0-.47.03-.88.03-.45-.01-.88-.02-1.3-.03-.63,0-2.33.12-3.49.02-.19.06-1.8.08-3.07.08-.3,0-.77-.02-1.09-.03-2.34.01-4.76.09-6.77.04-.43-.01-.8-.09-1.3-.03.03.04.39.03.65.03-.48.05-2.51.06-2.39-.07-.16.08-.54.03-1.32.06-.38.01-.92.1-1.97.06-.09-.07.32-.06.66-.06-.13-.03-.49-.11.23-.09-.13-.09-.47.03-.87,0,.17-.03.24-.07.23-.12-.61-.03-.57.04-1.09.03.26-.12-.65-.15-1.08-.09.26.1,1.2.12,1.28.25-.33.05-.93.05-1.11.12-.31-.04-.32-.12-.63-.15-.63,0-.54.14.2.12-.79.11-1.4-.07-1.51-.16-.41.06-1.29.06-1.12.21-.31,0-.62,0-.66.03-.44-.06-1.43-.05-1.51-.16.57,0,1.09,0,.86.09h1.09c.19-.11-1.05-.04-.85-.15.69-.03.58-.01,1.09.03-.05-.1-.96-.09-1.07-.19-.67,0-.99.11-1.53.03.03-.14,1.6-.22,1.35-.3.52-.06,1.17.03,1.97-.03-.37.06.02.04-.02.12,1.03.01.44-.21,1.55-.18.56,0,.26.02.21.06.48.02.32-.06.66-.06,1-.03.85.09,1.74.07.73-.04-.44-.08-.2-.15.13.05,1.03,0,1.08.06.52,0-.23-.08-.42-.09.54-.05,1.55.03,2.19-.06-.4-.11-.77.05-1.31.03-.09-.07-.95-.08-.42-.15-.99-.04-.87.08-1.75.06-.76-.01-.17-.08-1.09-.03-.43.02-.68.05-1.1.06-.41-.04-.94-.07-1.52-.1-.75.03.61.01.21.09-.84.1-2.72-.06-3.06.05-.36-.04-.72-.08-1.52-.07.39-.16,1.21.07,1.75-.03-.74-.12-1.77-.2-2.58-.31-.79.1.55.16,1.07.19-.1.11-1.69,0-1.33.18-.37,0-.56-.02-.65-.06-.39.08-1.46.06-2.41.06.07-.06.97,0,.88-.09-.49-.03-1-.06-1.52-.1-.56,0-.45.1-.46.18-.52-.02-1.59.03-1.74-.03-.04-.14.95.04,1.32-.06-.6-.14-1.27.03-1.96-.04-.04.05.26.07.2.12h-1.96c-.67-.07,1.56.02,1.32-.09-.52-.07-1.58.04-2.4.02,1.16.1-1.21.05-1.97.06-.62-.05,1.12-.02,1.53-.03-.3-.13-1.68-.03-2.18,0-.56-.08-2.17-.14-2.83-.04.29.07,1.52.02,2.18.04.03.07-.78.01-1.1.03-.79,0-1.72-.02-1.97.06-1.23-.09-2.14-.04-3.7-.07-.24,0-.16.06-.44.06-.58,0-.71-.04-.64-.12-1.48.09-2.38-.07-3.71,0-.43-.06.1-.06.23-.12-.35,0-.37-.03-.65-.03-.28,0-.3.09-.01.09-.61.12-1.56.05-2.41.09-.02.04-.05.09.21.09-.52.06-1.17-.03-1.97.03.48-.06.1-.17-.41-.18.16-.09.46.03.87,0,.05-.07-.17-.1-.64-.09-.96.02.1.16-.46.21-.96-.06-1.05-.06-2.39-.07v-.09c-1.08,0-1.4.11-2.62.09.32-.08-.35-.07-.43-.09-.14-.04.16-.13-.42-.12-.73.07.78.09.41.22-.87.02-.61-.12-1.52-.1-.31.01-.02.05.21.06-.48.08-.94-.03-1.52-.03-.53,0-1.2.05-1.75.06-.57,0-.98-.05-1.39,0-.07-.05.17-.05.17-.09-.62-.01-.72.1-1.18.03-.11-.07.55-.03.55-.09-.65-.03-.59.04-.91.06,0,.07,0,.16,0,.27.03-.01.05-.1.06-.21.26.03.57.05.59.12-.09,0-.29,0-.47,0,0,.12,0,.23,0,.26-.01.05-.04-.33-.06-.25-.07.37-.13.78-.16,1.86.03.55.07-.58.12.03-.02.58-.04,1.11-.07,1.7h-.09c-.04.45,0,.48,0,.86-.02.77-.11.8.03,1.31.03-.45.11-1.42.12-.2.07-.36.02-1.66.04-2.4.11-.07.06.99.06,1.54,0,.69,0,1.48,0,1.96l-.15-.02c0,.91.06,1.2.15.89v1.31c-.04-.08-.05-.39-.09-.45.02,1-.06,1.35-.04,2.4-.02-.05-.03-.22-.06-.23-.02,1.7-.03,2.58-.04,4.14.11.19.15.86.12,1.98.12-.05-.03-1.24.07-1.74.07.38,0,1.67.02,2.4-.05.07-.06-.18-.06-.44-.03.77-.11-.05-.15.42-.03,1.01.08-.29.09.45.03.99-.14.47-.1,1.52,0,.42.11-.32.15.24-.08.51.05,1.87-.06,1.3.05,1.06.05,2.1.02,3.06.15.33.08-.9.1-1.52.12.2.01.95.03,1.53.01.52.08.76.06,1.32-.1.21-.1-.32-.09-.89-.07.02-.07.54-.06,1.08-.08-.12-.11-.3-.15.2.01.29.13-.24.15.46.08.25.11-.93.15-.2,0,.56-.02.26-.06.21.03,1.13,0,1.42,0,2.62-.15,0,.05-1.1-.09-1.1-.09.45-.02.63-.06,1.3,0,.48.1.03.09.01.11.21-.02.78.12.67-.02.81.07,1.39,0,1.96.1.51.03,2.49.05,4.15,0,.93.04,1.02-.03,1.74,0,.24.06.16.06.44-.03,2.8.07,4.45-.02,6.76,0,.24.06.16.06.44.01.53-.06.47-.03,1.09-.11.22-.1-.47-.15-.67.06-.38.15-1.24.07-1.96-.09.11-.01.8-.06,1.3-.01.12-.09.11-.09.21-.03.38-.01.86-.03,1.31.1.28.03-.7.12-.42.04.34.1,1.67.15.67.04.13.07,1.97-.04,1.69.06.5.06,1.11.05,1.85.56,0,1.19.02,1.83.03,1.98-.01,4.46-.03,6.06-.05.6-.02.43.06.87.06.48-.03,1.03,0,1.09,0,.35-.01.34-.11,1.1-.06.4.1-.38.06-.67.09-.14.02-.3.08-.45.09-.28.02-1.21-.09-1.1.03.07.05.31-.02.65,0,.09,0,.14.15.86.09.1-.07-.99.01-.64-.09,1.03-.03,2.32.08,3.26.07,0-.11-1.42-.03-1.73-.1-.29-.12.49-.1.46-.18,2.18-.05,3.99.02,5.66.08,1.29-.09,2.78-.11,4.15-.05.18-.11-.23-.15-.85-.16.08-.07.96-.03,1.1-.09,0-.12-.62,0-.87,0-.72-.01-1.5-.02-2.4-.04-.24,0-.16.06-.44.06-.79.02-1.05-.04-1.52-.06-.5.02.26.05-.23.09-1.49-.06-3.15.04-4.58-.04.61-.1-1.21-.08-1.29-.19-.58-.01.18.17-.67.12.03.04.39.03.65.03.69.03-.39.04-.66.03-.49-.03-.76-.1-1.52-.1-.23.09.48.06.87.06-.04.1-.64.02-1.1.03-.91,0-2.29.05-3.49.02-.09-.07.32-.06.66-.06-.38-.15-1.23,0-1.54.06-1.85-.01-1.73-.15-2.81-.13-.22.12.68.04,1.01.07-.47.06-1.01.07-1.53.06.01-.41.02-.83.03-1.22,0-.19,0-.37.01-.55,0-.23,0-.44,0-.64,0-.16-.06-.42-.06-.45,0-.33.06.04.06,0,0-.43-.06-.92-.06-1.32,0-.84.11-1.05.1-1.74,0-.26-.06-.19-.09-.23.04-2.04-.08-3.87.04-5.23,0-.27-.04-.1-.03,0-.05-.74-.04-2.76.04-3.27-.03-.46-.04-.97-.09-1.32.02-1.75.09-4.15.17-6.09.14-.28.19-.91.31-.83-.03-1.88,0-2.75.01-4.58-.02-.21-.05-.34-.09-.45,0-.51,0-.84.03-1.09,0-.52-.08.23-.09.42-.04.99.12,1.23.03,1.97-.06-.44-.09-1.11-.09-1.98-.03.09-.06.18-.06.43-.05-.14,0-.34,0-.44.01-.16.04-.57.12-.42,0-.29,0-.58,0-.87,0-.27.06-.65.06-.65,0-.4-.1-.43-.06-1.1.11-.05.08-1.21.19-1.29-.04-.67-.12.3-.15-.24-.01-.68.04-1.05.09-.64-.09-.55.08-1.6-.09-1.54-.11.16.09,1.04,0,1.09-.1.22-.05-.95-.06-1.32,0-.19-.06-.56-.06-.66-.02-1.15-.02-2.93.07-3.48-.04-.59.03-1.55,0-2.4-.01-.52-.06-1.01-.09-1.32-.09.95.04,1.73,0,2.62-.11-.4-.09-1.31-.09-1.98,0-.69.07-1.57.04-2.62.1-.18.06.57.12.67-.03-.67-.09-1.08-.12-1.76.05-.23.05-.46.05-.77,0-.15,0-.32,0-.51,0-.12,0-.26.01-.43-.04-.04-.03.16-.03.34,0,.16,0,.48-.06.27,0-.56.04-1.14-.06-1.27.02-.21.05-.43.08-.64.17.02.3.04.39.08.18-.03.53-.02.36-.12.39-.03.65.1.59-.03.52,0,.68.11,1.11.16.6-.03-.57-.06-.2-.15,1.51.1,2.77-.01,4.14.04.22-.02.23-.07.66-.06-.59.13.49.05.63.15.27-.06,1.79-.09,1.33-.15.23-.1.43.04.65.03.62-.03-.31-.08.23-.12,2.11.03,3.99,0,5.68-.02.35,0,.38.03.65.03.57,0,1.03-.07,1.75-.06.22,0,.65,0,.86.06.79,0,1.78-.02,2.62-.02,2.4-.03,4.25,0,5.43.23-.09.12-.02.22.62.25-.06.05-.38.07-.88.06.47.06-.54.23.62.25-.76.02-.72.15-1.12.21-.18.02-.88-.02-.66.06-2.21-.08-4.73-.06-6.97-.11-.36,0-.68-.06-1.08-.06-.56,0-1.13.04-1.75.03-.38,0-.47-.03-.87-.03-.76,0-1.21.1-1.75,0-.24,0-.16.06-.44.06-.6,0-1.17,0-1.75,0-.25,0-.65-.06-.65-.06-.24,0-.41.05-.66.06-.52.02-1.08-.04-1.52-.03-.41,0-.51.05-.88.06-.7.02-1.4,0-2.18-.04-.37-.01-.41.02-.44.06-.65-.03-1.42-.03-2.27-.03-.42,0-.87.01-1.35.02-.2-.05.05-.13-.3-.15h0c.04.32.12,0,.15.25,0,.31-.01.52-.02.72,0,.5,0,.99,0,1.72-.04-.1-.06-.29-.06-.66-.06.36-.04.64,0,.83.04.19.09.28.09.28.02,1.02-.08-.31-.09.42-.02.46.04.42.09.45v1.53c-.07.35-.04-.03-.13-.02v.65c.02.46.13-.79.12.45,0,.89-.04-.04-.12.2,0,.6-.05.43,0,.87,0,.48.13.11.18.24v1.53c-.03-.17-.07-.24-.13-.23.04.28,0,1.15.12.89.02,1.22-.03,1.83-.13,2.17-.01.41.15,1.02,0,1.09.03.6.13-.49.09.67.03-.09.06-.19.06-.43,0,.12.09,2-.07,1.52,0,.66.11.54.09,1.32h-.09c.05.13.05.65.09.87,0,.64-.07.8-.13,1.08.14.05.07,1.63.09,1.97,0,.05.05-.45.03-.65.09,1.2-.04,2.69-.01,4.15-.11.36-.19.59-.28,1.49-.02.67.08.43.06,1.1.11-.63.13.7.18-.19.06.28-.02,1.55.15,1.11.08,2.55-.03,5.95,0,8.29-.11-.14-.05-1.32-.06-2.19,0-.8.01-1.66-.03-2.19-.04.41-.05,1.1-.13,1.29-.02.88.13.55.12,1.33h-.06c.01,1.03-.04,1.62-.1,2.16,0,.24.06.16.06.44v1.53c-.05.52-.07.13-.1.42,0,.86.05-.06.09.45,0,.58-.03,1.36.09,1.1-.07,1.32-.01,3.29-.04,4.36-.07-.74,0-2.4-.02-3.49-.05-.26-.07-.64-.15-.67-.01.57,0,.94.09.88-.06.82.02,1.45,0,2.62-.04-.27-.05-.09-.09-.01.01,1.33.03,2.59.04,4.29.02,0,.06,0,.1,0,.18.04-.25.09-.02.12.4,0,0-.16.53-.12.16.07-.2.16-.49.18-.01.11.66.05.54-.09.18.01.34-.02.19-.03,2.06,0,4.6.01,7.12.02,2.61.01,5.19.02,7.26-.02.25,0,.13-.03,0-.03.52,0,1.4-.01,2.4-.02.12.1-.79.04-.23.12.58.07.91.02,1.09.03.56.04-.78,0-1.1.06.81.04,1.54.08,2.39.13.24-.14,1.04-.2,1.78-.27.53.02,1.12.03,1.08.13,1.01-.1,2.27,0,4.37-.02.17.03.23.07.2.12.46.02.42-.04.45-.09,1,.03,2.16,0,3.49,0,1.94,0,3.83.08,5.44.11.78.01,1.57-.06,1.96.04.29-.01.35-.05.66-.06.56,0,.76.06,1.08.09,1.69-.11,3.98.01,6.77-.01.52.07-.33.06-.24.15,1.05,0,.85-.19,2.2-.15-.2.05-.62.08-.46.18.79.02.86-.12,1.53-.03-.15.06-1.02.02-1.1.09.51.07,1.14-.1,2.19-.06.06.08-.32.1-.89.09.4.11.77-.05,1.31-.03.05.06.96.01,1.08.06.59-.05,1.39-.19,1.98-.15-.23.04-.23.11-.46.15-.39,0-.46-.04-.87-.03-.14.14,1.23.09,1.74.07.05.09-.51.09-.46.18l.89-.12c.76-.01.75.08,1.07.13-1.04,0-3.48.12-4.36-.04-.49.02.26.05-.23.09-.93-.01-2.25.02-2.83-.04-.21,0-.17.04-.23.06-1.28,0-2.13-.1-3.06.02-.59-.09-2.84-.04-3.71.02-.31-.08-1.24-.07-1.95-.1-.05.12.88.1,1.29.16-.3.12-.45,0-1.09,0-.47,0-.11.11-.24.15,1.35.03,1.8-.07,2.42-.15,2.74.03,4.33,0,6.32.05-.54.04-.44.16-1.11.18.08.07,1.16,0,1.3.06.08-.06-.03-.1-.42-.09.06-.1,1.09-.05,1.75-.06.01.05-.12.12.2.12.79.03.12-.15,1.1-.09-.39.1-.4.07.2.15.37-.02.15-.07-.21-.06.05-.04.65,0,.66-.06.52.05,1.02.08.63.19.89.02.89-.1,1.97-.06.86,0,.65.13,1.51.13.62-.04,1.29-.07.9-.18,1.21,0,1.81-.05,1.77-.15.62-.02.56.04,1.09.03.09.07-.32.06-.66.06,0,.09.49.11.85.16.87-.05.67-.05,1.53,0,.26.1-.71.02-.45.12,0,.07.59,0,.44-.06.72,0,1.09-.05,1.97-.03.08-.07-.02-.12-.2-.15-.29.04-.95.03-1.53.03.16-.15-1.16-.1-1.06-.25,2.5.03,6.9-.02,9.16.05-.04.14-.51.03-.88.03-1.84,0-4.65-.01-6.55-.02.59.06,1.72.05,1.94.16.74.03.29-.12,1.1-.09.49-.02.3.06.65.06.51.05.59-.06.66-.06.1,0,.28.03.43.03.28,0,.37-.03.44-.03.97,0,1.74.07,2.84,0,.37-.01.41.03.43.06.66-.02-.2-.07.02-.12.55,0,.52.07.86.09.47,0,.11-.11.24-.15,1.72-.02,3.33-.03,4.81-.05.24,0,.32.06.43.06.24,0,.95-.02,1.31-.03.44,0,1.1.03,1.31-.03.17.03.59.02.65.06,1.1-.09,3.58.03,5.24-.05.18.1-.57.06-.67.12-.87-.03-1.31-.03-2.18,0-.42.01-.19.12-.89.09.67.11,1.3-.06,1.97-.06.21.07,1.46,0,1.29.13.39-.05-.21-.13.46-.18.62-.02.56.04,1.09.03.23-.09-.48-.06-.87-.06.32-.07,1.49-.08,2.19-.09.61,0,1.25,0,1.74,0,.27,0,.65.06.65.06.26,0,.31-.06.44-.06.49-.02.85.07,1.31-.03.37-.01.41.02.43.06.64,0,.68-.07,1.32-.06-.06.05-.39.07-.88.06.14.06.66.07.86.12.51,0,1.02-.02.89-.12.15.02,1.29.08,1.09-.03-.2-.08-.84.04-1.53,0,.19-.05.71-.04,1.1-.06-.12-.09-1.17-.06-1.29-.16-.98.04-1.16,0-1.74-.07.11-.07.92.12,1.09-.03-.05-.04-.43-.03-.44,0-.7-.07,1.03-.2-.63-.19.12-.14,1.74.07,1.98-.09-.81-.03-1.29-.11-2.39-.1-.64.02.27.08-.02.15-.55-.03-.54-.13-.85-.19-.51,0-.91.06-1.31,0,.82-.16,2.28-.02,3.72-.08-.1.05-.69.02-.45.12.84.03.37-.13,1.32-.09.04-.04-.04-.05-.21-.06.73-.06,1.63-.1,1.78-.24.7-.02.67.05,1.08.06.97.03,1.32-.04,2.19-.03.03.07-.19.1-.67.09.64.15,2.32,0,2.38.19.92-.04-.02-.18-.41-.22-.03-.07.78-.01,1.09-.03-.66.09.32.13.41.22,1.08-.05,1.55-.19,3.08-.18.59-.02.41.06.64.09.18,0,.22-.03.44-.03.45-.03-.62-.08.23-.12.47-.01.41.04.42.09.66-.04,1.2-.1,2.19-.09.57.01.6.1,1.52.06-.03-.04-.4-.03-.65-.03.66-.09,3.06.02,4.37-.05.44.03.17.16.85.16.33-.01-.08-.04.01-.09,1.26,0,2.52.01,3.5-.02.02.09.25.15,1.07.13-.14-.03-.5-.03-.42-.09.43-.04.33.06.43.06.46.02,1.01-.08,1.53,0-.74.11-1.46.02-2.63.05-.52,0-.42.11-1.1.09.68-.11-1.59-.03-1.95-.1l-.67.09c-.55-.03-.54-.13-.85-.19-.67.09-.75-.07-1.74-.03-.33.18,1.32.13.62.28-.56-.05-1.09-.11-1.06-.25-.94-.03-1.01.08-.45.12-.15.05-.51.02-.43-.03-.78.02-1.05-.04-1.52-.07-.42-.01-.34.14.21.09-.3.09-.96-.06-1.31.03-.07.05.2.05.21.09.37-.04,1.39.01,1.32-.09.87-.03.65.09,1.52.07.11.07-.42.04-.45.09.07.07.39-.03.44-.03.28,0,.34.07.65.06.36,0,.58-.07,1.1-.06.3,0,.19-.08.23-.12.89,0,.99.09,1.51.13.68.02.63-.08.89-.12.5.04.69.13,1.07.19.44-.12,1.76-.12,2.86-.15-.22.11.85.04,1.3.06.68-.02.45-.16,1.54-.12-.16.03-.4.05-.66.06.05.07.96.02,1.09,0-.17-.03-.25-.07-.42-.09-.59-.09-1.03-.03-.64-.12h-1.96c.4-.11,1.37-.01,2.4-.03.77-.01,2.13-.02,3.49,0-.17.09.21.11.19.18,1.14.04,1.65-.01,2.62.04-.1.07-.4.11-.89.12.61.1.97-.11,1.54-.12.77-.01.52.11,1.3.09.41,0-.04-.13-.64-.09.46-.15.77.05,1.3.06.89-.03.28-.1.68-.18.86.02-.28.13.63.15.13-.07,1.11-.02.89-.15.66.06,1.88-.03,1.3.06.59-.02,1.73.04,1.97-.03.38.02.02.06-.01.09.7.03.32-.1.67-.12.34.12.6-.05,1.75,0-.14.06-.47.1-.67.15-4.12-.05-5.77.09-9.4.1-.31.01-.03.05.21.06-.77.02-1.58.06-2.19.06-.18,0-.37-.06-.65-.06-.15,0-.53.03-.44.03-.34-.02.3-.09-.86-.06.39-.19,1.52-.04,2.19-.09-.93-.11-2.3-.17-3.9-.19.12-.02.23-.05.23-.09-.88.03-.51.15-.25.24.95.03.73-.1,1.54-.09-.13.14-.99.28.4.31-1.77,0-4.24.13-6.33.01-.68.09-2.23.05-3.5.05-.42.01-.19.12-.88.09-.51-.08-.5-.14-.63-.22-1.06.01-.83,0-2.19.03-.1.06.14.08.2.12.35-.06,1.22-.05,1.54-.12,1.3.2-.91.26-1.99.21.02,0,.26-.06.23-.06-.11,0-1.3,0-1.1.06-1.26-.01-3.96,0-5.9.05-1.34.03-2.77-.03-3.93,0-.56,0-1.27.08-1.98.09-.86.01-1.7,0-2.19.09.12.1,1.25.07,1.28.19.97-.06,2.58-.03,2.82.1.23-.11.92-.16,1.77-.18.19-.09-.3-.08-.2-.15,1.33-.03.68.17.41.25.2.02,1.1,0,1.74.03.42,0-.32-.11.24-.15-.08-.06-1.05.1-1.53,0,.22-.04.6-.06.67-.12,1.59.04,3.46,0,5.89.01.69.06-1.35-.01-1.1.09.02.08.72.06,1.3.06.57.01.19-.12.88-.09-.54.09.27.12.64.09.5-.03.02-.14.44-.03.34.09.98.12,1.52.06-.21-.06-.96-.05-.85-.15.69-.01.56.08,1.08.09.18,0,.22-.03.44-.03.16-.08-.44-.06-.64-.09-.2-.07.64-.03.66-.03.5-.02.52-.05.88-.06.98,0,2.28,0,3.49,0-.56.08-.84.02-1.75.03.01.08.72.06,1.3.06,0,.09.48.11.85.16.71-.05-.56-.08-.19-.18,1.27-.02.86.19,1.5.25.81,0,1.38.03,1.96.07.4,0,.15-.1.45-.12,1.12-.02.89.14,2.17.1-.14.14.8.13.62.28-.74-.08-1.54.03-1.98.09.06.04.54.03.87.03-.17.03-.24.07-.23.12-.48,0-.69-.03-.64-.09-.31-.02-.55.12-.66.03-.31-.05-.19-.07.44-.06-.4-.06-.2-.16.24-.18-.29-.09-.76.05-1.31.03-.06-.07-.33-.12-.19-.21-.66,0-.23.15-.89.15-.08.08.84.03.64.12-.31-.02-1.13.03-1.09-.03-.36.04-.55.11-1.32.09.38-.1.29-.19-.85-.16-.57-.07.59-.08.02-.15-.27.03-.41.09-1.1.06.09-.05-.16-.06-.43-.06.15-.07.46-.18.03-.24-.39.03-.29.12-1.1.09-.27-.12.73-.06.46-.18-.86-.04-.58.08-.89.12-.42-.01,0-.14-.86-.09-.13.03-.08.11-.67.15.18.07.55-.08,1.31-.03-.35.08.48.06.64.09.09.02-.06.07-.01.09.07.03.55.03.42.09-.26.03-.59.04-1.1.03.08-.04.39-.05.45-.09-.54,0-.91.01-1.1.06.08.15,1.11.12,1.95.1.21.09-.49.05-.88.06.4.08.61.15-.03.21.05.03.43.02.43.06.55,0,.74-.11,1.31-.03-.18.14-1.98.07-3.29.08-.74,0-1.31.05-1.97.03-.02-.02.67-.05.88-.03-.68-.07-.75.03-1.31.03-.33,0-.62-.06-.65-.06-.38,0-.68.08-1.1.09-.35,0-.49-.03-.87-.03-.72,0-1.67.07-2.18,0,.19-.15,1.06-.21,2.2-.15-.06-.1-.98-.09-1.73-.1-.64.02-.25.05-.24.12-.44-.01-.68,0-.66.06-.39,0-1.09-.03-.88.06.01.06.82-.05,1.09.03-1.03.08-2.25,0-3.49.02-.28,0-.55.05-.88.06-.96,0-2.29.02-3.28.02-1.65,0-3.47.02-4.58-.01-.04,0,.04-.06,0-.06-.21-.03-.6.06-.88.03.48-.2-.47.06-1.53,0-.26,0-.19.06-.23.09-.89,0-2.11.02-2.39-.07-.69-.02-.51.09-1.32.06-.16-.11.14-.15.89-.12.03-.09-.65-.09-1.3-.09-.17.09.21.11.19.18-10.41.1-20.89,0-30.99-.02-1.7,0-3.09,0-4.8-.01-.35,0-.38.03-.66.03-.75,0-2.18-.02-3.49-.04-.73,0-1.41.04-2.19.03-1.04-.02-4.15-.04-5.89-.01-1.01.02-2.31.11-3.71,0-1.13.04-1.97.06-2.84,0,.14.03.5.03.43.09-1.62-.05-2.84.01-4.8-.01.08-.04.39-.05.45-.09-.89-.04-.57.1-1.11.12-.51,0-.11-.13.02-.15-.62.01-.94.07-1.54.09-.69-.05-1.13,0-1.96,0-.38-.01-.75-.02-1.09-.03-.54,0-1.44.09-2.63.05-.31,0-.56-.06-.65-.06-.38,0-.58.1-1.09,0-.73.02-2.54.08-3.51.11-.41,0-.77-.03-.87-.03-.39,0-.46.03-.88.03-.45,0-.44-.06-.65-.06-.11,0-.4.03-.66.03-.94,0-2.4-.06-3.27-.04-.38,0-.64.05-1.1.06-.16-.03-.39-.05-.65-.06-.45.06-1.33.03-1.97.03-.47,0-1.04.05-1.53.06-.39,0-.45-.04-.87-.03-1.6.01-3.73.03-5.48.05-.41,0-.43-.03-.72-.03,0,0,0-.03,0-.04-.01-.89-.02-1.74-.04-2.5,0-.36-.01-.69-.02-1,0-.28,0-.53,0-.76,0-.47.04-.32.06-.65-.02-1.18-.06-2.18-.05-3.5.03-.14.03-.5.09-.43,0-.26-.06-.19-.09-.23.02-1.42-.13-2.45,0-3.49-.01-.79-.01-.78-.03-1.75.04-.24.06-.62.15-.42,0-.98-.07-.29-.12-.67-.03-1,.08-1.04.07-1.96,0-.4-.1-.15-.12-.45.06-1.09-.02-2.61.01-4.15,0-.46.06-1,.06-1.52.01-1.34-.11-3.77.04-4.58-.02-.21-.05-.34-.09-.45.08-1.44-.07-2.3.01-3.93-.13-.36-.06-.86-.09-1.76-.03-.08-.09.35-.09.42,0,.23.06.4.06.66,0,.33-.04.41-.03.65.01.32.06.59.06.88,0,.48-.03.79-.03,1.31,0,.52.03,1.24,0,2.18-.01.27-.06.6-.06.65,0,.24.04.96.03,1.53,0,.73,0,.83,0,1.75,0,.77,0,1.85,0,3.05-.05.06-.05-.21-.09-.23,0,.66.01,1.44-.1,1.3,0,.26.06.19.09.23.07.05.02-.77.03-1.09.11.66.07,2.17.02,3.28-.04.54.12.7.03.88-.06.44-.06-.1-.09-.45-.02-.22-.07.06-.06-.44,0-.18.03-.21.03-.43.04.04.02.4.03.66.08-.69-.02-1.44.04-2.18-.17-.35-.01,1.7-.19,1.28.04,1.21.19,1.6.11,3.07.13.3.04-1.03.16-.85,0,1.01,0,1.89-.07,2.39-.04-.38-.04-1.62-.15-.89.01.42.12.19.09.88-.17-.21-.12,1.43-.04,1.74.05-.19.07-.67.06-1.3.12.22.02,1.1.03,1.75-.12-.52-.12.39-.19.85.12.26.11-.76.18-.19-.02.59-.13.53-.13,1.29.01.63.05-.35.06-.43.03,1.07.04,2.38.04,3.78,0,1.53,0,3.16,0,4.7,0,.29-.06,1.35,0,1.84.08,0,.16-.02.23-.03.78.03,1.97.04,3.14.04.88,0,1.73,0,2.22,0-.17.05-.54.06-.99.07-.47,0-1.03,0-1.52-.01-1.12,0-2.2,0-3.14,0,0-.57-.02-1.09-.02-1.58-.11.14-.08.87-.18.38.01.61,0,1.06-.02,1.42.29,0,.53.01.79-.01-.23-.01-.41-.02-.75-.03,0-.17.02-.43.03-.79.05.18.06.42.06.7.64,0,1.39.08,2.26.07.16-.07-1.41.01-.85-.09,5.21.01,12.52.03,18.06.04.35.01.74.02,1.09.03.49,0,.86-.03,1.31-.03.73.01,1.6.15,2.18.04.07.07.87.04,1.08.09.28,0,.23-.06,0-.06,3.85-.15,8.08.06,11.14-.06.31.01-.03.03,0,.06.76-.03,1.57-.06,2.63-.05-.03.08-.86.04-.89.12.69,0,1.66-.11,2.19-.03-.02.13-.92-.04-1.1.09-.69.01-.76-.06-1.52-.03-.18,0-.22.03-.44.03-.07.07.04.12.42.12-.7.03-.84.17-.9.21.34.12,1.28,0,1.74.07.11.1-.7.02-.88.03-.23,0-.12.06-.23.06-.65,0-1.44.01-2.4.02-.36-.06-.31-.23.25-.24.17-.07-.79-.13-.86-.06-.68-.05.46-.1.46-.15-.47,0-.7.02-.67.09-.69.01-.48-.1-1.3-.06.39-.12,1.41.04,1.76-.09.75,0,1.63.14,2.4.04.31-.13-1.73,0-.86-.12-.91.07-1.52,0-2.19.09-.42-.01-.94-.01-.86-.09-.92.09-2.76.03-4.36-.01-.83.07-1.99.1-2.63.05-.61.04-1.12.09-1.98.09-.02-.06.28-.06.23-.12-.55,0-.54.07-.89.09-.74,0-1.77-.03-2.18.03.14.04.46.06.86.06-.42.05-1.4.02-1.76.09-.98,0-1.26-.11-2.17-.13-.33.01.08.04-.01.09-.93,0-1.16-.08-2.17-.07-.22.02-.24.07-.66.06-.09.05.16.06.43.06-.72.06-1.25.01-1.74-.04-.5.02.26.05-.23.09-.71-.02-.28-.2-1.51-.16.14.03.5.03.42.09-.74-.06-.81.07-1.31.03.06,0,.24-.08.01-.09-.2,0-.6.07-.23.06.09.09-1.19-.03-1.1.06.26.08,2.03-.03,1.73.13.3,0,.19-.08.23-.12h1.09Zm22.89.24c-.03-.1-.13-.18-.85-.19l-.02.18h.87Zm-.17-.4h-.66c.21.09.2.21,1.29.18.39-.14-1.02-.04-.63-.18Zm-16.57-.1c.64.01.17.18,1.29.13.26-.1-.33-.08-.42-.12.16-.05-1.02-.05-.87,0Zm103.83-1.27c.5-.04,1.41-.02,1.33-.15-.7-.03-.46.08-.88.09.04-.08.06-.15-.42-.15l-.03.21Zm-10.25-.09h-.65c.15.09-.24.11-.24.18.8.01.67-.11.9-.18Zm.4.28c-.48.09-.25.14-1.12.21.77,0,2.11-.15,1.12-.21Zm3.95-.14c-.02.09-.95.17.19.18-.22-.11.47-.1.67-.15-.41,0-.48-.04-.87-.03Zm-.19-.18c.06-.04.37-.05.45-.09-.29-.01-.41-.04-.87-.03-.07.07.04.12.42.12Zm-1.14.33c-.07.04-.32.06-.23.12.38,0,.68,0,.87.03.05-.09.05-.17-.63-.15Zm-4.09-.41c.67.08,1.39-.03,2.4,0,.05.04.35.05.42.09,0,.04-.39.03-.44.06.53.03.47.14,1.29.13.44,0,.59-.06.88-.09-.06-.15-.46-.26-1.49-.28-.16.06.29.04.43.06.23.03.64.13.2.15-.53-.03-.94-.07-.85-.19-1.1,0-2.1,0-2.84.05Zm-.36-.58c.63,0,1.11,0,1.32-.06-.79.05-.64,0-1.31-.03v.09Zm-4.55-.38c.18.03,1.69.09,1.53-.03-.16-.06-1.61-.05-1.53.03Zm-2.22.33c1.1-.02,1.87.13,2.83.04.25-.16-.96-.13-1.3-.06-.86.01-1.12-.07-1.53.03Zm-3.06,0c.72.1,1.68-.09,2.4,0-.36-.16-1.72-.05-2.4,0Zm-.83-.34c.99,0,2.11.15,2.84,0-1.13.04-2.14-.09-2.84,0Zm8.12,1.37s-.04.04-.22.03c-.08.08.29.1.86.09.07-.08-.06-.13-.64-.12Zm-.15-.55c-.15.12,1.19.04,1.74.07-.37.1.04.12.86.12.22-.2-1.92-.21-2.59-.19Zm-.03.21c.7-.02.68.05.86.09.41,0,.73-.02.88-.06-.86-.01-.95-.06-.42-.12-.56,0-1.62.07-1.32.09Zm-.28.46c-.61-.04-.37-.19-1.51-.16-.24.07.39.06.42.12,0,.01-.52.03-.45.09.03.03.07.08.86.06-.2-.17.35-.06.67-.12Zm-4.99-.2c-.21-.19,1.81.05,1.11-.15.75.03.93-.03,1.32-.06.72.06,1.43.13,2.38.16l.02-.12c-.97,0-1.53-.01-1.08-.13-1.16,0-1.97.07-3.07.08.24.14-2.07.1-.68.21Zm-2.46.42c.88-.02,1.51-.07,2.2-.12.78.05,1.86.07,3.05.07.08-.07-.02-.12-.2-.15-.39.04-1.27,0-1.54.06.55.05.77-.03,1.09.03-.61.07-1.43,0-1.74-.07,1.15-.05.35-.12,1.11-.18.41,0,.48.04.87.03.05-.09-.65-.07-.63-.15.09-.02,1.07-.04.44-.06-.73.03-.71.17-1.77.15.56.14-.33.14-.67.15.41,0-.15.12-.45.12.1-.15-1.52-.07-1.72-.19l-.02.15c.58,0,1.29-.01,1.3.06-.59,0-1.61-.05-1.32.09Zm-1.02-.55c-.62.02-.56-.04-1.09-.03-.4.14,1.14.11,1.09.03Zm-1.35.3c.94.02.29-.08.67-.09.58,0,1.28.02,1.32-.06-.83-.03-1.4.05-1.75,0,.17.09-.32.08-.24.15Zm-1.33.15c.38,0,1.08.09,1.31,0-.17,0-.25-.03-.21-.06-.54,0-1.06,0-1.1.06Zm-1.52-.06c-.71.04-.15-.1-.86-.06-.34.01-.2.1-.88.06-.28.1.7.03.42.12-.65,0-1.06-.12-1.31,0,.64,0,.66.07,1.3.06.81-.05,1.33-.14,2.42-.15.04-.04-.03-.09.23-.09,1.08-.04-.59-.03-.66.03-.29,0-.64-.13-.87-.03.23,0,.52.05.21.06Zm-2.59-.22c.25.04.77.04,1.31.03.28-.1-.7-.03-.42-.12.67-.02.79.03,1.31.03.37-.06-.02-.04.02-.12-.65.03-1.74,0-1.98.09,1.02,0-.16.06-.23.09Zm-.9.18c-.19-.07-.4-.28-1.07-.19.38,0,.49.05.42.12-.39,0-1.09-.03-.88.06.75-.01,1.22.02,1.74.03.29,0,1.58,0,.88-.03h-1.09Zm.71-.4c-.28-.02-2.09-.09-1.52-.03.04.06,1.26.11,1.52.03Zm-1.73-.13c.7.04.18-.1.88-.06.34,0,.16.08.65.06l.02-.12c-.82.02-1.04-.04-1.74-.03-.12.1.74.08.2.15Zm-1.78.3c-.27.1,1.86.12,1.3.06-.87.04-.43-.1-1.3-.06Zm-.84-.28c.61.03.88.1,1.73.1.12-.11-1.26-.17-1.73-.1Zm-2.41.09c.54.02,1.72.13,1.96,0-.54-.02-1.89-.1-1.96,0Zm-.91.3c.55-.01,1,.14,1.3.06-.27-.05-1.03-.19-1.3-.06Zm-.04.28c.52.06,1.75.02,2.61.04.23-.12-1.22-.02-1.08-.13.3,0,.24-.08-.21-.06-.13.04.23.16-.24.15-.21-.07-.8-.07-1.09,0Zm-8.07-.05c-.51,0-.64-.05-1.31-.03-.32.1,1.29.08,1.31.03Zm7.5-.59c-.17,0-.43,0-.44.03.86.03.69-.09.89-.15h-.87c-.17.08.43.06.42.12Zm-.73.58c-.05.08.32.1.64.12.08-.04.32-.06.23-.12h-.87Zm-2.98-.59c1.14.04,1.39-.05,2.19-.06-.01.08-.62.08-.89.12.67.08,1.18-.06,1.54-.12-1.15-.04-1.88.02-2.61-.1.17.09-.32.08-.24.15Zm.6.46c-2.21.03.87.09.88-.03-.41,0-.49.02-.88.03Zm-2.83-.04l-.02.15s-1.57.02-.88.06c.84,0,1.61,0,2.18.04.36-.15-1.12-.05-.85-.19.41,0,.49-.03.88-.03-.15.16,2.03.28,2.39.1-.87-.02-1.67-.03-1.96-.04-.4-.15.74-.08.68-.18-1.02,0-1.22.11-2.41.09Zm-3.22-.44c.6-.02.43.06.86.06.49-.04-.26-.08.23-.09.08.05.28,0,.65,0,.12.1-.42.09-.02.15.33,0,.8.01.88-.03-.12,0-.24-.03,0-.03,1.12-.04.92.1,1.51.13-.06-.12.41-.17.26-.31-.91.03-1.08,0-1.96-.04-.03.04-.07.07-.44.06-.68,0-.61-.1-1.52-.06-.1.06-.63.05-.46.15Zm.19.18c.82.08.39.11,1.09.03-.25.11.53.09.41.18.45.03.84-.1.45-.09,0,.03-.39.04-.44,0v-.06c.46-.02,1.44.04,1.54-.03-.41-.06-1.03-.02-1.53,0-.57-.12-1.29-.06-2.17-.1-.16.08.37.04.65.06Zm-2.43.24c.39.02.9.02,1.08.06h-1.53c-.19.03-.3.08-.24.15,1.3.04,1.36-.09,2.41-.09.15-.06-.38-.06-.42-.09,0,0,.44-.04.44-.06,0,.01-.42-.03-.43-.03-.09-.03.46-.07-.21-.06.42.15-1,.04-1.11.12Zm-1.93-.25c.41.06,1.44.03,2.18.04-.14-.18-1.55-.1-2.18-.04Zm-.73.14c-.08,0-.19,0-.38-.02-.25-.01-.15-.06-.65-.06-.16,0-.83-.02-.88.06.38.02,1.29-.03,1.31.03-1.03-.03-.61.07-.89.09-.25-.04-.77-.04-1.3-.03.12.13,1.72.07,2.38.13,0,.03-.18.04-.23.06.67.02.42.02,1.09,0,.34-.12-.97,0-.64-.12h1.09c.24-.12-.98-.01-1.08-.09-.04-.03.07-.04.17-.04.23,0,.13,0,0,0Zm-3.42-.12c1.16.03.53-.05.88-.06.91-.02,1.89.08,2.61.04-.32,0-.19-.07-.2-.12-1.02.09-1.77.02-3.28.02v.12Zm-5.9-.08s.09.07.21.09c.55,0,.69-.05.89-.09-.28-.04-.8-.04-1.09,0Zm-2.43.27c.39-.02,1.28.04,1.31-.03-.27-.04-1.3-.06-1.31.03Zm-4.83.2c.43.05.28,0,.87,0,.19-.12-1.03-.12-.87,0Zm-.18-.31c.5.02,1.57.13,2.18.04-.53-.02-1.82-.09-2.18-.04Zm-4.09-.41c.34.01.17.1.87.06v-.09c-.32,0-.79-.01-.87.03Zm-1.76.12c.73.05,1.65.03,1.54-.12-.13,0-.83-.08-.87,0,.13,0,.26,0,.21.03-.7-.03-.69.05-.88.09Zm-3.04-.13c-.11.14.88,0,1.31,0,.53,0,1.5.09,1.75-.03-1,.01-2.4-.04-3.06.02Zm-1.79.33c.27.04,1.3.06,1.31-.03-.39.02-1.28-.04-1.31.03Zm12.09-.67c.71,0,.82.09,1.74.07.04-.15-1.08-.12-1.74-.07Zm-2.4-.04c.74-.04,1.14.12,1.52.03-.88-.03-.51-.07.02-.12-.65,0-1.33.01-1.54.09Zm-2.58-.28c.2.07.05.19.85.19.11-.11-.44-.14-.85-.19Zm-.67.15c1.18.04-.83.18.63.19.34-.1-.09-.24-.63-.19Zm-5.91.11c-.25,0-.23-.05-.21-.09-.38,0-.68,0-.88.03-.16.08.92.13,1.08.06Zm-1.69-.4s-.09.11.2.12c-.06-.06.63,0,.65.03-.02.05-.56.02-.45.09.97.01,2.29-.05,3.28-.02.54.02.77.12,1.29.13-.7,0-1.93.09-1.55.15.46-.1,1.94-.09,2.21-.18-.03,0-.7-.02-.43-.06.39.02.92-.09,1.09,0-.26,0-.62,0-.66.03.32.04.89.04,1.08.09-.25.04-.25.07.21.09-.15-.09.76-.04.46-.15-.55,0-.69.06-.87-.03.23-.09.46-.18.69-.27h-.87c-.3.07.85.1.2.12-.21,0-.96,0-.87-.03-.02,0,.61-.02.44-.03-.62-.04-1.27,0-1.96,0-.45,0-1.22-.08-1.31.03,1.04,0,1.3.1,2.17.13-.64.09-1.26-.07-1.73-.1-.44.01-1.63.07-1.96,0-.03-.09,1.42.04,1.1-.09-1.03.05-1.33-.02-2.4-.04Zm-4.24.69c.1.09.76.26,1.51.16-.24,0-.33-.03-.43-.06.29-.04.95-.03,1.53-.03-.26.1.33.08.42.12.75.03.84-.04,1.53-.03-.14-.09-.15-.06.02-.15h-4.58Zm-6.12.1c.79.01,1.42,0,1.97-.03.06.07-.64.03-.67.09.17,0,.43,0,.43.03h.44s-.06-.11.23-.12c.29.13,1.13,0,1.74,0v.09c.89-.1,2.27.11,2.39-.02-.92.02-1.6-.08-1.07-.16-.85,0-1.6.02-1.97.09-1.15.02-3.07-.19-3.49.02Zm-4.47-.9c.65-.04.81.04,1.1-.06-.51-.04-.41,0-1.09-.03v.09Zm-1.4.58c.25.04.77.04,1.3.03.32-.1-1.3-.08-1.3-.03Zm-.25.27c1.45,0-.21.1.42.15.98.02,1.64-.01,2.4-.02.54-.04-.38-.09.23-.12.51.06.94.13,1.73.16.38-.04.61-.1.68-.18-.79,0-1.75-.01-.88.06-.75-.02-1.15-.08-1.95-.1-.52.14-1.95-.03-2.62.05Zm-.24.15c-.26,0-.13-.03,0-.06-.58,0-.46-.1-1.08-.09-.44.04.58.24,1.07.16ZM23.87,3.77c.26,0,.62,0,.66-.03-.79-.02.61-.15-.42-.12-.25.03-.08.06-.24.15Zm-10.81-.79c.96,0,1.5.05,2.19-.03-.24-.02-1.73-.02-2.19.03Zm-9.3.77c.26-.02.33.03.53.03.01-.09-.58-.13-.53-.03Zm-.31.98c-.07-.26.06-.46-.03-.7-.03.05-.09.75.03.7Zm-.05,20.84c-.04-.23-.11-.23-.15-.46v.87c.07.04.15.06.15-.42Zm-.67,9.95c-.01-.83.14-.43.1-1.52-.1-.12-.08.74-.15.2,0,.63,0,1.11.06,1.32Zm.76,3.59c-.03-.69.05-.52.06-.87-.09-.07-.11.4-.15.63-.06-.01-.04-.6-.12-.45-.02,1.3.08.51.21.68Zm-.12,11.92c0-.13,0-.25,0-.35,0-.16-.03-.38-.05-.47,0,.18,0,.44,0,.49,0,.07-.01.13-.02.18,0,.1,0,.16.08.14Zm2.36,1.36h-1.09c-.23.12,1.29.12,1.09,0Zm1.8-.45c-.58,0-1.28-.02-1.32.06.45-.02,1.51.05,1.32-.06Zm3.48.1c-.74-.02-1.83.06-1.32.12.09-.04,1.68.06,1.32-.12Zm4.96.47c-.15-.09-.66-.13-1.51-.13-.39.16.74.12,1.51.13Zm4.22-.6c-.66-.09-1.43,0-2.17-.1-.15.08.36.04.65.06.5.04,1.28.16,1.52.03Zm3.38.9c-.95.02-1.52.09-1.99.18.6,0,1.52.09,1.96,0-.48-.01-.15-.16.02-.18Zm-5.47.11c-.15.12,1.2.04,1.74.07.3,0,.42-.04.88-.03-.14.08.07.11.64.09.17-.09-.59-.06-.42-.15.84.03.95-.05,1.32-.09-1.33.03-2.99.16-4.16.11Zm-11.56-.06c.17,0,.25.03.21.06.67-.02.42-.02,1.09,0,.21-.09-1.43-.08-1.3-.06Zm-3.86.05c.42,0,.71,0,.79-.06-.24-.01-.32-.04-.7-.03l-.08.09Zm-.41-.89c-.08.24-.17.38-.19,1.04.08,0,.16,0,.26,0,.25-.09,0-.07-.16-.1,0-.05.01-.11.03-.15,0,.01,0,.08.02.1.02,0,.03-.01.02-.02,0-.02.01-.06.02-.13v-.74Zm-.14-14.4c0,.63,0,1.11.06,1.32,0-.64.07-.66.06-1.3l-.12-.02ZM48.85,2.98c.08.06-.49.08-1.11.12.43,0,.27.08.86.06.13-.04,1.14-.19.24-.18Zm4.81-.05c-.17,0-.25-.03-.21-.06-.73-.02-.72.06-1.1.09.39-.02,1.28.04,1.31-.03Zm108.08-.37c-.55.02-.88-.14-1.31-.03.23.02.99.12,1.31.03Zm3.24.22c-.39,0-.51-.03-.42-.09-.69-.02-.78.05-1.53.03-.06.05,1.05.14,1.29.13.1,0-.02-.08.23-.06,0,.05.58.1.44,0Zm3.73-.17c.11-.08-1.12-.12-1.3-.06.41.03.79.05,1.3.06Zm26.67,36.99c-.03.84.14.86.12.02l-.12-.02Zm-.05-5.9c-.09-.03-.09.65-.09,1.3.11.14.09-.63.09-1.3Zm2.33-2.32c-.05.28-.19-.1-.19.63.03.19.08.3.15.24,0-.41.04-.48.03-.87Zm.08-5.66c-.06-.07-.06.29-.09.42-.07-.15-.16-.46-.15.42.04.01.07-.09.09-.21,0,.47.02.7.09.67-.02-.76.04-.92.06-1.3Zm-2.84-1.02c.03.61-.07,2.04.06,1.97.09-.18-.07-.34-.03-.88.04-.02.07-.06.06-.43-.11.32-.02-.74-.09-.67Zm2.6-.97c0,.54.06,1.39.15,1.11,0-.82-.19-1.28-.09-2.19-.09-.21-.07.7-.06,1.08Zm-.15-2.64c.07.34.07,1.1.18,1.11.04-1-.13-2.06-.18-1.11Zm-2.41-13.41c.01-.51.11-.39.09-1.08-.08-.14-.16.88-.09,1.08Zm-10.01-5.61l.02-.12h-.65c-.07.08.06.13.64.12Zm-27.51.08c.65,0,2.11-.02,1.75-.06-.42.02-2.17.01-1.75.06Zm-2.81-.22c.53.02.45.12,1.3.1-.01-.07-.94-.17-1.3-.1Zm-2.02.42c.08-.13-1.27-.02-1.53,0,.49.02,1.11.06,1.53,0Zm-8.03-.33c.59-.02.41.06.64.09.87.01,1.61,0,1.97-.06.05.04.47.04.65.06,1.18-.1,2.89-.05,4.15-.02-.2-.06,1.25-.02.44-.06-.41,0-.49.03-.88.03-.07-.07-.84-.11-1.29-.13-.39-.01-.56.03-1.09.03-.5-.02-1.26-.05-1.74-.07-.28,0-.3.04-.66.03-.58-.01-2.17-.04-2.19.09Zm-26.42.06c.51.01,1.01.09,1.52.1.58,0,.68-.05,1.1-.06.22,0,.16.03.21.03.19,0,.2-.03.22-.03,1.11,0,1.72-.03,1.98-.12-.8-.03-2.07.04-3.28.05-.63,0-1.5-.1-1.75.03Zm-30.49,1.18c.51.01.89.06,1.31,0,.22-.11-1.43-.07-1.31,0Zm3.95-.2c-.82-.06-.88.14-.46.15-.15-.09.76-.04.46-.15Zm-1.07-.16c.51.01.39.11,1.08.09,1.15-.08-.67-.24-1.08-.09Zm27.15-.7c.07-.09-.48-.1-.41-.18.17,0,.43,0,.44-.03-1.18,0-1.37.21-.03.21Zm-12.25-1.47c.42.06,1.35.01,1.75-.03-.87,0-1.32-.08-1.75.03Zm-5.9.05c.83-.06.8.04,1.52.07.03-.08.42-.09.02-.15-.37.05-1.59-.02-1.54.09Zm-12.45.06c.27.04,1.06.05,1.1-.03-.27-.04-1.06-.05-1.1.03Zm.88,1.62c.76.06.98-.01,1.75-.03-.22.12.82.03.87.03.46,0,.55.09,1.08.09-.14-.14,1.2-.05,1.33-.15.39,0,1.1-.03.86.06-.69.01-.88-.07-1.09.03.35.03.69.05,1.09.03.4-.01,1.84-.21,1.97-.06-.12,0-.25.02,0,.03.28-.09,1.26.14,1.53-.03-.13-.04-.84,0-.86-.06,1.05,0,1.82.08,2.4-.02.17,0,.35.09.42.09.21,0,1.36,0,1.53,0,.03,0-.04.06,0,.06.42,0,.89-.06,1.31-.03.03.04-.05.09.21.09.48-.06-.01-.1-.2-.15.91-.03.25-.12,1.33-.15.43,0,.27.08.86.06.16-.05.59-.05.88-.06,1.31-.03,2.88-.03,4.36.01.2-.04.34-.1.88-.09,2.34-.02,3.44-.03,5.9-.05.19-.22-1.61-.06-2.39-.07-1.32-.03-2.56-.05-3.7-.07,0,.05-.18.08-.45.09-1.88-.06-2.87.02-4.59.05-.13-.07.63-.1-.21-.09-.26.06-.84.06-1.11.12-1.6-.03-3.15.04-3.92-.04-.86.06-1.79.05-2.4,0,.25.15-1.12.07-1.54.12.07-.06.6-.06.67-.12-.75.05-1.05,0-1.96,0-.36.12.94.01.86.09-.15.11-1.04-.01-1.97.03-.03.04-.07.07-.44.06.44-.1-.08-.02-.65-.03-.92-.02-1.62-.03-1.97.06,0-.05.06-.1.23-.12-.81-.03-.71.06-1.1.09-1.4-.03-2.71-.02-3.04-.1.04-.04.4-.07.01-.09-.33.04-.35.11-.67.15-.59,0-1.01-.13-1.31,0,.94.04,1.68-.02,1.96.07-.36.03-1,.04-1.53.06-.93.03-.32-.01-1.09-.03-1.1.2,4,.15,3.92.07Zm-10.27.13c.17-.11-.75-.11-1.08-.06-.17.11.75.11,1.08.06Zm-6.63.63c.63,0,1.43-.01,1.74.04-.14-.05-.78-.19-1.07-.13.13,0,.26,0,.21.03-.41,0-.73.02-.88.06Zm-1.49-.31c.35.05,1.12.03,1.31-.03-.35-.05-1.12-.03-1.31.03Zm-.63-.15c-.05.12.55.08,1.08.06.24-.1-.67-.05-1.08-.06Zm-.43-1.75c.62.08,1.06-.05,1.54-.09-.77,0-1.31.02-1.54.09Zm-.41-.18c.11-.1-.45-.1-1.08-.09-.11.1.45.1,1.08.09Zm-3.08.18c.54,0,1.06,0,1.1-.06-.32-.05-1.24-.05-1.1.06Zm-2.59,1.49c.82.05.43-.08,1.1-.06.43.03,2.17.15,2.4,0-.78-.03-1.67.04-1.96-.04.05.01.69-.02.22-.03-.38.07-1.95-.03-1.76.12Zm-.24-1.5c.62-.02.56.04,1.09.03.02-.05-.04-.1-.2-.12-.55,0-.69.05-.88.09Zm-6.53,1.57c1.11-.07,1.75.08,2.19-.03-.66-.03-.67-.15-1.51-.16-.26.04-.26.08-.02.12-.38,0-.56.02-.66.06Zm-2.15-.22c.57.01.72-.04.67-.12-.59,0-1.06.07-.67.12Zm-12-.06c.17,0,.25.03.21.06.61.03,1.5-.05,1.53,0-.07.06-.97,0-.88.09.77.06.8,0,1.53-.03-.31-.09.09-.12-.19-.18-.82.05-1.62.05-2.19.06Zm-13.12.21c.41,0,.48.04.87.03-.17-.09.32-.08.24-.15-.64,0-.82.07-1.11.12Zm-3.05,0c.49.02.83.11,1.3.06.01-.04-.09-.07-.21-.09.76-.09,1.33.07,1.75,0-.22-.09-1.39-.05-1.95-.1-.04.05.06.11-.23.12-.03-.06-.74-.02-.87-.06-1.41.08-.51.02.21.06ZM.17,7.25c0-.91.06-1.19-.03-1.75,0,.26-.03.13-.06,0,.05.75-.1,1.44.09,1.76Zm.06.44s.04-.38,0-.44c-.03.45-.12.44-.13,1.08.1.2.06-.56.12-.64Zm-.07,3.05c.04-.29.03-1.31-.06-1.32.05.6-.05,1.02.06,1.32Zm1.06,4.28c-.02-.56-.03-1.24-.09-1.54-.04.93,0,1.11.09,1.54Zm-1.04.96c.02-.82.04-.99-.06-1.32-.07.46-.01,1.19.06,1.32Zm.85,14.95c0-.54,0-1.05-.03-1.31-.06.02-.1.13-.12.42.13-.27.1.63.15.89Zm-.06,1.3c.02-.13.13-.64.03-.87-.14.54-.02-.56-.06-.88-.18.05-.04,1.51.03,1.75Zm-.51,9.1c.04-.29.06-1.52-.03-1.53.07.59-.05,1.1.03,1.53Zm0,8.29c-.04-.1-.06-.29-.06-.66-.1-.12-.13.26-.15.63.06-.02.07.23.06.66.1.12.13-.25.15-.63Zm-.16,2.49c.08-.19.13-.66.19-1.03-.08.1-.23-.51-.19,1.03Zm.61-.11c-.05-1.34.02-2.72-.12-3-.05.37.02.26.03.66,0,.37,0,.92,0,1.37,0,.58.02,1.03.09.97Zm6.72,2.46c.42-.03,1.01-.04,1.11-.12-.62.02-.56-.04-1.09-.03l-.02.15Zm-1.11.18c-.5-.01-.84,0-1.09.03-.18.07.21.21.42.12-.5-.04.44-.12.67-.15Zm3.48.1c-.55.02-1.87-.06-1.75.06.55-.02,1.87.06,1.75-.06Zm0-.03c-.07-.13-1.83-.03-2.61-.07-.03.06-.73.02-.67.09,1.48,0,1.78-.08,3.28-.02ZM100.86,2.47c.14-.08.61-.12,1.32-.12-.1.04-.29.06-.66.06-.04.03.08.03.21.03-.07.04-.55.02-.88.03Zm15.03,50.24c-.14.1-.83.04-1.31.03.23-.08.89-.04,1.31-.03ZM21.62,2.6c-.55.06-2.35.09-3.06.02-.02-.13.33,0,.66,0,.6-.07,1.76-.03,2.4-.02ZM2.2,13.19c.03.67.02,1.55.02,2.84-.04-.8-.06-2.11-.02-2.84Zm94.27,41.18c-.34.17-1.96.07-2.84.05-.6-.01-1.62.05-1.74-.07,1.54.07,3.43.03,4.58.01Zm26.09-.94c-.39,0-.47.04-.88.03-.21-.07-.36-.15-.41-.25.67.04,1.22.1,1.28.22Zm-21.74,1.05c-.52.07-1.96,0-2.84.02.65-.08,2.02-.02,2.84-.02Zm-19.4-.17c1.24,0,2.71,0,3.71,0-2.07.14-3.88-.03-6.77.01-.43-.05,2.15-.02,3.06-.02Zm42.43-.72h-2.18c.42-.02,2.08-.13,2.18,0Zm6.12-.08c-.32.07-.76.05-1.31.03.32-.07.76-.05,1.31-.03Zm-3.5.05c-.85.06-1.35,0-2.18-.04.36-.05.99-.06,1.75-.06-.02.05.15.08.43.09Zm-20.64-.73c-.9-.04-.86.06-1.53.06-.51-.19-1.41.01-1.96-.04.12-.02.23-.05.23-.09.45.02,1.44-.03,1.52.03.49-.03,1.79-.13,1.74.03ZM138.52,3.27c-1.43.03-2.87.01-4.58-.01,1.18-.05,2.62-.06,4.15-.05.37-.01.41.02.43.06ZM47.45.34h1.53c-.05.05-1.64.12-1.53,0Zm130.52-.07c.04-.05.92-.09,1.32-.09.33,0,1.21.03,1.08.09-.94-.04-1.22,0-2.4,0Zm-119.83.06c.46.05,1.51.03,2.4.04.88,0,2.07-.05,2.17.07-1.42-.05-4.21.09-4.57-.1Zm54.54.17c-.73-.11,1.64-.03,1.98-.09.03.04.39.03.65.03-.33.13-2.31,0-2.63.05Zm-41.05.17c.56,0,1.12,0,1.08.09-.63,0-1.19,0-1.08-.09Zm-15.05-.07c-.09-.09,1.19.03,1.1-.06.17.08,1.71-.03,1.52.1-.93,0-1.52-.06-2.61-.04Zm-6.98-.02c1-.02,1.2.08,1.95.1-.04,0-2.22.04-1.95-.1Zm7.62.14c.72,0,1.54,0,1.51.1-.36-.05-1.6.02-1.51-.1Zm2.82.1c.18-.1-.88-.04-.63-.15.73,0,.73.1,1.51.1-.06.05-.38.07-.88.06Zm89.18,2.37c-.41.1-1.67.05-2.41.05-2.04,0-3.66,0-5.45-.01-.9,0-2.09.11-2.4-.04,1.73.07,3.6-.02,5.46-.02,1.42,0,3.03.03,4.8.01Zm-18.99.04c-.41,0-1.62.03-2.18,0,.55-.09,1.48-.04,2.18,0Zm-12.65-.06c-.34.04-.96.05-1.53.06-.16-.12,1.04-.04,1.53-.06Zm10.04.03c.04.12-2.38.05-2.84.02.53-.07,1.96,0,2.84-.02Zm37.98-.06c-.69.08-1.23.03-2.19.03.31-.07,1.52,0,2.19-.03Zm17.47-.11c-.24.1-.78.02-1.31.03-1.88.01-4.51.03-6.33.05.33-.17,1.41-.05,1.97-.06,1.57,0,3.18,0,5.68-.02Zm-31.01.17c-.28.1-2.64.07-2.4,0,.63.04,1.31-.02,2.4,0Zm10.92-.06c-.02.08-1.04.07-1.31.03.04-.07.93-.01,1.31-.03ZM27.58.38c.45-.07,1.81,0,2.62-.02-.45.07-1.81,0-2.62.02Zm16.47,54.34c-.3.05-.98.05-1.32.09.09.03.19.06.43.06-.36.11-.32-.07-.87-.03.4-.06,1.3-.16,1.76-.12Zm5.23.07c-.2.16-1.06.05-1.75.03.17-.07,1.23,0,1.75-.03Zm-7.25.35c-.65,0-1.33,0-1.3-.1.15.07,1.51-.02,1.3.1Zm5.03-.08c-.35.08-1.31,0-1.52-.03-.54,0-.68.06-1.09,0,.73-.09,1.99.01,2.61.04Zm-4.78-.17c-.2.07-.71,0-1.1.03-.14,0-.18.06-.23.06-.35.01-.38-.04-.65-.03-.2,0-.62.13-1.32.09-.21-.09.49-.05.88-.06-.1-.1.53-.12-.2-.15.28-.11.45.03.65.03.3,0,.07-.05.23-.06.33-.02.88.07,1.52.03-.04.04.04.05.21.06Zm-12.22,0c-1.09-.01-1.32.1-2.63.05.11-.07-.3-.06-.65-.06.55-.13,1.84-.13,2.62-.02-.01-.08-.4-.1.02-.15-.96.02-3.47.01-3.69-.16.91,0,1.28.09,2.17.1.26.01.76-.09.23-.09,1.4-.1,3.82.05,5.02-.02-.39.11-1.53.09-1.98.12-.17.07.79.13.86.06.8.08-.84.06-1.32.06-.4-.06.11-.09.24-.15-.88.02-1.24-.03-1.96-.04-.19.12.69.07.86.09.06,0-.34.05-.23.06.16.02.82,0,.64.09-.21,0-.17.04-.23.06Zm12.16.46c-.88.01-1.64.11-2.42.15-.57.03-.29-.05-.87,0-1.14.1-3.07.12-5.47.14-.21-.04-.73-.04-.86-.09-.06-.14,1.26-.08.68-.21.78-.05.97.02,1.75-.03,0-.13-1.3-.08-2.17-.1-.02-.05.28-.06.23-.12,1.09.12,2.55.02,4.14.04.09.07-.32.06-.66.06-.5.02-.66.09-.89.15.78.09.69-.02,1.1-.06,1.73.01,3.24.11,4.58.01.14.04.46.06.86.06Zm-4.15.05c-.05-.04-.47-.04-.65-.06-.16.12.82.09,1.51.1,1.48,0-.24-.05-.87-.03Zm-6.05-.44c.06-.03.44-.02.44-.06-.02-.07-.92-.02-1.3-.03,0,.03.26.02.43.03.1.1-.61.13.42.12-.49.08-.65.05-1.31.03-.17,0,.47-.04.44-.03.08-.03-1.25,0-1.53,0-.09-.07.32-.06.66-.06.62-.12,1.59-.19,3.08-.18-.12.02-.23.05-.23.09.45-.04.42-.15,1.32-.12-.07.08.06.13.64.12-.24.18-1.37.11-2.2.15,0-.08.37-.06.02-.12-.34.01-.2.1-.88.06Zm17.95-.38c-.05.04-.65,0-.66.06-.57,0-1.26,0-1.75,0-.76,0-1.69,0-1.73-.1.53-.01.47.06,1.09.03v-.09c-.6-.1-1.25-.01-2.38-.04-.23-.12.68-.05,1.1-.06.32-.02.79-.04,1.1-.06,1.1-.02,2.28.01,3.06-.02.53.07-.33.06-.24.15-.18-.13-1.83-.11-2.61-.07.17.09.59.14,1.29.16.14-.08-.07-.11-.64-.09.84-.08,1.54.11,2.38.13Zm-23.18.37c-.88.13-1.1-.06-2.4-.04.95.04.42.11-.45.12.14-.14-.84-.05-1.29-.16.15-.02.93-.09.01-.09.22-.12,1.1-.02,1.75-.03-.16.07-1.15.02-.89.15.21,0,.17-.04.23-.06h1.53c.35,0-.34-.14.67-.12.42.09-.89.22.85.22Zm29.69-.08c.77.01.53.09,1.31.03.11.12-1.44.04-1.31-.03Zm130.72-1.63c.52-.07,1.96,0,2.84-.02-.53.07-1.96,0-2.84.02Zm-130.5,1.57c-.44.04-1.02.06-1.11.15-.76,0-1.68,0-1.73-.1.45.06,1.45.03,1.96,0,0-.03-.27-.02-.43-.03.19-.06.97-.08,1.31-.03Zm133.79-.03c-.06.05-.38.07-.88.06-.03.08.36.06-.02.12-.82.05-1.71.04-2.63.05-1.41.03-2.87.05-4.38.08-.34,0-.59-.03-.65-.03-2.19,0-4.39.09-6.56.11-.38,0-.91-.02-1.31-.03-.25,0-.62.06-.88.06-.33-.01-.76-.02-1.09-.03-1.51,0-3.4.05-5.02.02.19-.09-.3-.08-.2-.15-.88.04.05.06-.02.15-1.61.03-2.38-.01-3.07.08-.5.07-.61-.03-.87-.03-.48,0-.92.1-1.53,0,.24.2-.64.05-1.11.12.44.03.59.1.85.16.36-.05-.08-.11.46-.18.69-.01.76.06,1.52.03l-.02.12c.73.01.15-.16,1.12-.18.02.05-.28.06-.24.12.85.03,1.15-.11,1.75-.03.62-.07,1.2-.14,2.42-.12-.31.05-.76.08-1.32.09.21.04.57.06.86.09.48,0-.2-.07-.21-.06.12-.05.39,0,.66-.03.34-.03.36-.16,1.1-.06.21.08-.48.03-.66.06-.19.03.05.11-.45.12.82.12,1.3.04,2.17.07.02-.14-.87-.02-1.08-.09-.25-.13.74-.08.89-.15.73.03.1.06.2.15.39.06.58.14,1.51.13-.01.11-.82.2-1.1.09-.6.03.57.06.2.15-.46.07-1.01,0-1.53,0-.21,0-.48.03-.88.03-.99-.02-2.18-.05-3.26-.07-.45,0-.59.03-.88.03-1.56-.01-3.49-.06-5.01-.04-.66,0-1.13-.02-1.74-.04-3.67-.06-7.53-.08-11.11-.18-.36,0-.56-.05-.87-.06-.75-.03-1.5,0-2.4,0-.69,0-.98-.06-1.75,0-.69.01-.57-.08-1.08-.09-1.09.06-2.29-.04-3.5.02-.39,0,0-.12.45-.09-.79-.11-1.96.04-1.76.09-.8-.03-1.82-.03-1.94-.16-1.04.14-2.8-.11-3.72.05-.41.03-.52-.06-.65-.06-.15,0-.37.04-.66.03-.95-.03-2.6-.1-3.92-.1-.32,0-1.08,0-1.1.06-.26,0-.18-.06-.21-.09-1.2.03-2.15.03-3.05,0-.21,0-.17.04-.23.06-.81-.06-1.24.02-1.74-.07-.48-.02-.32.06-.66.06-.49-.04-1.46-.06-2.39-.07-.56,0-1.63.02-1.97.03-.44.02-.92.04-1.32.06-1.6.02-3.22,0-4.58-.01-1.28-.01-2.63.11-3.49,0-.37,0-.49.06-.88.06-.35,0-.38-.04-.65-.03-.5,0-1.21.06-1.75.06-1.24,0-2.4-.06-3.71-.04-.31.01-.41.02-.66.03-.36-.01-.73-.02-1.09-.03-.28,0-.63.05-.88.06-.11,0-.42-.02-.65-.03-.39,0-.46.03-.88.03-1.69,0-3.52-.04-5.02-.01-.36,0-.37-.04-.65-.03-.79.01-1.81.12-3.06.02-.86.09-2.13,0-3.71.02.03-.06.72-.02.67-.09-.55,0-.69.05-.88.09-.41-.06-1.44-.03-2.18-.04-.5-.01-.25.09-.67.09-2.21.02-4.22-.05-6.11-.02-.48.02-.87.04-1.32.06-1.37.01-2.77-.04-4.14-.04-.41,0-.91.02-1.31.03-.4,0-.64-.05-1.08-.06-.4-.01-.67.03-1.09.03-1.6-.02-3.49-.05-5.23-.07-.12-.09.85-.01,1.53-.03.41,0,1.43-.14,1.53,0,.77.02.55-.11,1.32-.09-.02.05.15.08.42.09-.1-.07.76-.13,1.31-.03.25-.11-.81-.05-.63-.15,1.48-.01,2.09-.01,3.28-.02.21-.12-.95-.05-.63-.19,1.52.07,2.57-.11,3.7.04.46-.02.47-.05.23-.09.5-.04.81.08.87,0,.51,0-.26.08-.23.12,1.54-.07,2.51-.1,4.15-.05,0-.03-.26-.02-.43-.03.78,0,2.8-.07,3.93,0,.77.02.55-.11,1.32-.09.26.04.74.06,1.3.06.37.01.41-.02.44-.06.48.01,1.17.07,1.31-.03-.15-.07-1.22-.02-1.74-.04.07-.08-.06-.13-.64-.12-.18,0-.22.03-.44.03.14.03.5.03.43.09-5.4-.08-7.77,0-12.87-.06-.26-.04-.08-.05.01-.09-1.39,0-2.57.02-3.71,0-.24,0-.16.06-.44.06-.6-.02-1.22-.04-1.07-.16-.58.03-.68.02-.45.12-.22-.02-.22-.07-.65-.06.1-.11.94-.11,1.33-.18.8.06.78.04,1.96.04.32.11-.74.02-.67.09.43.07,1.72.01,1.1-.09.85.03,1.28-.06,1.75,0,.09.07-.32.06-.66.06.3.08,1.4.02,1.32-.06,1.1.03,2.36.04,3.71,0,.61.02.92.08,1.52.1.24,0,.16-.06.44-.06,2.03.03,4.66-.03,6.32.05.21.1-.68.05-1.1.06.76.11,1.6-.04,1.97-.09,2.74.08,4.77.07,7.42.05.16.06.65.02.21.09.68.04.54-.05.88-.06,1.73.05,3.67.06,5.23.04.82,0,1.84-.02,2.62-.02.67.01,1.14.02,1.74.03.34,0,.76-.02,1.09-.03.34,0,.5.06.86.06.3,0,2.08-.03,2.63-.05.23-.01.16-.06.44-.06.52.05.73.04,1.52.03.73,0,.92.07,1.31-.03.69,0,.72.08,1.52.06-.03-.04-.39-.03-.65-.03.25-.12.82-.03,1.31-.03,2.73,0,5.18-.03,8.51.02,1.03,0,2.91,0,4.36.01.39,0,.46.04.87.03.88,0,1.96-.09,2.4.04.2-.07,2.2-.1,2.63-.05.1.01-.51.04-.66.03-.08.05,1.22.06.88-.03.35.05.9.08,1.74.07,0-.03-.26-.02-.43-.03.89-.07,2.69,0,3.93-.02.8.08,1.71.15,3.26.13-.13-.06-1.1-.01-.86-.12,1.25.03,1.46-.08,2.84-.05.81.01,1.67.07,2.61.07-.04.04-.4.02-.66.03.46.08,1.45,0,.88-.09.5,0,.82,0,.86.06,1.29-.09,3.41,0,5.03-.05-.75.09.92.13,1.3.06-.12-.11-1.11.08-.86-.06,2.1,0,4.64.01,6.11.02-.07.05.2.05.21.09l.67-.09c.94,0,1.92,0,2.84,0,1.58-.02,3.29.04,5.01.04.4,0,.91-.02,1.31-.03,1.83,0,5.08.01,7.42.02.7-.02,1.32-.04,1.97-.06,1.42,0,2.76,0,4.15.01,1.73-.02,3.43-.03,5.03-.05.39,0,.46.03.87.03.42-.01.61-.02.88-.03.57,0,1.19.08,1.75-.03,2.66,0,3.01,0,5.67.01.02.05-.28.06-.23.12h-1.75c-.47-.01-.11.1-.24.15.48.02.32-.06.66-.06.55,0,.19.05.43.06.36.02.59-.03.66-.03.54,0,.62.12,1.08.06Zm-113.68-.26c-.44,0-.87-.14-1.31-.03.44,0,.86.14,1.31.03Zm-9.22.44c-.41-.03-1.03-.04-1.52-.07-.14.11,1.13.18,1.29.16-.63-.02.34-.05.23-.09Zm2.14.34c.01-.08-1.44-.12-1.74-.07.47.04.88.08,1.74.07Zm7.43-.07c-.49-.02-1.82-.08-1.97.03.76-.05,1.31.05,1.97-.03Zm5.54-.66c-.29-.07-1.96.03-1.54.06.19-.07,1.39.02,1.54-.06Zm14.77.56c-.58-.03-1.11-.03-1.53.03.47.02,1.4.08,1.53-.03Zm6.55-.04c-.06-.07-.59.03-.66.06h1.96c.22-.11-.85-.04-1.3-.06Zm26.44-.21c-.68-.02-.9.04-1.1.09.56,0,1.12,0,1.1-.09Zm1.13-.27c-.81.03-2.57-.13-2.84.02.83.04.33.02.66-.03.7-.09,2.07.21,2.18,0Zm4.81-.05c-.41-.06-1.34-.01-1.32.09.84.03.95-.05,1.32-.09Zm.43.06c.64,0,.66.07,1.3.06.29-.1-1.09-.13-1.3-.06Zm9.29.73h-.87c-.37.14,1.11.11.87,0Zm3.28-.02c-1.16.04-.66-.15-1.73-.13,0,.1.74.1,1.07.16.26.1-.71.02-.45.12.74,0,.82-.09,1.11-.15Zm6.94.32h.87c.19-.12-1.03-.12-.87,0Zm1.35-.3c-.63,0-1.11,0-1.32.06.24,0,.34.03.43.06.56,0,.85-.04.89-.12Zm11.31.27c.43.06.62.16,1.29.19.36-.11-.61-.1-.86-.12-.07,0,.06-.05,0-.06-.04,0-.38-.03-.43-.03-.28-.02-.58-.01-.87-.03-.23.09.48.06.86.06Zm-1.54.09h-1.09c-.35.09,1.41.09,1.09,0Zm-1.94-.22c.17.15,1.13.02,1.51.13-.06-.07.63-.03.67-.09-.82-.04-1.21.01-2.18-.04Zm-1.78.27c.54.04.63-.05,1.1-.06.23,0,1.16.11,1.09-.03-.41-.05-2.23-.03-2.19.09Zm-3.48-.07c.53-.02,1.13-.02,1.11-.12-.53.02-1.13.02-1.11.12Zm22.38-.89c-.08-.06-.06-.13-.64-.12-.39.06-.5.09-.24.18.59.02.45-.06.88-.06Zm3.08-.18c-.25,0-.34-.03-.43-.06.23,0,.56-.01.22-.03-.48.07-.74-.03-1.53,0-.09.13.78.08,1.3.06-.07.05.28.08.43.03Zm-132.25-.06c-1.06,0-1.23.07-2.2.12-.59-.05-1.05-.12-1.51-.19.46-.11,1.5-.14,2.42-.18-.37.06-.75.12-1.54.12-.08.08.29.1.86.09.17-.15,2.76-.33,3.07-.08-.54,0-.67-.06-1.09,0,.89.14,2.62-.06,3.26.07l.02-.12c-.82-.03-1.05.03-1.75.03-.42-.18,2.08-.15,2.19-.06.62-.03,1.14-.03,1.75,0-.2.05-.81.05-.89.12-.41,0-.14-.1-.64-.09-.32,0-.09.09-.45.09.06.04.54.03.87.03-.27.13-1.22.14-1.98.15-.72,0-1.58-.1-2.39-.1Zm.17.4h-.65c.54-.07-.32-.06-.2-.16.69,0,.74.08.85.16Zm3.73-.17c.84.02.78,0,1.31.03-.01.05-1.63.06-1.31-.03Z"/>
</svg>