<?xml version="1.0" encoding="UTF-8"?>
<svg id="Layer_2" data-name="Layer 2" xmlns="http://www.w3.org/2000/svg" viewBox="0 0 114.56 114.32">
  <defs>
    <style>
      .cls-1 {
        fill-rule: evenodd;
      }

      .cls-1, .cls-2 {
        fill: #395c93;
      }
    </style>
  </defs>
  <g id="Layer_1-2" data-name="Layer 1">
    <circle class="cls-2" cx="57.15" cy="57.21" r="32.79"/>
    <path class="cls-1" d="m86.94,44.7c.05.18.1.36.14.54.44.74.94,2.2.99,2.88.01.23.28.73.32.96.12.58.24,1.21.34,1.9.25,1.8.52,3.36.49,5.15.02.13.05.26.07.39-.02.08-.04.16-.06.23.03.07.06.15.09.22-.05.91-.12,1.91-.18,2.69-.02.24.12.27.11.46,0,.17-.15.37-.17.45-.05.15-.03.47-.04.58,0,.15-.14.3-.16.44-.05.37-.05.78-.16,1.08-.02.04-.14.16-.14.16-.11.72-.25,1.26-.42,1.98-.1.42-.59,1.05-.46,1.46-.03.05-.02.04-.09.09l.05.09c-.13.07-.68,1.92-.66,1.99-.01.02-.02.04-.04.06l-.04-.07-.04.02c.06.46-.45,1.17-.37,1.5-.02-.03-.04-.05-.06-.08-.03.08-.02.1-.12.13.01.07.03.14.04.21-.06.27-.64,1.39-.81,1.48.02,0,.04.01.05.02-.79,2.15-2.09,3.69-3.61,5.69-.19.25-1.02.96-1.02.96-.04.19-.39.4-.49.55-.34.48-.7.91-.95,1.4-.14.28-.58.42-.8.69.06-.05-.46.48-.55.51-.04.02-1,.58-1.08.67-.08.09-.48.53-.6.56-.06-.03-.02,0-.08.02-.04,0-.9.62-1.1.86-.28.33-.71.59-1.06.89-.09,0-.32.02-.39.09-.21.2-.52.43-.75.48-.39.09-.77.23-1.1.5,0-.02,0-.05,0-.07-.47.28-1.32.67-1.67.73-.25.15-.51.31-.76.46-.64.14-2.01.78-2.62.9-.39.08-.99.43-1.36.36-.07.05-.04.03-.08.11-.18-.08-.65.14-.81.15-.1-.02-.2-.03-.3-.05-.05.06-.27.16-.41.17-.81.07-1.63.22-2.51.19,0,0-.41.04-.49.1-.06-.04-.02,0-.06-.08-.03.02-.07.05-.1.07-.05,0-.04.03-.06-.03-.72.39-1.84.21-2.87.38-1.05.18-2.09.06-3.18.02-.45-.02-.94-.24-1.39-.27-1.35-.09-2.52-.2-3.69-.53-.82-.23-1.49-.41-2.18-.68-.16-.06-.75-.23-.81-.33-.16.11-.59-.22-.82-.26-.66-.11-1.31-.46-2.04-.86-.18-.06-.37-.13-.55-.19-.12-.1-.24-.19-.36-.29-.37-.19-.79-.34-1.16-.53-.2-.1-.39-.37-.63-.51-.28-.16-.62-.22-.86-.34-.54-.27-1.01-.56-1.55-.87-.84-.48-1.73-1.52-2.6-2.14-.39-.28-.87-.52-1.24-.85-.54-.47-1.04-1.12-1.53-1.58-.49-.45-.72-1.03-1.15-1.42-.12-.21-.25-.41-.37-.62-.56-.63-.87-1.45-1.29-2.02-.21-.33-.43-.67-.64-1-.09-.18-.17-.36-.26-.54-.34-.36-.69-.85-.84-1.3-.16-.45-.32-.89-.47-1.34-.11-.35-.45-.82-.55-1.18-.04-.16-.06-.4-.22-.59-.49-.6-.53-1.4-.72-2.16-.07-.17-.15-.34-.22-.52-.07-.71-.38-1.26-.49-2.03-.04-.26-.01-.57-.05-.83-.14-1.03-.31-2-.27-2.91-.06-.03-.28-1.53-.29-1.68-.02-.41.12-.81.14-1.2-.03-.38-.07-.76-.1-1.15.01-.78.13-1.65.21-2.37.02-.17-.09-.28-.07-.44.04-.29.14-.56.15-.84,0-.12-.06-.24-.04-.38.03-.27.24-.54.28-.82.18-1.36.41-2.69.72-3.96.16-.67.54-1.22.75-1.88.14-.45.28-.9.43-1.35-.07-.01-.03-.05-.02-.08.11-.47,0-.89.29-1.3.31-.45.45-.93.72-1.36.24-.4.53-.74.72-1.14.09-.2.55-.57.4-.75.17-.13.69-.77.67-.98.02.01.04.02.06.03.11-.26.55-.77.49-1.02.04.01.07.02.11.03.25-.29.51-.52.64-.83,0-.08.9-.98.95-1.23.08.06.47-.42.44-.5.11-.02.68-.38.69-.58.11-.11.46-.19.71-.46.61-.63,1.38-1.26,2.08-1.75-.03-.02-.05-.05-.08-.07.08-.04.21-.02.29-.1.04-.07.04-.04-.01-.11.07,0,.02-.02.06.03.11-.08.58-.38.68-.53.08-.03.17-.06.25-.08.1-.1.12-.21.27-.3,0,.02,0,.05,0,.07.28-.28.8-.39,1.07-.64.39-.36,1.04-.73,1.52-1.13.39-.32.95-.35,1.2-.71.27.04,1.7-.67,1.81-.84.11-.02.08.03.16.05.04-.03.09-.06.13-.09.43-.15.86-.31,1.28-.46.06-.08,1.03-.55,1.29-.62,1.53-.41,3.02-.87,4.51-1.07.26-.03.69-.27.88-.27.46-.02,1-.02,1.44-.07.2-.02.36-.14.59-.08.07-.06.05-.05.08-.11.32.14,1.02-.09,1.45-.14.32-.03.95-.06,1.28.02.09.02.16.09.25.09.1,0,.25.02.32.01.02-.03.05-.05.07-.08.62.21,1.7.06,2.42.1.48.03,1.07.12,1.54.24.13.05.26.09.39.14.5.01,1.01.26,1.56.32.49.06.96.15,1.45.25.5.1,1.16.42,1.69.62.46.18,1.08.17,1.51.41.18.1.39.28.58.33.99.28,2.34.86,3.36,1.47.29.17.48.4.76.53.11.05.36.08.43.12.15.08.4.45.57.47.07.01.1-.08.16-.04l.08.16c.1.08.27.11.38.16.11.1.21.21.32.31.95.29,1.68,1.31,2.59,1.78.1.11.19.22.28.33.04,0,.07,0,.11-.01-.01.03.23.28.28.31.03,0,.07-.02.1-.03.04.06.07.11.11.17.07.05.21.06.29.12.19.16.21.33.43.43.17.21.34.41.51.62.29.14.61.42.86.64.53.49.93,1.11,1.36,1.51.04.29.4.58.61.86.05.13.11.26.16.39.46.54.97,1.26,1.37,1.75.24.43.48.85.72,1.28.31.29.72,1.21,1.04,1.68.23.34.59.94.79,1.51.08.22.36.52.4.72h0Zm25.67-1.17c-.84-.42-1.39-.41-2.35-.62-.39-.08-.74-.38-1.07-.48-.28-.09-.58-.15-.87-.23-.21-.05-.5.01-.69-.1-.37-.22-.7-.4-1.1-.49-.29-.03-.57-.05-.86-.08-.72-.18-1.47-.4-2.19-.54-.45-.08-.77-.05-1.19-.22-.05-.03,0,0-.01-.06-.17.1-.54-.09-.64-.19-.14-.14-.3-.82-.41-1.1-.14-.35-.43-.72-.52-1.13-.09-.43-.48-1.02-.63-1.5-.06-.17-.11-.33-.17-.5-.15-.21-.36-.46-.44-.75-.11-.45-.55-1.04-.61-1.38-.08-.46-.64-1.51-.92-1.89-.25-.33-1.06-1.61-1.15-1.67-.47-.33-1.31-1.69-1.51-2.14.2-.36.3-.91.36-1.27.04-.04.08-.07.12-.11.12-.24.13-.62.17-.81l.11-.06c.13-.36.25-.73.38-1.1.2-.54.31-1.13.51-1.67.32-.86.73-1.79.9-2.75.09-.53.43-1.24.69-1.71.05-.09.18-.21.2-.35.04-.22-.16-.43-.24-.55,0-.04,0,0,.04-.05-.04-.02-.08-.03-.12-.05-.05-.11-.04-.12.03-.2-.02-.43-1.46-1.61-1.74-1.85-.31-.26-.53-.81-.85-1.05-.04-.02-.08-.03-.12-.05-.13-.14-.26-.29-.39-.43-.12-.32-.97-.89-1.35-1.15-.35-.23-.63-.61-1-.91-.39-.32-.97-.61-1.37-.87-.33-.22-.52-.6-.84-.78-.35-.2-.78-.31-1.14-.52-.62-.36-1.14-.73-1.74-1.02-.22-.11-.5-.01-.68-.12-.14.03-.18-.06-.26-.2-.54-.08-1.12.37-1.47.49.02.01.03.03.05.04-.33.26-.97.53-1.42.8-.21.13-.98.55-.98.55-.05.11-1.74,1.19-2.24,1.5-.46.28-.77.28-1.11.53-.48.37-1.57,1.23-1.93,1.27-.1.15-.65.39-.78.38-.11-.01-.26-.06-.37-.15,0-.02,0-.05,0-.07-.59-.15-.84-.46-1.41-.69-.33-.14-.64-.14-.96-.27-.54-.22-.99-.43-1.55-.62-.14-.08-.29-.17-.43-.25-.69-.16-1.44-.46-2.08-.76-.64-.29-1.76-.35-2.51-.53-.34-.09-.68-.27-1.03-.32-.46-.06-.86-.07-1.28-.27,0,.06-.42-.04-.48-.05-.52-.12-1.04-.25-1.56-.37-.2-.03-.77-1.52-.9-1.68l-.39-.75c-.33-.65-.66-1.3-1-1.95-.41-1-1.18-2.13-1.61-3.16-.34-.82-.61-1.75-1.23-2.48-.29.1-.67-.03-.95-.03-.38,0-.6.11-.98.12-.51.02-1.08-.07-1.61-.03-.72.05-1.09.2-1.83.2-.05.08-1.1.17-1.29.15-.05.17-1.62.22-1.74.2-.4-.07-1.87.41-2.12.21-.03.04-.05.07-.08.11-.26-.05-.98.09-1.1.16-.04-.02-.02.01-.04-.03-.23-.06-1.68.44-1.86.26-.15.11-.55.35-.68.53-.5.71-.6,1.65-.97,2.4-.71,1.44-1.15,3.21-1.39,4.76-.18.55-.37,1.09-.55,1.64-.07.15-.2.27-.24.37-.16.48-.35,1.05-.54,1.48-.14.31-.87.38-1.29.67-.13.09-.99.43-1.31.41,0,0-.82.41-1.09.52-.07.03-.91.31-.91.31-.13.28-1.07.6-1.41.69-.03.03-.69.42-.69.42-.15.04-.31.08-.46.12-.51.35-1.13.59-1.53,1.06-.13,0-.95.51-1.11.66-.13.12-.16.25-.28.37-.25.14-.5.29-.75.43-.64.58-1.38.96-1.81,1.19-.09,0-.12,0-.18-.09-.01.03-.03.06-.04.09-.01-.06-1.22-.29-1.51-.41-.06-.02-.49-.28-.54-.2.03.05-.04-.01-.05-.02-.41-.19-.84-.29-1.25-.48-.04-.02-.38-.04-.37-.1-.15-.2-1.13-.27-1.5-.47-.17-.09-.24-.17-.4-.29-.14-.02-.28-.04-.42-.06-.23-.04-.48-.19-.71-.27-.18-.09-.36-.17-.55-.26-.44-.06-1.07-.26-1.41-.44-.08.01-.17.03-.25.04-.19-.03-.33-.14-.53-.11-.09-.12-.18-.24-.28-.35-.11,0-.22,0-.32-.01-.29.17-.39.43-.58.64-.25.28-.53.31-.86.65-.19.2-.32.47-.55.69-.15.02-1.05.96-1.18,1.13-.06.08-.08.24-.21.29-.27.1-.57.55-.77.87,0,.01-.02.02-.03.04-.26.16-.56.61-.68.87-.08.16-.68.64-.89.87-.26.29-.48.67-.61,1.01-.08-.02-.68.82-.74.93-.11.09-.23.18-.34.27-.29.73-1.02,1.35-1.32,2.08-.05-.02-.34.34-.38.49-.06,0-.11.01-.17.02,0,.1,0,.06.08.12-.03.09-.07.19-.1.28.14.15.51.83.5,1.08.1.02.29.46.35.59.06.13.12.26.18.38.1.09.72.98.82,1.22.07.16.14.32.21.48.23.31.46.62.69.93.28.35.37.81.62,1.15.08.17.16.34.24.51.22.22.65.81.76,1.01.37.68,1.51,2.21,1.46,2.93-.01.18-.2.36-.31.54-.19.33-.26.74-.45,1.09-.31.6-.57,1.41-.68,2.05,0,.12.02.23.02.35-.14.29-.44.62-.51.81l.05.09c-.01.16-.17.25-.19.37-.02.08.03.16.01.24-.07.26-.23.51-.19.8-.03.02-.07.05-.1.07l.05.09c-.06.12-.03.29-.17.41.02.01.04.02.06.03-.14.05-.18.56-.26.77-.1.26-.1.6-.16.94-.09.47-.59,1.01-.39,1.51-.03,0-.05.01-.08.02-.07.31-.36,2.24-.26,2.5-.02,0-.05,0-.07,0,.03.04,0,.02.06.06-.29.81-1.06.68-1.77,1.27-.35.29-.96.76-1.34.87-.33.15-.65.29-.98.44-.34.27-.71.34-.97.5-.64.4-1.27.7-1.72.84-.71.23-1.08.62-1.58.8-.22.08-.79.29-.87.38-.25.3-.78.36-.95.67-.35.66,0,1.68-.04,2.44-.09,1.58.01,3.09.14,4.74.05.62.28,1.09.36,1.78.06.49.04,1.06.11,1.5.01.1.13.26.12.32-.06.48.21,1.49.3,2.01l.21.41c.05.43-.13,1.15.1,1.58.43.13.82.39,1.24.51,1.23.34,2.32.63,3.56.85.17.03.35.17.51.23.13.06.31-.02.44.02.38.12.66.31,1.06.33.36.02.69.18,1.02.22.12.01.2-.05.31-.02-.02.05.04.04.07.05.31.08.65.3.97.33.23.02.49,0,.74.02.21.02.42.2.62.22.24.03.59-.04.8.09.14.04.28.64.33.85.13.54.47,1.28.66,1.96.08.28.38.61.39.84.07.03.07.04.15.03.09.38.31.69.32,1.01.03,0,.07.01.1.02.04.15.15.3.18.47.09.19.12.15.26.18,0,.08,0,.09-.04.18.2.16.3.6.52.77-.01.03-.03.06-.04.09.21.37.94,1.61,1.28,1.8-.04.2.86,1.38,1.03,1.57-.03.03-.06.06-.09.09.05.04.1.07.15.11-.02,0-.05,0-.07,0,.12.31.31.46.53.67.03.28.47.84.64,1.09-.05.07-.41,1.45-.36,1.57-.02.12-.25.4-.12.51-.02.05-.19.34-.24.37-.07.21-.06.46-.15.67-.1.22-.27.41-.32.64-.14.59-.15,1.23-.41,1.77-.26.54-.58,1.13-.68,1.7.02,0,.04.01.05.02-.18.05-.41,1.32-.51,1.59-.19.52-.6,1.41-.55,1.95.02.22.83,1.15,1.02,1.3v.02c.06.08.62.66.81.83,0,.13.52.57.65.59.02.04.03.09.05.13.03.12.6.75.69.84.31.31.89.54.94.93.04,0,.08-.01.13-.02.17.14.34.39.57.36-.02.02-.04.05-.05.07.04.04.07.08.11.12.08,0,.04.02.07-.04,0,0,.92.76.98.83-.02,0-.04,0-.06,0,.11.07.35.11.4.15.24.2.54.55.87.75.17.1.37.11.52.25.06-.04.02,0,.05-.07h.02c.16.2.35.26.51.36,0,.02.46.46.48.48.59.37,1.23.77,1.83,1.15.17.11.78.59.92.59.34,0,.59-.35.97-.41.61-.1,1.48-.73,1.92-1.06.14-.1.56-.15.71-.3l.05-.16c.11-.14.55-.33.68-.44.22-.18.77-.4.93-.44.44-.1.99-.62,1.4-.88.21-.14.29-.1.39-.29.23.02.38-.13.61-.22,0-.04,0-.08,0-.12.3.07.43-.25.73-.33.58-.16,1.15-.67,1.77-.96.56.36,1.16.57,1.75.81.34.19.67.39,1.01.58.37.13.74.25,1.11.38.57.26,1.15.57,1.75.74.06,0,0,0,.04-.05.26.14.55.14.83.2.27.06.52.3.79.34.62.08,1.28.25,1.86.3.13.06.26.12.39.18.56.08,1.1.26,1.68.38.68.14,1.44.07,2.04.34.11.53.93,2.07,1.24,2.36,0,.2.14.57.27.74.18.22.55.66.64.87.05.11.31.63.31.63.11.16.23.32.34.48.12.5.5,1.02.65,1.5.37,1.2,1.03,2.07,1.52,3.17.22.11.34.03.6.03.15.04.3.08.45.13.28.04.61.04.87.05.16,0,.3-.1.41-.08.55.11,1.29-.07,1.87-.11.09,0,.25-.09.3-.09,1.06.17,2.31-.24,3.36-.18h.02c.07-.01.13,0,.16,0,.02,0,.12-.13.12-.13.06,0,.09.08.14.09.52.08.84-.28,1.25-.13.07-.07.04,0,.04-.09.28.1.66.07.87-.16.02.09.02.06-.02.13v.02c.1-.03.08-.05.12-.13.08.02.04,0,.08.07.47,0,.99-.09,1.43-.13.06,0,.34-.18.34-.18.66-.02,2.24-.35,2.82-.96-.01-.05-.11-.26-.11-.26.07-.06.14-.12.2-.17.1-.2.04-.41.16-.65.22-.45.24-.99.42-1.46.13-.35.31-.66.48-.99.29-.56.38-1.39.54-2.04.04-.16.17-.22.26-.38.02-.12.04-.23.07-.35.09-.26.28-.49.36-.75.19-.67.29-1.29.39-1.99.08-.5.52-1.36.48-1.85.14-.29.97-.49,1.36-.57.13-.03.2-.15.26-.16.11-.02.33,0,.42-.06.99-.7,2.5-1.1,3.64-1.73.08-.03.07,0,.06-.1.06.02,2-.98,2.36-1.27.3-.24.76-.18.91-.56,1.06-.28,1.92-1.4,3.16-2.04.43.25,1.03.31,1.5.56.75.4,1.6.74,2.44.84.16.07.32.14.47.21.55.21,1.09.35,1.63.6.11.05.66.18.78.18.06-.02.12-.03.18-.05,0,.03.01.05.02.08.25.14.8.3,1.09.39.34.1.81.08,1.13.25.31.17.8.36,1.15.38.32.02.41-.34.61-.45.13-.07.13-.19.2-.26.35-.37.8-.63,1.09-.99.02-.05.02-.03-.01-.11.03.01.06.03.09.04.13-.25.48-.6.72-.71,0-.03-.02-.07-.03-.1.15-.12.64-.36.63-.66.06-.04.11-.08.23-.17-.04-.07-.05,0-.02-.08.05.02.06.05.14-.03.16-.16.28-.47.43-.7.15-.22.46-.34.62-.59.4-.63.94-1.08,1.3-1.73.15-.27.66-.62.8-.82.05-.07.07-.25.11-.31.04-.06.22-.13.27-.18.18-.18.31-.47.41-.69.16-.34.88-.74.77-1.1.2-.41.81-.79.84-1.27-.04-.2-.07-.4-.11-.6-.16-.22-.36-.61-.53-.83-.08-.16-.16-.33-.23-.49-.99-1.17-1.58-2.99-2.63-4.49-.05-.16-.11-.32-.16-.48-.3-.43-.6-.85-.9-1.28-.03-.24-1.1-1.85-1.16-1.91.26-.54.46-.89.65-1.4,0-.06-.01-.11-.02-.17.3-.77.8-1.42.91-2.26.04-.32.42-.93.29-1.23.02.03.04.05.06.08.11-.1.14-.27.07-.35.15-.07.55-1.58.57-1.81.01-.08.04-.06-.04-.07,0-.11-.02-.06.07-.08-.01-.08,0-.02-.04-.07.13-.44.35-.79.45-1.23.05-.23.01-.49.16-.69-.07-.05,0-.03-.08-.03.17-.25.43-1.05.4-1.36,0-.06-.13-.09-.1-.2.06-.06.12-.12.18-.18.04-.13.09-.61.1-.77,0-.19-.13-.45-.07-.66.07-.24.24-.89.21-1.12.7-.3,1.43-.71,2.03-.89.6-.18,1.2-.8,1.81-.89.01-.06,0-.01-.01-.06.21-.04.42-.18.58-.19.03-.07.07-.16.2-.19.51-.12,1.72-.68,1.87-.65,0-.05.01-.1.02-.14.65-.09,1.1-.61,1.82-.87.13-.11.26-.23.39-.34.36-.3.85-.51,1.18-.31.26-.15.15-.42.12-.6.15-.14.38-.17.47-.31.02-.04-.04-1.17-.03-1.36.06-.98-.05-1.94.06-2.79.04-.3-.11-1.25-.01-1.37-.04-.02-.08-.03-.12-.05.09-.32.04-.6-.05-1.01-.04-.04-.07-.08-.11-.12.03-.09.06-.18.09-.27,0-.49-.18-.94-.2-1.43-.01-.21.05-.51.02-.74-.03-.3-.21-.94-.28-1.14l-.09-.09c.01-.2.02-.43,0-.65l-.14-.27c-.08-.42-.16-.83-.25-1.25-.02-.2-.19-1.87-.32-2-.17-.17-.32-.12-.46-.19h0Z"/>
  </g>
</svg>