<?xml version="1.0" encoding="UTF-8"?>
<svg id="Layer_1" data-name="Layer 1" xmlns="http://www.w3.org/2000/svg" viewBox="0 0 1538.21 52.93">
  <defs>
    <style>
      .cls-1 {
        fill-rule: evenodd;
      }

      .cls-1, .cls-2 {
        fill: #19214f;
      }
    </style>
  </defs>
  <rect class="cls-2" y="14.92" width="1554.74" height="24.3"/>
  <path class="cls-1" d="M195.56,22.49c-.07.34-3.87.21-2.92.67-1.41,0-2.81,0-4.22,0-.71-.25,5.54-.4,1.48-.51.47-.23,3.55-.13,5.66-.16ZM214.02,21.34c-.37.18-2.81.11-2.87.33-2.9.18-1.97-.3-2.76-.35-2.25-.14-8.29.26-6.98-.35,5.89-.07,9.51.12,12.6.37ZM195.51,22.83l7.03.02c-.08.52-8.36.68-7.03-.02ZM274.66,20.45c-3.35.24-2.67.35-7.06.15-2.61.02-.95.57-2.92.67-4.69-.01-9.38-.02-14.07-.03-4.45-.15,2.53-.22,4.25-.16-.37-.4-4.83-.33-4.09-.86-2.61.02-.95.57-2.91.67-8.19.12-9.2-.6-12.51-1.05-4.18.22-8.74.19-11.23-.19,6.4-.35,16.08.35,22.43.56-.88-.17-3.21-.18-2.74-.52,5.13.07,11.11.04,11.15.7,7.89.41,13.12-.53,19.77-.47-.37,0,.9.55,2.76.35.31-.48-4.71-.34-2.66-1.03,4.5.37,6.25-.15,9.87-.15,2.56,0,4.3.35,8.42.19-.07.17-1.75.13-2.84.16-4.77.44-3.68,1.61-11.51,1.67,3.53-.19,2.77-.92,5.8-1.18-.2-.2-2.54-.15-4.19-.18-1.06.4-1.77.5-2.99,1.18-3.01.07-2.64-.25-2.74-.52ZM223.66,22.72c.9.59-5.02.6-7.08.32.26-.37,3.6-.36,7.08-.32ZM254.61,22.79c-.94,0-1.88,0-2.81,0-4.51.14-4.31-.28-6.98-.35-12.39-.15,2.09-.06,4.27-.33,1.61.26,5.82.21,5.53.69ZM233.46,23.08c-2.95.07-3.71-.13-5.6-.18,1.68-.31,7.48-.1,5.75-.84,3.12.08.96.9-.15,1.02ZM216.84,21.34c-3.88-.08,0-.53,2.86-.33-1.14-.42-9.8.03-11.2-.36,3.27-.35,4.97.09,9.87-.15.38.4,4.84.33,4.09.86-2.64.16-4.63-.52-5.62-.01ZM187.25,21.62c-1.54-.73,11.6-.7,9.84.02-3.96-.19-5.84-.19-9.84-.02ZM678.41,37.36c-1.53.57,4.34.27,6.98.36-1.17.31-6.69.5-7.03-.02-2.62.02-.95.57-2.92.67-3.31-.31-7.95,0-11.23-.2-.55-.03.52-.45.07-.51-.9-.12-9.9.11-5.58-.35,5.7-.16,6.21.28,8.37.53,3.6-.01,6.71-.08,8.48-.32-1.75-.72-4.62,0-8.44-.02-4.55-.83-25.61-.07-35.09-.58,20.34-.18,46.64-.04,66.11.14-3.42.49-16.33-.2-19.74.3ZM723.75,35.25c1.86-.74,7.69-.21,11.33-.48,2.23-.17,1.39-.12,5.63.01,2.46,1.23-15.66.46-16.96.47ZM711.17,34.71c-1,.13-2.25.46-.08.51,2.87.1,3.4-.32,1.46-.34,2.68-.51,6.66.21,11.25.02l-.05.34c-10.76.11-20.97.66-29.64.61-4.68-.02-5.32-.53-11.23-.19-1.65-.23-.5-.27.08-.51-1.26-.46-7.04-.4-11.18-.53-1.24-.67,11.54.22,8.49-.32,2.8-.53,4.1.51,5.52.69,3.53-.26,3.47.31,4.17.35,1.51.08,4.26-.09,5.63.01.66.05.11.51,2.76.35,1.47-.04.65-.2.05-.34-1.75-.42-2.98-.03-6.99-.35-.25-.02,2.05-.3,1.46-.34-2.43-.15-8.19.27-6.98-.35,11.39.07,17.14.27,25.27.39ZM708.28,35.21c-2.67-.08-2.47-.49-6.98-.35-1.76.5,5.82.74,6.98.35ZM205.68,20.64c-5.78,0-5.53-.69-12.58-.54,3.98-.54,7.79-.49,11.25.02,2.86-.41,9.22-.74,12.69-.14,3.25.39-3.68-.15-7.04-.02-2.9.04-2.87.45-4.32.67ZM752.03,34.29c5.49-.11,12.48.81,4.09.86,4.9-.57-4.94-.27-4.09-.86ZM740.6,35.45c2.35,0,4.69.01,7.04.02,2.08.53-9.26.5-7.04-.02ZM182.87,22.63c1.4,0,2.81,0,4.22,0l-.1.68c-1.41,0-2.81,0-4.22,0,2.39-.33-.1-.22.1-.68ZM667.65,34.11c1.04-.44,6.45-.34,7.15-.83,9.78.08,21.95-.11,29.52.23-8.48.42-18.56-.1-26.75.11-4.34.11-5.63.47-9.92.49ZM215.21,29.73c4.5-.89,12.35-.53,22.58-.46-1.23.56-6.93.09-11.28.15-4.45.06-7.34.36-11.31.32ZM290.01,21.33c-6.05,0,2.25.73-4.32.67.88.18,3.21.18,2.74.52-2.64.14-4.51-.12-7.01-.18-2.38-.06-8.23.2-6.98-.35,3.27-.05,5.4.04,7.01.18,3.04.02.28-.58.07-.51,1.02-.33,6.34,0,4.32-.67,6.49.43,7.88-.35,12.66.03-.77.13-1.51.27-1.49.51-2.03-.1-7.3.18-7-.19ZM641.02,33.37c2.19-.47,6.12-.29,8.44.02,1.37,0,1.12-.21,1.45-.34,3.25.35,6.69-.14,9.87-.15,1.61,0,6.34-.18,5.58.35-5.97-.24-9.24.46-12.74.48-4.44.03-6.62-.43-12.61-.37ZM1293.1,38.69c1.91.69-12.82,1.11-11.28.15,2.79,0,1.72.47,5.58.35,3.35-.04-1.49-.46-2.74-.52-6.09-.07-3.6.93-9.97.83,1.05-.58,6.14-1.19,11.43-1.16,3.43.02,3.33.35,6.98.35ZM1176.43,37.93c-3.41.07-8.94.41-8.39-.36,2.67.08,2.47.49,6.98.35,1.15-.58-5.68-.23-4.09-.86,3.76.09,13.51.69,11.25.03,2.12-.45,7.71.09,6.96.52-1.64.06-4.07-.09-5.63-.01-.82.04-1.18.33-1.46.34-1.69.06-3.87-.05-5.63-.01ZM1197.2,40.18c-4.31.38-14.52.03-21.12.12,1.91-.28,3.81-.56,2.99-1.18,4.76-.16,2.11.53,2.69.85,3.74.17,1.73-.34,2.89-.5.77-.11,3.32-.18,2.82,0,.69-.25.49-.46-1.31-.68-.84-.1-1.75.15-1.43.17-1.39-.09-5.59-.78-8.36-.53,1.64-.41,7.25-.42,8.43.02,7.53.05,7.08-.5,14.09-.14-.22.43-4.76.33-8.49.32l-.07.51c5.51-.01,5.7-.57,11.27-.14,1.65-.02,1.24-.31,1.48-.51,3.87-.11,2.79.34,5.58.35,3.98.04,2.83-.57,8.49-.32-.13.56-4.1.64-8.55.66-5.07.35-4.34.63-5.8,1.18-5.38.24-.17-.76-5.55-.52-1.77.04-1.47.33-.05.34ZM1275.1,36.79c2.03-.27,2.71.15,5.61.18,2.66.03,4.19-.2,5.65-.16,3.78.11,6.01.52,9.77.53-3.81.92-9.83-.45-15.5.14-1.23-.3-3.07-.53-5.52-.69ZM1255.32,37.25c-.62-.33,6.54-.53,7.07-.15,3.4-.21,5.27-.61,11.32-.48-7.17.25-2.53.72,2.7.85-6.19.89-11.88-.33-19.72.13.25-.2-.26-.3-1.36-.34ZM1130.01,37.83c1.4,0,2.81,0,4.22,0-.86.41-1.33.87-5.76.84-1.09-.48,2.05-.43,1.54-.85ZM1131.08,40.04c2.67.08,2.47.49,6.98.35,1.45-.11,1.52-.39,4.28-.33-.16.24-.31.48,1.33.51-3.5.18-12.23.35-12.59-.54ZM1145.1,40.41c1.62-.68,6.69.07,12.69-.14-2.61-.75,9.49.14,14.12-.31.97.74-7.36.43-11.34.48-5.75.09-12.11.34-15.47-.03ZM1142.42,39.55c.06-.17,1.74-.13,2.84-.16.1-.29-.98-.44-2.74-.52-.21-.23,8.17-.2,2.89-.5.72-.61,4.94.15,5.6.18,1.65.07,4.04-.07,5.62.01.68.04.81.31,1.36.34,2.09.12,4.95-.09,4.16.35,2.5.04,7.07-.16,5.58.35-3.6-.24-8.56-.17-12.62-.37-2.5-.12-4.84-1.05-8.38-.36,2.46.33,9.26.15,8.31.87-7.05.12-6.79-.61-12.63-.2ZM1293.33,37.17c-.84-.15-1.65-.31.06-.34,5.9-.14,19.47.14,29.54.06,5.11-.11,5.04.3-.03.17-9.95.14-20.24.36-29.57.11ZM1151.19,37.37c2.67-.24,1.8-.93,7.16-.83-4.23.23,3.56.89-2.95.84.84.35,7.1.06,5.52.69-5.27-.51-11.93-.02-19.63-.38,3.73-.44-2.25-.14-1.31-.68,6.44-.19,5.45.48,11.2.36ZM1154.25,35.68c-4.57-.42,10.03.11,9.9-.32,3.93.28,6.01-.18,9.82.19-5.21.11-12.46.65-15.55.48,4.75-.34,1.18-.36-4.17-.35ZM1252.31,38.6c2.9.1,3.22-.32,4.27-.33,3.59-.03,1.69.45,5.56.52-3.34.54.37.89-5.78,1.01-.94-.52,2.5-.49,1.56-1.01-3.62-.09-8.07.58-4.35.84-.29.19-1.43.09-1.41,0h-2.82c-.97-.53,3.92-.32,2.95-.85-6.24.15-7.48.47-12.69.14.17-.5,3.31-.62,5.75-.84,4.61,0,3.73.41,6.96.52ZM1419.95,37.27c-2.63-.34,11.3-.08,15.5-.14-2.49.76-9.56,0-15.5.14ZM1364.59,40.55c2.23.3,5.82.43,11.2.36-.6.54-9.77.52-9.87.15-.58.39-5.66.21-7.1.49,4.34.54,13.63-.08,15.5-.14-.27,0,.22.33-.05.34,2.98-.12,4.32-.42,5.73-.67,2.4,0,3.62.14,4.17.35,3.54-.07,7.78-.25,9.88-.15,5.38-.24.16.76,5.55.52,1.97-.06.16-.3-1.36-.34,1.11-.38,7.91-.05,11.28-.15-1.76.24-5.41.25-7.11.49.25.14,1.39.17,1.35.34,3.17-.07,4.54-.35,7.12-.49-1.37.57,10.72.45,13.98.54-2.68.18-4.99.41-8.51.49.4.23,3.5.15,5.6.18-4.48.5-20.84.65-29.64.61-2.38-.01-2.65-.09-2.76-.35-1.48.07-1.08.29-2.86.33-2.97.07-2.2-.35-2.77-.35-1.75,0-2.4.29-4.27.33-3.03.06-7.24-.35-11.2-.36-6.29-.02-11.98.2-18.31.13-5.56-.06-10.79-.45-16.81-.55-2.37-.04-3.68.16-4.24.16-9.38,0-18.49-.63-26.73-.06-1-.16-2.52-.26-4.17-.35,1.16-.37,8.7.05,7.13-.66-4.06.24-8.26.46-11.37.82-6.58-.6-18.8-.13-28.08-.4-3.38-.1-3.06-.35-5.56-.52-3.49-.25-8.53-.07-9.77-.53,1.17-.79,8.15-.16,11.28-.15,4.34.02,9.45-.04,12.66.03,1.51.03,2.84-.16,2.84-.16,1.05.03,3.77.34,4.16.35,1.69.02,5.01-.17,7.06-.16,4.96.04,6.45.2,11.28-.15.31.5-5.74.62-.13.85,2.09-.07-.53-.22.08-.51,3.12-.19,7.79-.18,8.54-.66,11,.31,18.26.13,26.65.57,5.41-.13,9.39-.44,11.41-.99,3.48.15,7.5.24,12.63.2l-.1.68c3.67.06,6.06-.05,5.7-.5ZM1313.87,40.95c.27.19,1.52.27,2.76.35.07-.79-3.95-.33-8.39-.36,1.24.3.35.85,2.66,1.02,3.07-.38-1.72-.75,2.97-1.01ZM1323.68,41.31c-4.41-.09-3.79.45-7.12.49,0-.17-2.43-.22-2.82,0,5.28-.17,2.14.64,6.96.52-1.41-.64,3.57-.48,2.97-1.01ZM1333.46,41.67c-.61-.49-5.27-.5-8.34-.7-1.24.48,1.92.44,1.28.85,3.38.08,3.1-.3,7.06-.15ZM1393.8,42.82c1.09.04,1.61.15,1.36.34,3.44-.09,7.25-.13,7.13-.66-4.04-.04-7.15.03-8.49.32ZM1351.67,42.22c-4.5.18-13.81-.44-11.25-.02,1.69.15,14.49.36,11.25.02ZM1356.07,41.04c-.82-1-14.36-.09-15.54.47,8.07.2,6.78-.76,15.54-.47ZM761.84,34.65c4.78.14,1.88-.69,7.1-.49-.57.5-5.85.42-4.4,1.18-2.47-.05-3.16-.3-2.71-.68ZM1554.74,39.26c-1.92.72-6.99-.03-12.69.14-3.37-.32,9.29-.09,12.69-.14ZM1295.89,38.87c5.36-.23,2.64.47,6.99.36-2.04.53-6.91-.25-8.47.15-4.76-.19,3.92-.04,1.48-.51ZM1305.52,40.42c.72.38-2.73.24-2.9.5-3.96-.19-5.83-.19-9.85-.02,2.23-.79,6.31-.28,12.74-.48ZM1336.99,36.92c1.87,0,3.75,0,5.63.01-.77.14-1.52.27-1.49.51.94,0,1.87,0,2.81,0,1.77-.04,1.47-.33.05-.34,1.8-.51,5.35.13,7.01.18.22-.3-1.67-.36-1.3-.68,3.34.59,7.37.45,14.01.37-.5.4-6.68.09-5.72.67-.42.02-1.47-.07-2.41-.16-.94-.1-1.74-.19-1.76-.19-.45.01-.82.09-1.07.18s-.4.16-.39.16c-3.06,0-6.08-.17-12.66-.03.03-.34-3.8-.22-2.7-.69ZM315.25,21.9c.22.51-5.11.59-7.08.32.26-.37,3.6-.36,7.08-.32ZM1326.91,38.43c5.81,0,10.17.72,12.69-.14,5.28-.17,3.94.43,8.39.36,5.46.14,7.38-.61,11.28-.14-1.34.32-5.9.43-11.33.48-7.04.07-19.79.24-21.03-.56ZM1324.08,38.59c-1.28,1.35-12.1.07-18.39.64,1.72-.76.86-.22-2.74-.52,4.99-.84,13.67.49,21.13-.12ZM1335.1,40.14c2.52.01,3-.19,5.65-.16,2.15.67-6.08.05-5.7.5-6.66-.17-12.69-.41-21.05-.39-2.26-.48,17.17.02,21.1.05ZM1548.18,26.69c-3.68.72-5.16,1.72-11.58,2.18-1,.07-4.87.03-7.06.15-2.18.12-7.72.63-12.71.31-2.94.09-4.6.35-7.11.49-20.2-.19-33.02.29-46.41-.1,1.05-.16,2.59-.25,4.28-.33-.9-.53-3.73-.23-7.01-.19-.97-.53-8.24-.92-11.15-.7,4,.51,8.09,1.02,12.5,1.05-5.56.41-10.36-.15-16.9.13,2.51-.57-4.06-.59,2.91-.67-1.93-.24-6.89-.38-8.41-.19.2.53,5.5.47,4.04,1.2-2.35,0-4.69-.01-7.03-.02,9.1-.21-1.51-1.11-5.53-.69-.21.26,3.07.07,4.19.18,3.28.32-7.83.05-11.3.31-.89-.17-3.21-.18-2.74-.52-4.3.41-10.7-.3-15.39-.54,7.27-.24,15.93-.31,17.08-1.32,1.51.04.9.34,2.76.34,4.23-.1-1.29-.37.1-.68,5.28.14,6.76-.19,11.28-.14,1.34.51-3.18.29-5.68.33-1.4.78,9.87.4,11.25.02,4.44-.07,3.1.53,8.38.36,1.47-.17,2.9-.34,4.3-.5,0-.38-4.54-.02-4.22,0-1.83-.05-2.16-.33-4.17-.35-2.24-.02-6.39.28-11.25-.02,12.34-.14,25.34-.28,38.07-.43-1.81.71-1.7,1.19-.26,1.7,4.28.13,4.17-.28,8.46-.15,3.85-.15-3.7-.32-1.28-.85,2.35,0,4.69.01,7.04.02-.47-.78-4.38-.65-9.77-.53,3.52-.65,14.48-.38,21.2-.63-.77.14-1.51.27-1.49.51,3.5.03,4.4-.26,7.09-.32-.6-.15-1.18-.31-2.75-.35,5.99-.52,16.76-.44,25.42-.62-1.61.24-1.58.41,1.33.51,3.1.13,5.89-.61,2.92-.67.23-.37,5.98-.06,8.46-.15,3.61.52,4.05,1.42,8.16,1.88ZM1448.03,28.34c.23-.54-10.46-.77-11.23-.19,3.92.27,5.78-.04,11.23.19ZM1473.37,28.22c-4.19-.46-5.84-.46-4.01-1.37-7.24-.2-2.19,1.01-4.37,1.01-2.06-.43-13.1-.53-12.71.31,4.4.2,3.46-.26,5.68-.33,5.65.2,10.56,1,15.42.37ZM1503.07,27.27c-5.57-.3-6.96.04-9.87.15-1.98.07-9.03-.21-7.09.32.3.35,6.17.06,6.98.36,1.99-.82,6.5-.38,9.98-.83ZM1500.1,28.28c-.5.45,2.87.44,5.55.52,1.5-.56-1.87-.56-5.55-.52ZM1510.14,26.94c-3.51-.03-4.44.25-5.7.5,1.9.06,2.65.25,5.6.18l.1-.68ZM1514.44,26.45c-1.17.12-3.96,1.17,1.25,1.02,2.16,0,3.27-1.25-1.25-1.02ZM1534.23,25.81c1.48,0,1.14-.21-1.38-.17-.45.55,1.55.82,5.51.86,1.31-.54-4.61-.24-4.12-.69ZM867.33,34.88c-3.47-.21-10.98.05-11.18-.53,6.17-.11,7.88.31,14.05.2-.38.18-2.82.11-2.87.33ZM863.21,34.19c-4.71-.38,6.54-.73,8.49-.32-1.58.36-6.87-.29-8.49.32ZM909.67,33.96c-.7.36-12.33,1.2-16.93.3-2.64.13-5.19.27-8.49.32-.24-.15.58-.16,1.43-.17.29-.14-.52-.16-1.37-.17,4.37-.75,18.46.79,18.36-.47,3.99-.13,3.6.25,7,.18ZM851.91,34.51c-6.82-.16-7.3.47-14.12.31.19-.72,8.87-.39,11.39-.82,2.19.15,8.28.69,4.06,1.03.06.53,5.56-.51,5.62.01-.3.66-6.38.48-9.9.32-1.12-.54,2.29-.52,2.94-.84ZM889.74,35.61c-8.94-.19-12.89-.02-22.48-.22,1.27-.76,6.88-.98,14.22-.99,2.15.67-6.09.05-5.71.5,4.26.59,11.78-.18,13.97.71ZM1190.8,35.93c-.25-.29,2.47-.43.08-.51,2.18-.51,6.29.14,5.56.52-1.88,0-3.76,0-5.64-.01ZM827.89,35.14c3.8-.12,6.89.31,14.07.03-.51.4-6.69.09-5.74.67-3.29-.17-8.91-.08-8.33-.7ZM773.32,33.15c1.22-.38,14.59-.53,18.28.04,1.17.64-2.54.01-4.22,0-4.01-.05-10.54.18-14.06-.03ZM905.23,35.47c8.94-.02,1.13-1.09,10-1-.88.47-4.53.59-4.4,1.18-5.79-.02-12.39.42-14.01-.37,4.24.14,11.92-.5,8.41.19ZM798.68,32.87c3.39-.38,12.63-.03,18.31-.13-6.43.33-12.81.38-18.31.13ZM813.93,34.43c3.61.32,4.25-.06,8.41.19-.44.35-5.27.15-5.7.5-1.87-.12-2.57-.37-2.71-.68ZM777.28,34.85c.49-.45-1.86-.56-5.55-.52,3.37-.76,11.23.11,16.93-.3,1.38.23,1.23.63,4.12.69,4.23-.1-1.29-.37.1-.68,1.23.13,3.14.19,5.59.18,1.3.32-4.29.56-.1.68-.53.24-7.25.56-8.46.15-2.8,0-1.86.46-5.68.33-.61-.36,2.06-.32,4.27-.33.44-.27-1.28-.29-1.33-.51-5.23.27-6.84.99-14.21.99,3.63-.77-1.95-.32-5.6-.18-.14-.3,1.76-.35,1.5-.68,4.32-.11,4.1.3,8.41.19ZM831.11,32.43c3.22.36,8.71.05,14.07.03,2.51,0,2.96.18,5.6.18,2.53,0,2.99-.18,5.65-.16,10.89.08,25.49.14,39.39.09-.51.94-9.43.29-12.71.31-4.09.02-6.56.45-9.87.15-1.78.04-1.47.33-.05.34-1.48.42-6.21-.15-5.55-.52-12.08.19-20.76-.11-29.6.28-2.62-.19-6.43-.25-6.93-.69ZM1203.51,35.61c-3.64-.45,8.44-.59,11.3-.31-.7.49-10.6-.17-11.3.31ZM1219.76,39.89c-2.7-.06-5.54-.46-8.39-.36-.71-.68,9.5.2,8.41.19,1.14.01,6.84-.15,11.28-.15,4.19,0,7.68.22,11.25.02.3.3,2.36.39,5.58.35-4.47.48-10.11-.18-16.85-.21-4.29-.02-7.58.23-11.28.14ZM1207.59,36.64c.97.53-4.89.2-2.95.84-2.4,0-3.62-.13-4.17-.35,2.51-.15,1.89-.68,7.12-.49ZM1200.47,37.13c-4-.04,1.53,1.11-4.35.84-1.77-.43,4.22-.7.13-.85.47-.4,3.86-.39,4.22,0ZM1205.69,39.86c4.29-.04,5.39.56,8.41.19,4.52.18-11.63.8-8.41-.19ZM977.61,31.39c5.84-.03,5.44.23,9.85.02,0,.96-8.4-.21-7.16.83-4.75.16-2.11-.53-2.68-.85ZM1132.38,31.38c7.56-.53,17.53.11,25.33.06,6.19-.04,10.02-.61,14.12-.31.33.48-5.41.24-8.49.32-2.64.07-4.96.29-7.09.32-2.06.03-2.06-.17-2.78-.18-1.6-.02-5.6.39-7.01-.18-7.26.27-6.89.27-14.07-.03ZM1226.94,38.89c-1.23.25-4.57.24-7.09.32-.89-.59,5.03-.6,7.09-.32ZM1241.37,36.54c2.14.25,5.42.37,8.35.53-4.51,1.27-17.27.59-26.83.62-1.65.02-1.23.31-1.48.51-3.84-.65-7.6,0-12.69.14-4.42.07-3.65-.46-6.96-.52,4.64-.43,9.89.23,15.5-.14,2.54-.26,2.6-.83,7.16-.83.36.27-1.38.29-1.48.5,8.3-.25,18.15.58,18.42-.81ZM1216.6,32.76c1.48-.73,6.86-.7,12.74-.48,1.64-.33,12.1-.64,11.23.19-8.09.01-18.95.45-23.96.29ZM996.48,20.5c-6.75.31-17.77.08-25.37.28,6.96-.42,17.46-.43,25.37-.28ZM674.37,45.49c.9-.56,5.35-.23,8.47-.15-.89.56-5.34.23-8.47.15ZM684.35,44.67l-12.66-.03c-.35-.45,13.45-.58,12.66.03ZM682.7,46.36c-1.06.53-3.79.21-7.06.15.21-.43,5.31-.39,7.06-.15ZM597.17,44.31c-.67.38-6.94.05-9.87.15,1.38-.64,5.67-.11,9.87-.15ZM685.27,47.89c10.01-.23,14.86.12,22.51.05-2.16.64,6.28.05,4.12.69-4.6-.22-8.96-.06-12.63-.2-.29,0,.3-.31.05-.34-1.18-.14-5.57.09-7.03-.01-2.15.14.35.25-1.51.68-3.36-.56-7.42-.02-12.61-.37-1.6.03-.8.17-.02.17-1.46.52-3.73-.2-5.6-.18-.55-.38,8.52-.41,4.32-.67,2.73-.4,7.1.28,4.12.69,1.33-.18,5.2-.04,4.29-.5ZM713.94,44.39c-1.09.61-10.29.21-15.52.31,3.03-.73,9.91.1,15.52-.31ZM574.31,46.63c.3-.42-2.08-.54-4.11-.69-1.34.12-2.18.3-2.89.5-3.29-.06-5.24-.28-9.82-.19,3.44-.42.7-.53,4.35-.84,5.5.27-.29.2-.11.68,4.93-.08,4.89-.77,12.74-.48-.57.94,2.63.47,8.37.53-.17.73-5.3.83-11.38.82-.48-.29,1.14-.32,2.86-.33ZM709.34,46.93c1.61-.34,7.53.22,12.66.03-.45.54-9.2.08-12.66-.03ZM694.91,49.27c.18.37-5,.07-7.05.15.67-.66,4.88-.44,7.05-.15ZM547.53,46.92c-2.47.21-3.77.57-8.52.49.03-.52,5-.41,8.52-.49ZM508.17,46.66c1.12.09,2.25.18,4.19.18-2.46.21-3.77.57-8.51.49.46-.34,3.85-.32,4.32-.67ZM719.57,44.4c19.2.12,24.38.06,43.58.26,4.38.26-5.1.15-8.46.15-10.31-.02-26.65-.06-37.98-.08-.47-.29,1.15-.32,2.87-.33ZM450.42,47.04c-6.07.05-5.37-.43-4.09-.86,4.28-.05,2.83.56,4.09.86ZM386.82,48.94c-3.68.04-6.04-.08-5.55-.52,3.69-.04,6.04.07,5.55.52ZM441.71,48.89c-8.22.29-18.87.11-28.11-.23-4.42-.09-3.26.51-8.49.32.29-.14,1.43-.17,1.46-.34-7.58-.2-10.47.19-15.53.31,1.92-.83-3.42-.82-6.88-1.03,3.51-.8,12.81.02,15.42.37,1.01-.64,7.48-1.27,11.41-.99.53.47-5.27.15-5.7.5,1.29.52,4.75-.07,5.65-.16,1.35.17,6.68-.2,8.44.02.17.02-.2.34-.05.34,1.8.02,3.26-.27,5.67-.33,2.18-.05,1.98.17,2.8.18,1.92.03,3.68-.39,7.03.01.59.07,2.23.1,2.79.18,1.7.22-3.14.87,4.1.86ZM436.16,48.37c-6.34.13-11.04-.93-11.3.31,4.25-.04,10.91.21,11.3-.31ZM553.54,44.38c.82-.58,6.81-.25,9.87-.15-.66.38-6.94.05-9.87.15ZM550.59,45.22c2.93-.38,11.69-.04,16.91-.13-2.93.38-11.69.04-16.91.13ZM359.43,43.96c-2.74.56-5.7.09-11.28.15-3.71-.31,8.25-.11,11.28-.15ZM407.25,44.06c-5.03.29-12.18.14-19.73.13-6.37,0-29.08-.13-16.85-.21,9.29.02,26.36.06,36.57.08ZM30.37,16.87c3.69.77-10.84-.02-15.53.3,2.99-.38,8.28-.67,11.28-.14,2,.02,3.98.04,4.25-.16ZM51.39,17.42c-5.12-.13-10.2-.26-16.85-.21,3.72-.39,16.27-.52,16.85.21ZM61.03,18.8c3.5.03.33.58-.1.68-3.5.02-4.3-.28-6.97-.35,1.18-.45,6.55.39,7.08-.32ZM774.38,44.86c4.09-.3,17-.21,21.1.05-6.73.42-16.65-.04-21.1-.05ZM382.83,47.41c-.83,1.48-12.51,1.44-21.22.8-1.98.06-.17.3,1.35.34-4.09.52-9.15-.26-12.61-.37-1.73,0-.64.21-.03.17-3.29.2-12.53.16-15.44-.2-2.14.25-8.03.03-7.14.66-5.48-.51-11.85-.26-19.67-.21-3.36-.22-3.09-.86-8.31-.87-3.46.34,7.77.37,2.66,1.03-2.83.05-4.4-.04-4.17-.35-9.55.07-22.25-.25-29.56.1-3.07.02-4.45-.15-4.14-.52-2.12.61-10.08.6-16.93.3-1.54.44-7.71.3-11.33.49-.6-.36,2.06-.32,4.27-.33-3.56-.51-8.85.22-12.63-.2-1.6.03-.8.17-.02.17-1.53.64-2.25-.13-4.2-.18-.01,0-6.19-.01-7.04-.02-2.3-.03-4.76.04-7.04-.02-.85-.02-1.89-.11-2.71-.19-.82-.09-1.44-.16-1.45-.16-1.6,0-3.58.43-5.71.5-2.21.07-2.45-.19-4.2-.18-1.16,0-1.41.18-2.84.16-5.5-.08-9.05-.42-12.63-.2-.44.03,2.07.21,3.53.2-6.3.23-12.99-.17-19-.23-2.21-.02-4.56.17-7.06.15-.8,0-3.1-.22-5.6-.18-1.95.03-.31.25-1.46.34-2.56.18-7.18-.16-9.85-.02.39-.3,2.48-.38,5.68-.33-5.59-.27,1.99-.62-1.26-1.02-1.14.03-1.43.17-2.83.16-4.22.1,1.29.37-.1.68-1.13.28-3.05-.07-5.63-.01-.53.01-4.02.33-4.28.33-.66,0-6.34-.55-5.65.16-3.13.09-1.95-.33-4.17-.35-2.38-.07-2.68.13-2.87.33-6.04-.35-10.48-.5-16.88-.04-3.55-.2-6.37-.48-11.17-.53-.56.29,1.05.32,2.76.35-2.45.26-5.11-.07-9.87.15-2.61.02-.95.57-2.92.67-4.38-.26-6.12.4-8.51.49-1.32.05-4.65-.08-7.03-.02-10.06.29-29.53,0-45.02-.1-1.53,0-3.51.1-5.36.13-.52,0-1.03,0-1.51,0-.74,0-1.44-.02-2.1-.04-1.31-.05-2.41-.13-3.16-.29-5.19-.1-3.57.32-7.36.33-4.05-.01-7.93-.03-11.63-.04,0-8.29.01-15.92.02-23.11,0-4.15.02-8.18.03-12.1.03-3.2.05-6.32.07-9.38,4.81.05,9.46.14,14.03.26-4.21.23-8.82.17-13.67.1-.03,2.38-.05,4.79-.08,7.2l.02,3.68.1,5.43c.15,1.47.25,1.29.31.12.03-.59.05-1.43.07-2.45,0-.8.02-1.75.03-2.79-.01-3.17-.03-7.46-.05-10.28,0-.16,0-.33,0-.51,2.81.02,6.84.17,6.5.18,5.48-.05,7.82-.4,11.5-.32,2.59.08,5.34.16,8.11.24,1.99.06,3.98.09,5.89.09,3.8,0,7.23-.13,9.42-.45,12.46.25,22.65-.24,30.89.41,8.16-.61,23.65-.1,33.77.07,3.23-.71,14.04-.13,23.93-.12,7.54,0,14.77-.31,21.15-.29,8.94.02,17.92.04,25.33.05,7.6,0,15.55.46,21.12-.12,3.64.55,6.71.03,11.25.02,2.32,0,2.36.17,4.2.18,7.78.05,17.5-.26,26.78-.28,4.99-.01,9.5.22,14.04.2,2.91-.01,5.51-.28,8.49-.32,3.18-.04,6.49.21,9.82.19,4.74-.03,9.53-.44,14.09-.14,1.37,0,1.12-.21,1.46-.34,3.35.11,6.38.26,11.23.19,4.28.39,6.65,1,15.34.88,2.76.51-5.87.8-4.47,1.69,1.59.46,7.33.02,9.84.02,2.15-.14-.35-.26,1.51-.68,5.29-.12,2.96.65,6.94.69,5.22.19,4.07-.41,8.49-.32-.23.3,1.67.36,1.31.68,4.86.15,5.45-.24,9.88-.15.35.27-1.38.29-1.49.51,5.18-.1,9.69-.29,12.63.2,1.69,0,.7-.2.03-.17,4.11-.2,13.39-.14,16.85.21,2.68-.12,1.05-.5,4.24-.16,3.84-.1,6.64-.32,8.54-.66,1.88.17,1.73.58,4.12.69,1.15-.09,2.31-.17,4.25-.16.09-.4-2.35-.5-1.26-1.02,3.6,0,1.7.13,1.36.34,3.92.19,3.73-.27,7.06-.15,3.49.12,6.92,1.41,9.79.36-.28-.22-4.16-.23-4.22,0-2.3-.18-1.42-.72-2.66-1.02,3.39-.09,6.45-.23,11.27-.15-.64.38-7.7-.04-7.1.49,5.19.41,15.95.04,18.36-.47,4.57.19,13.44-.12,12.56.71,5.23.19,4.07-.41,8.49-.32,2.55.14-.87.18-2.84.16.53.54,8.91.71,4.02,1.37,1.84.24,7.93.26,9.85.02-1.15-.26-4.49-.26-6.98-.36,2.3-.25-2.08-.98,4.38-1.01,6.58.04-1.57.24-.1.68,4.76-.02,6.19-.56,8.44.02,4.23-.1-1.29-.36.1-.68,2.62.31,9.27.14,14.04.2,2.69.26-2.56.71,2.69.85,2.41.01,3.66-.12,4.27-.33-.28-.24-4.19-.07-4.17-.35-1.36-.57,4.41-.25,7.08-.32-1.18-.65-5.63-.14-9.82-.19,2.47-.88,9.6-.19,16.93-.3-.53.22-2.52.26-2.89.5,9.21-.29,8.94.52,12.53.88,1.15-.03,1.43-.17,2.84-.16-2.04-.54-5.94-.87-6.8-1.54,3.08.14,5.56.35,5.5.86,4.41.09,5.78-.2,7.11-.49,1.87.12,2.57.37,2.71.69,4.5-.09,1.73-.38,8.47-.15,2.18.08,5.64.11,5.58.35,5.2-.11-.53-.51,2.94-.84-1.41,0-2.81,0-4.22,0,1.48-.32,10.24-.09,8.37.53,6.28-.12,8.41.24,14.04.2-3.32-.35-14.93-.39-11.1-1.04,3.98-.02,3.2.52,6.96.53,1.15-.03,1.43-.17,2.84-.16.22-.3-1.67-.36-1.3-.68-2.93-.08-3.74.11-5.65.16-2.47-.44,8.71-.31,11.25.02.13.3-1.77.35-1.5.68,5.46-.29,14.91-.23,16.83.38,2.76-.31-1.11-.58-2.69-.85,7.81-.47,14.44.98,23.87.39,4.35-.12,1.63.59,6.98.35,4.49.16,2.98-.43,5.7-.5,6.72.36,11.03.06,15.4.54,1.45-.11,1.52-.39,4.27-.33,1.93-.16,1.91-.57,4.32-.67-1.53-.21-1.16-.35,1.47-.34.3.51-4.09,1.02,1.23,1.19,3.63-.03-1.89-.3.11-.68,5.44.11,8.82-.32,12.71-.31,5.24.02,8.83.6,15.39.54,3.37.07-.66-.77,4.3-.5,4.39-.06.66.21,1.36.34.86.16,4.53.08,4.14.52,5.7-.19,1.84-.58,4.37-1.01,4.22.24,11.2.25,15.48.03,3,.36-.25.55-1.53.84,2.3.37,8.66,0,14.09-.14-1.29.59.84.76-4.37,1.01.4.23,3.5.15,5.6.18,3.11-.01.7-.72,1.56-1.01,4.29.02,3.47-.6,8.51-.49,1.65-.02,1.23-.31,1.48-.51,9.13.26,17.6.04,25.29.23,1.37,0,1.12-.21,1.46-.34,5.89.09,10.24-.09,14.07.03.26,0-.28.31-.05.34,1.18.14,5.57-.09,7.03.02,1.53-.04,1-.34,2.87-.33,1.82-.55-4.54-.14-2.71-.68,6.39-.46,3.33,1,11.2.36.36.27-1.37.29-1.48.51,4.32.23,7.88-.49,9.85.02,1.65-.02,1.23-.31,1.49-.51,8.34.3,13.55.07,21.12-.12-.36.24-4.21.05-4.27.33,1.7.56,15.53-.65,5.7-.5.66-.38,6.94-.05,9.87-.15-.65.35.9.45,1.3.68,1.6-.03.8-.17.02-.17,3.44-.59,13.57.59,15.53-.31,4.44-.07,3.11.53,8.39.36.71-.36-1.96-.33-4.17-.35,1.43-.37,8.11.04,9.82.19,2.43-.05-1.74-.59,4.3-.5,3.02-.07,2.64.25,2.74.51,4.66.13,8.86-.39,14.14-.48.83-.01,1.67.16,2.79.18,1.83.03,2.4-.17,2.84-.16,3.45.02,9.59.1,15.47.03,2.59-.03,7.2,0,9.85.02,3.63.02,6.92-.44,9.84.02.63.1,3.51.3,5.6.18.11,0,.48-.09.82-.17.34-.09.64-.16.64-.16.52,0,9.76.81,11.28-.15,5.55-.04,8.69-.07,16.9-.13,1.63,0,6.08-.15,5.65-.16,1.86.03,2.15.34,4.17.35,4.48.02,3.92-.56,7.03.02,1.46-.17,2.9-.34,4.29-.5,20.8-.05,41.02-.17,59.19-.55,1.29.13,2.08.31,2.73.51,13.57-.82,27.39-.7,40.95-.93,3.69.06,1.21-.66,5.7-.5-.75.53,1.65.7,4.09.86,1.13-.52-3.81-.33-2.68-.85,3.49-.02,6.83-.02,6.98.35,1.91-.11,2.68-.36,2.92-.67,9.75-.11,13.1.03,23.91.05-3.92.77-3.72.89-4.5,1.86,2.99.09,2.71-.24,2.89-.5,3.9.1,3.84.66,5.47,1.03,6.92-.32,13.02.34,16.93-.3,3.13-.09,1.95.33,4.17.35,1.53-.04,1-.33,2.87-.33,4.9-.13,5.37.26,9.82.19.79.35,2.08.65,6.96.52,3.3-.56-11.48-.22-2.74-.52,2.31-.08,5.16.02,5.63.01,3.46-.09,4.27-.31,5.68-.33,2.47-.03,2.98.18,5.6.18,10.94,0,24.58-.3,30.97-.1,1.65-.02,1.23-.31,1.48-.51,6.78.32,18.66.12,25.39-.45,2.89-.07,4.58.18,7.01.18,2.61,0,3.41-.32,4.27-.33,1.7-.01,1.91.31,2.77.34.7.03,6.55-.15,7.06-.15,2.58-.03,4.38-.22,8.47-.15-.4-.23-3.5-.15-5.6-.18-3.37-.32,9.29-.09,12.69-.14-3.32.42,4.06.55-1.53.84,1.22.47,2.68-.44,7.06-.15,1.99-.38-3.53-.65.1-.68,5.56-.02-.49.26,2.74.52,2.61.08,1.77-.41,2.89-.5,1.15-.1,7.44.23,5.68-.33,7.78-.07,13.25.13,19.67.21-.78.53,2.97.67-.15,1.02,5.42.28,19.47.31,25.32.05,1.22-.05,1.24-.16,1.45-.34,11.68-.2,24.61.5,30.97-.1,6.05.15,15.28.48,15.53-.31,3.8.19,7.3-.14,11.28-.14,2.71,0,6.22.22,8.41.19,1.56-.02,3.3-.3,4.27-.33,5.63-.2,12.53-.07,18.31-.13,4.85-.05,13.62.07,21.13-.12,4.85-.12,8.26-.45,12.74-.48,5.17-.04,10.27.12,15.5-.14-1.09.52,1.35.62,1.26,1.02-5.26-.14-3.17.64-7.14.66,1.23.47,4.44-.23,8.45.02-3.57.53-4.83,1.5,1.13,1.87.78.05,3.15-.31,4.27-.33,2.99-.06,9.76.12,15.47.03,5.12-.08,7.67-.51,12.69-.14,3.22-.59,17.72-.39,26.83-.62,2.84-.07,4.2-.39,7.11-.49,4.05-.15,8.14-.11,12.16-.03,3.04.05,6.05.1,9.01.14,3.31.04,6.56.07,9.73.11-1.86.66,5.28.71,5.68,1.2.18,0,.35,0,.47.01-.14,6.16-.48,9.6-.83,12.77-.17,1.59-.35,3.11-.51,4.87-.08.88-.15,1.82-.21,2.86-.05.97-.1,2.03-.16,3.22-.04-.19-.08-.35-.11-.49-.04-.2-.07-.37-.1-.52-.06-.28-.11-.44-.16-.49-.09-.1-.17.22-.22.86-.11.99-.18,2.66-.27,4.73-.82-5.29-1.19,3.5-1.88,3.94.05-2.27-.15-2.45-.16-4.25-.23.4-.15,3.5-.18,5.6-.42-3.43-.54-.69-.84-4.34-.29-.56-.32,1.04-.35,2.76-.1-1.87-.46-1.09-.67-2.91-.05-.4.06-2.51,0-2.81-.26-1.48-.78.62-.85-1.53-.03-.91.24-1.64.18-2.97-.15-3.03-.33-4.29-.84-5.91.11-3.75-.07-4.98-.14-7.1-.85.03-1.82.04-3.07.01-1.73.02-1.49.31-1.88.51-1.57-.17-3.65-.28-5.96-.38-2.31-.08-4.81-.17-7.25-.25-4.81-.16-9.41-.35-11.91-.78-3.75,0-7.5-.02-11.25-.02-.66,1.02,4.2,1.4,5.29,2.22-9.35.12.78,1.04-3.04,1.52-1.88,0-3.75,0-5.63-.01-.09.4,2.35.51,1.25,1.02-7.68-.1-8.91-.12-15.45-.2-.78-.35-2.62-.58-5.52-.69-4.91.04.05.46-2.89.5h-5.63s.1-.69.1-.69c-5.56.18-9.7-.53-11.28.15.09.27,8.44-.31,6.96.52l-43.6-.09c-1.85.06-2.26.29-4.27.33-.09.4,2.34.5,1.25,1.02-6.8.16-6.14.59-14.12.31-1.5.51,3.09.31,5.58.35,4.45.15-2.53.22-4.25.16-9.71-.2-26.33.4-29.46-.57-2.78.29-4.65.69-11.33.48.36-.24,4.21-.05,4.27-.33-.25-.14-1.39-.17-1.36-.34-3.36.1-6.59.21-7.13.66-9.82.14-17.43-.48-25.32-.05,7.27-.49-5.86-.41-7.03-.02-8.82-.01-19.12-.14-26.72-.06-20.56.22-46.93-.57-61.94.2-2.48-.13-.16-.31.07-.51-1.64.02-2.5-.04-2.78-.18-4.01,0-3.41.31-7.09.32-2.48,0-5.89-.37-8.39-.36-2.99.01-3.76.4-7.08.32-3.08.02-4.45-.15-4.14-.52-3.06.19-3.48.72-9.92.49.38-.18,2.81-.11,2.87-.33-1.64-.3-5.9,0-9.82-.19-.48-.02-2.54-.34-2.76-.35-10.24-.18-21.68.26-28.16.11-1.33.12-2.17.3-2.89.5-5.38-.63-15.32-.18-22.51-.05l.07-.51c-3.15.12-7.64.08-8.52.49-4.29-.18,1.68-.45,1.51-.68-4.86-.03-6.67.32-9.92.49-6.12-.18-14.65-.11-19.75.3-2.07-.09-3.51-.26-5.58-.35-20,.72-43.22.95-66.21.54-3.41.15-6.85.3-9.92.49-5.59-.13-10.01-.39-16.83-.38l.1-.68c-5.09.27-13.77.99-18.34.3,1.73-.45,7.34.02,9.85.02,3.49-.14,3.26-.74,8.54-.66-.89-.23-2.96-.32-5.57-.35,4.57-.27,2.26-1.05,4.42-1.35,5.16-.72,12.51-.24,19.8-.64,2.68.08,6.04.07,5.55.52,2.1-.08,3.59-.24,5.68-.33-.29-.3-2.36-.39-5.57-.35,3.31-.37,13.27-.11,16.88.04-1.64.53-.72.45,1.28.85,3.51-.04,4.79-.63,8.46-.15-.2-.2.35-.3,1.45-.34-.26-.53-11.62.24-9.77-.53,6.12.01,12.66-.03,16.85.21,5.3-.12.18-.59,2.94-.84-4.34-.04-8.01.38-11.25-.02.24-.31,1.01-.56,2.92-.67-.75-.25-2.13-.42-4.15-.52-5.13.3,2.42.47,1.28.85-2.99-.09-2.72.24-2.89.5-4.32.11-5.1-.19-8.41-.19.47-.23,3.54-.13,5.65-.16-2.05-.76-7.53.08-9.9.32-5.25,0-6.78-.43-9.75-.7-2.88.1-.52.86-5.73.67-2.38-.17-3-.54-4.09-.86-1.93.16-1.91.57-4.32.67-13.24.09-30.86-.14-47.83-.1-3.24-.06-1.64.49-4.3.5.89.23,2.96.32,5.58.35-3.92.54,1.45,1.07,2.59,1.53-.94,0-1.88,0-2.81,0-.94,0-1.88,0-2.81,0,2.09-.51,1.32-.98-4.07-1.03-1.12.52,4.82.22,2.69.85-5.45-.49-9.39-.24-14.09.14,2.44.35,5.37-.02,8.44.02,5.46.08,8.29.52,12.56.71-2.01.22-5.2.89-.15,1.02-4.63.23-9.13.47-12.79.82-3.86.11-2.78-.34-5.58-.35-3.85-.16-7.18.12-11.28.15-2.3.01-2.39-.19-4.19-.18-4.79.02-8.48.22-12.68.14-8.5-.16-25.98-.06-35.17-.08-2.58,0-6.92-.47-8.46.15-3.86.12-2.78-.34-5.58-.35-2.38-.07-2.68.13-2.87.33-4.54.14-1.84-.56-5.55-.52-5.13-.14-7.88.4-11.25-.03-1.65.02-1.23.31-1.48.51-4.22-.34-10.62-.43-18.23-.38-1.34.12-2.18.3-2.89.5-15.55-.07-54-.21-80.21,0-3.99.03-7.01.26-11.3.32-9.18.11-17.93-.21-25.34.11,7.2.16,4.96.48-2.89.5,4.55-.02-28.87-.15-40.8-.09-2.32.01-2.37-.18-4.19-.18-2.54,0-6.3.19-9.87.15-3.04-.03-5.44-.19-7-.19-3.31.01-5.71.48-12.71.31-1.43-.03-4.47-.35-4.17-.35-2.16.02-4.65.44-7.11.49-.76.02-2.51-.19-4.2-.18-3.63.02-7.35.31-11.31.32-3.62,0-18.79-.17-23.91-.05-1.56.04-1.42.44-4.27.33-.36-.28,1.37-.29,1.48-.51-2.52-.03-3,.2-5.65.16-.26.2.27.3,1.36.34-.68.47-4.43,0-2.76-.34-3.35.23-5.08.2-8.47.15-1.09-.02-7.76.32-9.89.32-2.7,0-5.32-.2-8.42-.19-8.44.04-19.26.19-26.75.11-3.6-.04-7.78.31-11.3.32-2.28,0-2.4-.13-4.19-.18-4.19-.11-8.15.19-11.28.15-2.75-.03-5.12-.31-6.98-.35-2.6-.07-6.59-.2-8.41-.19-1.24,0-3.73.33-4.27.33-2.32.02-2.36-.16-4.2-.18-2.49-.03-3.01.17-5.65.16-2.95-.01-5.64-.21-8.41-.19-4.08.03-15.01.68-22.53.12-1.23.32-11.59.47-19.77.47-2.02,0-4.89-.2-7.01-.19-15.08.07-30.71.52-43.66.24-2.74-.06-5.15-.52-8.41-.19.2.2,2.54.15,4.2.18-3.09.29-16.19.33-15.42-.37-1.02.43-3.48.18-8.49.32-2.42.07-5.92.56-12.71.31-.6-.36,2.06-.32,4.27-.33-.84-.16-3.18-.63,1.48-.51-.85-.51-3.03.16-5.63-.01,1.12-.15,1.57-.38,1.51-.67-3.95-.15-3.68.23-7.06.15,1.68-.68-4.2-.85-6.96-.52,1.7.58,7.71.66,8.24,1.38-2.16.25-5.97.29-7.14.66-2-.21-2.03-.65-4.09-.86-4.08.02-3.51.8,1.3.68-5.11.58-9.05-.38-9.72-.87-2.66.36-8.34.34-7.21,1.17-2-.02-3.98-.04-4.25.16-2.83-.34-9.25-.26-9.71-.87,3.68-.04,7.04-.04,5.55.52l7.03.02c1.25-.65-6.76-.21-5.5-.86,4.45-.18,3.73-.07,7.01.19-.33-.57-6.16-.51-6.88-1.03-4.32-.04-6.41.58-9.87.15.21-.79,10.3-1.24,8.69-1.68,3.32-.32,7.56.16,12.68-.14-2.39.33.1.22-.1.68,6.63.08,2.85-1.14,10-1,3.6,0,1.7.13,1.36.34,3.1.1,2.05-.32,4.27-.33,6.44-.19,5.45.48,11.2.36,4.69-.24-2.86-.42-1.28-.85.81.3,6.67,0,6.98.35,3.35-.04-1.49-.46-2.74-.52,3.51-.28,9.98.19,14.12-.31-2.58-.58-4.97.28-8.47.15-.56-.4-6.14-.47-2.68-.85-6.38-.22-5.59.45-11.3.31-4.9-.06-1.07-.42-7.01-.18-2.78.11-4.37.29-7.08.32-2.65-.25-6.05-.41-9.77-.53-4.81.17,3.9.06,1.33.51-5.45.54-17.55-.33-19.74.3-2.32-.23-4.65-.46-9.8-.36,2.54-.9,7.79.38,11.28-.14-4.77-.67-11.38-1.12-16.63-1.73-5.1.55,3.56.91,6.88,1.03-.64.61-10.9.02-8.59,1-2.4,0-3.63-.13-4.17-.35-2.51.44-9.39.32-15.53.31.43-.35,6.24-.03,5.7-.5-3.01-.21-6.41-.37-9.77-.53-3.59.01-2.88.56-2.96,1.01-3.35-.11-10.24.19-11.23-.19-.27-.8,6.13.23,8.49-.32-3.86-.78-8.17.17-12.63-.2-.23.3,1.66.36,1.3.68l-12.65-.03c-4.3-.38,10.07.12,8.51-.49-3.33-.41-10.19.22-15.5.14,7.49.57-7.81.25-12.71.31-4.01-.29,7.21-.12,9.87-.15-1.95-.73-10.85-.19-14.07-.03-3.64-.46-14-.76-18.26-.21,1.89.39,9.78.09,14.05.2.18.37-5,.06-7.06.15-5.11,0-11.09-.12-12.71.31-7.93-.5-13.77-.22-23.86-.39-1.53.04-1.01.34-2.87.33-3.71.04-4.59-.24-4.12-.69-9.52.53-15.36-.38-23.91-.05-2.78-.35.67-.33,1.51-.68-2.28.04-2.4-.17-4.2-.18-1.79.03-1.92.5-.07.51-3.93.66-10.03.28-15.55.48-.16.24-.3.48,1.33.51-3.33.32-7.56-.16-12.69.14,3.08-.35.66-.92-2.66-1.02,1.01-.51,2.99.17,5.63.01.32-.37-1.07-.54-4.14-.52-6.17.13.62.89-2.99,1.18-6.2-.34-6.75-.32-15.42-.37.02-.17.05-.34.08-.51-7.02-.01-9.13.59-16.96.47,2.06-.44-2.23-.4-2.74-.52-.93-.21,1.01-.71-2.71-.68-4.69.4,5.04.51,2.63,1.19-5.6.09-3.93-.65-9.77-.53-1.97.06-.16.3,1.36.34-3.07.45-6.05-.17-9.82-.19-3.42-.01-7.76.29-11.31.31-1.76.01-3.56-.06-5.09-.1-1.46-.04-2.87-.05-4.13.07-.42-.28,1.12-.29,1.18-.51-1.97-.03-3.19.1-4.23.2-1.05.09-1.92.14-3.4-.05-.67-.39,3.6-.18,3.62-.5-4.14-.16-3.87.22-5.89.31.02.45.03,1.02.01,1.75.16-.12.26-.7.34-1.39,1.68.17,3.63.29,3.72.69-.56-.05-1.89,0-3.02.02.01.79.02,1.48-.03,1.7-.06.31-.25-2.08-.34-1.56-.21,1.22-.39,2.52-.53,4.38-.03.45-.07.93-.1,1.44-.03.46-.06.96-.09,1.49-.06,1.31-.11,2.99-.15,4.82.07,1.55.17.67.28-.11.12-1.02.25-1.88.39.17-.11,2.93-.21,5.5-.32,8.38.41.01.87.03,1.34.04l-.53.51c2.63.23,3.02-.05,5.31.01,4.6.13,4.8.61,8.06-.15-2.94-.17-8.22-.61-1.28-.68-.96-.18-3-.21-5.35-.21-2.35,0-5.03.05-7.1.03,0-.4.01-.75.02-1.08.17-.27.27.06.32.74,1.85-.13,5.25.01,7.4,0,4.16.01,8.88.02,11.8.03l-.13.85c5.87.03,7.71-.32,5.75-.84,2.82,0,5.64.01,8.44.02-.53.22-2.51.26-2.88.5,6.44-.08,8.71.32,15.45.2-.29.14-1.43.17-1.47.34,10.85.22,16.82,0,26.71.23,1.23-.6,5.52-.81,12.75-.65-.34-.67-7.97.17-11.2-.36,2.46-.38,10.74-.04,15.5-.14.48.29-1.15.32-2.87.33,4.94.18-.31.63,2.69.85,6.53.16-1.87-.44,2.89-.5,6.38-.19,3.03.76,9.77.53,2.71-.01-2.1-.64,1.53-.85,3.3.43,12.04-.3,8.39.36,6.86-.3,13.56-.3,19.73-.13,2.16-.81-5.83-.44-9.78-.53,1.26-.66,6.11-.08,9.88-.15,3.32-.06,4.9-.42,8.48-.32,1.33.57-2.03.55-5.71.5.16.37,3.49.37,6.99.35-.8.43-1.95.59,1.28.85,1.88-.07-1.57-.74,2.94-.84,1.58-.43-5.97-.61-1.28-.85,3.6,0,1.7.13,1.35.34,7.3-.16,9.16-.04,16.88.04.06.86-7.09-.26-7.11.49,2.9.48,4.06.13,8.39.36,3.1,0,.2-.56.08-.51,1.36-.59,5.02.14,4.32-.67,5.23.11,8.96-.41,12.66.03,3.26-.55,16.06-.19,26.78-.28,6-.05,6.57-.23,11.23.19,1.53-.04,1-.33,2.86-.33,18.07.19,28.67-.37,43.6.09,1.54-.04,1.01-.34,2.87-.33,3.39-.06,3.02.32,7,.19,1.39.64-3.04.54-4.34.84-2.44-.31-8-.82-12.61-.37.73.5,5.13.07,8.39.36.77.07.73.47,1.32.51,2.42.16,5.53.08,8.42.19,1.82-.55-4.53-.14-2.71-.69,2.18-.23,10.76-.55,4.34-.84.73-.23,12.74-.38,11.23.19,7.09-.59,17.71-.13,29.56-.11,12.92.03,29.03-.16,39.44-.25,3.85-.12,2.78.34,5.58.35,3.07-.16,6.62.03,7.03.02,2.29-.07,2.22-.58,7.09-.32,2.58.57-2.43.32-4.3.5-.9.09-1.93.46-2.88.5-1.83.09-7.83-.51-7.06.15.42.29,2.02-.12,4.22.01.6.03.88.85,5.55.52.62-.41-6.41.08-4.14-.52,6.65-.19,14.96.43,21.04.39-.01-.61-9.17-.16-11.17-.53-1.84-.69,3.14-.53,2.96-1.01,14.08-.27,25.73.13,36.52.42,8.34-.5,17.95-.59,26.78-.28,1.15-.63-1.46-.83-5.5-.86.52-.4,6.16-.15,7.11-.49-.02-.64-3.99-.02-5.63-.01-4.65.02-9.63-.22-15.44-.2-1.53.04-1,.34-2.86.33-5.07.09-6.78-.21-9.79-.36-3.19.09,1.67.27-1.48.51-9.61-.36-20.29.22-29.52-.23,3.91-.58-7.79-.45-8.29-1.04-3.72-.06,1.17.95-4.32.67.19.2,2.54.15,4.2.18,4.45.15-2.53.22-4.25.16-3.19-.18-4.91-.54-9.77-.53-1.49.51,3.09.31,5.58.35-.26.57-4.16.13-7.06.15-5.85.05-14.76.27-22.53.12-.6-.36,2.06-.32,4.27-.33-2.46-.81-7.94.03-9.9.32-11.33-.07-12.27-.84-22.4-.73-1.23.64,6.62.23,9.79.36-10.84.81-24.79-.1-33.78.1-1.03.02-2.68.33-2.87.33-2.13.01.27-.34.06-.34-2.77,0-5.96.32-8.49.32-5.44,0-6.74-.58-11.19-.53-1.65.02-1.23.31-1.47.51-13.14-.22-24.94.43-33.74-.24-1.73,0-.65.21-.03.17-4.78.29-17.82.2-21.07-.22-2.98.15-6.29.25-8.51.49-11.28-.1-26.75-.5-39.27-.93-1.83-.79-5.86-1.04-5.37-1.71-12.15.17-17.74-.04-29.54-.06-1.33.12-2.18.3-2.89.5-3.27.05-5.4-.04-7.01-.19-3.35.04,1.49.46,2.74.52,6.4.22,7.92-.69,12.69-.14-2.81.34-7.14.49-12.73.48.6.15,1.18.31,2.76.35-.88.3-2.16.05-2.82,0-1.02-.08-3.65-.2-2.71-.68-1.84,0-3.79,0-5.63-.01-.87-.02-1.9-.11-2.72-.19-.82-.09-1.42-.16-1.45-.16-2.56,0-2.77.54-7.09.33-.31-.63-7.79-.43-8.29-1.04-4.32.2,1.96.65-1.53.85-4.4.07-6.78-.23-4.14-.52-3.53.52-10.34-.45-9.92.49,1.02.6,6.69-.5,7.04.02,1.4.58-6.11.26-8.49.32-1.21.03-3.64.32-4.27.33-7.42.14-18.91.13-22.46-.39-3.78.24-9.97-.14-15.47-.03-3.35.06-6.51.34-8.51.49,6.15.49,11.14-.2,16.88.04-2.61.59-8.44.48-12.73.48-2.22,0-4.75-.09-7.57-.16-1.2-.03-2.46-.05-3.79-.08-1.02-.01-2.09,0-3.23.03-.48-.55,2.54-.34,2.98-.67-2.69.15-4.57.51-7.64.65-.11-.04-.21-.07-.33-.1.18-1.09.2-2.03.19-3.24,0-.48,0-1.01,0-1.61,0,0,0-.02.02-.02.02-.66.04-1.37.06-2.12-.11-.13-.16.3-.18.98,0,.33,0,.72,0,1.14v.04s0,.03,0,.04c0,.2-.02.44-.04.59-.04.32-.13.43-.3.13,0-.2,0-.41,0-.63,0-.08,0-.16.01-.25,0-1.23.01-2.47.02-3.59,0-.28,0-.55,0-.82,0-.18,0-.13,0-.16v-.04s-.04-.09-.06-.14c-.05.03-.13-.55-.27-.65.16-1.33.26-2.98.42-4.16,1.05.11,1.92.25,2.44.45,1.2-.14,3.43-.12,2.42-.67,2.51-.19,4.13.54,3.84-.16.22,0,.43,0,.63,0,.24,0,.46.01.67.02.5.02.95.04,1.34.07.79.06,1.38.15,1.91.24,1.06.18,1.84.4,3.35.53,3.85-.15-3.7-.32-1.28-.85,9.75.58,17.84-.06,26.7.23,1.45-.11,1.51-.39,4.27-.33-3.83.72,3.18.3,4.09.86,1.71-.31,11.52-.51,8.57-.83,1.46-.56,2.76.2,4.2.18,3.97-.16-1.97-.46,1.51-.68,13.63.15,25.73-.03,36.6-.09,2.28-.01,2.42.19,4.2.18,3.66-.02,6.64-.4,11.3-.31,1.42.02,4.2.04,5.58.35,5.05-.04,11.48-.09,16.9-.13,15.48-.17,27.43-.04,34.99,1.26-.59.68-.16,1.24,4.02,1.37-.38.3-2.48.38-5.68.33,3.01.35-3.47,1.29,4.02,1.37-4.89.11-4.62.86-7.21,1.17-1.13.14-5.67-.13-4.27.33-14.27-.46-30.52-.33-44.94-.61-2.32-.04-4.36-.32-6.98-.35-3.62-.04-7.27.21-11.28.14-2.43-.04-3-.18-5.6-.18-4.93,0-7.8.54-11.25-.02-1.53.04-1,.33-2.86.33-3.81-.08-7.62.08-11.25-.02-.82-.02-1.85-.11-2.68-.19-.83-.09-1.46-.15-1.49-.16-1.53,0-2.64.28-4.27.33-3.34.11-6.94-.22-9.82-.19-2.64.03-3.29.26-5.68.33-4.53.13-9.04.02-14.05-.2-2.38-.07-2.66.13-2.86.33-4.18-.15-9.15-.18-14.63-.16-1.37,0-2.77.01-4.2.02-.86,0-1.73.02-2.62.03-1.08.01-2.2.03-3.33.05-.6-.13-.54-.3-.54-.47-.01-.16-.1-.31-1.24-.38,0,0,0,.03,0,.05.1,1.01.26.93.42.85.16-.09.32-.17.42.55,0,.44-.02.85-.03,1.24,0,.19,0,.38-.01.56v.14s0,.07,0,.07c0,.03,0-.07,0-.1,0-.18,0-.36,0-.54,0-.35,0-.7-.01-1.03v-.25s0,.29,0,.29c0,.22,0,.44,0,.66,0,.87-.01,1.71-.02,2.54v1.02c0-.31,0-.61,0-.92,0-.3,0-.59,0-.9,0,.16,0,.32,0,.49,0,.65.01,1.36.02,2.18.18,0,.59-.01,1.02-.02-.31.16-.72.27-1.31.31-.01-.17-.02-.37-.02-.6-.08.29-.13.55-.16.78.63.12,1.34-.03,1.83-.22.5-.19.8-.41.81-.44,1.21-.07.99.04.65.18-.33.14-.81.3.11.34,1.16.09,1.13-.24,1.25-.5,2.58,0,5.15.01,7.73.02,2.28.34-.17.21-.1.68,1.4,0,2.81,0,4.22,0,2.97-.1-5.1-.72,2.91-.67,5.76-.04-.27.23,1.31.68,3.85,0,2.8.29,5.63.01,3.11-.01.71-.72,1.57-1.02,3.28,0,6.56.01,9.84.02-1.12.15-1.57.38-1.5.68,1.81-.23,7.42,0,5.72-.67,7.85-.14,11.82.18,13.96.71,2.65.06,6.59-.84,7.04.02,3.89-.14-3.17-.69,4.3-.5-.6-.15-1.2-.31-2.77-.35.76-.04,12.87-.51,9.8.36,4.29.02,3.47-.6,8.51-.49l-.07.51c.92-.29,4.29-.27,5.7-.5,4.12.02,5.17.4,6.93.69.33-.77,10.54-.4,12.73-.48.3-.01-2.92-.29-4.2-.18,7.75-.51,17.36.2,26.73.06,2.35.6,3.84,1.04,9.61,1.55,4.31.14,2.77-.46,7.09-.32-4.06-.63,4.54-.74-1.26-1.02,1.79-.35,10,.1,7.16-.83,16.43-.42,38.38.15,53.48-.05-.93.63-8.49.28-14.12.31-5.16.03-10.69-.07-14.09.14,2.67.25,7.09.29,8.34.7,5.64.13,3.57-.71,8.55-.66l-.05.34c6.71-.06,10.49.23,13.99.54,1.53-.04,1-.34,2.86-.33,3.28,0,6.57.01,9.85.02,3.38.24.82.34,2.74.52,5.56.04-.41-.26,2.89-.5,3.71,0,8.79.18,7.11-.49,8.5.37,21.24.06,28.1.23-4.78.38-15.45.03-22.53.12-1.67.25-4.12.41-4.34.84,3.66.06,6.06-.05,5.7-.5,5.3.36,9.34-.12,16.88.04-1.72.22-.59.27-.07.51,12.1-.16,23.73-.22,39.44-.25,3.42.23-2.61.51,1.31.68,6.05,0-1.9-.89,7.14-.66,2.87.41-2.11.89-5.78,1.01.9.63,9.23.28,7.1-.49,2.7.08,5.1-.11,2.84-.16,27.51-.06,67.61.38,94.27.04,1.6-.03.81-.17.03-.17,3.23-.11,9.06-.03,15.49-.14.79.55-5.09.22-1.51.68,3.76.39,5.86.12,7.01.19,3.64.2-5.06,0-7.09.32,5.34.21,9.71.54,15.38.71,1.56-.78,6.73-1.12,11.48-1.5,3.41.1,7.21.16,6.93.69,6.53-.56,14.6.02,28.15-.11,1.07.15,1.46.39,1.31.68,2.99.09,2.71-.24,2.89-.5,6.43.18,13.93.04,22.51.05,12.5.02,24.67.46,35.09.59,5.05.06,10.11-.32,12.63.2,1.86-.06,2.26-.29,4.28-.33,3.59.03,4.88.32,6.96.52,10.89-.63,25.68.06,43.63-.07,3.38.41-2.15.31-1.54.85,6.75-.02,5.5-1.04,14.2-.82-1.3.3-4,.42-2.97,1.01,5.07.13,5.55-.69,9.87-.15-.94.34-6.59.1-7.11.49,3.26.4,7.35-.57,14.12-.31.36.45-2.03.55-5.71.5,2.58.58,4.98-.28,8.47-.15.31.35,6.18.06,6.99.35,3.82-.28,8.99-1.08,12.78-.82-1.47.22-1.47.62-2.94.84-2.54.02-2.94-.21-5.6-.18-.87.8,7.9.48,11.2.36.29.5-3.26.51-2.96,1.01,2.2-.19,3.53-.48,5.73-.67,4.91-.07,4.85.44,6.92.69-6.7.05-22.41.65-28.1-.23-3.19.09,1.67.27-1.48.51-5.98-.08-14.51.13-18.26-.21-1.38,0-1.12.2-1.45.34-8.26.03-13.73-.56-19.72.13-3.79-.51-18.31-.2-23.93.12-1.97-.44-7.99-.4-12.59-.54-.32.65,5.66.57,8.31.87-1.9.68-2.9-.05-7.03-.01-3.05-.04-.72.6-1.53.85,8.68.16,11.6-.39,15.6-.82,17.69.19,27.9-.03,40.76.26-3.48.2-2.86.91-7.18,1,.53.38,7.45.02,8.39.36.53-.34-.21-.53-2.74-.51.39-.53,7.04-.27,11.3-.32.07.27-.77.65,1.31.68,5.09.18.77-.83,7.11-.49-2.53.56-2.56.41,1.28.85,2.41-.11.95-.39-1.35-.34.35-.24,4.21-.05,4.27-.33,3.33.29,6.57.47,4.06,1.03,5.74.08,5.76-.55,12.71-.31,5.56-.03,4.2.73,9.75.7,3.99-.23,8.33-.41,5.78-1.01,7.83.04,11.68-.26,11.38-.82,3.99-.13,3.61.25,7,.18.61.36-2.06.32-4.27.33.03.5,3.13.64,5.5.86,5.59-.27,4.35-.28,9.85.02,1.65.55-4.57.12-2.91.67-.05.4,3.84-.05,2.86-.33,4.63,0,7.05-.27,12.69-.14.52-.39-.13-.65-1.28-.85-1.84.23-6.14.15-9.87.15,1.01-.84-7.46-.58-6.83-1.37,16.1.18,44.46-.11,59.05.3-.27.78-3.3.17-5.65.16-11.85-.03-30.01-.07-42.2-.09,3.81.34,11.06.27,12.54.88,4.79.14,1.89-.68,7.12-.49,3.13-.09,1.95.33,4.16.35,3.26.28,3.82-.32,4.28-.33.66-.02,1.8.16,2.78.18,1.83.03,2.4-.17,2.84-.16,6.28.03,11.2.4,18.29.04,2.4-.06,2.63.14,2.77.35,4.22-.1-1.29-.37.1-.68,3.53-.02,3.36.39,5.55.52,3.05.04.73-.6,1.53-.85,11.11-.09,21.47-.3,31-.27,1.56,0,2.06.33,2.76.35,1.53.03,6.11-.13,8.47-.15,2.84-.02,7.08.17,8.47-.15,1.12.15,3.83.11,4.17.35,7.06-.49,23.09.14,33.81-.27,1.15.55-3.7.34-4.32.67-5.6-.18-8.42-.18-14.06-.03-2.73.06-1.21.66-5.71.5,4.32.58,8.39-.32,12.72-.31,1.38.39,9.41.01,8.34.7,2.49-.25-1.33-.74,2.96-1.01,4-.13,3.61.25,7.02.19,1.49-.51-3.09-.31-5.58-.35,2.07-.41,9.62-.44,14.15-.48,3.96-.03,8.05-.04,11.24.02.88.02,1.92.1,2.73.19.82.09,1.42.16,1.44.16,1.68,0,1.98-.31,2.86-.33,3.15-.1,5.48.4,8.47-.15,2.4-.06,2.63.14,2.76.34,4.11.05,4.38-.37,8.49-.32-.4.3-2.48.38-5.68.33.9.34,4.22.4,5.53.69,3.27-.05,6.6-.09,5.73-.67.94.13,8.31.46,7.05-.15-1.29-.42-5.43.22-9.85-.02,1.23-.25,4.57-.24,7.09-.33-.8-.52-7.52-.35-8.31-.87-6.29.23-7.45.03-11.21-.36.69-.38,5.96.66,7.06-.15-.31-.21-2.76-.18-2.81,0-4.49-.41,6.67-1.1-4.07-1.03.77-.79,11.21.4,12.74-.48-5.2-.17-8.32-.59-15.39-.54-4.15.13,1.77.43-.13.85-3.53-.15-3.48-.71-5.47-1.03-3.29.05-5.86.32-8.44-.02,5.3-.86,14.67-.14,23.99-.46-.64.27-4.44.14-2.91.67,5.42.16,2.4-.74,8.51-.49.26-.2-.26-.3-1.36-.34,4.72-.33,10.5-.53,11.47-1.33,4.5-.14,4.31.28,6.98.36,6.24.15,8.48-.21,14.09-.14.2.37-1.23.54-4.3.5,4.1.83,14.95-.04,15.32,1.05,5.93-.2-.1-.97-2.63-1.19-.18-.37,5-.07,7.06-.15-4.27.52,2.04.74,2.64,1.19,6.99-.28,9.97-1.06,19.85-.97,3.8-.11,2.66.36,4.14.52,1.15-.03,1.43-.17,2.84-.16,2.9-.19-4.02-.45,1.51-.68,3.01-.07,2.64.25,2.74.51,4.28-.21,7.73-.53,14.14-.48,3.68.07,3.85.55,9.8.36-.2-.2-2.55-.15-4.2-.18,4.24-.5,19.74.12,28.19-.28,2.86.17,1.07.88,5.5.86,2.1-.07-.52-.22.07-.51,8.09.03,16.25.07,22.54-.12.11.49,1.64.81,6.93.69-.88-.17-3.21-.18-2.73-.52,2.77-.2,2.14.32,2.76.35,2.99.12,6.51-.47,9.85.02-4.78.58-9.38.12-16.93.3-3.33.05-2.71.58-7.11.49,4.41-.63-10.22-.17-12.58-.54-1.46.17-2.9.34-4.29.5-3.54-.14-3.49-.71-5.48-1.03-4.31.48-4.85-.42-11.23-.19-2.11,1,8.52.71,3.98,1.54-3.62-.3-7.04-.63-6.82-1.37-6.05-.16-6.51.45-2.91.67-.96.29-3.26.1-2.79-.17-5.06.09-6.77-.21-9.79-.36-2.72-.07-2.18.77,1.32.51-1.95.52-6.2-.33-8.46.15-.44.27,1.28.3,1.33.51,2.38-.22,8.94.08,8.51-.49,5.63-.15,4.16.52,9.8.36.72.38-2.72.24-2.89.5.42.38,2.53-.17,2.84-.16,1.79,0,2.22.37,4.17.35,2.31-.03,3.77-.36,7.08-.32,1.92-.05,1.23-.42,1.51-.68,5.71-.05,6.41.48,9.75.7,4.4.09,4.03-.42,5.73-.67,3.19.24,4.42.71,6.88,1.03,2.83-.68,11.37-.65,18.41-.81-1.42.61,5.5.25,8.39.36,4.37-.09,2.93-.9,9.95-.66-1.05.16-2.59.25-4.26.33.3.4,6.16.11,7.03.01-1.09-.16-1.61-.36-2.74-.51-3.82-.52-6.64-.19-4.11-.69-4.22,0-8.44-.02-12.66-.03,2.55-.58,8.8-.04,15.5-.14,4.98-.07,13.76-.1,22.5.05-1.09.52,1.34.62,1.25,1.02,7.34.24,10.66-.06,16.86.21-.68.38-2.59.6-5.74.67,3.96.54,6.29-.59,9.95-.66,4.99-.08,3.36.61,8.36.53,2.66,0-.23-.73-4.14-.52,2.97-.84,4.95.27,8.39.36,5.71-.19,1.83-.58,4.37-1.01,5.55.09-1.8.73,4.09.86.85-.41,7.19-.14,5.76-.84,4.26.31,12.09-.16,8.39.36,3.83-.1,11.13.24,12.69-.14,2.48.13.15.31-.07.51,4.52.16,2.06-.55,4.32-.67,2.22.64,3.86-.29,11.25.02-.88.35-3.03.54-4.34.84-26.53-.26-37.19.5-60.59.55-1.98.06-.17.3,1.35.34-4.97.11-10.22.36-14.12.31-1.16-.02-2.41-.34-4.17-.35-.97,0-3.39.14-2.85.16-2.21-.09,1.94-.48-5.58-.35,2.54-1.05,9.8-.23,14.15-.48-6-.64-14.81-.95-25.17-1.07.77-.14,1.51-.27,1.48-.51-5.7.15-3.32.81-1.61,1.35,6.15.19,4.71-.56,9.93-.49-.86.77-6.4,1.55,2.56,1.7-11.39.02-27.36.73-40.82.08-4.37.49-14.39.27-22.55.29-2.72.06-1.21.66-5.7.5-3.3-.45-3.22-.79-4.04-1.2-6.76.14-5.34.03-14.09.14-.65.35.9.45,1.31.68,2.26-.35,7.89-.28,9.95-.66,8.38,1.1-5.88,1.46-12.84,1.16.1,0,1.65-.33,1.45-.34-.69-.01-8.35,0-7.08.32-8.13-.08-25.51.04-38.03.26-8.63.15-17.86-.15-25.32-.05-3.61.05-8.18.43-12.74.48-5.58.07-10.97-.01-14.14.48.74.58,8.06.4,8.28,1.04,6.28-.31,16.62-.18,18.21.55,1.51-.62,5.91-.87,11.41-.99,1.23-.48-1.92-.44-1.29-.85,8.6-.18,4.39.95,2.62,1.36,1.31.11,7.1,0,11.23.19,2.71-.01-2.09-.64,1.53-.85-.53-.31-6.78.56-9.85-.02,1.43-.22,3.86-.33,4.32-.67,10.25.24,22.32-.05,37.97.08,4.44.35-8.74-.07-7.11.49.1.43,4.67.35,8.39.36,3.69.06,1.2-.66,5.7-.5-3.45.5,1.76.65,4.14.52,3.24-.18.1-.77,2.84-.16,2.18.48,6.31.68,9.79.36-1.36-.34-6.18-.28-5.5-.86,4.43-.07,3.64.46,6.96.52,1.14-.03,1.43-.17,2.83-.16,1.04-.45-2.86-.33-4.14-.52-1.29-.38,4.12-.16,4.24-.16,3.23-.12,3.34-.29,5.68-.33,6.24-.09,14.74.11,22.51.05-3.59.46-5.43.13-11.28.15.09.43,4.66.35,8.39.36.02.5,3.12.64,5.5.86,4.61-.28-3.58-.45-1.25-1.02,8.18-.12,5.51,1.03,9.65,1.38,5.24,0,8.87.19,12.61.37,2.6-.02.94-.57,2.91-.67,7.24-.12,5.75.77,13.99.54-.91.77,5.19.73,3.99,1.54-4.76-.47-9.93.17-12.74.48.4.23,3.5.15,5.6.18-1.11.15-1.56.38-1.5.68-3.08.02-4.46-.15-4.14-.52-2.01-.1-3.54.65-4.24.16-1.98-.3-1.24-.39,2.86-.33-2.58-.31-1.31-.9,1.56-1.01-1.89-.5-4.89.29-8.46.15-.4-.4-2.13-.64-1.23-1.19-4.26-.02-1.49.85-5.75.84-.49.45,5.43.14,4.12.69-2.03-.1-7.3.18-7.01-.18-2.3.23-3.55.59-8.51.49,2.48-.56,1.89-1.04-5.5-.86-3.68-.4,3.8-.45.13-.85-1.73.19-2.63.48-7.09.32.56-.29-1.05-.32-2.77-.35.96-.39,2.94-1.02.2-1.36-2.51.15-1.9.68-7.1.49-1.72-.68,4.68-.34,2.96-1.01-5.52-.23-3.72.46-5.73.67-2.7-.07,0-.78-5.55-.52-.84.18-.52.64-4.35.84,1.14.4,3.54-.46,8.47-.15-2.25.45,3.1.32,4.15.52.57.11-.39.38-.08.51.45.19,3.53.17,2.74.52-1.65.14-3.81.22-7.06.15.53-.22,2.52-.26,2.89-.5-3.49-.03-5.85.07-7.08.32.51.82,7.14.67,12.58.54,1.34.51-3.18.29-5.68.33,2.55.44,3.94.81-.18,1.19.32.18,2.78.12,2.77.34,3.51-.04,4.79-.63,8.47-.15-1.16.75-12.77.39-21.18.46-4.74.04-8.45.29-12.68.14-.13-.13,4.33-.27,5.65-.16-4.4-.37-4.83.14-8.47.15-2.14,0-4.01-.35-4.17-.35-2.46.03-4.4.43-7.11.49-2.28.05-3.14-.18-5.61-.18-4.66,0-10.75.41-14.06-.03,1.21-.86,6.82-1.18,14.2-.82-.36-.57-6.31-.49-11.17-.53-4.11.14-1.63.25-1.52.68-2.81-.06-4.4.02-4.26.33-2.51.03-7.02-.19-5.68.33.09.33,5.28-.25,7,.18-6.67.43-14.52-.04-22.53.12-1.79.04-3.55.3-5.68.33-6.18.04-14.76.09-21.12.12-10.61.05-22.38.11-29.54-.06-.23,0,.26-.31.05-.34-1.37-.17-3.88.31-5.65.16,3.11-1.11-3.01.31-9.85-.02-1.65.02-1.24.31-1.48.51-5.75-.05-13.58.13-15.43-.37-4.42-.09-3.26.51-8.49.32-1.01-.59.9-.81,5.73-.67.2-.52-4.18-.51-8.37-.53-1.09.52,1.35.62,1.25,1.02-67.11.57-134.7.05-199.79-.09-10.99-.02-19.94.04-30.94-.07-2.28-.02-2.47.18-4.25.16-4.81-.05-14-.19-22.48-.22-4.7-.02-9.1.23-14.1.14-6.68-.12-26.76-.25-37.97-.08-6.54.09-14.88.6-23.91-.05-7.27.2-12.71.35-18.29-.04.89.17,3.21.18,2.74.51-10.44-.27-18.33.06-30.95-.07.53-.22,2.52-.26,2.89-.5-5.72-.2-3.68.57-7.13.66-3.29-.05-.7-.75.13-.85-3.98.08-6.04.4-9.93.49-4.43-.28-7.27-.03-12.66-.03-2.54,0-4.75-.2-7.01-.19-3.51.03-9.3.51-16.93.3-2.01-.06-3.61-.34-4.17-.35-2.44-.04-3.76.58-7.03-.02-4.79.1-16.18.57-22.61.63-2.63.03-4.98-.18-5.6-.18-2.53-.02-2.98.18-5.65.16-2.89-.03-2.86-.31-4.17-.35-.7-.02-2.6.17-4.24.16-6.07-.05-15.49-.33-21.08-.22-2.47.05-4.12.29-7.08.32-1.01-.16-2.52-.26-4.17-.35-2.91.32-8.55.16-12.69.14-3-.02-6.69.3-9.89.32-2.52.02-2.93-.2-5.6-.18-9.47.08-22.05.18-32.41.27-2.28.01-2.41-.19-4.2-.18-9.57.05-18.01.37-23.96.29-3-.04-2.05-.23-4.17-.35-7.6.09-14.04.32-22.55.29-.89-.18-3.21-.18-2.74-.52-1.65.02-1.23.31-1.48.51-9.12-.11-15.78.74-22.51-.05-5.01.12-5.11.01-11.27.14-1.56-.21-3.97-.32-2.69-.85-6.29,0-1.85.38-4.32.67-6.47.14-6.73-.44-12.61-.37-2.6.02-.95.57-2.91.67-7.01-.32-16.8.1-26.73-.06-2.97-.05-6.42-.34-9.79-.36-8.66-.07-24.33.6-29.52-.23-1.33.12-2.17.3-2.89.5-9.28-.45-14.85.41-25.32-.06-2.34.73-5.53.32-11.32.48-.52.18,2.23.5,2.74.52,1.49.04,2.56-.31,4.26-.33,2.15-.02,2.64.22,4.2.18,2.05-.06,3.82-.31,5.68-.33,3.09-.02,5.11.16,8.42.19,3.35.03,7.96-.17,14.06.03,1.75.06,3.85.34,4.17.35,1.54.02,6.2-.19,9.87-.15,4.66.06,5.38-.02,11.25.02,4.96.04,11.91.09,19.69.04.35.28-1.38.29-1.48.51,4.28,0,9.27-.08,8.36.53,1.65-.02,1.24-.31,1.48-.51.3-.37-4.97-.09-7.01-.19,4.26-.61,14.01-.41,21.13-.12,3.49.23,4.5-.66,5.65-.16,2.86.36-.65.33-2.89.5-1.43.11.39.37-2.86.33-1.15-.01-1.36-.19-2.79-.18.26-.2,2.58-.14,4.25-.16-4.45-.47-9.28.1-14.04-.2-2.24.93,10.97.06,8.28,1.04,7.83-.24,10.31-1.03,19.79-.64,1.95-.73-6.66-.22-5.5-.86,6.53-.04,12.18.03,15.42.37-2.43.23-10.44.23-5.75.84,2.72-.06,1.21-.66,5.7-.5-1.34.97,9.23.64,11.24.19-1.25-.3-4.34-.38-8.4-.36,1.42-.66,7.12-.13,11.28-.15-3.33.66,2.5.68,5.47,1.03,1.66-.65-4.88-.61-1.25-1.02,3.8.11,3.39.72,8.33.7,4.04-.08-2.23-.26-2.76-.35,13.74-.34,33.86-.23,52.1-.23,1.67,0,7.66.46,9.87-.15,7.83.28,23.26.29,29.52.23-2.23.57-9.57.29-15.53.31-8.53.02-16.48-.1-22.53.12.38.6,3.81.43,1.27,1.02,5.15-.14,7.44.32,9.83.02-1.79-.09-2.87-.19-6.97-.35,3.34-.86,8.49.13,14.06.03.62-.41-6.42.08-4.14-.52,32.42.12,78.01.27,112.53.24,2.34,0,4.68.19,7.01.19,3.17-.01,5.55-.19,8.46-.15,4.73.06,10.34.83,14.05.2.46.39,5.59.24,6.95.52,1.78-.04,1.47-.33.05-.34,24.82-.83,52.07.32,71.82-.35,2.03.08-.17.15-.06.34,4.91-.19,10.13-.35,16.93-.3-.19.44-5.52.23-5.72.67,4.43.03,10.71-.61,14.09-.14-.15.74-5.91-.2-7.11.49-4.45.07-4.92-.32-9.82-.19-1.14.03-1.43.17-2.84.16-.45.39.25.64,2.71.69-4.51.19-5.43.93-5.8,1.17,2.2.66,8.27,0,11.21.36.69.54-4.52.14-5.66.16-1.47.03-.8.32-1.46.34-4.1.11-9.36.03-15.49.13-2.35-.31-1.98-1.26,1.6-1.35,1.09-.37-5.07-.71-5.58-.35-4.35-.28,2.97-.53,2.94-.84-3.06-.04-4.5.13-4.3.5-4.44.07-3.11-.53-8.39-.36,2.5-.68,9.06.22,11.33-.48,4.81,0,10.53.76,15.45.2,1.97-.72-11.18-.03-5.52-.69-5.84.41-9.77,0-14.15.48-2.68-.08-6.04-.07-5.55-.52-5.95.48-17.76.15-28.14-.06-5.33.39-12.81.57-16.93.3-3.92.2-7.22.48-12.74.48-.14-.31,1.78-.36,1.51-.68-3.52-.04-3.47.37-5.71.5-4.78.04-11.38-.16-14.08.14.89.23,2.95.32,5.57.35-2.72.29-9.03.14-11.33.48-6.35-.04-8.11-.61-13.96-.71-2.1.07.52.22-.08.51-5.98.03-7.5-.46-14.01-.37-1.45.11-1.52.39-4.28.33-.56.29,1.05.32,2.76.35-4.62.32-8.05.08-11.22-.19-3.19.09,1.66.27-1.49.51-4.6-.13-1.81-1.12-9.72-.87.89.17,3.21.18,2.74.52-4.75-.32-5.23.4-8.46.15.39.03,1.57-.45.07-.51-1.31-.05-3.84.37-1.45.34.56.47-7.65-.15-7.09.32,1.68.47,13.07-.19,11.15.7,1.92-.05,1.23-.42,1.51-.68,2.34,0,4.69.01,7.03.02ZM530.38,48.75c-.18-.54-.84-1.02-5.48-1.03l-.15,1.02h5.63ZM529.29,46.54c-1.41,0-2.81,0-4.22,0,1.33.51,1.29,1.18,8.29,1.04,2.51-.79-6.57-.23-4.06-1.03ZM422.44,45.96c4.12.08,1.07.99,8.34.7,1.69-.53-2.15-.42-2.71-.69,1.05-.27-6.59-.29-5.63-.01ZM1091.86,38.93c3.22-.23,9.09-.13,8.56-.83-4.49-.16-2.98.44-5.7.5.26-.42.38-.82-2.69-.85l-.18,1.19ZM1025.79,38.45c-1.4,0-2.81,0-4.22,0,.94.52-1.53.61-1.56,1.01,5.17.07,4.35-.61,5.78-1ZM1028.38,39.99c-3.09.5-1.6.8-7.21,1.17,4.97-.02,13.63-.81,7.21-1.17ZM1053.83,39.19c-.11.51-6.1.97,1.25,1.02-1.39-.64,3.04-.54,4.34-.84-2.66.03-3.07-.2-5.6-.18ZM1052.58,38.17c.37-.24,2.36-.28,2.88-.5-1.9-.06-2.64-.25-5.6-.18-.45.39.25.64,2.72.68ZM1045.26,40.02c-.47.23-2.05.32-1.51.67,2.46,0,4.38.05,5.6.18.35-.49.31-.93-4.09-.86ZM1018.87,37.76c4.31.45,8.94-.16,15.47.03.3.24,2.27.29,2.74.51-.05.22-2.48.15-2.86.33,3.44.16,3.04.76,8.34.7,2.87-.04,3.79-.33,5.7-.5-.37-.85-2.97-1.43-9.62-1.55-1.01.34,1.84.23,2.77.35,1.45.18,4.14.74,1.28.85-3.45-.16-6.04-.41-5.47-1.03-7.1-.02-13.53.04-18.34.3ZM1016.53,34.53c4.04.04,7.16-.03,8.5-.32-5.12.3-4.15-.04-8.42-.19l-.07.51ZM987.3,32.43c1.15.15,10.92.49,9.87-.15-1.01-.33-10.37-.27-9.87.15ZM972.96,34.26c7.11-.09,12.08.72,18.25.21,1.62-.91-6.16-.73-8.38-.36-5.55.07-7.25-.37-9.87.15ZM953.26,34.22c4.61.56,10.85-.52,15.47.03-2.35-.92-11.11-.28-15.47-.03ZM947.91,32.34c6.41.01,13.58.82,18.29.04-7.26.23-13.8-.5-18.29-.04ZM1000.25,39.92c-.1.1-.25.2-1.44.17-.49.45,1.87.56,5.55.52.46-.44-.41-.73-4.11-.69ZM999.3,36.87c-.95.67,7.69.22,11.2.36-2.4.56.23.65,5.52.69,1.45-1.1-12.37-1.16-16.73-1.05ZM999.12,38.05c4.53-.14,4.37.27,5.55.52,2.62-.02,4.71-.1,5.68-.33-5.53-.07-6.1-.31-2.71-.68-3.61-.03-10.45.4-8.52.49ZM997.33,40.6c-3.95-.21-2.38-1.06-9.71-.87-1.55.37,2.54.35,2.71.68.04.08-3.35.19-2.89.5.22.16.47.42,5.58.35-1.3-.95,2.24-.34,4.32-.67ZM965.14,39.51c-1.34-1.04,11.65.3,7.16-.83,4.85.15,5.97-.17,8.48-.32,4.64.35,9.2.71,15.35.88l.1-.68c-6.28.05-9.89-.08-6.93-.69-7.49.04-12.69.37-19.76.47,1.53.76-13.32.55-4.4,1.18ZM949.3,41.85c5.66-.1,9.7-.4,14.17-.65,5.06.3,11.99.38,19.65.38.5-.39-.13-.65-1.28-.85-2.54.2-8.19.01-9.9.32,3.55.3,4.95-.18,7,.19-3.96.41-9.19-.04-11.2-.36,7.42-.26,2.28-.67,7.18-1,2.67-.03,3.07.2,5.6.18.3-.48-4.16-.4-4.09-.86.56-.09,6.87-.24,2.87-.33-4.7.16-4.55.93-11.38.82,3.64.77-2.16.8-4.34.84,2.67.02-.97.66-2.91.67.66-.86-9.81-.42-11.11-1.04l-.13.85c3.74.01,8.29-.08,8.39.36-3.81.04-10.37-.26-8.52.49ZM942.73,38.78c-4,.13-3.61-.25-7.01-.19-2.58.75,7.35.63,7.01.19ZM934.04,40.46c6.03.09,1.87-.45,4.29-.5,3.73,0,8.27.11,8.49-.32-5.35-.16-9.02.26-11.25-.02,1.09.48-2.05.44-1.53.85ZM925.47,41.29c2.47-.04,6.95.49,8.44.02-1.09-.04-1.61-.14-1.36-.34-3.48-.03-6.81-.05-7.08.32ZM915.67,40.93c-4.59.2-.99-.55-5.58-.35-2.22.07-1.28.53-5.68.33-1.82.54,4.53.14,2.71.68-4.18.03-6.84-.69-8.44-.02,4.12-.04,4.26.39,8.39.36,5.25-.27,8.58-.77,15.6-.82.25-.2-.17-.48,1.49-.51,6.94-.21-3.81-.18-4.25.16-1.88.02-4.14-.7-5.6-.18,1.51.04,3.33.29,1.35.34ZM898.97,39.7c1.63.2,4.95.2,8.42.19,1.82-.55-4.54-.14-2.72-.68,4.32-.11,5.11.18,8.42.19,2.39-.33-.1-.22.1-.68-4.21.16-11.24-.02-12.74.48,6.57.03-1.05.31-1.48.51ZM893.19,40.71c-1.21-.37-2.59-1.58-6.88-1.03,2.47.05,3.16.3,2.71.69-2.5.03-7.02-.19-5.68.33,4.85-.06,7.87.08,11.23.19,1.85.03,10.18.05,5.66-.16-2.35,0-4.69,0-7.04-.01ZM897.74,38.51c-1.8-.14-13.48-.48-9.82-.19.23.32,8.12.59,9.82.19ZM886.59,37.81c4.52.22,1.16-.55,5.67-.33,2.22.02,1.04.44,4.17.35l.1-.68c-5.32.12-6.69-.22-11.23-.19-.76.53,4.79.46,1.29.85ZM875.09,39.48c-1.73.55,12.02.65,8.39.36-5.6.21-2.79-.57-8.39-.36ZM869.69,37.94c3.94.15,5.68.56,11.18.53.79-.6-8.13-.93-11.18-.53ZM854.14,38.42c3.49.11,11.1.7,12.66.03-3.46-.11-12.21-.57-12.66-.03ZM848.26,40.1c3.54-.06,6.42.79,8.38.36-1.75-.28-6.66-1.05-8.38-.36ZM848.03,41.63c3.35.33,11.29.13,16.86.21,1.47-.67-7.85-.09-6.93-.7,1.95-.01,1.54-.43-1.36-.34-.81.25,1.51.88-1.54.85-1.35-.4-5.16-.41-7.03-.02ZM796.01,41.35c-3.31,0-4.1-.3-8.42-.19-2.07.54,8.35.45,8.42.19ZM844.34,38.06c-1.09.04-2.78,0-2.84.16,5.56.18,4.44-.48,5.76-.84-1.88,0-3.75,0-5.63-.01-1.1.46,2.74.35,2.71.68ZM839.64,41.27c-.31.42,2.08.54,4.12.69.48-.23,2.05-.32,1.51-.68-1.88,0-3.75,0-5.63-.01ZM820.43,38.01c7.33.22,8.99-.26,14.12-.31-.08.45-3.98.43-5.73.67,4.29.45,7.61-.33,9.95-.66-7.4-.25-12.11.11-16.81-.55,1.09.48-2.04.43-1.53.85ZM824.27,40.56c-14.24.14,5.6.49,5.65-.16-2.63,0-3.17.13-5.65.16ZM806.01,40.35l-.13.85c-.16.24-10.14.08-5.68.33,5.44-.02,10.37.02,14.04.2,2.35-.83-7.23-.27-5.47-1.03,2.65.04,3.14-.18,5.65-.16-.94.89,13.07,1.54,15.4.54-5.66-.04-10.83-.14-12.63-.2-2.58-.84,4.74-.44,4.36-1.01-6.55-.01-7.86.63-15.54.48ZM785.26,37.93c3.86-.11,2.78.34,5.57.35,3.15-.24-1.71-.42,1.49-.51.53.29,1.82-.03,4.22,0,.76.54-2.72.52-.12.85,2.1-.02,5.18.07,5.65-.16-.78,0-1.57-.14.02-.17,7.21-.23,5.93.53,9.74.7-.37-.68,2.65-.94,1.67-1.69-5.9.18-6.94-.03-12.64-.2-.19.21-.48.4-2.86.33-4.36,0-3.94-.54-9.8-.36-.64.32-4.06.3-2.94.84ZM786.52,38.95c5.3.43,2.5.61,7.01.19-1.6.63,3.42.49,2.67,1.02,2.87.16,5.4-.55,2.89-.5-.04.17-2.5.21-2.81,0l.05-.34c2.93-.09,9.21.23,9.88-.15-2.62-.34-6.64-.1-9.85-.02-3.68-.65-8.34-.34-13.99-.54-1.04.45,2.41.21,4.17.35ZM770.84,40.27c2.49.1,5.83.1,6.98.35-3.29,0-6.57-.01-9.85-.02-1.21.19-1.92.45-1.53.85,8.36.24,8.77-.52,15.55-.48.94-.34-2.48-.33-2.73-.51,0,0,.19,0,.45-.03.27-.02.62-.06.98-.09.71-.07,1.42-.16,1.43-.22-.02.08-2.71-.15-2.79-.18-.58-.16,2.95-.38-1.35-.34,2.71.86-6.43.23-7.13.66ZM758.38,38.89c2.62.31,9.28.14,14.05.2-.88-1.01-10.02-.57-14.05-.2ZM753.68,39.66c-.53-.02-1.24-.05-2.43-.11-1.64-.08-.96-.34-4.17-.35-1.04,0-5.32-.09-5.68.33,2.46.1,8.3-.19,8.41.19-6.65-.16-3.96.41-5.71.5-1.63-.2-4.93-.2-8.41-.19.78.74,11.06.38,15.37.71-.02.17-1.17.2-1.45.33,4.31.13,2.68.13,7.04.02,2.16-.64-6.29-.05-4.12-.69,2.35,0,4.69,0,7.04.01,1.55-.71-6.3-.08-6.96-.52-.28-.18.42-.23,1.07-.23,1.49.05.84,0,0,0ZM731.63,39c7.48.19,3.4-.28,5.68-.33,5.86-.11,12.21.42,16.85.21-2.07-.03-1.23-.41-1.3-.68-6.56.48-11.42.09-21.14.12l-.09.68ZM693.71,38.58c-.1.23.61.37,1.33.51,3.52.04,4.45-.25,5.71-.5-1.82-.22-5.16-.23-7.04-.02ZM678.01,40.07c2.48-.09,8.23.22,8.46-.15-1.77-.24-8.36-.31-8.46.15ZM646.89,41.19c2.74.29,1.78-.01,5.62.01,1.21-.65-6.64-.67-5.62-.01ZM645.73,39.49c3.2.14,10.13.7,14.04.2-3.43-.11-11.75-.51-14.04-.2ZM619.33,37.23c2.2.08,1.13.54,5.58.35l.07-.51c-2.11.02-5.18-.07-5.65.16ZM607.98,37.88c4.71.3,10.62.18,9.94-.66-.86-.05-5.35-.43-5.63-.01.86.01,1.66.03,1.39.17-4.49-.16-4.44.25-5.7.5ZM588.39,37.16c-.69.8,5.65.04,8.44.02,3.43-.03,9.66.49,11.28-.15-6.43.06-15.46-.2-19.72.13ZM576.86,39c1.77.24,8.36.31,8.46-.15-2.49.09-8.23-.22-8.46.15ZM654.8,35.27c4.61.02,5.31.49,11.2.36.25-.85-6.98-.65-11.2-.36ZM639.35,35.06c4.76-.2,7.34.68,9.82.19-5.66-.19-3.26-.39.1-.68-4.2.05-8.58.08-9.93.49ZM622.7,33.5c1.32.4.3,1.08,5.48,1.03.7-.64-2.86-.78-5.48-1.03ZM618.36,34.34c7.6.23-5.36,1.01,4.06,1.03,2.21-.54-.57-1.35-4.06-1.03ZM580.28,34.94c-1.64-.03-1.49-.27-1.33-.51-2.44-.02-4.38.03-5.65.16-1.05.42,5.9.73,6.98.35ZM569.35,32.7c.2.25-.6.63,1.31.68-.38-.35,4.06.04,4.19.18-.16.27-3.61.13-2.89.5,6.25.06,14.75-.3,21.12-.12,3.48.09,4.95.64,8.34.7-4.49.02-12.46.5-9.98.83,2.95-.55,12.51-.5,14.23-.99-.19.05-4.49-.12-2.76-.35,2.49.11,5.91-.48,7.03.02-1.65.02-3.98-.04-4.24.16,2.07.21,5.72.22,6.96.53-1.61.24-1.58.41,1.33.51-.98-.52,4.88-.2,2.94-.84-3.53.01-4.45.31-5.6-.18,1.44-.49,2.99-1.02,4.45-1.52-1.87,0-3.75,0-5.63-.01-1.92.42,5.48.54,1.31.68-1.35,0-6.21,0-5.6-.18-.12.03,3.92-.1,2.84-.16-3.98-.22-8.17-.03-12.66-.03-2.91,0-7.89-.47-8.47.15,6.7,0,8.41.58,13.97.71-4.16.53-8.1-.38-11.17-.53-2.83.06-10.5.4-12.66-.03-.17-.48,9.17.22,7.1-.49-6.67.28-8.57-.12-15.44-.2ZM542.04,36.55c.62.49,4.87,1.42,9.72.87-1.57-.04-2.16-.19-2.76-.35,1.84-.23,6.14-.15,9.88-.15-1.7.53,2.14.42,2.71.69,4.85.15,5.44-.24,9.87-.15-.9-.53-.94-.33.13-.85-9.85-.02-19.7-.04-29.54-.06ZM502.56,37.14c5.12.06,9.16,0,12.68-.14.37.39-4.1.18-4.3.5,1.09.04,2.78,0,2.79.18.93,0,1.87,0,2.81,0,.28-.25-.41-.63,1.51-.68,1.84.74,7.26.03,11.25.02l-.07.51c5.83-.53,14.73.62,15.5-.14-5.94.13-10.33-.42-6.91-.86-5.49,0-10.3.09-12.73.48-7.38.13-19.82-1.03-22.53.12ZM473.75,32.16c4.16-.24,5.2.2,7.08-.32-3.28-.23-2.62.02-7-.19l-.08.51ZM464.84,35.36c1.63.2,4.94.2,8.41.19,2.07-.54-8.35-.45-8.41-.19ZM463.2,36.89c9.37-.05-1.35.57,2.69.85,6.3.1,10.55-.06,15.5-.14,3.48-.22-2.46-.52,1.51-.68,3.26.34,6.04.74,11.12.87,2.44-.21,3.9-.55,4.38-1.01-5.08-.02-11.25-.08-5.68.33-4.86-.1-7.41-.47-12.59-.54-3.35.77-12.59-.18-16.92.3ZM461.66,37.73c-1.69-.04-.84-.19.05-.34-3.76,0-2.98-.54-6.95-.53-2.8.23,3.74,1.36,6.9.86ZM141.89,23.73c1.67-.02,4,.04,4.26-.16-5.11-.12,3.92-.85-2.71-.68-1.59.15-.49.31-1.54.85ZM72.2,19.33c6.2.05,9.66.29,14.09-.14-1.53-.1-11.15-.11-14.09.14ZM10.85,23.6c1.69-.11,2.11.19,3.37.19.05-.25-.8-.43-1.7-.48-.9-.05-1.79.03-1.67.29ZM8.8,28.54l-.06.5-.02.25v.06s0,.03,0,.03v-.05s0-.18,0-.18c-.02-.49-.03-.98-.02-1.47,0-.98.04-1.98.08-2.91.02.33.03.66.05.98,0,.25.01.49.02.73,0-.36-.05-.72-.16-1.13-.04.11-.09.45-.13.92v.09s-.01.05-.01.05c0,.01,0-.04,0-.06,0-.1-.01-.2-.02-.31,0-.2-.02-.42-.03-.63,0-.21-.01-.43-.02-.64,0,.35,0,.69-.01,1.04-.01,1.37,0,2.7.06,3.57.06-.56.15-.93.32-.84ZM126.42,30.72c-1.47.22-1.47.62-2.94.84,1.88,0,3.76,0,5.63.01.26-.42.39-.82-2.68-.85ZM190.59,34.43c-5.38.07-2.75-.79-9.78-.53-.77.53,4.79.46,1.29.85,4.03.04,7.15-.03,8.49-.32ZM213.74,30.23c-4.46.18-3.38-.27-5.58-.35-.42.49,2.56.59,4.09.86-.07.34-3.86.21-2.91.67,8.41.09,3.31-.43,4.4-1.18ZM293.83,30.92c-4.03-.04-7.15.03-8.48.32,5.26-.1,8.17.49,8.48-.32ZM329.9,34.39c-2.35,0-4.69,0-7.04-.01-1.47.68,8.31.7,7.04.01ZM341.53,31.87c-3.73,0-8.26-.11-8.48.32,2.91-.1,9.73.3,8.48-.32ZM363.96,32.43c-4.77-.12-11.77.36-8.54.66.58-.2,10.85.35,8.54-.66ZM395.93,35.04c-.94-.5-4.27-.73-9.74-.7-2.53.91,4.75.67,9.74.7ZM423.16,31.71c-4.28-.48-9.24,0-13.99-.54-.96.45,2.31.21,4.17.35,3.22.24,8.25.87,9.81.19ZM444.93,36.68c-6.15.09-9.79.5-12.81.99,3.89-.05,9.8.51,12.66.03-3.12-.08-.96-.9.15-1.02ZM409.66,37.28c-.96.67,7.71.22,11.21.36,1.91-.05,2.73-.24,5.65-.16-.91.44.48.61,4.14.52,1.13-.52-3.81-.33-2.68-.86,5.42.16,6.12-.27,8.52-.49-8.58.17-19.27.89-26.84.62ZM335.14,36.95c1.09.04,1.61.15,1.36.34,4.34-.11,2.71-.11,7.03.02,1.37-.51-9.23-.46-8.4-.36ZM308.37,37.23c3.2.05,5.29-.03,5.68-.33-1.9-.06-2.66-.25-5.6-.18l-.08.51ZM298.55,37.04c1.61.48,2.13,1.09,8.29,1.04,1.56-.61-1.66-.34-2.72-.68.12.04,2.11-.24.05-.34-1.87,0-3.75,0-5.62-.01ZM204.15,37.85c4.04.04,7.16-.03,8.49-.32-4.13.04-4.27-.39-8.4-.36l-.1.68ZM302.97,19.33c.49.34-3.16.46-7.13.66,2.79,0,1.72.47,5.57.35.83-.22,7.32-1.06,1.56-1.02ZM333.96,19.05c-1.09-.04-1.62-.15-1.36-.34-4.71-.13-4.66.34-7.11.5,2.49-.09,8.23.22,8.46-.15ZM1030.78,17.01c-3.53.11-5.67-.76-8.41-.19,1.48.12,6.38.68,8.41.19ZM1051.7,18.24c-2.53.02-3.27-.18-2.74-.51-4.43-.09-5.01.29-9.87.15-.42.3,6.75.76,8.34.7.63-.03-.15-.42,1.46-.34-.02.26,3.76.57,2.81,0ZM1075.76,17.27c.69-.43-7.25-.69-8.39-.36,2.61.14,5.11.3,8.39.36ZM1490.94,16.65c5.4.15,5.54-.8.1-.68l-.1.68ZM1452.91,16.91c-.21.52,4.17.51,8.36.53.91-.61-4.08-.52-8.36-.53ZM1437.96,3.97c1.83.29-.67,1.08,4.06,1.03,1.21-.19,1.93-.45,1.54-.85-2.67.03-3.08-.2-5.6-.18ZM1401.44,3.56c-.47.33,1.85.34,2.74.52-.97.41-2.97.87,2.69.85.09-.23-.61-.38-1.33-.51,3.06.04,4.49-.13,4.29-.5-4.88.12-5.91-.2-8.39-.36ZM1394.86,19.33c3.92-.14,13.15.38,12.71-.31-1.14-.51-2.16.39-5.65.16-.13-.21-.36-.4-2.76-.35,2.09.61-4.79.09-4.3.5ZM1388.58,4.89c3.47-.04,8.93-.34,7.16-.83-5.32.05-8.26,1.05-14.15.48-1.35.49,4.49.38,6.98.36ZM1371.57,5.7c2.16-.36,7.1-.38,7.19-1-6.44-.2-13.27.71-7.19,1ZM1285.14,19.09c-3.31-.06-2.53-.6-6.96-.52-.89.45,5.66.88,6.96.52ZM1180.33,14.28l.1-.68c-1.41,0-2.81,0-4.22,0-.46.44.4.73,4.12.69ZM1002.97,14.74c4.18.05,13.61-.13,11.3-.32-2.71.13-13.99.08-11.3.32ZM984.86,13.51c3.42.1,2.9.66,8.37.53-.08-.39-6.05-.95-8.37-.53ZM971.85,15.86c.54-.7-8.16-.13-9.85-.02,3.19.09,7.14.35,9.85.02ZM920.06,14.05c3.8-.11,2.67.36,4.15.52,5.6.07,10.39.03,12.71-.31.33.24,3.05.2,4.16.35,7.63-.56,18.62-.27,26.76-.11-1.28-.32,8.06-.09,2.86-.33-2.65-.04-3.13.18-5.65.16-.45-.41-5.41-.61-8.34-.7-2.54-.08-3.58.17-7.06.16-3.39-.01-7.97-.35-11.2-.36-1.82,0-1.94.21-4.24.16-3.73-.08-13.99-.24-14.15.48ZM749.76,14.36c3.31.08,6.52.48,9.77.53,3.74.05,4.39-.28,7.09-.32,1.4-.02,1.04.16,1.38.17,1.25.03,1.32-.17,1.43-.17,7.17-.05,11.12-.15,12.76-.65-5.17-.17-13.32.25-21.15.29-4.04.02-9.69-.58-11.28.15ZM553.19,20.89c3.28.06,5.76.34,8.44.02,1.39-.61-9.22-.41-8.44-.02ZM578.69,19.76c-5.29-.35-5.69.76-2.94.84-.97-.53,4.88-.2,2.94-.84ZM571.79,18.89c3.31.06,2.53.6,6.95.52,7.43-.43-4.3-1.35-6.95-.52ZM746.84,15.03c.44-.5-3.1-.53-2.66-1.03,1.1-.04,2.78,0,2.84-.16-7.61.04-8.86,1.14-.18,1.19ZM667.86,6.88c2.72.32,8.69.07,11.28-.15-5.59.05-8.54-.42-11.28.15ZM629.83,7.14c5.33-.35,5.13.23,9.79.36.22-.42,2.71-.52.13-.85-2.39.28-10.26-.13-9.92.49ZM549.57,7.47c1.76.24,6.85.28,7.06-.15-1.76-.24-6.85-.28-7.06.15ZM555.26,16.48c4.91.34,6.3-.07,11.28-.15-1.44.67,5.29.18,5.6.18,2.96.05,3.55.49,6.95.52-.93-.75,7.72-.3,8.57-.83,2.49.04,7.07-.16,5.58.35-4.43.08-5.69-.41-7.06.16,2.28.17,4.47.26,7.01.18,2.58-.08,11.87-1.18,12.71-.31-.78,0-1.62.13-.03.17,1.83-.49,8.13.76,9.87-.15-.83-.24-5.41-.04-5.57-.35,6.76-.04,11.72.46,15.5-.14,1.1,0,2.23.49,2.74.52,1.2.07,9.02-.05,9.85.02.21.02-.25.33-.06.34,2.74.04,5.74-.32,8.47-.15.19.2-.31.48,1.33.51,3.1-.35-.09-.55-1.28-.85,5.86-.16,1.63-.68,8.57-.83,2.79,0,1.72.47,5.58.35,1.01-.28,3.83-.29,5.68-.33,8.44-.17,18.56-.18,28.13.06,1.27-.25,2.19-.53,5.7-.5,15.09-.14,22.17-.22,38.03-.26,1.24-1.21-10.41-.36-15.42-.37-8.62-.03-16.48-.32-23.86-.39.03.29-1.15.43-2.89.5-12.1-.33-18.51.1-29.59.27-.84-.37,4.07-.53-1.33-.51-1.69.31-5.45.36-7.13.66-10.3-.15-20.28.24-25.3-.23-5.51.32-11.52.28-15.47-.03,1.6.83-7.19.37-9.95.66.46-.35,3.86-.32,4.32-.67-4.85.3-6.75-.04-12.66-.03-2.35.66,6.07.07,5.55.52-.99.61-6.73-.06-12.68.14-.19.21-.48.4-2.87.33,2.82-.54-.49-.12-4.19-.18-5.93-.09-10.45-.14-12.71.31-.06-.3.4-.53,1.51-.68-5.21-.19-4.59.35-7.11.49-9.04-.14-17.45-.13-19.62-.55.23-.2,2.56-.38.08-.51-2.12.2-2.28.64-4.35.84-3.82,0-6.48-.73-8.44-.02,6.03.25,10.85-.13,12.61.37-2.34.16-6.43.21-9.89.32-6.01.18-2.06-.08-7.01-.18-7.1,1.1,25.77.85,25.27.4ZM489.02,17.18c1.08-.58-4.84-.62-6.98-.35-1.07.58,4.84.62,6.98.35ZM446.29,20.66c4.05.03,9.22-.07,11.23.19-.93-.29-5.01-1.07-6.93-.69.85.01,1.66.03,1.38.17-2.62.02-4.72.1-5.68.33ZM436.7,18.94c2.23.29,7.23.17,8.47-.15-2.23-.29-7.23-.17-8.47.15ZM432.61,18.08c-.3.68,3.54.46,6.98.36,1.52-.57-4.34-.27-6.98-.36ZM429.83,8.4c4.02.45,6.8-.3,9.92-.49-4.99-.05-8.44.1-9.92.49ZM427.17,7.38c.72-.53-2.93-.55-6.96-.53-.73.53,2.93.55,6.96.53ZM407.32,8.35c3.49.03,6.82.05,7.09-.32-2.06-.27-7.98-.27-7.09.32ZM390.61,16.63c5.28.26,2.77-.46,7.09-.32,2.76.15,13.99.81,15.47.03-5.05-.15-10.74.25-12.63-.2.35.08,4.46-.13,1.43-.17-2.42.39-12.58-.19-11.36.65ZM389.04,8.31c3.99-.13,3.61.25,7,.19.15-.3-.23-.53-1.3-.68-3.52-.04-4.45.25-5.7.5ZM346.92,17.05c7.13-.39,11.27.46,14.1-.14-4.28-.17-4.29-.83-9.72-.87-1.67.25-1.69.42-.1.68-2.42-.01-3.63.12-4.28.33ZM333.04,15.83c3.7.06,4.65-.22,4.32-.67-3.79,0-6.82.37-4.32.67ZM255.71,15.49c1.09.04,1.61.15,1.35.34,3.95.19,9.69-.26,9.85.02-.43.35-6.23.03-5.7.5,4.99.34,5.16-.05,9.87-.15-2.02-.52.56-.66-1.25-1.02-5.28.25-10.46.25-14.12.31ZM171.1,16.66c2.66-.03,3.07.2,5.6.18-1.09-.48,2.05-.43,1.53-.84-4.12,0-5.28.38-7.13.66ZM151.41,16.62c3.14.14,5.38.59,8.39.36.09-.23-.61-.37-1.33-.51,4.91-.52,8.55.4,11.25.02-1.4-.5-8.99-.29-12.59-.54-.28.25.4.63-1.51.68-.17-.31-4.75-.11-5.58-.35-9.11.46-3.31.14,1.36.34ZM4.4,48.63c-6.78.01-10.15-.14-13.71-.08-.03-1.48-.09-2.93-.23-4.61-.04,2.83-.19,1.56-.34.18.06,1.67.06,3.33.05,4.96,6,.05,11.18.4,14.23-.44ZM9.2,48.29c.04-.17-3.86-.22-4.58,0,2.3.08,3.4.25,4.79.4.69.08,1.46.15,2.49.2.52.02,1.1.04,1.76.06.49,0,1.05.02,1.69.03.33-.14.27-.23-.01-.29-.14-.03-.34-.06-.57-.08-.14-.01-.19-.02-.42-.03-.22,0-.44-.02-.67-.03-1.85-.06-4.07-.1-4.46-.26ZM30.87,48.68c-1.89-.24-8.46-.18-8.49.32,3.87-.28,6.55.28,8.49-.32ZM58.48,42.8c-3.62.12-8,.15-9.92.49,5.98.23,7.17.03,9.92-.49ZM64.66,48.58c-5.29-.1-6.38-.23-8.49.32,2.95.37,7.65.08,8.49-.32ZM161.04,43.87c-3.47-.03-6.78-.04-8.47.15.14.32.84.57,2.71.69-1.73-.73,4.08-.53,5.76-.84ZM169.42,44.23c-.86-.1-4.14-.7-5.6-.18,3.49.77-3.58.09-5.68.33.35,1.01,9.73.23,11.28-.14ZM228.1,47.07c-1.86-.24-9.77-.34-9.87.15,3.8-.37,7.12.27,9.87-.15ZM281.58,47.02c-.61.21-1.87.34-4.27.33-.75.53,1.65.7,4.09.86-.14-.31,1.45-.39,4.26-.33.76-.53-1.64-.7-4.09-.86ZM294.11,47.89c-.64-.43-2.55-.7-4.07-1.03.34.46-2.16,1.25,4.07,1.03ZM294.62,44.5c-5.36.25-15.42-.08-16.98.64,2.38.25,1.67-.1,4.25-.16,4.32-.1,13.1.26,12.74-.48ZM342.24,45.96c2.68-.18,6.5-.22,7.13-.66-4,.13-3.61-.25-7.01-.19l-.13.85ZM335.06,46.96c-3.25-.06-5.4.02-7.06.15-1.18.38,1.39,1.14,2.71.69-3.23-.2,2.84-.66,4.35-.84ZM357.49,47.52c-3.56.13-12.07-.36-11.31.31,3.56-.13,12.06.36,11.31-.31ZM357.51,47.35c-.45-.73-11.77-.19-16.82-.38-.21.32-4.68.11-4.3.5,9.53-.03,11.45-.43,21.12-.12ZM638.27,16.49c.93-.46,3.96-.66,8.54-.66-.64.21-1.85.34-4.27.33-.28.14.53.16,1.38.17-.47.23-3.54.13-5.65.16ZM1040.21,36.11c-.89.56-5.35.23-8.46.15,1.48-.47,5.71-.2,8.46-.15ZM127.4,17.25c-3.51.32-15.12.52-19.72.13-.13-.72,2.16,0,4.22,0,3.86-.39,11.36-.17,15.5-.14ZM46.63,37.34c4.3-.18,10.02-.09,18.31-.13-5.14.22-13.6.36-18.31.13ZM915.01,45.34c-2.19.92-12.64.39-18.34.3-3.86-.06-10.46.3-11.2-.36,9.9.37,22.09.16,29.53.06ZM1083.24,40.1c-2.52-.03-3,.2-5.65.16-1.33-.4-2.34-.84-2.62-1.36,4.33.22,7.85.53,8.27,1.21ZM943.06,45.91c-3.38.38-12.62.03-18.31.13,4.18-.44,13.01-.12,18.31-.13ZM817.98,44.96c8.03.02,17.5.04,23.92.05-13.33.76-25.02-.16-43.64.07-2.78-.29,13.84-.14,19.72-.13ZM1091.55,40.97c-4.69,0-9.37-.02-14.05-.03,2.69-.11,13.44-.72,14.05.03ZM1131.01,40.55c-2.03.42-4.89.29-8.46.15,2.03-.42,4.89-.29,8.46-.15ZM1108.46,40.84c-5.48.34-8.72.03-14.04-.2,2.3-.29,6.39-.35,11.3-.32-.1.29.99.44,2.74.52ZM975.39,36.81c-5.81-.21-5.54.35-9.89.32-3.26-1.03-9.12.08-12.64-.2.77-.13,1.51-.27,1.49-.51,2.9.11,9.27-.19,9.82.19,3.13-.15,11.55-.71,11.23.19ZM881.04,20.92c-9.24.19-18.49.08-29.54-.06,7.6-.26,16.88-.31,26.78-.28,2.4-.06,2.63.14,2.76.35ZM293.9,4.71c3.28,0,6.56.01,9.85.02-.33.28-10.54.66-9.85-.02ZM1135.39,4.33c.26-.28,5.9-.5,8.52-.49,2.15,0,7.82.15,6.96.52-6.09-.25-7.85.03-15.47-.03ZM362.85,4.69c2.98.3,9.76.16,15.44.2,5.68.04,13.37-.26,14.02.37-9.18-.27-27.11.49-29.46-.57ZM714.48,5.62c-4.69-.6,10.6-.16,12.73-.48.2.2,2.54.15,4.2.18-2.11.71-14.89.02-16.93.3ZM449.81,6.58c3.59.03,7.23.05,6.96.52-4.03.02-7.68,0-6.96-.52ZM352.77,6.19c-.56-.47,7.65.15,7.08-.32,1.11.43,11.03-.17,9.77.53-5.99-.02-9.79-.31-16.86-.21ZM307.76,6.1c6.45-.08,7.75.43,12.59.54-.26.02-14.3.23-12.59-.54ZM356.89,6.88c4.63.02,9.96-.05,9.77.53-2.3-.29-10.29.09-9.77-.53ZM375.1,7.43c1.14-.58-5.68-.23-4.09-.86,4.69,0,4.72.56,9.77.53-.38.3-2.47.38-5.68.33ZM950.04,20.57c-2.62.58-10.75.3-15.52.3-13.13-.03-23.57-.05-35.17-.08-5.81-.03-13.5.61-15.45-.2,11.17.4,23.24-.12,35.19-.09,9.13.02,19.57.18,30.95.07ZM827.59,20.81c-2.66.04-10.45.19-14.07-.03,3.54-.49,9.55-.21,14.07.03ZM746.03,20.46c-2.16.25-6.22.26-9.89.32-1.03-.65,6.68-.2,9.89-.32ZM810.73,20.6c.26.66-15.36.29-18.31.13,3.39-.38,12.63-.03,18.31-.13ZM1055.61,20.28c-4.45.43-7.9.19-14.09.14,2-.38,9.8-.04,14.09-.14ZM1168.27,19.68c-1.57.56-5.06.12-8.47.15-12.1.1-29.05.24-40.84.25,2.15-.94,9.09-.3,12.71-.31,10.14-.04,20.51-.13,36.6-.09ZM968.33,20.6c-1.81.57-17.01.4-15.47-.03,4.09.22,8.42-.09,15.47.03ZM1038.73,20.25c-.1.47-6.7.39-8.47.15.23-.38,5.98-.06,8.47-.15ZM165.82,4.94c2.93-.38,11.7-.04,16.9-.13-2.93.38-11.69.04-16.9.13ZM577.02,47.32c-1.93.28-6.29.25-8.52.49.6.15,1.19.31,2.77.34-2.3.62-2.05-.4-5.6-.18,2.61-.34,8.36-.9,11.35-.65ZM610.73,47.73c-1.3.86-6.82.27-11.28.14,1.1-.38,7.9-.05,11.28-.14ZM564,49.67c-4.2-.01-8.58,0-8.36-.53.96.39,9.76-.13,8.36.53ZM596.43,49.23c-2.24.46-8.44,0-9.82-.19-3.5.01-4.4.31-7.04-.02,4.72-.48,12.83.06,16.86.21ZM565.62,48.31c-1.26.38-4.57.03-7.06.16-.89.04-1.14.33-1.45.34-2.24.08-2.46-.21-4.2-.18-1.31.03-4,.7-8.52.49-1.34-.51,3.18-.29,5.68-.33-.63-.53,3.42-.69-1.28-.85,1.81-.59,2.9.17,4.2.18,1.93.02.44-.28,1.45-.34,2.16-.12,5.7.41,9.82.19-.26.2.26.3,1.36.34ZM486.82,48.31c-7.01-.07-8.49.55-16.93.3.71-.36-1.96-.33-4.17-.35,3.56-.73,11.87-.71,16.9-.13-.09-.42-2.56-.53.13-.85-6.16.11-22.37.08-23.79-.9,5.88.04,8.27.48,13.98.54,1.7.06,4.93-.48,1.49-.51,9.04-.53,24.65.25,32.38-.1-2.53.63-9.88.49-12.76.65-1.1.37,5.08.71,5.58.35,5.17.44-5.4.35-8.49.32-2.56-.31.69-.49,1.54-.85-5.67.1-8.01-.18-12.64-.2-1.25.66,4.48.39,5.55.52.39.05-2.16.26-1.46.34,1,.1,5.27-.03,4.14.52-1.37,0-1.12.2-1.45.34ZM565.23,50.86c-5.7.08-10.57.61-15.6.82-3.7.15-1.9-.29-5.63-.01-7.32.55-19.82.64-35.29.77-1.34-.23-4.7-.23-5.55-.52-.37-.77,8.12-.44,4.39-1.18,5.01-.25,6.27.11,11.28-.15.05-.73-8.37-.47-13.99-.54-.13-.3,1.77-.35,1.51-.68,7.02.65,16.47.13,26.7.23.6.36-2.06.32-4.27.33-3.22.12-4.29.5-5.76.84,5.01.51,4.47-.12,7.09-.32,11.15.07,20.86.61,29.54.06.89.23,2.95.32,5.57.35ZM538.45,51.14c-.33-.24-3.06-.2-4.16-.35-1.03.67,5.28.5,9.77.53,9.57-.03-1.57-.27-5.6-.18ZM499.42,48.68c.38-.18,2.82-.11,2.87-.33-.12-.37-5.96-.08-8.41-.19.02.17,1.7.14,2.79.18.64.53-3.96.75,2.71.68-3.17.44-4.18.27-8.47.15-1.08-.03,3.03-.22,2.85-.16.54-.16-8.03.04-9.85-.02-.6-.36,2.06-.32,4.27-.33,4.01-.65,10.22-1.03,19.85-.97-.77.13-1.51.27-1.48.51,2.9-.21,2.68-.82,8.54-.66-.46.44.41.73,4.12.69-1.53,1-8.83.59-14.19.82-.06-.46,2.39-.34.1-.68-2.22.07-1.28.53-5.68.33ZM615.12,46.55c-.35.24-4.2.05-4.27.33-3.68,0-8.16-.02-11.25-.03-4.93-.05-10.86,0-11.18-.53,3.4-.06,3.02.32,7.01.19.02-.17.05-.34.08-.51-3.96-.57-8.15-.08-15.46-.2-1.49-.65,4.4-.26,7.08-.32,2.15-.06,4.92-.29,7.09-.32,7.09-.11,14.71.07,19.72-.13,3.39.41-2.15.31-1.53.85-1.19-.69-11.83-.61-16.83-.38,1.11.48,3.8.78,8.31.87.91-.44-.48-.61-4.14-.52,5.4-.46,9.95.61,15.37.71ZM465.67,48.6c-5.68.73-7.09-.35-15.45-.2,6.13.23,2.73.59-2.91.67.9-.8-5.43-.26-8.32-.87.98-.13,6.01-.52.07-.51,1.43-.66,7.12-.13,11.28-.15-1.01.39-7.39.11-5.75.84,1.37,0,1.12-.21,1.46-.34,3.27,0,6.56.01,9.84.02,2.27-.03-2.17-.81,4.32-.67,2.72.53-5.75,1.23,5.45,1.2ZM657.09,48.17c4.97.07,3.39.47,8.41.19.72.66-9.3.23-8.41-.19ZM1499.88,39.14c3.38-.38,12.63-.03,18.31-.13-3.39.38-12.64.03-18.31.13ZM658.55,47.83c-2.82.23-6.6.33-7.16.83-4.88-.04-10.82.04-11.17-.53,2.89.34,9.32.15,12.66.03-.02-.17-1.71-.14-2.79-.18,1.24-.32,6.24-.45,8.47-.15ZM1521.12,47.68c-.38.3-2.48.38-5.68.33-.19.46,2.29.35-.1.68-5.26.29-11.04.21-16.93.3-9.07.15-18.41.41-28.21.45-2.16,0-3.83-.18-4.2-.18-14.15-.04-28.28.48-42.3.59-2.48.02-5.81-.21-8.42-.19-1.58.02-3.97.33-5.68.33-2.23,0-4.81-.19-7.01-.19-9.7.04-21.91.26-32.37.1,1.23-.48-1.92-.44-1.29-.85-5.67.21.34.35-.12.85-10.37.14-15.31-.06-19.77.47-3.22.39-3.92-.17-5.6-.18-3.06-.02-5.93.53-9.85-.02,1.52,1.09-4.11.29-7.13.66,2.86.17,3.82.56,5.5.86,2.35-.27-.54-.64,2.97-1.01,4.45-.07,4.91.32,9.81.19l-.1.68c4.71.07.94-.9,7.19-1,.13.3-1.78.35-1.52.68,5.47.14,7.39-.61,11.28-.15,3.98-.37,7.74-.76,15.57-.65-2.01.27-4.9.42-8.51.49,1.35.23,3.69.35,5.55.52,3.09,0-1.29-.36-1.35-.34.78-.26,2.5-.03,4.24-.16,2.19-.16,2.34-.86,7.08-.32,1.38.46-3.09.19-4.27.33-1.2.14.29.63-2.92.67,5.26.68,8.39.23,14.02.37.13-.8-5.63-.14-6.96-.52-1.64-.72,4.75-.44,5.75-.84,4.7.16.65.32,1.29.85,2.53.32,3.72.79,9.74.7-.09.6-5.3,1.08-7.1.49-3.85.15,3.69.32,1.27.85-2.98.41-6.53-.02-9.85-.02-1.34,0-3.09.18-5.65.16-6.47-.05-13.94-.37-21.05-.39-2.87,0-3.82.17-5.65.16-10.08-.06-22.53-.32-32.33-.24-4.24.03-7.26-.14-11.22-.2-23.68-.34-48.56-.45-71.61-1-2.3-.05-3.6-.27-5.58-.35-4.83-.19-9.64-.02-15.47-.03-4.48,0-6.32-.31-11.25-.03-4.43.07-3.65-.47-6.95-.52-7,.32-14.8-.25-22.53.12-2.52.05.01-.66,2.89-.5-5.07-.61-12.63.21-11.33.48-5.13-.18-11.75-.19-12.53-.88-6.73.77-18.03-.59-23.96.29-2.64.15-3.33-.33-4.17-.35-.98-.02-2.36.2-4.24.16-6.13-.14-16.78-.55-25.24-.57-2.04,0-6.96.04-7.09.32-1.65-.03-1.14-.31-1.34-.51-7.73.16-13.88.16-19.69-.04-1.37,0-1.12.21-1.46.34-5.22-.32-8.01.12-11.2-.36-3.11-.1-2.06.32-4.27.33-3.16-.21-9.44-.34-15.43-.37-3.64-.02-10.53.1-12.69.14-2.94.05-5.79.29-8.49.32-10.29.12-20.77,0-29.54-.06-8.27-.06-16.96.59-22.51-.05-2.38.05-3.19.31-5.67.33-2.25.01-2.47-.2-4.2-.18-3.21.04-7.79.31-11.3.31-7.96.01-15.49-.31-23.89-.22-2.15.02-2.51.15-4.24.16-2.43.01-4.66-.19-7.01-.19-1.8,0-4.04.3-5.67.33-.73.01-2.59-.17-4.2-.18-2.51-.02-2.99.17-5.65.16-10.92-.03-22.71-.24-32.36-.07-2.31.04-2.39-.2-4.2-.18-5.1.06-11.7.67-19.71.13-5.55.5-13.7,0-23.94.12.2-.32,4.67-.11,4.29-.5-3.51-.04-4.44.25-5.7.5-2.62-.31-9.27-.14-14.05-.2-3.23-.06-1.63.49-4.29.5-14.27.12-27.23-.26-39.38-.09-3.25.05-5.47.29-8.49.32-8.83.08-17.84-.2-26.7-.23-2.68,0-5.87.18-8.47.15-2.59-.03-4.12-.29-6.98-.35-2.56-.06-4.35.17-7.06.15-10.38-.04-22.54-.25-33.71-.41-.77-.51,5.46-.06,9.87-.15,2.66-.05,9.2-.78,9.85.02,4.96.1,3.54-.59,8.51-.49-.1.29.98.44,2.74.51-.64-.38,4.92-.74,8.47-.15,1.59-.63-5.23-.28-4.09-.86,9.53-.06,13.48-.08,21.13-.12,1.32-.65-6.1-.29-4.07-1.03,9.77.4,16.56-.61,23.88.22,2.94-.09,3.02-.26,1.48-.51,3.24-.23,5.23.45,5.63.01,3.32.05-1.68.45-1.51.68,9.93-.38,16.17-.57,26.78-.28-.02-.16-1.71-.13-2.79-.17,5.03.01,18.04-.36,25.32.06,4.97.1,3.55-.59,8.52-.49,1.69.25,4.79.33,8.39.36,2.38.07,2.67-.13,2.86-.33,3.11.08,7.57.41,8.46-.15-.98-.39-7.88-.08-11.22-.19.46-.44-.4-.73-4.12-.69-1.14.03-1.43.17-2.84.16.89.17,3.21.18,2.74.52-34.83-.46-50.07.05-82.96-.35-1.66-.23-.52-.27.08-.51-8.98,0-16.59.13-23.92-.05-1.53.04-1.01.33-2.87.33-3.86-.11-7.85-.2-6.9-.86-3.75.19-4.4.14-2.91.67-1.42-.11-1.4-.39-4.17-.35.66-.61,6.05-.63,8.59-1,5.16.32,5.03.23,12.64.2,2.09.61-4.79.09-4.3.5,2.76.41,11.09.06,7.1-.49,5.48.18,8.23-.36,11.25.02.6.36-2.05.32-4.26.33,1.96.45,9.04.11,8.48-.32,7.1.19,15.21.23,23.91.05,3.96.1,5.92.42,9.77.53,1.54-.04,1.01-.33,2.87-.33,13.11.14,30.03-.16,40.76.26,1.36.57-4.41.25-7.08.32,4.91.6,10.3-.2,12.73-.48,17.65.43,30.72.36,47.81.27,1,.32,4.17.13,1.33.51,4.4.2,3.46-.26,5.68-.33,11.13.27,23.66.35,33.74.24,5.25-.06,11.86-.14,16.9-.13,4.35,0,7.33.21,11.23.19,2.21,0,4.83-.16,7.06-.15,2.18,0,3.22.33,5.58.35,1.93.02,13.42-.16,16.93-.3,1.47-.06,1.05-.32,2.87-.33,3.38.25,4.7.23,9.82.19,4.7-.03,5.94.4,8.46-.15,4.46-.02,4.64.46,9.8.36-.2-.2-2.54-.15-4.19-.18,1.58-.67,5.29-.16,8.46-.15,17.59.03,33.38-.16,54.86.12,6.61.09,18.75.08,28.12.06,2.53,0,2.94.2,5.6.18,5.64-.03,12.65-.48,15.45.2,1.27-.4,14.21-.55,16.93-.3.62.06-3.26.24-4.25.16-.49.3,7.84.32,5.65-.16,2.23.3,5.82.43,11.2.36,0-.17-1.69-.14-2.78-.18,5.71-.38,17.34-.02,25.35-.11,5.18.45,11,.83,20.99.72-.83-.35-7.1-.06-5.52-.69,8.08.18,9.39-.44,18.33-.3,5.24.08,10.77.38,16.83.38-.26.2-2.59.14-4.25.16,2.99.46,9.38.02,5.7-.5,3.21-.04,5.28.05,5.57.35,8.35-.48,21.96-.05,32.4-.27-4.84.51,5.95.7,8.39.36-.79-.62-7.18.44-5.57-.35,13.52-.02,29.95.15,39.38.09-.43.27,1.29.3,1.34.51,1.46-.17,2.89-.34,4.29-.5,6.06.01,12.4.1,18.29.04,10.2-.1,21.19.21,32.33.24,2.62,0,5.84-.15,8.47-.15,11.81,0,32.77.22,47.83.1,4.59-.03,8.43-.27,12.71-.31,9.14-.1,17.79.09,26.72.06,11.19-.09,22.09-.18,32.4-.27,2.52,0,2.94.19,5.6.18,2.78,0,3.9-.17,5.65-.16,3.68.02,7.7.42,11.28-.15,17.16.04,19.41.04,36.57.08.13.3-1.77.35-1.51.68-3.75,0-7.5-.02-11.25-.02-3.05-.04-.73.6-1.54.85,3.1.09,2.06-.31,4.27-.33,3.55-.03,1.25.27,2.76.35,2.35.11,3.78-.16,4.25-.16,3.5.03,4.02.68,6.98.35ZM788.24,46.25c-2.83.03-5.58-.77-8.41-.19,2.82-.03,5.58.77,8.41.19ZM728.78,48.67c-2.63-.19-6.61-.23-9.8-.36-.9.62,7.32,1.03,8.31.87-4.05-.1,2.2-.26,1.49-.51ZM742.56,50.56c.07-.46-9.3-.68-11.2-.36,3.05.2,5.68.45,11.2.36ZM790.47,50.16c-3.18-.12-11.73-.47-12.69.14,4.88-.28,8.44.29,12.69-.14ZM826.19,46.5c-1.88-.37-12.61.15-9.9.32,1.24-.36,8.96.08,9.9-.32ZM921.41,49.6c-3.71-.18-7.14-.19-9.87.15,3.05.1,9.03.43,9.87-.15ZM963.66,49.35c-.36-.4-3.83.18-4.27.33,4.22,0,8.44.02,12.66.03,1.42-.61-5.51-.25-8.38-.36ZM1134.1,48.19c-4.41-.09-5.78.2-7.12.49,3.59-.01,7.24-.02,7.12-.49ZM1141.35,46.68c-5.21.17-16.56-.74-18.31.13,5.37.22,2.15.08,4.24-.16,4.52-.53,13.35,1.15,14.07.03ZM1172.35,46.41c-2.65-.31-8.66-.07-8.51.49,5.42.16,6.13-.27,8.51-.49ZM1175.11,46.75c4.12-.04,4.26.39,8.39.36,1.88-.57-7.03-.72-8.39-.36ZM1235.02,50.79c-1.88,0-3.76,0-5.63-.01-2.36.78,7.17.6,5.63.01ZM1256.14,50.66c-7.49.2-4.24-.84-11.15-.7.05.55,4.76.56,6.91.86,1.65.55-4.57.12-2.92.67,4.79.02,5.32-.49,7.16-.83ZM1300.89,52.46h5.63c1.2-.64-6.64-.66-5.63,0ZM1309.59,50.78c-4.03-.04-7.15.03-8.49.32,1.58.04,2.16.19,2.76.35,3.58-.01,5.5-.23,5.72-.67ZM1382.53,52.3c2.77.34,3.98.87,8.29,1.04,2.35-.6-3.93-.53-5.52-.69-.45-.05.4-.28.05-.34.16.03-3.09-.2-2.78-.17-1.81-.14-3.73-.07-5.61-.18-1.49.51,3.09.31,5.58.35ZM1372.61,52.78c-2.34,0-4.69,0-7.04-.01-2.23.52,9.11.54,7.04.01ZM1360.12,51.57c1.08.86,7.29.13,9.75.7-.38-.39,4.09-.18,4.29-.5-5.31-.24-7.81.06-14.04-.2ZM1348.64,53.07c3.51.23,4.05-.26,7.09-.32,1.47-.03,7.47.6,7.06-.15-2.64-.26-14.36-.19-14.15.48ZM1326.19,52.68c3.44-.09,7.26-.13,7.14-.66-3.44.09-7.26.13-7.14.66ZM1470.45,47.74c-.54-.33-.4-.73-4.12-.69-2.53.35-3.24.49-1.55,1.02,3.82.13,2.88-.33,5.68-.33ZM1490.3,46.76c-1.58-.04-2.16-.19-2.76-.35,1.49.01,3.58-.07,1.43-.17-3.09.38-4.77-.15-9.84-.02-.59.73,5.05.47,8.39.36-.46.27,1.83.46,2.79.18ZM637.65,46.43c-6.83.02-7.91.37-14.16.65-3.84-.28-6.78-.66-9.7-1.04,2.98-.61,9.67-.75,15.63-.98-2.37.34-4.81.67-9.96.66-.49.45,1.87.56,5.55.52,1.1-.85,17.8-1.82,19.77-.47-3.5-.03-4.31-.33-7.04-.01,5.76.8,16.88-.31,21.05.39l.1-.68c-5.28-.14-6.76.19-11.28.15-2.72-.98,13.39-.84,14.11-.31,3.97-.19,7.34-.18,11.25.02-1.32.3-5.22.27-5.73.67-2.64-.02-.89-.56-4.14-.52-2.03.03-.57.5-2.9.5.41.23,3.51.15,5.61.18-1.71.72-7.89.8-12.78.82-4.66.02-10.21-.56-15.4-.54ZM638.73,48.64c-1.41,0-2.81,0-4.22,0,3.5-.39-2.05-.32-1.29-.85,4.44-.01,4.77.45,5.51.86ZM662.79,47.68c5.43.13,5,.01,8.42.19-.07.26-10.49.35-8.42-.19Z"/>
</svg>