<?xml version="1.0" encoding="UTF-8"?>
<svg id="Layer_1" data-name="Layer 1" xmlns="http://www.w3.org/2000/svg" viewBox="0 0 1650 12">
  <defs>
    <style>
      .cls-1 {
        fill: #328d43;
      }
    </style>
  </defs>
  <rect class="cls-1" x="-4.99" y="3.77" width="1670.05" height="4.1"/>
  <g>
    <polygon class="cls-1" points="76.43 5.35 74.98 5.53 87.01 5.09 76.43 5.35"/>
    <path class="cls-1" d="m152.74,5.36c-7.21-.76-27.65.12-41.25-.15l-2.24-.17-6.13.61c16.52-.1,37.98-.5,49.62-.29Z"/>
    <path class="cls-1" d="m193.43,7c-2.51-.3,8.8-.25-9.49-.09.92.04,1.18.05,1.72.07,1.65,0,3.91,0,7.77.02Z"/>
    <path class="cls-1" d="m185.66,6.98c-8.04.02,5.26.25,0,0h0Z"/>
    <path class="cls-1" d="m222.77,6.81l-10.59.26c2.21.17,11.63.21,8.13.34,10.86-.14,8.63-.32,2.45-.6Z"/>
    <path class="cls-1" d="m232.8,6.26l-5.49.11c.96.07,2.41.1,5.49-.11Z"/>
    <path class="cls-1" d="m215.69,6.61l11.63-.24c-1.53-.12-1.7-.37-5.34.09.95-.22-1.35,0-6.29.15Z"/>
    <path class="cls-1" d="m209.1,6.49c-5.94-.17-13.61-.27-2.98-.53-20.25.1-17.27.64,2.98.53Z"/>
    <path class="cls-1" d="m156.63,4.57l-7.94-.22-6.87.25c3.43-.13,15.3.21,14.81-.03Z"/>
    <path class="cls-1" d="m288.71,7.2c.66-.16-3.56-.43-4.35-.64l-7.82.19c4.02.11,11.64.21,12.17.45Z"/>
    <path class="cls-1" d="m284.36,6.57l11.7-.28c-10.45-.03-12.36.1-11.7.28Z"/>
    <polygon class="cls-1" points="234.69 5.42 215.47 6 238.4 5.41 234.69 5.42"/>
    <polygon class="cls-1" points="333.39 7.22 326.76 7.6 338.57 7.03 333.39 7.22"/>
    <path class="cls-1" d="m363.03,7.16c-4.91.31,6.73.52,1.54.71,8.05-.06,14.92-.32,21.11-.56-6.58.13-13.59.1-22.65-.15Z"/>
    <path class="cls-1" d="m396.08,6.97c-3.28.07-6.69.21-10.39.35,3.49-.07,6.93-.17,10.39-.35Z"/>
    <path class="cls-1" d="m315.99,6.37c.91.1,2.65.35,9.21.46l-4.6-.45c-1.4,0-2.99,0-4.61,0Z"/>
    <path class="cls-1" d="m320.43,6.36h.16c4.99.03,8.46.04,9.94.04-1.28,0-4.32-.02-10.1-.04Z"/>
    <path class="cls-1" d="m314.83,6.37c.43,0,.74,0,1.16,0-.44-.04-.71-.06-1.16,0Z"/>
    <path class="cls-1" d="m265.36,5.83c6.87-.25,21.2-.53,7.34-.91-4.93.31,3.01.53-7.34.91Z"/>
    <path class="cls-1" d="m309.11,5.8l-12.43-.1c.24.12,2.49.29-.92.42l13.34-.32Z"/>
    <polygon class="cls-1" points="315.2 5.66 309.11 5.8 313.72 5.84 315.2 5.66"/>
    <path class="cls-1" d="m374.79,6.54c5.37-.2,11.24-.21,17.87-.25-7.11-.09-14.46-.14-21.44-.14-.98.14-4.05.4,3.57.38Z"/>
    <path class="cls-1" d="m348.37,6.41c.37,0,.85-.02,1.19-.03-.73-.04-1.32-.05-1.19.03Z"/>
    <path class="cls-1" d="m457.96,6.3c-.36-.03-.68-.05-1.05-.08-.08.03-.14.05-.24.08h1.29Z"/>
    <path class="cls-1" d="m370.03,6.07c-5.34-.09-8.54.02-11.58.16,4-.02,8.23-.05,12.77-.08.44-.06.53-.11-1.19-.08Z"/>
    <path class="cls-1" d="m414.29,6.75c-2.78-.08-5.94-.16-9.25-.25,2.72.14,8.27.37,9.25.25Z"/>
    <path class="cls-1" d="m351.37,6.51c-.27,0-.51.01-.8.02,1.75.1,1.53.05.8-.02Z"/>
    <path class="cls-1" d="m351.37,6.51c2.75-.07,4.91-.18,7.08-.28-3.25.04-6.27.08-8.88.15.66.03,1.33.08,1.8.13Z"/>
    <path class="cls-1" d="m477.74,3.38c-.94.42-14.99.81-27.12.36-11.93.32-4.13,1.7,6.29,2.47.37-.18.37-.35,12.65-.6-4.3-.23-27.25-.54-16.89-.92,16.27-.22,13.33.15,21.24.37-6.72-.52,20.69-.76,17.15-1.53l-14.26.27c-.27-.12,4.9-.31.94-.42Z"/>
    <path class="cls-1" d="m433.51,6.17l-5.05.05c5.76.07,9.88.24,17.48.57,8.41-.21,10.15-.36,10.73-.5l-24.88-.06,1.73-.06Z"/>
    <path class="cls-1" d="m405.77,6.23c3.95-.46,16.08-.65,8.65-1.15-14.83.03-10.39.38-19.25.58,23.93-.11-6.87.25,10.42.51-4.7.08-8.93.1-12.92.12,4.31.07,8.46.14,12.38.21-.22-.01-.37-.02-.55-.03h-.11s.02,0,.02,0c-1.03-.06-1.37-.09-.21-.06.08,0,.37,0,.5,0,.16-.06.6-.12,1.08-.17,6.93.09,1.09.12-1.08.17-.08.02-.27.04-.29.07.02,0,.06,0,.09,0l23.97-.25c-5.07-.06-11.42-.05-22.69,0Z"/>
    <path class="cls-1" d="m285.48,3.93c.74.04.71.07.77.11,1.55-.06,2.14-.09-.77-.11Z"/>
    <path class="cls-1" d="m295.34,4.2c-1.74.06-3.2.25-8.86.2-4.91-.14.02-.22-.23-.37-3.41.12-11.95.33-1.24.55l1.7-.06c9.65.16,22.05.73,20.36.79-2.82-.41-5.3-.71-11.72-1.11Z"/>
    <path class="cls-1" d="m351.25,5.1l19.96-.22-10.17-.4.52.24c-11.35-.09-8.9.2-10.31.38Z"/>
    <polygon class="cls-1" points="460.24 6.53 457.59 7.01 469.12 6.33 460.24 6.53"/>
    <polygon class="cls-1" points="486.18 6.47 485.22 6.89 492.07 6.63 486.18 6.47"/>
    <path class="cls-1" d="m1384.27,10.4l-5.87.12c2.78-.04,4.56-.08,5.87-.12Z"/>
    <path class="cls-1" d="m1426.73,10.43l1.04-.21c-1.97.11-2.77.2-1.04.21Z"/>
    <path class="cls-1" d="m1123.25,6.42c8.54.39,18.09,1,17.06.53l-2.62-.46c-5.97.08-10.55.03-14.43-.07Z"/>
    <path class="cls-1" d="m1559.55,3.67c-.81-.05-1.66-.09-2.5-.14-2.08.16-4.03.31-5.77.44,2.49-.09,5.31-.19,8.27-.3Z"/>
    <path class="cls-1" d="m1565.57,1.76l11.26.3c-2.53-.1-6.15-.2-11.26-.3Z"/>
    <path class="cls-1" d="m1152.36,10.89l-6.84.47c10.71,0,5.99-.24,6.84-.47Z"/>
    <path class="cls-1" d="m751.85,6.3c7.37.18,13.24.26,18.39.28-8.88-.26-16.05-.66-18.39-.28Z"/>
    <path class="cls-1" d="m1400.98,5.5c-3.59.08-5.12.18-5.02.28,3.69-.08,5.78-.17,5.02-.28Z"/>
    <path class="cls-1" d="m791.54,6.57c-1.3-.04-2.57-.07-3.9-.11-5.39.08-10.81.14-17.4.11,6.56.2,14.07.32,21.29,0Z"/>
    <path class="cls-1" d="m311.29,10.51c-.61-.02-1.35-.04-1.9-.06-.19.06.66.07,1.9.06Z"/>
    <path class="cls-1" d="m66.26,5.85c2.41,0,6.35-.02,10.06-.04-1.81-.03-4.84-.03-10.06.04Z"/>
    <path class="cls-1" d="m590.55,6.67c-5.5.03-.87.05,0,0h0Z"/>
    <path class="cls-1" d="m563.79,4.84c1.17-.05,2.06-.12,2.2-.22-.45.11-1.22.18-2.2.22Z"/>
    <path class="cls-1" d="m846.34,3.7c.16,0,.29,0,.48,0-1.64-.09-1.35-.07-.48,0Z"/>
    <path class="cls-1" d="m582.27,6.46c2.07.04,4.45.09,7.04.14-1.14-.02-3.28-.06-7.04-.14Z"/>
    <path class="cls-1" d="m583.38,6.68c-1.9-.02-3.39-.03-4.81-.04-.69.08-.08.13,4.81.04Z"/>
    <path class="cls-1" d="m598.21,6.64c-3.15,0-6.08-.01-8.91-.05,1.08.03,1.53.06,1.24.07,1.61,0,3.89-.01,7.66-.02Z"/>
    <path class="cls-1" d="m761.94,9.27c-.36-.01-.78-.03-1.18-.04-5.55.19-3.11.16,1.18.04Z"/>
    <path class="cls-1" d="m1266.43,1.63c-.26,0-.39.01-.63.02.26,0,.58.01.81.02l-.19-.04Z"/>
    <path class="cls-1" d="m1286.19,1.29c-8.41.57-13.2.5-19.57.38l6.54,1.33,13.04-1.71Z"/>
    <path class="cls-1" d="m1282.59,10.53l13.88.41c-16.75.68-28.87.45-15.84,1.03,1.96-1.44,53.94-.15,55.87-1.59l9.15.3c-2.62-.01-3.04.07-5.63.06,17.79.69,13.22-1.04,36.14-.84,7.99.11,13.56.32,8.12.49l17.8-.36c5.18.03,3.91.28-1.24.25l27.15-.12-.2.04c3.87-.23,12.65-.58,16.94-.73,6.9.21-3.46.15-1.7.33l15.03-.35c6.12.37-6.34.74-16.72.68,14.04,1.44,12.47-.36,42.77.48l-14.19.18c9.15.82,20.23.52,36.28,1.03-3.81-.27-32.13-1.29-15.81-1.65,4.6.11,10.66.16,19.46-.13.08.51,8.67.39,19.43.36l-.73.68c11.63-.2,10.71-.54,17.55-.85,12.96.07,15.64.59,18.69,1.04,20.75.11-14.33-.84,10.23-.97,17.26.26,29.38-.02,50.02-.42,12.08.23-2.11.42,2.22.61l10.71-.54c2.62.01,1.77.18,1.35.26,9.02-.21.74-.68,14.93-.86,1.35-.26,5.39-.21,10.85-.06l1.4.04.04-1.49c.04-1.29.08-2.66.12-4.1l.04-1.52-1.61-.05c-9.55-.29-21.86-.66-31.72-.18-4.33-.19,2.09-.42.77-.68-24.08.56-20.65.41-40.42,1.16l-16.85-.45c12.38.51-3.44,1.11-17.29,1.61,4.39.25,8.14.46,10.66.57l-22.11.36c-2.67-.11-.44-.35,3.18-.63-1.51.06-2.94.12-4.05.16-7.91-.25-3.81-.64,1.86-1.02,2.69.14,5.37.28,7.96.42,5.46-.41,10.57-.87,9.43-1.27-1.44.08-4.2.15-7.25.18,1.43-.11,2.34-.21,1.68-.28-.75-.07-3.06.08-6.67.25l-5.03-.76-1.22.3-28.92-.47c-20.69.76-38.7,1.89-71.54,2.2,8.15-.56,1.75-.91,2.19-1.57,8.96.7,25.44-.3,42.46-.15-8.88-.07-6.93-.39-4.67-.5l-30.36.63c.68-.54-6.45-.4-14.38-.63,5.99,1.06-22.63.71-34.98,1.04-.77-.36,2.19-.72,17.27-.64-16.63-.8-21.49,1.25-37.81.57,3.68,0,5.66.05,7.12-.14-8.6.32-29.61.07-24.67-.25h3.67c-24.43-.13-74.37-.02-78.02.89-.24-.12,3.2-1.09,4.68-1.27l-43.59,3.04c3.84-.78-10.9-2.63,9.36-3.06-5.82-.11-13.01-.24-25.28.03,3.97.11,9.89,1.12,4.47,1.19-14.88-.86-10.33-.46-28.68-1.2,5.95.17-.66,1.38-10.06,1.35,1.47-.18-.78-1.2,2.65-1.33l-23.4,1.2c5.84-.22,1.03-1.01-4.2-1.35,2.43.23-20.23-.02-26.46.1l9.92.28c-26.42-.18-26.09,1.68-52.3,1.62,3.17-.25,7.84-1.52-5.49-1.67-6.11.61-27.05,2.95-50.23,3.42l-4.45-.35-17.79.4c11.08-.92,42.17-2.86,59.14-3.61-9.88-.28-2.75-.41-17.56-.38-5.23-.33,8.07-.5,12.43-.52l-34.47-.21c1.53.72-26.36.72-25.04,1.31l37.44-.74c1.52.71-21.65,2.03-46.07,1.9-6.21-.28,4.65-1.27,4.14-1.51-3.17.25-23.18.47-25.42.3l10.36-.38c-13.6-.27-22.19.95-38.53.27-5.64-.05-16.84-.92-17.81-.5,9.2.82,10.99,3.34,4.86,3.95-1.98-.05-29.61-.78-36.05-1.18-9.29-.64,13.94-1.52,6.03-2.07-.34.2-5.47.44-7.61.51-5.92-.17,2.45-.6-10.42-.52-2.15.72-26.17-.06-6.08.61-12.59.21-13.38-.15-28.16-.12,4.71.47-13.27,1.59-25.88,1.8.74-.18-2.09-.42-3.46-.53-25.8-.07-39.65-.39-63.72-.4-2.22-.18-13.83-.39-8.88-.7-3.46.13-6.64.37-14.06.39-14.36-.63,16.55-.1,5.6-.85-.94.42-19.19.58-29.76.84,3.25.65,24.42.12,35.01-.14.05.9-18.38,1.84-43.53,2.25-19.99.22-8.66-.58-12.13-.45-37.54-.16-31.98,1.57-63.16.92-12.37-.57-.56-1.14-3.3-1.55,16.28-.22,25,.36,36.03.34l-13.59-.27c5.18-.19,16.05-.33,21.97-.17-10.37-.51-63.42-.1-92.39-.57-5.15.19-14.03.39-9.82.62l9.16-.08c8.42.46-17.25.64-5.65.85-12.29.32-26.07.83-43.38.57l-3.25-.65c.37.19,11.31.39,16.18.19-7.21.29-26.54-.88-34.44-.03l12.13.45c-12.34.33-27.6,1.02-42.94.81,6.98.64,3.54-.07,14.44.68-9.45-.94,39.24.04,24.06-.95,11.18.87,19.36.37,33.98,1.12-.45-.21-5.18-.41,7.7-.31.58-.06,1.95-.14,2.83-.19.39,0,.53,0,.87.02-.26,0-.45-.02-.71-.03.56-.03.61-.04-.26,0-3.07-.09-5.55-.21-6.56-.33,6.39-.49,26.87-.48,33.79-.73,7.64.1-3.2.25.97.48l10.34-.38c1.02.48,20.3.79,2.3,1.07l16.2.02c9.54.27,22.66.37,30.75.17,7.64.1,19.3-.53,12.64-.15l25.41-.3.23.12c25.07.06,51.6-.79,80.26.07,8.44-.12,17.16-.27,31.28-.13l2.75.41c10.83-.14,32.54.41,37.19-.02,11.69,1.11,52.59.24,71.64.44l.72-.54c13.12.03,25.69-.12,41.98-.34l-1-.48c14.04-.39,36.09.34,58.3.29-1.51.18-7.14.13-11.13.02,26.53,1.08,55.97-.78,80.03,0,5.99-.17,10.34-.11,14.54,0-.56,0-1.06.02-1.49.02.61,0,1.53,0,2.46,0,2.65.08,5.37.16,8.33.25-2.51-.12-4.91-.21-7.01-.26,4.62,0,11.64-.07,18.51-.19l2.93.51c.56,0,1.01,0,1.59-.01,6.74.19,5.42-.24,1.82-.63,3.46-.08,6.63-.19,9.09-.31,5.48.83,18.03-.28,25.51.6,4.63-.43,34.56-.32,38.22-1.23.23.12,2.26.17-1.45.18,7.66.1,15.32.21,22.19-.05l3.25.65,16.73-.88c10.17.4,14.38.63,4.29,1.13,24.37-.77,19.78-.29,40.5-1.05l-1.01.42c7.41-.02,19.25-.58,23.72-.23,16.57.8,82.01.11,124.55.85-8.25-1.24,19.78.56,21.46-.4,2.48.29,8.41.46,1.52.71,21.71-.29,32.62.46,47.61-.35,2.49.29-4.65.43-2.44.6,1.74-.06,6.9-.25,9.16-.08,2.21.17-3.18.25-6.62.37,22.18-.05,24.42-.95,26.03-1.8,11.24.4,16.85.34,24.96-.21,3.91.28,10.44.57-3.34.67,7.75.04,47.36.41,48.15-.27,2.43.17,10.84.05,12.88-.03,17.4.04,18.93.1,36.01.04l-4.74-.11c2.4-.29,4.88-.4,7.72-.42l-.89-.89c0,1.28,0,2.64-.01,4.1l.9-.9c-4.32-.05-9.5-.17-16.15-.12l.39-.08c-31.58-.59-13.63.28-44.79-.39l1.7.51c-2.9,1.1-27.6-.65-45.68-.23l6.53.29c-9.87.38-27.6-1.49-37.52-1.63-2.16-.1,3.41-.15,6.43-.22-25.96-.65-3.36.67-22.71.82-3.57-.36,4.6-.92-8.42-.98-6.49-.29-37.77,1.17-55.54.48,3.92.28,7.8.55-1.18.76-13.77.1-37.24-1.05-49.68-.17-1.75-.08-2.41-.15-2.49-.22-10.53.23-34.22.38-40.56.85-9.73-1.76-65.46.86-65.22-.77l-32.39.09.85-.17c-20.7-.11-28.02.28-35.3.67-4.79-.11-1.29-.26-.9-.35-30.25-.33-33.26-.26-58.62.55l-2.64-.53c-6.87.31-43.73-.83-73.4-.21.29-.06.91-.16,3.26-.24-33.38.62-79.91-1.46-92.14.46l-22.03.47c28.5.15-4.24.83,7.48,1.15-11.21.11-28.97-.58-15.2-.68l2.15.1c5.06-1-35.41-.35-34.64-1.04-56.07.05-110.73-.5-163.25-.55l6.05.78-18.32-.04c-4.81-.18-6.45-.61,6.62-.58-3.44-.22-8.92-.13-13.58.04-4.67.17-8.52.41-8.71.5-25.59-.32,10-.91,2.15-.93l-10.66.06,2.4.09c-8.64.32-9.41.65-25.12.62-9.94-.16-5.1-.48-9.01-.51.01-.03-.31-.05-1.23-.05-.92,0-2.42.02-4.77.03l-23.08-.07,9.23.61c-10.23.3-21.71-.03-11.05.66-15.63-1.07-86.1-.39-95.71-.72-14.33.45-28.47.44-46,.39,4.36.13,6.96.82-8.15.73,5.53-1.42-27.67-.62-39.89-1.64,10.92.68-42.96.17-25.84,1.13-12.61-.12-.77-.53-10.33-.87-30.01.55-66.14-.36-103.24-.17-.58.19,5.63.47-2.32.75l-19.59-.93c-7.33.09-6.74,1.08-20.13.43,1.89.16,4.71.39-.2.45-72.68-.91-148.51.75-222.32-.97,10,.36,3.33.4-4.3.41,4.96.09-.11.46.86.72l-30.9-.7c-5.63.7-33.13.05-36.36.72l9.79-.12c-13.01.79,18.21,1.76,16.31,2.78,14.57-.9,38.42,1.34,62.33.04,5.28.21-4.5.33-1.68.56,6.06-.44,13.38-.53,26.94-.33l-1.53.11c38.1-.11,54.44.32,97.24.61l-3.17-.5c9.2.07,11.13.23,15.44.35,10.56-.76-25.83-.04-16.22-.88,12.2,1.02,64.86.02,73.11,1.18,14.15,0-4.15-.58,10-.58l3.75.32,3.58-.41c9.28.07,13.96.46,14.3.73-2.25-.03-6.4.07-8.81.1,12.03.37,33.92-.13,38.05,0l-13.6-.19c38.62-.29,85.76.12,123.07-.52l-2.83-.24c28.49-.44,22.82.26,54.1.06l-1.14.06c6.26-.24,14.62-.36,23.18-.33-7.9.28,14.86.54,4.5.85,30.89-.47,15.28-.37,35.68-1.25l4.71.39c6.95-.36,7.53-.54,23.16-.65-12.81.34,9.97.6-4.38,1.05,32.78.86,48.68-.87,63.72.39,15.05-1.09-28.37-.61-19.94-.84-7.06-.36,12.43-.82,22.71-.71,10.47.02,17.81,1.4,44.15,1.37-2.62,0-2.8.08-5.41.07,9.86.28,19.32-.38,31.41.08,6.78-.66,15.7.04,17.65-.8l-24.16.19c13.7-.22,26.54-1.2,49.11-.73-1.76.17-8.47.39-13.09.52,6.6.25,12.71-.16,19.55.09-1.95.84-29.37.18-44.04.83,7.08.36,27.76-.61,20.39.3,10.6-1.16,25.96.15,43.79-.74l-1.18.5c2.82-.08,8.67-.32,13.87-.3l-9.41.65c14.44-.56,27.84.49,41.7.18-29.01.02-6.51-.61-18.77-.98,35.77-.68,20.57,1.32,60.63,1.08-5.42.07-20.36-.3-11.88-.54,7.62.1,17.69.3,22.37.56,26.54-.1-4.07-.52,7.22-.83,9.04.61,13.03-.25,24.66-.45l.08.51c30.24.33,8.02-1.07,35.24-.67l-11.51.71,14.19-.18-2.93.58c15.44-.43,20.25-.32,35.38-.16-3.52-.36,1.98-.93,15.37-.95,9.13.3-5.12.49,13.87.41-4.29.32-8.98.72-17.24.25-.85.17-4.23.32-5.1.49,9.84.35,24.72.08,31.6.08-2.65-.02-5.81-.05-7.43-.12l27.52-.71c4.33.19.9.35-2.51.5,5.58-.06,9.43-.29,17.63-.34-2.12.42-1.61.85-13.22,1.04l26.22-.46c1.75.18,13.46.5,10.05.65,14.54.25,35.66-.81,54.93-.49,1-.08,3.01-.16,7.11-.22,18.11.09,34.16.61,55.63.03l12.18.75c16.81-.17-16.49-.94,11.51-1.22,19.82-.24,7.4.64,14.35.85,9.86-.38,27-1.14,45.21-.54-6.03.14-10.75.03-16.38.09Zm207.38-.33c-4.02.11-12.03.44-14.97.14,4.58-.59,8.12-.31,14.97-.14Zm39.05-7.52c2.99-.17,7.61-.09,12.82.11-3.78.04-8.07.02-12.82-.11Zm-878.17,3.57c.17,0,.29-.02.43-.02,8.96.2,5.78.12-.43.02Zm-18.61-.22c-1.87.07-1.74.14-.95.21,1.3-.13,5.48-.14,10.24-.1-1.32-.13-3.73-.23-9.29-.11Zm70.94-.21l3.62.13c-8.18.15-5.89.01-3.62-.13Z"/>
    <path class="cls-1" d="m1564.76,1.98c1.14.09,1.45.18,1.72.28,1.58-.09,1.61-.19-1.72-.28Z"/>
    <path class="cls-1" d="m1153.62,10.8h-.63c-.35.02-.53.06-.63.09l1.27-.09Z"/>
    <path class="cls-1" d="m920.56,1.68c3.83.07,5.97.17,7.39.26.21-.13-1.53-.23-7.39-.26Z"/>
    <path class="cls-1" d="m533.6,6.9l11.92-.13c-5.77.03-7.83-.09-10.74-.17.26.12,2.54.29-1.19.3Z"/>
    <path class="cls-1" d="m430.12,3.73c-1.74.06-3.69,0-5.41.07l.48.24c7.42-.02,12.61-.21,4.94-.31Z"/>
    <path class="cls-1" d="m522.57,5.2c-.95-.43-8.42-.28-16.77-.21h1.48c-2.46.6,6.44.4,15.3.21Z"/>
    <path class="cls-1" d="m503.86,5.01c-2.57.02-5.2.03-7.72.01-.98.24,3.13.05,7.72-.01Z"/>
    <path class="cls-1" d="m608.63,6.31c-3.96-.11-2.49.55-4.73.38-4.42.55,26.4-.66,4.73-.38Z"/>
    <polygon class="cls-1" points="515.81 3.77 518.8 4.31 523.48 3.88 515.81 3.77"/>
    <path class="cls-1" d="m581.75,4.17l-13.34-.15c.2.09-1.49.14-3.58.18,8.22.02,17.23.12,16.92-.03Z"/>
    <path class="cls-1" d="m564.83,4.2c-4.28-.01-8.36,0-10.74.09,2.32,0,7.3-.02,10.74-.09Z"/>
    <polygon class="cls-1" points="534.05 3.61 537.99 3.73 547.42 3.76 534.05 3.61"/>
    <path class="cls-1" d="m725.2,4.27l14.56-.15c1.48-.18-2.49-.29-7.91-.22-3.49.13-8.89.2-6.66.37Z"/>
    <path class="cls-1" d="m681.15,2.81c3.94.11,4.2.23,6.42.4l.44-.66-6.87.26Z"/>
    <path class="cls-1" d="m723.63,2.66c1.45-.18,21.14-.53,2.68-.48-1.48.18-16.06.33-2.68.48Z"/>
    <polygon class="cls-1" points="943.07 3.49 939.37 3.5 939.9 4.58 943.07 3.49"/>
    <path class="cls-1" d="m1136.49.9c-17.26-.26-4.1.67-19.69.34-4.05.26,12.75.26,8.59.49,10.42-.27,15.89-.12,11.1-.83Z"/>
    <path class="cls-1" d="m1125.39,1.73c-1.67.05-3.44.11-5.32.16,3.02-.07,4.44-.12,5.32-.16Z"/>
    <polygon class="cls-1" points="25.6 5.27 14.5 5.04 21.66 5.41 25.6 5.27"/>
    <path class="cls-1" d="m4.29,6.07l-2.61-.69-6.67.62c2.51-.03,7.37-.09,9.28.07Z"/>
    <path class="cls-1" d="m1520.8,11.59l.85-.17c-1.72-.18-4.32-.19-9.52-.22l8.67.39Z"/>
    <polygon class="cls-1" points="1370.28 11.07 1372.88 11.09 1368.03 10.46 1370.28 11.07"/>
    <path class="cls-1" d="m1243.96,11.87c5.16-.03,11.22-.06,16.39-.09-11.24.11-17.79-.69-16.39.09Z"/>
  </g>
</svg>