<?xml version="1.0" encoding="UTF-8"?>
<svg id="Layer_1" data-name="Layer 1" xmlns="http://www.w3.org/2000/svg" viewBox="0 0 1495.51 11.09">
  <defs>
    <style>
      .cls-1 {
        fill: #328d43;
      }
    </style>
  </defs>
  <rect class="cls-1" x=".85" y="3.84" width="1491.78" height="4.46"/>
  <g>
    <path class="cls-1" d="m1495.06,2.9c-.04,6.81.38,4.34.46,5.4-.05-6.1-.19-7.26-.3-7.02-.12.24-.21,1.81-.15,1.62Z"/>
    <polygon class="cls-1" points="1420.66 2.37 1421.95 2.19 1411.2 2.61 1420.66 2.37"/>
    <path class="cls-1" d="m1352.46,2.36c6.45.71,24.71-.11,36.86.14l2,.16,5.48-.57c-14.77.09-33.95.47-44.35.27Z"/>
    <path class="cls-1" d="m1316.1.82c2.24.28-7.87.24,8.48.09-.82-.04-1.06-.05-1.54-.07-1.47,0-3.5,0-6.94-.02Z"/>
    <path class="cls-1" d="m1323.04.84c7.18-.02-4.7-.23,0,0h0Z"/>
    <path class="cls-1" d="m1289.88.99l9.46-.25c-1.98-.16-10.4-.2-7.27-.32-9.71.14-7.71.3-2.19.57Z"/>
    <path class="cls-1" d="m1280.91,1.51l4.9-.1c-.86-.07-2.16-.09-4.9.1Z"/>
    <path class="cls-1" d="m1296.2,1.19l-10.4.22c1.37.11,1.52.35,4.77-.08-.85.21,1.21,0,5.62-.14Z"/>
    <path class="cls-1" d="m1302.09,1.3c5.31.15,12.16.25,2.67.5,18.1-.1,15.43-.6-2.67-.5Z"/>
    <path class="cls-1" d="m1348.98,3.09l7.09.21,6.14-.24c-3.07.12-13.67-.19-13.23.03Z"/>
    <path class="cls-1" d="m1230.94.63c-.59.15,3.18.4,3.89.6l6.99-.17c-3.59-.1-10.4-.2-10.87-.42Z"/>
    <path class="cls-1" d="m1234.83,1.22l-10.46.26c9.34.03,11.05-.09,10.46-.26Z"/>
    <polygon class="cls-1" points="1279.22 2.3 1296.39 1.76 1275.91 2.31 1279.22 2.3"/>
    <polygon class="cls-1" points="1191.01 .61 1196.94 .26 1186.38 .79 1191.01 .61"/>
    <path class="cls-1" d="m1164.52.67c4.39-.29-6.01-.49-1.38-.67-7.19.05-13.34.3-18.87.52,5.88-.12,12.14-.09,20.25.14Z"/>
    <path class="cls-1" d="m1134.99.85c2.94-.07,5.98-.19,9.29-.33-3.12.07-6.19.16-9.29.33Z"/>
    <path class="cls-1" d="m1206.56,1.41c-.81-.09-2.37-.33-8.23-.43l4.11.43c1.26,0,2.68,0,4.12,0Z"/>
    <path class="cls-1" d="m1202.59,1.42h-.14c-4.46-.03-7.56-.03-8.88-.04,1.14,0,3.86.02,9.03.04Z"/>
    <path class="cls-1" d="m1207.6,1.41c-.38,0-.66,0-1.04,0,.4.04.64.06,1.04,0Z"/>
    <path class="cls-1" d="m1251.81,1.92c-6.14.24-18.95.49-6.56.86,4.41-.29-2.69-.5,6.56-.86Z"/>
    <path class="cls-1" d="m1212.71,1.94l11.11.1c-.22-.11-2.22-.28.82-.39l-11.93.3Z"/>
    <polygon class="cls-1" points="1207.27 2.08 1212.71 1.94 1208.59 1.91 1207.27 2.08"/>
    <path class="cls-1" d="m1154.01,1.25c-4.8.19-10.04.2-15.97.23,6.35.08,12.92.13,19.16.13.88-.13,3.62-.37-3.19-.36Z"/>
    <path class="cls-1" d="m1177.62,1.37c-.33,0-.76.02-1.07.02.66.04,1.18.05,1.07-.02Z"/>
    <path class="cls-1" d="m1079.68,1.48c.32.03.61.05.94.08.07-.02.12-.05.22-.07h-1.15Z"/>
    <path class="cls-1" d="m1158.26,1.69c4.78.08,7.63-.02,10.35-.15-3.57.02-7.35.05-11.42.07-.4.06-.47.1,1.07.08Z"/>
    <path class="cls-1" d="m1118.71,1.05c2.49.07,5.31.15,8.27.23-2.43-.13-7.39-.34-8.27-.23Z"/>
    <path class="cls-1" d="m1174.94,1.27c.24,0,.45-.01.71-.02-1.57-.09-1.37-.05-.71.02Z"/>
    <path class="cls-1" d="m1174.94,1.27c-2.46.06-4.39.17-6.33.26,2.91-.03,5.6-.08,7.94-.14-.59-.03-1.18-.08-1.61-.12Z"/>
    <path class="cls-1" d="m1062,4.21c.84-.39,13.4-.76,24.23-.34,10.67-.3,3.69-1.59-5.62-2.32-.33.17-.33.33-11.31.56,3.84.22,24.35.5,15.09.86-14.54.2-11.91-.14-18.98-.35,6.01.49-18.5.72-15.33,1.44l12.75-.25c.24.11-4.38.29-.84.39Z"/>
    <path class="cls-1" d="m1101.53,1.59l4.52-.05c-5.15-.07-8.83-.23-15.62-.54-7.51.19-9.07.34-9.59.47l22.24.05-1.54.06Z"/>
    <path class="cls-1" d="m1126.32,1.54c-3.53.43-14.37.61-7.73,1.08,13.25-.03,9.29-.36,17.2-.54-21.39.11,6.14-.24-9.31-.48,4.2-.07,7.98-.1,11.55-.11-3.85-.07-7.56-.13-11.06-.2.19.01.33.02.49.03h.1s-.02,0-.02,0c.92.05,1.23.09.19.05-.07,0-.33,0-.45,0-.14.06-.54.11-.97.16-6.19-.09-.97-.11.97-.16.07-.02.24-.04.26-.06-.02,0-.05,0-.08,0l-21.42.24c4.53.06,10.21.05,20.28,0Z"/>
    <path class="cls-1" d="m1233.83,3.7c-.66-.04-.64-.07-.69-.1-1.39.05-1.91.09.69.1Z"/>
    <path class="cls-1" d="m1225.01,3.44c1.56-.06,2.86-.23,7.92-.19,4.39.13-.02.21.21.35,3.05-.11,10.68-.31,1.11-.52l-1.52.06c-8.62-.15-19.71-.68-18.2-.74,2.52.39,4.74.66,10.48,1.04Z"/>
    <path class="cls-1" d="m1175.05,2.6l-17.84.21,9.09.37-.46-.22c10.15.09,7.95-.19,9.21-.36Z"/>
    <polygon class="cls-1" points="1077.64 1.26 1080.01 .81 1069.7 1.45 1077.64 1.26"/>
    <polygon class="cls-1" points="1054.46 1.32 1055.31 .92 1049.19 1.16 1054.46 1.32"/>
    <path class="cls-1" d="m251.02,5.94l5.24-.11c-2.48.03-4.08.07-5.24.11Z"/>
    <path class="cls-1" d="m213.07,5.91l-.93.19c1.76-.11,2.48-.19.93-.19Z"/>
    <path class="cls-1" d="m485.09,1.36c-7.63-.37-16.16-.94-15.24-.5l2.35.43c5.33-.08,9.42-.03,12.9.06Z"/>
    <path class="cls-1" d="m95.16,3.94c.73.04,1.48.09,2.23.13,1.85-.15,3.6-.29,5.16-.41-2.22.08-4.74.18-7.39.28Z"/>
    <path class="cls-1" d="m89.77,5.73l-10.07-.28c2.26.1,5.5.19,10.07.28Z"/>
    <path class="cls-1" d="m458.28,5.48l6.12-.44c-9.57,0-5.36.22-6.12.44Z"/>
    <path class="cls-1" d="m817.02,1.48c-6.59-.17-11.83-.24-16.44-.26,7.94.25,14.34.62,16.44.26Z"/>
    <path class="cls-1" d="m236.08,10.52c3.21-.08,4.58-.17,4.48-.26-3.3.07-5.17.16-4.48.26Z"/>
    <path class="cls-1" d="m781.55,1.22c1.16.03,2.3.07,3.48.1,4.82-.07,9.66-.13,15.55-.1-5.86-.18-12.58-.3-19.03,0Z"/>
    <path class="cls-1" d="m1209.97,5.84c.55.02,1.2.04,1.7.05.17-.06-.59-.06-1.7-.05Z"/>
    <path class="cls-1" d="m1428.96,10.2c-2.16,0-5.67.02-8.99.03,1.62.03,4.33.03,8.99-.03Z"/>
    <path class="cls-1" d="m961.18,1.13c4.92-.03.78-.05,0,0h0Z"/>
    <path class="cls-1" d="m985.09,2.84c-1.05.05-1.84.11-1.96.21.4-.1,1.09-.17,1.96-.21Z"/>
    <path class="cls-1" d="m732.58,3.91c-.14,0-.26,0-.43,0,1.46.08,1.21.07.43,0Z"/>
    <path class="cls-1" d="m968.58,1.33c-1.85-.04-3.97-.08-6.29-.13,1.02.02,2.93.06,6.29.13Z"/>
    <path class="cls-1" d="m967.58,1.12c1.7.02,3.03.03,4.3.04.62-.07.07-.12-4.3-.04Z"/>
    <path class="cls-1" d="m954.33,1.15c2.81,0,5.43.01,7.96.04-.97-.03-1.37-.05-1.11-.07-1.44,0-3.48.01-6.85.02Z"/>
    <path class="cls-1" d="m807.21,6.99c.32.01.7.03,1.05.04,4.96-.18,2.78-.15-1.05-.04Z"/>
    <path class="cls-1" d="m357.12,5.85c.23,0,.35-.01.56-.02-.23,0-.52-.01-.73-.02l.17.04Z"/>
    <path class="cls-1" d="m339.47,6.17c7.52-.54,11.8-.47,17.49-.36l-5.84-1.25-11.65,1.6Z"/>
    <path class="cls-1" d="m341.89,5.81l-12.4-.39c14.97-.64,25.8-.42,14.16-.96-1.75,1.35-48.2.14-49.93,1.49l-8.18-.28c2.34.01,2.72-.07,5.03-.05-15.9-.65-11.81.98-32.3.79-7.14-.1-12.12-.3-7.25-.46l-15.91.33c-4.63-.03-3.5-.26,1.11-.24l-24.26.11.18-.04c-3.46.21-11.31.54-15.14.68-6.16-.19,3.09-.14,1.52-.31l-13.44.33c-5.47-.35,5.66-.69,14.94-.64-12.55-1.35-11.15.34-38.22-.45l12.69-.17c-8.18-.77-18.08-.49-32.42-.97,3.4.25,28.71,1.21,14.13,1.54-4.11-.1-9.53-.15-17.39.12-.07-.48-7.75-.36-17.36-.34l.66-.64c-10.39.18-9.57.51-15.68.8-11.58-.06-13.98-.56-16.71-.97-18.55-.1,12.81.79-9.14.91-15.42-.24-26.25.02-44.7.4-10.8-.22,1.89-.39-1.98-.57l-9.57.51c-2.34-.01-1.59-.17-1.2-.25-8.06.2-.66.64-13.34.81-.57.12-1.68.17-3.2.17-.38,0-.79,0-1.22,0-.36,0-.73-.01-1.13-.02-.62-.02-1.3-.05-2.02-.07.04-.59.08-1.17.13-1.66.66.03,1.35.07,2.06.1,1.06.03,2.15.07,3.26.1,2.37.05,4.82.1,7.28.15,4.92.06,9.88.04,14.29-.18,3.87.18-1.87.39-.69.64,21.53-.52,18.45-.38,36.13-1.08l15.06.42c-11.06-.48,3.07-1.04,15.45-1.51-3.93-.23-7.28-.43-9.53-.53l19.76-.34c2.39.1.4.32-2.84.59,1.35-.06,2.63-.11,3.62-.15,7.06.24,3.4.6-1.66.96-2.41-.13-4.8-.26-7.12-.39-4.88.39-9.45.82-8.43,1.19,1.28-.07,3.76-.14,6.48-.17-1.28.1-2.09.2-1.5.26.67.07,2.73-.07,5.96-.24l4.49.71,1.09-.28,25.85.44c18.5-.71,34.58-1.77,63.94-2.06-7.28.52-1.57.85-1.96,1.47-8.01-.65-22.74.28-37.95.14,7.94.07,6.19.36,4.17.47l27.13-.59c-.61.5,5.76.38,12.85.59-5.36-1,20.23-.66,31.27-.97.69.34-1.96.68-15.43.6,14.86.75,19.2-1.17,33.79-.53-3.29,0-5.06-.04-6.36.13,7.68-.3,26.46-.06,22.05.23h-3.28c21.84.12,66.47.01,69.73-.83.22.11-2.86,1.02-4.18,1.19l38.96-2.85c-3.43.73,9.74,2.46-8.36,2.87,5.2.1,11.63.22,22.59-.03-3.55-.1-8.84-1.05-3.99-1.12,13.3.81,9.24.43,25.63,1.12-5.32-.16.59-1.3,8.99-1.26-1.31.17.7,1.13-2.37,1.24l20.91-1.12c-5.22.2-.92.95,3.76,1.27-2.17-.22,18.08.02,23.65-.09l-8.86-.26c23.61.17,23.32-1.57,46.74-1.52-2.84.23-7,1.42,4.91,1.56,5.46-.57,24.17-2.76,44.89-3.2l3.98.33,15.9-.37c-9.9.86-37.68,2.68-52.86,3.39,8.83.26,2.46.39,15.69.36,4.67.31-7.21.47-11.11.48l30.81.2c-1.37-.67,23.56-.67,22.38-1.23l-33.46.69c-1.36-.67,19.35-1.9,41.17-1.78,5.55.27-4.15,1.19-3.7,1.41,2.83-.23,20.72-.44,22.72-.28l-9.26.36c12.15.25,19.83-.89,34.43-.25,5.04.04,15.05.86,15.92.47-8.22-.76-9.83-3.13-4.35-3.7,1.77.05,26.46.73,32.22,1.11,8.3.6-12.46,1.43-5.39,1.94.3-.18,4.89-.41,6.8-.48,5.29.16-2.19.57,9.31.48,1.92-.68,23.39.06,5.44-.57,11.25-.19,11.96.14,25.17.11-4.21-.44,11.86-1.49,23.13-1.69-.66.17,1.87.4,3.09.5,23.06.06,35.44.37,56.94.38,1.98.16,12.36.36,7.94.66,3.09-.12,5.93-.35,12.57-.37,12.84.59-14.79.09-5,.8.84-.39,17.15-.54,26.6-.79-2.91-.61-21.83-.12-31.29.13-.04-.84,16.42-1.72,38.9-2.11,17.86-.21,7.74.54,10.85.42,33.55.15,28.58-1.47,56.45-.86,11.06.54.5,1.07,2.95,1.45-14.55.2-22.34-.34-32.2-.32l12.14.25c-4.63.18-14.34.31-19.64.16,9.27.48,56.68.09,82.57.54,4.6-.18,12.54-.37,8.78-.58l-8.19.07c-7.53-.43,15.41-.6,5.05-.8,10.99-.3,23.3-.78,38.77-.54l2.91.61c-.33-.18-10.11-.36-14.46-.18,6.45-.27,23.72.83,30.78.03l-10.84-.42c11.03-.31,24.67-.95,38.38-.76-6.24-.6-3.16.07-12.9-.64,8.44.88-35.07-.04-21.5.89-9.99-.82-17.3-.35-30.37-1.05.4.2,4.63.39-6.88.29-.52.06-1.75.13-2.53.18-.35,0-.48,0-.78-.02.23,0,.4.02.64.02-.5.03-.54.04.24,0,2.74.09,4.96.19,5.86.31-5.71.46-24.01.45-30.2.69-6.83-.1,2.86-.23-.87-.45l-9.24.36c-.92-.45-18.14-.74-2.06-1.01l-14.48-.02c-8.52-.25-20.25-.35-27.48-.16-6.83-.1-17.25.5-11.3.14l-22.71.28-.21-.11c-22.4-.06-46.12.74-71.73-.07-7.54.11-15.34.25-27.96.12l-2.46-.39c-9.68.14-29.08-.39-33.24.02-10.45-1.04-47-.23-64.03-.41l-.64.51c-11.72-.03-22.96.11-37.52.32l.89.45c-12.55.37-32.26-.32-52.1-.27,1.35-.17,6.38-.13,9.94-.02-23.71-1.01-50.02.73-71.52,0-5.36.16-9.24.11-13,0,.5,0,.94-.02,1.33-.02-.55,0-1.36,0-2.2,0-2.37-.08-4.8-.15-7.44-.24,2.24.11,4.39.2,6.26.24-4.13,0-10.4.06-16.54.18l-2.62-.48c-.5,0-.9,0-1.42.01-6.03-.18-4.85.23-1.63.59-3.09.08-5.93.17-8.13.29-4.9-.77-16.12.26-22.8-.56-4.14.4-30.89.3-34.16,1.15-.21-.11-2.02-.16,1.3-.17-6.85-.1-13.69-.19-19.84.05l-2.91-.61-14.95.82c-9.09-.37-12.85-.59-3.83-1.06-21.78.72-17.67.27-36.2.99l.9-.39c-6.62.02-17.21.54-21.2.22-14.81-.75-73.29-.1-111.31-.8,7.37,1.16-17.67-.52-19.18.38-2.22-.27-7.51-.43-1.36-.67-19.4.27-29.15-.44-42.55.32-2.22-.28,4.15-.4,2.18-.57-1.56.06-6.16.24-8.18.07-1.98-.16,2.84-.23,5.91-.35-19.82.05-21.83.89-23.27,1.69-10.04-.38-15.06-.32-22.31.2-3.5-.26-9.33-.53,2.99-.62-6.93-.04-42.33-.38-43.03.26-2.17-.16-9.68-.05-11.51.03-7.77-.03-12-.04-16.2-.05-4.3,0-8.56.01-16.39.02l4.64.1c-1.1.14-2.1.23-3.36.29-1.41.06-2.84.09-4.37.1,0,1.9-.01,3.93-.02,6.14,4.9.05,8.85.15,14.49.11l-.35.08c28.22.55,12.18-.27,40.03.37l-1.52-.48c2.6-1.03,24.67.61,40.83.21l-5.83-.27c8.83-.35,24.67,1.4,33.53,1.53,1.93.09-3.05.14-5.75.21,23.2.61,3.01-.63,20.3-.77,3.19.34-4.11.86,7.53.92,5.8.27,33.76-1.1,49.63-.45-3.5-.26-6.97-.52,1.06-.72,12.31-.09,33.28.98,44.4.16,1.57.07,2.16.14,2.22.2,9.41-.21,30.58-.35,36.25-.8,8.7,1.65,58.5-.8,58.29.72l28.94-.08-.76.16c18.5.1,25.04-.26,31.55-.63,4.28.1,1.15.25.8.33,27.03.31,29.72.24,52.39-.52l2.36.49c6.14-.29,39.08.77,65.6.2-.26.06-.81.15-2.92.22,29.83-.58,71.42,1.37,82.35-.43l19.69-.44c-25.47-.14,3.79-.78-6.68-1.08,10.02-.11,25.89.54,13.59.63l-1.93-.09c-4.52.94,31.65.33,30.96.97,50.12-.05,98.96.47,145.9.51l-5.41-.73,16.37.04c4.3.17,5.77.57-5.91.54,3.07.21,7.97.12,12.14-.04,4.17-.16,7.62-.39,7.78-.47,22.87.3-8.93.85-1.92.87l9.53-.05-2.15-.09c7.72-.3,8.41-.61,22.45-.58,8.88.15,4.56.45,8.05.48-.01.03.28.04,1.1.05.82,0,2.16-.01,4.27-.03l20.63.06-8.25-.58c9.14-.28,19.4.03,9.88-.62,13.97,1,76.95.36,85.53.67,12.81-.42,25.45-.41,41.11-.36-3.89-.12-6.22-.77,7.28-.69-4.94,1.33,24.73.58,35.65,1.54-9.76-.64,38.4-.16,23.09-1.06,11.27.11.69.5,9.24.81,26.82-.52,59.11.34,92.27.16.52-.18-5.04-.44,2.08-.7l17.51.88c6.55-.09,6.03-1.01,17.99-.4-1.69-.15-4.21-.37.18-.43,64.95.85,132.73-.7,198.69.9-8.93-.34-2.98-.37,3.84-.39-4.44-.08.1-.43-.77-.67l27.62.66c5.03-.66,29.61-.04,32.49-.67l-8.75.11c11.63-.74-16.27-1.65-14.57-2.61-13.02.85-34.34-1.25-55.7-.04-4.72-.19,4.02-.31,1.5-.53-5.42.41-11.96.49-24.08.31l1.37-.1c-34.05.1-48.65-.3-86.9-.57l2.83.47c-8.22-.06-9.95-.21-13.8-.33-9.43.72,23.09.04,14.49.83-10.9-.96-57.97-.01-65.34-1.11-12.65,0,3.71.55-8.93.54l-3.35-.3-3.2.38c-8.29-.06-12.47-.43-12.78-.68,2.01.03,5.72-.07,7.87-.09-10.75-.35-30.32.12-34.01,0l12.15.18c-34.51.28-76.65-.11-109.99.49l2.53.22c-25.46.41-20.39-.24-48.35-.05l1.02-.05c-5.59.22-13.07.33-20.72.31,7.06-.26-13.28-.51-4.02-.79-27.61.44-13.66.35-31.89,1.17l-4.21-.37c-6.21.33-6.73.51-20.7.61,11.45-.32-8.91-.56,3.92-.98-29.3-.81-43.5.82-56.94-.37-13.45,1.02,25.35.57,17.82.79,6.31.33-11.11.76-20.3.66-9.36-.02-15.91-1.31-39.46-1.29,2.34,0,2.5-.07,4.84-.07-8.81-.26-17.26.35-28.07-.07-6.06.62-14.03-.04-15.78.75l21.6-.18c-12.24.21-23.72,1.13-43.89.68,1.57-.16,7.57-.37,11.7-.48-5.9-.23-11.36.15-17.47-.08,1.74-.79,26.25-.17,39.36-.77-6.33-.33-24.81.57-18.22-.28-9.47,1.09-23.2-.14-39.14.69l1.05-.47c-2.52.07-7.75.3-12.39.29l8.41-.61c-12.91.52-24.88-.46-37.26-.17,25.92-.01,5.82.57,16.78.91-31.97.63-18.39-1.24-54.18-1.01,4.85-.07,18.19.28,10.62.5-6.81-.1-15.81-.28-20-.53-23.72.1,3.64.49-6.45.78-8.07-.58-11.65.23-22.04.42l-.07-.48c-27.02-.31-7.17,1-31.5.63l10.28-.67-12.69.17,2.62-.55c-13.8.41-18.1.3-31.62.15,3.14.34-1.77.87-13.74.89-8.16-.29,4.57-.46-12.4-.39,3.83-.3,8.03-.68,15.41-.24.76-.16,3.78-.3,4.56-.46-8.79-.33-22.1-.07-28.24-.07,2.37.02,5.19.04,6.64.11l-24.6.67c-3.87-.18-.8-.33,2.24-.47-4.98.05-8.43.27-15.75.31,1.9-.39,1.44-.79,11.81-.98l-23.44.43c-1.57-.17-12.03-.47-8.98-.61-12.99-.23-31.87.76-49.1.45-.89.08-2.69.15-6.35.2-16.19-.09-30.53-.57-49.72-.03l-10.89-.7c-15.03.16,14.74.88-10.28,1.15-17.72.22-6.61-.6-12.83-.79-8.81.35-24.13,1.07-40.4.5,5.39-.13,9.61-.03,14.64-.08Zm-185.34.31c3.59-.1,10.75-.41,13.38-.13-4.09.55-7.25.29-13.38.13Zm-34.11-1.26c-2.67.16-6.8.08-11.46-.1,3.38-.04,7.21-.02,11.46.1ZM907.29,1.52c-.15,0-.26.02-.38.02-8.01-.19-5.17-.11.38-.02Zm16.63.21c1.67-.07,1.56-.13.85-.2-1.16.12-4.9.13-9.15.1,1.18.13,3.33.21,8.3.1Zm-64.19,8.5l-3.24-.13c7.31-.14,5.26-.01,3.24.13Z"/>
    <path class="cls-1" d="m90.5,5.52c-1.02-.08-1.3-.17-1.54-.26-1.41.08-1.44.17,1.54.26Z"/>
    <path class="cls-1" d="m457.15,5.56h.56c.31-.02.48-.05.57-.08l-1.13.08Z"/>
    <path class="cls-1" d="m666.24,5.8c-3.42-.07-5.33-.16-6.6-.25-.19.12,1.37.22,6.6.25Z"/>
    <path class="cls-1" d="m1012.07.91l-10.66.12c5.15-.02,6.99.08,9.6.16-.24-.11-2.27-.27,1.06-.28Z"/>
    <path class="cls-1" d="m1104.56,3.89c1.56-.06,3.3,0,4.84-.07l-.43-.22c-6.63.01-11.27.19-4.41.29Z"/>
    <path class="cls-1" d="m1021.94,2.51c.84.4,7.53.27,14.99.19h-1.32c2.2-.57-5.75-.38-13.67-.19Z"/>
    <path class="cls-1" d="m1038.66,2.69c2.3-.02,4.65-.03,6.9-.01.87-.23-2.8-.05-6.9.01Z"/>
    <path class="cls-1" d="m945.02,1.46c3.54.1,2.22-.52,4.22-.35,3.95-.51-23.6.62-4.22.35Z"/>
    <polygon class="cls-1" points="1027.98 3.84 1025.3 3.34 1021.12 3.74 1027.98 3.84"/>
    <path class="cls-1" d="m969.04,3.47l11.93.14c-.18-.08,1.33-.13,3.2-.17-7.35-.02-15.4-.12-15.12.03Z"/>
    <path class="cls-1" d="m984.17,3.44c3.83,0,7.47,0,9.6-.08-2.07,0-6.53.02-9.6.08Z"/>
    <polygon class="cls-1" points="1011.68 3.99 1008.15 3.89 999.73 3.85 1011.68 3.99"/>
    <path class="cls-1" d="m840.84,3.38l-13.02.14c-1.33.17,2.22.28,7.07.21,3.12-.12,7.95-.19,5.95-.35Z"/>
    <path class="cls-1" d="m880.2,4.74c-3.52-.1-3.76-.21-5.74-.38l-.4.62,6.14-.24Z"/>
    <path class="cls-1" d="m842.24,4.89c-1.3.17-18.89.49-2.39.45,1.32-.17,14.36-.31,2.39-.45Z"/>
    <polygon class="cls-1" points="646.12 4.11 649.43 4.1 648.95 3.08 646.12 4.11"/>
    <path class="cls-1" d="m473.25,6.53c15.42.24,3.66-.63,17.6-.32,3.62-.24-11.39-.25-7.68-.45-9.31.25-14.2.11-9.92.78Z"/>
    <path class="cls-1" d="m483.18,5.76c1.49-.05,3.07-.1,4.75-.15-2.7.06-3.97.11-4.75.15Z"/>
    <polygon class="cls-1" points="1465.3 10.74 1475.22 10.95 1468.82 10.61 1465.3 10.74"/>
    <path class="cls-1" d="m1484.34,9.99l2.34.65,5.96-.58c-2.24.03-6.59.08-8.29-.06Z"/>
    <path class="cls-1" d="m128.99,4.82l-.76.16c1.54.17,3.86.18,8.51.21l-7.75-.36Z"/>
    <polygon class="cls-1" points="263.51 5.3 261.2 5.29 265.52 5.87 263.51 5.3"/>
    <path class="cls-1" d="m376.41,4.56c-4.61.03-10.02.06-14.65.08,10.04-.11,15.9.65,14.65-.08Z"/>
  </g>
</svg>