<?xml version="1.0" encoding="UTF-8"?>
<svg id="Layer_1" data-name="Layer 1" xmlns="http://www.w3.org/2000/svg" viewBox="0 0 30 30">
  <defs>
    <style>
      .cls-1 {
        fill: #fff;
      }

      .cls-2 {
        fill: #057eb6;
      }

      .cls-3 {
        fill: #a6a8ab;
      }

      .cls-4 {
        fill: #1b4584;
      }
    </style>
  </defs>
  <path class="cls-3" d="m20.23,4.57l-1.63-.99-1.83,1.99c-.7-.3-1.43-.5-2.16-.63l-.48-2.67-1.88-.04-.6,2.65c-.75.1-1.48.28-2.19.54l-1.75-2.07-1.66.91.81,2.59c-.59.45-1.13.97-1.62,1.55l-2.55-.92-.98,1.62,2,1.84c-.3.7-.5,1.43-.63,2.15l-2.67.47-.05,1.9,2.65.59c.1.75.27,1.48.53,2.19l-2.07,1.75.91,1.66,2.59-.8c.45.59.96,1.13,1.55,1.62l-.92,2.55,1.63.99,1.83-1.99c.7.3,1.42.5,2.15.63l.48,2.67,1.89.04.59-2.65c.75-.1,1.48-.27,2.19-.54l1.75,2.08,1.66-.92-.81-2.59c.52-.39,1-.84,1.44-1.35l-2.14-1.3c-2.39,2.42-6.2,2.98-9.25,1.13-3.55-2.16-4.68-6.78-2.53-10.32s6.78-4.69,10.34-2.53c3.04,1.85,4.31,5.48,3.26,8.73l2.14,1.3c.24-.62.42-1.26.53-1.9l2.67-.47.04-1.89-2.65-.6c-.09-.75-.27-1.48-.53-2.19l2.07-1.75-.91-1.65-2.59.81c-.45-.59-.97-1.14-1.55-1.63l.92-2.54Z"/>
  <path class="cls-4" d="m19.83,19c-2.31,3.81-7.3,5.03-11.12,2.71-3.82-2.32-5.04-7.3-2.73-11.12s7.31-5.04,11.13-2.73,5.04,7.31,2.72,11.13Zm-12.86-7.81c-1.98,3.27-.93,7.54,2.34,9.53,3.27,1.99,7.55.95,9.54-2.32,1.99-3.28.94-7.56-2.33-9.55-3.27-1.99-7.56-.94-9.54,2.34Z"/>
  <path class="cls-4" d="m29.3,24.74c-.32.53-.83.91-1.44,1.05-.6.15-1.23.05-1.76-.27l-8.14-4.94.6-.99,8.14,4.94c.27.16.59.21.89.14.31-.07.56-.26.73-.53s.21-.59.14-.89c-.07-.3-.26-.56-.53-.73l-8.14-4.94.6-.99,8.14,4.94c.53.32.91.83,1.05,1.44.15.61.05,1.23-.27,1.76Z"/>
  <path class="cls-2" d="m17.73,17.72c-1.61,2.66-5.08,3.51-7.75,1.89s-3.51-5.08-1.9-7.74,5.09-3.52,7.75-1.9c2.67,1.62,3.52,5.08,1.89,7.76Z"/>
  <path class="cls-1" d="m11.28,17.48l-.6.99c-2.03-1.23-2.68-3.88-1.45-5.9l.99.6c-.9,1.48-.42,3.42,1.06,4.32Z"/>
</svg>