<?xml version="1.0" encoding="UTF-8"?>
<svg id="Layer_1" data-name="Layer 1" xmlns="http://www.w3.org/2000/svg" viewBox="0 0 327.87 72.62">
  <defs>
    <style>
      .cls-1, .cls-2 {
        fill: #007fba;
      }

      .cls-3, .cls-4 {
        fill: #1a4685;
      }

      .cls-2, .cls-5, .cls-4, .cls-6 {
        fill-rule: evenodd;
      }

      .cls-5, .cls-7 {
        fill: #72429a;
      }

      .cls-8 {
        fill: #009047;
      }

      .cls-6 {
        fill: #008f47;
      }
    </style>
  </defs>
  <g>
    <g>
      <path class="cls-3" d="M98.97,4.98h19.21v7.48h-3.22v24.59h7.84v-7.2h10.21v14.73h-34.05v-7.54h3.34V12.46h-3.34v-7.48Z"/>
      <path class="cls-3" d="M186.7,44.59h-24.38v-7.42h5.78l-1.28-3.85h-12.46l-1.28,3.85h4.74v7.42h-19.33v-7.42h4.13l8.21-24.88h-2.49v-7.31h23.35l10.76,32.19h4.26v7.42ZM156.61,26.51h7.96l-4.01-12.24-3.95,12.24Z"/>
      <path class="cls-3" d="M192.17,44.59v-7.37h3.53V12.29h-3.53v-7.31h22.68c10.09,0,14.9,3.51,14.9,9.69,0,4.76-1.4,7.08-5.96,8.78,4.38,1.13,8.03,4.14,8.03,9.63,0,7.99-4.8,11.5-16.54,11.5h-23.1ZM208.28,12.46v8.5h3.71c3.22,0,4.13-1.64,4.13-4.36s-1.7-4.14-4.01-4.14h-3.83ZM213.15,37.22c2.55,0,4.92-1.81,4.92-4.87,0-2.89-1.76-4.99-5.11-4.99h-4.68v9.86h4.86Z"/>
      <path class="cls-3" d="M236.37,24.58c0-12.24,8.75-20.68,21.34-20.68,14.9,0,21.83,8.33,21.83,21.08s-7.66,20.63-21.4,20.63c-12.71,0-21.76-6.86-21.76-21.02ZM264.34,24.98c0-6.86-2.01-12.35-6.69-12.35-3.71-.06-6.26,4.93-6.26,11.96,0,7.42,2.86,12.13,6.75,12.13s6.2-4.7,6.2-11.73Z"/>
      <path class="cls-3" d="M285.01,4.98h19.76c14.1,0,16.84,5.21,16.84,11.67,0,4.42-3.77,7.54-8.82,8.22,4.2.57,7.96,3.97,7.96,8.05,0,2.44.36,3.85,1.46,3.85.91,0,1.4-.68,1.4-1.81v-1.87h4.07v3.12c0,4.7-2.13,9.07-8.88,9.07-7.96,0-11.79-3.91-11.79-10.54,0-5.16-.67-6.4-6.08-6.4v8.78h3.71v7.48h-19.64v-7.48h3.4V12.4h-3.4v-7.42ZM300.93,12.34v9.63h2.74c3.53,0,5.84-1.59,5.84-4.59,0-3.34-2.01-5.04-5.53-5.04h-3.04Z"/>
    </g>
    <g>
      <path class="cls-7" d="M104.92,51.61c3.55,0,5.37,1.89,5.37,1.89l-1.62,2.47s-1.6-1.36-3.59-1.36c-2.75,0-4.05,1.89-4.05,3.81s1.4,4.02,4.05,4.02c2.17,0,3.81-1.64,3.81-1.64l1.8,2.39s-2.03,2.24-5.77,2.24c-4.49,0-7.52-2.97-7.52-6.93s3.21-6.88,7.52-6.88Z"/>
      <path class="cls-7" d="M117.49,55.35c3.27,0,5.87,2.04,5.87,5.07s-2.61,5.01-5.85,5.01-5.85-2-5.85-5.01,2.61-5.07,5.83-5.07ZM117.51,62.73c1.26,0,2.35-.88,2.35-2.32s-1.08-2.37-2.35-2.37-2.35.92-2.35,2.37,1.08,2.32,2.35,2.32Z"/>
      <path class="cls-7" d="M125.17,55.57h3.33v.84c0,.32-.04.6-.04.6h.04c.48-.67,1.44-1.66,3.07-1.66,1.3,0,2.35.54,2.89,1.63h.04c.54-.8,1.76-1.63,3.31-1.63,1.88,0,3.35.95,3.35,3.61v6.24h-3.47v-5.7c0-.71-.14-1.21-.8-1.21-1.1,0-1.68.75-1.9,1.81-.08.34-.08.73-.08,1.12v3.98h-3.47v-5.7c0-.71-.14-1.21-.8-1.21-1.08,0-1.64.71-1.88,1.74-.08.35-.1.79-.1,1.2v3.98h-3.47v-9.63Z"/>
      <path class="cls-7" d="M143.57,55.57h3.33v.84c0,.32-.04.6-.04.6h.04c.48-.67,1.44-1.66,3.07-1.66,1.3,0,2.35.54,2.89,1.63h.04c.54-.8,1.76-1.63,3.31-1.63,1.88,0,3.35.95,3.35,3.61v6.24h-3.47v-5.7c0-.71-.14-1.21-.8-1.21-1.1,0-1.68.75-1.9,1.81-.08.34-.08.73-.08,1.12v3.98h-3.47v-5.7c0-.71-.14-1.21-.8-1.21-1.08,0-1.64.71-1.88,1.74-.08.35-.1.79-.1,1.2v3.98h-3.47v-9.63Z"/>
      <path class="cls-7" d="M161.84,55.57h3.47v5.65c0,.9.38,1.27,1.1,1.27,1.48,0,2.19-1.21,2.19-2.65v-4.26h3.47v9.63h-3.33v-.84c0-.32.04-.6.04-.6h-.04c-.56,1.03-1.84,1.66-3.23,1.66-2.04,0-3.67-.9-3.67-3.61v-6.24Z"/>
      <path class="cls-7" d="M174.63,55.57h3.33v.84c0,.32-.04.6-.04.6h.04c.48-.75,1.46-1.66,3.29-1.66,2.08,0,3.71.9,3.71,3.61v6.24h-3.47v-5.65c0-.9-.38-1.27-1.14-1.27-1.08,0-1.74.56-2.05,1.38-.14.37-.2.8-.2,1.27v4.26h-3.47v-9.63Z"/>
      <path class="cls-7" d="M187.38,55.57h3.47v9.63h-3.47v-9.63ZM187.42,51.83h3.39v2.52h-3.39v-2.52Z"/>
      <path class="cls-7" d="M193.94,58.26h-1.32v-2.52h1.42v-2.77h3.37v2.77h2.17v2.52h-2.17v2.95c0,1.08,1.18,1.23,1.84,1.23.28,0,.46-.02.46-.02v2.8s-.38.06-.94.06c-1.64,0-4.83-.41-4.83-3.64v-3.38Z"/>
      <path class="cls-7" d="M201.58,66.08s.56.36,1.06.36c.56,0,1.3-.15,1.66-.97l.2-.45-4.39-9.44h3.93l1.52,4.43c.18.52.38,1.5.38,1.5h.04s.2-.92.34-1.44l1.3-4.49h3.79l-4.23,10.65c-.86,2.15-2.67,2.9-4.31,2.9-1.36,0-2.41-.67-2.41-.67l1.1-2.37Z"/>
      <path class="cls-8" d="M217.67,51.83h8.78v2.8h-5.27v2.8h4.37v2.8h-4.37v4.95h-3.51v-13.37Z"/>
      <path class="cls-8" d="M233.35,55.35c3.27,0,5.87,2.04,5.87,5.07s-2.61,5.01-5.85,5.01-5.85-2-5.85-5.01,2.61-5.07,5.83-5.07ZM233.37,62.73c1.26,0,2.35-.88,2.35-2.32s-1.08-2.37-2.35-2.37-2.35.92-2.35,2.37,1.08,2.32,2.35,2.32Z"/>
      <path class="cls-8" d="M240.89,55.57h3.47v5.65c0,.9.38,1.27,1.1,1.27,1.48,0,2.19-1.21,2.19-2.65v-4.26h3.47v9.63h-3.33v-.84c0-.32.04-.6.04-.6h-.04c-.56,1.03-1.84,1.66-3.23,1.66-2.04,0-3.67-.9-3.67-3.61v-6.24Z"/>
      <path class="cls-8" d="M253.68,55.57h3.33v.84c0,.32-.04.6-.04.6h.04c.48-.75,1.46-1.66,3.29-1.66,2.08,0,3.71.9,3.71,3.61v6.24h-3.47v-5.65c0-.9-.38-1.27-1.14-1.27-1.08,0-1.74.56-2.05,1.38-.14.37-.2.8-.2,1.27v4.26h-3.47v-9.63Z"/>
      <path class="cls-8" d="M270.44,55.35c2.08,0,2.71.77,2.71.77h.04s-.02-.19-.02-.43v-3.85h3.47v13.37h-3.25v-.64c0-.3.02-.54.02-.54h-.04s-.86,1.4-2.99,1.4c-2.81,0-4.65-2.06-4.65-5.05s1.96-5.03,4.71-5.03ZM271.25,62.75c1.04,0,2.02-.71,2.02-2.37,0-1.16-.66-2.3-2.02-2.3-1.08,0-2.02.82-2.02,2.3s.82,2.37,2.02,2.37Z"/>
      <path class="cls-8" d="M284.42,59.2h.14v-.17c0-.8-.66-1.07-1.52-1.07-1.3,0-2.79.92-2.79.92l-1.2-2.28s1.78-1.25,4.33-1.25c2.91,0,4.65,1.48,4.65,3.92v5.93h-3.17v-.58c0-.32.04-.6.04-.6h-.04s-.76,1.4-2.93,1.4c-1.92,0-3.51-1.2-3.51-3.1,0-2.8,4.39-3.12,5.99-3.12ZM282.9,62.96c.9,0,1.7-.92,1.7-1.7v-.21h-.32c-1.1,0-2.37.3-2.37,1.1,0,.45.3.8.98.8Z"/>
      <path class="cls-8" d="M290.96,58.26h-1.32v-2.52h1.42v-2.77h3.37v2.77h2.17v2.52h-2.17v2.95c0,1.08,1.18,1.23,1.84,1.23.28,0,.46-.02.46-.02v2.8s-.38.06-.94.06c-1.64,0-4.83-.41-4.83-3.64v-3.38Z"/>
      <path class="cls-8" d="M298.75,55.57h3.47v9.63h-3.47v-9.63ZM298.79,51.83h3.39v2.52h-3.39v-2.52Z"/>
      <path class="cls-8" d="M309.86,55.35c3.27,0,5.87,2.04,5.87,5.07s-2.61,5.01-5.85,5.01-5.85-2-5.85-5.01,2.61-5.07,5.83-5.07ZM309.88,62.73c1.26,0,2.35-.88,2.35-2.32s-1.08-2.37-2.35-2.37-2.35.92-2.35,2.37,1.08,2.32,2.35,2.32Z"/>
      <path class="cls-8" d="M317.54,55.57h3.33v.84c0,.32-.04.6-.04.6h.04c.48-.75,1.46-1.66,3.29-1.66,2.08,0,3.71.9,3.71,3.61v6.24h-3.47v-5.65c0-.9-.38-1.27-1.14-1.27-1.08,0-1.74.56-2.05,1.38-.14.37-.2.8-.2,1.27v4.26h-3.47v-9.63Z"/>
    </g>
  </g>
  <g>
    <path class="cls-1" d="M4.38,42.45c1.73-.28,3.01-1.6,3.19-3.17v-.76c-.28-2.66-.16-5.35.36-8,1.48-7.57,6.03-14.15,12.82-18.53,6.79-4.38,15-6.03,23.12-4.65,14.56,2.47,24.89,14.13,25.35,27.4h6.89c-.06-2.31-.36-4.61-.91-6.88-1.08-4.49-3.06-8.7-5.88-12.5-2.82-3.8-6.35-7.01-10.48-9.54-4.28-2.61-9.02-4.38-14.09-5.24-.59-.1-1.18-.19-1.77-.26-4.49-.57-8.99-.39-13.4.53-4.82,1-9.33,2.85-13.41,5.48-4.08,2.63-7.52,5.92-10.23,9.77C3.14,20.09,1.25,24.51.33,29.23c-.69,3.52-.81,7.1-.36,10.62l.03.23h.08c.61,1.65,2.42,2.66,4.3,2.36Z"/>
    <g>
      <g>
        <path class="cls-7" d="M29.89,52.37c1.25,1.15.9.9,2.31,1.36,3.54.8,6.68.91,9.78.83-.57-.56-2.16-1.5-2.52-1.76-.79-.57-1.62-1.11-2.41-1.69-2.28-1.69-4.52-3.43-6.82-5.09-.88-.63-1.96-.97-2.97-.21-.96.72-1.19,1.63-.57,2.61,1.2,1.89,1.61,2.48,3.19,3.95Z"/>
        <path class="cls-7" d="M17.4,44.69c-1.05.62-1.5,1.55-1.35,2.7.1.79.4,1.55.94,2.14,1.98,2.12,2.99,3.25,3.56,4,2.37-.72,5.71-.79,8.16-.37-2.09-1.93-7.37-7.73-8.29-8.3-.97-.6-1.99-.77-3.02-.16Z"/>
        <path class="cls-7" d="M7.79,45.24c-1.29.89-1.6,2.03-.8,3.37.23.39.48.77.77,1.12,1.93,2.38,6.44,7.14,8.9,9.31-.28-.36-.48-.77-.53-1.26-.18-1.65,1.36-2.92,2.96-3.56,0,0,0,0,0,0,0,0,0,0-.01-.01-2.23-2.02-5.71-6.18-7.62-8.46-.98-1.18-2.5-1.33-3.67-.52Z"/>
      </g>
      <path class="cls-7" d="M68.83,40.31c-.03.18-.06.36-.1.54-1.07,5.49-3.8,10.49-7.79,14.48-4.4-1.65-9.4-1.09-13.73-.13-5.63,1.24-10.97.94-16.4-.63-3.56-1.03-7.09-.62-10.5.74-1.6.64-2.5,1.74-2.32,3.39.19,1.69,1.65,2.02,3.11,2.23,2.65.39,5.32.72,7.96,1.16.9.15,1.92.11,2.65.91-.81.7-1.82.59-2.72.65-9.07.61-15.69-3.32-20.86-9.86-.92-1.16-1.6-2.5-3.02-3.24-.97-.51-1.93-.55-2.84.15-.96.74-1.14,1.67-.72,2.71.16.41.45.78.71,1.15,2.07,2.92,4.52,5.56,7.07,8.11,1.33,1.33,2.8,2.54,4.38,3.61,6.32,4.3,14.33,6.49,22.1,6.35,8.9-.16,17.61-3.07,24.56-8.2,3.83-2.59,7.06-5.77,9.62-9.46,2.74-3.94,4.58-8.3,5.49-12.96.11-.56.2-1.12.29-1.69h-6.94ZM32.14,63.06l-.08-.11.14.02-.06.09Z"/>
    </g>
    <path class="cls-4" d="M60.39,43.19s-.01.06-.02.09c0,.13-.03.37-.08.47-.02.03-.02.12-.03.16-.03.09-.06.19-.1.29-.1.27-.18.51-.33.75,0,.02-.01.04-.02.06,0,0-.02.02-.03.03,0,.01,0,.03,0,.04-.08.12-.17.26-.24.36-.02.03,0,.05-.02.07-.01.02-.05.04-.06.05-.02.02-.04.06-.05.08-.01.02-.04.03-.06.05-.04.05-.07.11-.11.14,0,0-.03.01-.03.01-.07.09-.13.16-.22.25-.05.05-.17.1-.18.17,0,0,0,0-.02,0v.02s-.25.22-.25.23c0,0,0,0-.01,0h0s0-.01,0-.01c-.03.07-.16.13-.17.18,0,0,0-.01,0-.02-.01,0-.01.01-.03,0,0,.01,0,.02-.01.03-.03.03-.2.15-.24.15,0,0,0,0,0,0-.28.24-.6.36-.98.53-.05.02-.23.06-.23.06-.02.02-.09.03-.11.04-.09.04-.18.08-.25.13-.04.03-.12.02-.17.04.01,0-.11.03-.12.03,0,0-.19,0-.21.02-.02,0-.11.04-.13.03,0,0,0,0-.01,0,0,0-.18.02-.23.04-.07.03-.15.03-.23.05-.01,0-.05-.02-.06-.02-.05.01-.11.02-.15.01-.06-.02-.13-.02-.2,0,0,0,0,0,0,0-.09,0-.25,0-.3-.02-.05,0-.1,0-.15,0-.11-.03-.36-.04-.46-.06-.06-.02-.18-.01-.23-.05-.01,0,0,0-.02,0-.02-.02-.11-.03-.13-.04-.01,0-.03-.02-.04-.03-.01,0-.05,0-.07,0-.13-.05-.26-.09-.39-.15,0,0-.06-.02-.08-.02,0,0,0,0,0-.02,0,0-.01,0-.02,0,0,0,0,0,0,0-.14,0-.29-.1-.46-.15-.17-.05-.32-.14-.47-.23-.07-.04-.12-.1-.19-.14-.19-.11-.36-.21-.51-.34-.1-.09-.19-.17-.27-.25-.02-.02-.09-.09-.09-.1-.03,0-.07-.07-.1-.09-.09-.06-.16-.16-.24-.27-.02-.02-.05-.04-.07-.07-.01-.02-.02-.04-.03-.07-.04-.05-.09-.1-.13-.16-.02-.03-.03-.08-.05-.12-.03-.04-.07-.08-.1-.11-.06-.08-.11-.15-.16-.23-.09-.13-.14-.34-.22-.48-.04-.07-.09-.14-.12-.21-.04-.1-.07-.23-.1-.33-.04-.1-.03-.2-.06-.28,0-.04,0-.08,0-.11-.03-.13-.02-.26-.03-.37,0-.06-.01-.12-.02-.19,0-.03,0-.06,0-.09-.02-.07-.04-.17-.02-.24.01-.07.02-.15.03-.22.01-.06,0-.15.01-.2,0-.03.02-.06.01-.1-.03-.12.03-.23.06-.35,0-.03,0-.06,0-.09.05-.1.04-.2.08-.32.01-.04.04-.08.06-.12.06-.15.11-.3.19-.43,0,0,.08-.23.09-.26.03-.06.08-.11.11-.16.02-.06.05-.11.07-.17.06-.11.15-.22.22-.31.02-.02,0-.05.02-.07.03-.04.06-.07.09-.11.01-.02,0-.04.02-.06.03-.04.08-.06.1-.09.13-.18.27-.35.42-.5.08-.08.18-.13.26-.21.06-.05.11-.1.17-.16,0,0,0,0,0-.01.05-.06.07-.12.15-.16.08-.04.14-.1.21-.14.07-.04.14-.06.2-.11.03-.02.13-.04.12-.08.04,0,.16-.06.18-.09,0,0,0,0,0,0,.04-.03.14-.07.15-.11,0,0,0,0,.01.01.06-.02.12-.04.16-.07,0-.01.21-.07.24-.1,0,.01.1-.02.1-.04.02,0,.13,0,.15-.03.02,0,.08,0,.14-.01.14-.04.3-.08.45-.09,0,0,0-.01,0-.02.01,0,.03.01.05,0,.01,0,0,0,0-.02.01,0,0,0,0,0,.02,0,.12-.01.14-.03.01,0,.03,0,.04,0,.02,0,.03-.02.06-.02,0,0,0,0,0,0,.06-.02.15,0,.21-.01.09-.02.21-.03.31-.05.08-.02.17.02.23-.01.04.02.3.03.33.01.02,0,0,0,.02.02,0,0,.02,0,.03,0,.08,0,.15.02.23.03.01,0,.2,0,.24,0,.26.05.52.1.75.18.04.01.12.01.15.03.07.03.15.07.22.09.03.01.06,0,.09.03.01,0,.01,0,.02,0,.04.04.16.06.23.09.05.02.15.06.19.09.01,0,.02.02.03.03.01,0,.04.02.05.03,0,0,.01,0,.02,0,.08.07.25.13.35.19.07.04.15.09.21.14.02.02.03.03.05.05.07.04.13.11.21.16.07.04.13.09.2.14.07.05.14.14.2.21.06.06.15.1.19.17.02.03.04.07.06.09.13.11.28.29.39.45.03.04.04.09.07.13.01.02.05.04.05.05.02.02.03.09.05.11,0,0,.02,0,.03,0v.03s.03.03.04.05c0,.02.02.04.02.07.12.11.15.3.25.43,0,.02.01.04.02.07,0,0,.01,0,.02,0,0,0,.01.06.02.06,0,0,.01,0,.02,0,0,.01,0,.02,0,.03,0,.01.03.02.03.04.02.04,0,.06.03.09,0,.04.02.08.03.12.03.04.06.1.08.15.04.11.05.22.08.31-.02.04.01.11.02.16v.07c.02.11.04.24.06.34,0,.08,0,.15,0,.23.02.06.01.22.02.31,0,.06.01.17,0,.27,0,.04.01.1,0,.13h0ZM64.3,44.88c-.09-.12-.17-.16-.3-.26-.05-.04-.08-.11-.12-.14-.04-.03-.07-.06-.11-.09-.03-.02-.08-.03-.09-.06-.04-.06-.07-.11-.12-.15-.04-.02-.08-.05-.12-.07-.09-.08-.19-.16-.28-.23-.06-.04-.11-.06-.16-.12,0,0,0,0,0,0-.03,0-.07-.05-.08-.07,0-.03.02-.14.02-.18,0-.06,0-.13.01-.2.02-.07,0-.18.02-.26,0-.03,0-.05.01-.08,0-.04-.02-.09,0-.14.02-.07,0-.19.02-.24.02-.07.02-.26.01-.33-.01-.06-.03-.3-.04-.31-.05-.08-.06-.33-.06-.41.06-.04.12-.11.15-.15,0,0,.02,0,.03,0,.04-.03.07-.08.09-.1h.02s.09-.08.14-.13c.07-.06.13-.13.21-.2.11-.1.25-.2.35-.32.06-.07.16-.14.24-.19.02,0,.04-.02.06-.03.02-.03,0-.07,0-.09,0,0,0,0,.01,0,0,0,0-.01-.01-.02,0-.02,0-.02.02-.03.03-.06-.09-.33-.11-.38-.03-.06-.02-.15-.04-.21,0,0,0-.01-.01-.02,0-.03-.02-.06-.02-.09,0-.05-.07-.19-.11-.26-.03-.06-.05-.13-.08-.2-.03-.07-.1-.16-.14-.22-.03-.05-.03-.12-.06-.17-.04-.05-.09-.1-.13-.15-.06-.09-.11-.18-.18-.27-.02-.03-.07-.04-.09-.07-.02,0-.02-.02-.02-.05-.07-.05-.19-.03-.26-.04,0,0,0,0,0,0-.07.01-.19,0-.27,0-.04,0-.19,0-.19,0-.02.01-.35.04-.45.05-.09,0-.14-.02-.21,0-.1.02-.33.06-.39.04-.03.01-.13,0-.15,0-.02-.01-.03-.03-.04-.05,0,0,0,0,0,0-.08-.06-.09-.12-.16-.2-.04-.04-.08-.07-.12-.11-.06-.07-.11-.13-.18-.2-.01-.02-.03-.04-.04-.07-.09-.07-.18-.17-.25-.26-.07-.09-.23-.18-.33-.26-.04-.04-.08-.09-.13-.12-.06-.04-.12-.07-.17-.13,0,0-.06-.04-.07-.04-.07-.05-.14-.11-.2-.16-.03-.02,0-.27,0-.3v-.13c0-.11,0-.23,0-.34.02-.17,0-.38,0-.56.01-.14.05-.29.01-.43-.05,0-.1-.05-.14-.07-.06-.03-.1-.03-.16-.05-.08-.03-.15-.09-.24-.12-.11-.04-.18-.05-.29-.1-.01,0-.18-.06-.2-.07-.02.02-.26-.09-.27-.1-.05-.04-.31-.08-.33-.12,0,0-.01,0-.02,0-.03-.03-.15-.06-.18-.06,0,0,0,0,0,0-.03-.02-.28-.06-.3-.1-.03,0-.11,0-.14.03-.13.06-.22.19-.33.26-.22.15-.42.36-.58.56-.07.06-.14.13-.21.19-.02.02-.05.02-.06.03-.06.05-.13.12-.2.17-.05.03-.16,0-.24,0-.03,0-.18-.01-.23-.04,0,0-.15,0-.2,0-.01,0-.16-.02-.16-.02-.04.03-.21,0-.26,0,0,0-.14,0-.14,0-.03,0-.05-.01-.08-.02-.1.01-.21,0-.31.04-.02-.01-.18,0-.22.01-.03,0-.04.02-.07.03-.05,0-.1,0-.15,0-.14.03-.28.03-.36.03-.01,0-.02,0-.02-.03,0,0,0,0-.01,0,0,0-.16-.13-.19-.17,0,0-.05-.07-.06-.07,0,0,0,0,0,0-.05-.06-.1-.1-.15-.16,0,0-.05-.03-.05-.04,0-.04-.15-.12-.19-.17-.02-.03-.02-.04-.04-.07-.02-.01-.04-.03-.06-.04-.03-.02-.06-.06-.08-.09-.02-.03-.04-.05-.06-.08-.06-.04-.14-.11-.18-.16-.01,0-.03,0-.04-.01-.03-.02-.04-.04-.07-.05,0-.02,0-.05-.01-.07-.02,0-.03-.02-.05-.03-.06,0-.09.03-.14.05-.06.02-.1,0-.18.03-.04.01-.08.04-.14.06-.02,0-.23.06-.26.07-.01,0-.03.03-.05.03-.05,0-.13.04-.18.07,0,0,0,0,0,0-.05,0-.13.04-.17.07-.02.02-.15.04-.2.06-.06.02-.12.06-.17.1-.01,0-.17.06-.18.08-.02,0-.05,0-.07.01-.1.08-.26.11-.36.2,0,0-.08.02-.09.04,0,0-.02,0-.03,0,0,.01,0,0,0,.02-.01.01-.02.02-.04.03,0,.03.01.15-.01.19.01.01,0,.08,0,.11,0,.02,0,.04,0,.07,0,.02.03.19.03.23,0,.03,0,.05,0,.08.01.06.02.12.03.18.01.07,0,.14,0,.2,0,.03,0,.06,0,.09.02.05.03.16.03.2,0,.12.05.42-.01.51-.02.02-.06.04-.09.05-.05.03-.1.08-.15.12-.09.06-.19.16-.26.24,0,.02-.02.03-.02.05-.04.03-.11.05-.14.08v.02s-.04.02-.06.04c0,.01,0,.02-.02.03-.03.03-.07.05-.09.1,0,0-.01,0-.02,0v.02s-.03.04-.06.04c0,0,0,0,0,0-.02,0-.07.07-.1.09-.04.03-.06.08-.1.12-.05.06-.17.1-.18.18,0,0,0,0-.01,0-.04.04-.23.29-.23.33,0,0,0,0-.01,0,0,0,0,0,0,.01-.11.09-.21.02-.36.05-.07.02-.2.04-.27.03-.06,0-.12,0-.18,0-.07.01-.13,0-.18,0-.13,0-.24,0-.32,0-.12-.02-.21,0-.3,0-.04,0-.14-.02-.16,0-.06.02-.14,0-.19.03-.1.07-.13.23-.2.34-.14.21-.24.43-.35.67-.04.09-.04.17-.08.27-.03.07-.08.15-.1.22,0,.01,0,.05,0,.05-.05.06-.09.22-.11.3v.07c-.03.06-.11.15-.11.23.05.05.09.11.15.16.16.14.3.25.46.37.02.02.04.05.06.07.02.02.05.02.06.03.05.04.07.09.13.12.05.03.09.07.14.1.02.01.03,0,.05.02,0,0,0,0,0,.01.04.03.07.09.12.12.03.02.07.04.11.06.03.02.05.06.07.08.03.02.09.04.11.07.02.02,0,.11-.02.14-.02.08-.03.21-.05.32,0,.05,0,.11,0,.14,0,0,0,.01.02.02-.02.06,0,.12-.03.16,0,0,0,0,.01,0,0,.02,0,.05-.01.08,0,.03,0,.03.02.04,0,.01,0,.01-.02.02.02.04,0,.1.02.14,0,0,0,0-.01,0,0,.07.01.29.05.34-.02.02.02.25.03.29,0,0-.01,0-.02,0,0,0,0,.02.01.03,0,0,0,0-.01,0,0,.05,0,.09.03.13-.02.04,0,.15.01.2-.01,0-.17.17-.18.19-.01.02-.07.04-.06.06,0,0-.05.03-.06.03-.03.02-.04.06-.07.08-.03.02-.07.04-.1.07-.07.07-.12.16-.2.22-.08.06-.17.12-.23.19,0,0,0,0,0,0-.03,0-.16.15-.2.19-.07.06-.2.15-.23.23-.01.03.03.22.05.26h0s.04.14.05.18c0,.02.03.12.05.13,0,0,0,.01,0,.02,0,.02.03.15.04.17.02.06.09.14.07.2,0,0,.01,0,.02,0,.01.03.02.08.06.09,0,0,0,0-.01,0,0,0,0,.02,0,.03.01,0,0,0,.01,0,0,0,.08.17.08.19,0,0,0,0-.01,0,.01.02.04.04.05.05.02.05.04.12.07.17.02.03.05.04.06.07.01,0,0,0,.01,0h0s.03.06.05.09c0,0,.03.1.03.1.06.09.12.2.18.29.02.03.07.14.09.15.05.02.11,0,.18.01.1.03.28,0,.37,0,.03,0,.09.02.13,0l.02-.02s.11,0,.14-.01c.05,0,.15,0,.17,0,.07.02.2-.01.28-.02.04,0,.05,0,.08-.01.03.02.07,0,.11.01,0,0,0-.01.01-.02.04.03.08,0,.14,0,.1.02.22-.01.34,0,.06.09.13.16.2.24.03.05.07.1.1.15.05.04.09.09.14.13.06.08.13.16.2.23,0,0,0,0,.01,0,.03.04.07.06.11.09.04.03.05.08.09.1.09.06.17.13.25.18.01.02.03.04.04.05.08.05.14.12.22.17.09.07.21.11.28.2-.03.08-.02.36,0,.42-.01.03-.02.09-.02.12,0,.04.03.13.03.17,0,.02,0,.11,0,.11,0,.03,0,.06.01.09-.02.08,0,.18-.02.26-.04.19,0,.36-.02.55.02.03.05.03.09.05.02.02.04.03.06.05.04.03.09.05.12.07.02.01.05,0,.07.02.07.06.2.08.29.12.01,0,.04,0,.05,0,.14.1.36.13.51.22h0s.02.01.02.01c0,0,.03,0,.03,0,0,0,0,.02.01.02.07.05.15.02.2.07.01,0,0,0,.01,0,.03.03.09.06.14.04,0,.01,0,0-.01.02h0s.02,0,.03,0c.01,0,0,0,0,.02.07.03.15.06.22.09.01,0,.06,0,.06,0,.1.04.36.11.49.07,0,0,0-.04,0-.04.01,0,.03,0,.04,0,.03-.02.04-.05.07-.08.07-.05.11-.12.18-.17.05-.04.1-.07.15-.1.09-.06.16-.17.24-.25.02-.02.04-.02.07-.03.01-.01.02-.03.04-.04.03-.03.08-.05.11-.08.08-.08.14-.16.21-.25.05-.06.18-.15.22-.22.04-.03.18,0,.25.02.02,0,.04,0,.05,0,.02,0,.05.02.07.02.2-.03.46.03.68.02.01,0,.01,0,.02,0,0,0,.37,0,.45,0,.06-.01.13.03.18-.01.18.04.39-.06.63-.06.04.07.13.12.18.19.08.11.18.22.3.29.02.02.04.04.05.06.07.07.14.13.2.2.01.02.08.07.1.08.01,0,.02,0,.03,0,0,0,0,0,0,.01.03.04.1.1.13.13.04.04.11.07.15.12.03.05.09.11.14.14.05.03.09-.02.12-.02.02,0,.03-.02.05-.02.08-.03.17-.03.24-.06,0,0,0,0,0-.02,0,0,0,0,.01.01.04-.03.12-.05.16-.05,0,0,0-.01,0-.02.03,0,.12,0,.15-.05.01,0,.02,0,.05,0,0-.01,0,0,0-.01,0,0,0,.01.02,0,.04-.01.08-.05.12-.07.04-.02.09-.01.14-.04.11-.06.22-.08.33-.15.04-.03.15-.04.18-.06.01,0,.03-.03.04-.03.01,0,.04,0,.05,0,.04-.01.08-.04.11-.07.05-.04.19-.04.2-.1.06-.04.18-.05.22-.12.01-.03.02-.06.03-.09,0-.04,0-.11-.01-.15,0-.03,0-.06,0-.09-.06-.24,0-.53-.04-.82,0-.03,0-.05.01-.08-.01-.08-.02-.16-.03-.24.01-.04-.02-.34-.02-.35.08-.06.14-.09.21-.15,0,0,0-.02.01-.03.1-.09.23-.14.31-.25.03-.04.13-.1.14-.15,0,0,0,.01,0,.02.02,0,.04-.03.04-.04.03,0,.2-.18.23-.21,0-.01.01,0,0-.01,0-.02,0,0,.02,0,0-.01,0,0,0-.01.05-.05.11-.08.16-.14.03-.03.04-.07.08-.09,0-.01,0,0-.01,0,.04-.02.15-.11.17-.16,0,0-.01-.02,0-.03.01,0,.03,0,.04-.01.02-.01.06-.08.07-.1.02-.03.01-.07.04-.1.03-.03.11-.11.12-.14.13,0,.27,0,.37.02.1.02.24-.02.34,0,0,0,0,0,0,0,.03,0,.08,0,.1.02.01,0,.02-.02.04-.01.08.02.31.03.33.04,0,0,0-.01.01-.02.1.03.21,0,.34,0,.03,0,.06-.01.08-.02.08-.02.17-.01.2.04.05,0,.05-.05.06-.08.03,0,.07,0,.09,0,0,0,.08-.17.1-.19.08-.13.14-.27.23-.38.03-.04.08-.18.1-.19,0,0,0-.01-.01-.02.04-.04.05-.08.07-.14,0,0,0-.02,0-.03.01-.01.02-.02.03-.03.04-.07.05-.14.08-.21.02-.03.05-.07.06-.1.02-.04.04-.15.05-.18v-.02s.03-.06.04-.09v-.05c.02-.06.04-.13.06-.19.01-.03.12-.27.11-.3-.01-.04-.04-.04-.05-.06h0Z"/>
    <path class="cls-6" d="M42.45,38.45s-.02.03-.03.05c-.02.08-.09.21-.14.26-.02.02-.03.07-.05.09-.03.05-.07.1-.11.15-.11.14-.2.26-.33.38,0,.01-.02.02-.02.03,0,0-.01,0-.02.01,0,0,0,.01,0,.02-.07.06-.14.12-.2.17-.02.01-.01.03-.03.04-.01.01-.04.02-.04.02-.01,0-.04.03-.04.04-.01,0-.03.01-.04.02-.03.02-.06.05-.09.06,0,0-.02,0-.02,0-.06.04-.11.07-.17.1-.04.02-.12.03-.14.07,0,0,0,0-.01,0h0s-.18.09-.19.1c0,0,0,0,0,0h0s0,0,0,0c-.03.03-.12.05-.13.08,0,0,0,0,0,0,0,0,0,0-.02,0,0,0,0,.01-.01.02-.02.01-.14.05-.16.05,0,0,0,0,0,0-.21.09-.41.11-.66.14-.03,0-.14,0-.14,0-.02.01-.06,0-.07,0-.06,0-.12.01-.17.03-.03,0-.07-.01-.11,0,0,0-.07,0-.08,0,0,0-.11-.03-.12-.03-.01,0-.07,0-.08,0,0,0,0,0,0,0,0,0-.11-.02-.14-.01-.04,0-.09,0-.14-.01,0,0-.02-.02-.03-.02-.03,0-.07,0-.09-.02-.03-.02-.07-.04-.11-.04,0,0,0,0,0,0-.05-.01-.14-.04-.17-.06-.03,0-.06-.01-.09-.02-.06-.03-.2-.08-.25-.11-.03-.02-.1-.04-.12-.07,0,0,0,0-.01,0,0-.02-.06-.03-.07-.04,0,0-.01-.02-.02-.02,0,0-.03,0-.04-.02-.06-.05-.13-.09-.19-.15,0,0-.03-.02-.04-.03,0,0,0,0,0,0,0,0,0,0-.01,0,0,0,0,0,0,0-.08-.02-.15-.11-.23-.16-.09-.06-.15-.13-.23-.21-.03-.03-.05-.08-.08-.11-.09-.1-.16-.18-.22-.28-.04-.07-.08-.13-.11-.19,0-.01-.04-.07-.03-.08-.02,0-.03-.05-.04-.07-.04-.05-.06-.12-.08-.19,0-.02-.02-.03-.03-.05,0-.01,0-.03,0-.04-.01-.04-.03-.08-.05-.11,0-.02,0-.05,0-.08,0-.03-.03-.06-.04-.08-.02-.05-.03-.1-.05-.16-.03-.09-.01-.22-.03-.31,0-.04-.02-.09-.03-.14,0-.07,0-.14,0-.21,0-.06.02-.12.02-.17,0-.02.01-.04.02-.07,0-.08.04-.15.05-.22,0-.04.02-.07.03-.11,0-.02.01-.04.02-.05,0-.05.01-.1.03-.14.02-.04.04-.08.06-.12.02-.03.03-.08.05-.12,0-.01.02-.03.03-.05,0-.07.06-.13.1-.19,0-.02.01-.03.02-.05.05-.05.06-.11.11-.17.02-.02.04-.04.06-.06.06-.08.12-.15.19-.21,0,0,.09-.12.1-.13.03-.03.07-.05.1-.07.02-.03.05-.06.07-.08.06-.05.13-.1.18-.14.01,0,.01-.02.03-.03.02-.02.05-.03.07-.05,0,0,.01-.02.02-.03.02-.02.06-.02.08-.04.11-.08.22-.15.33-.22.06-.03.13-.05.19-.08.04-.02.08-.04.13-.06,0,0,0,0,0,0,.04-.02.06-.06.11-.07.05,0,.1-.03.15-.04.05-.01.09-.01.13-.03.02,0,.08,0,.08-.02.02,0,.1,0,.12-.02,0,0,0,0,0,0,.03-.01.09-.02.11-.04,0,0,0,0,0,0,.04,0,.07,0,.1-.01,0,0,.13,0,.16-.02,0,0,.06,0,.07,0,0,0,.08.02.09,0,.02,0,.05.02.08.02.09,0,.19,0,.27.02,0,0,0,0,0-.01,0,0,.02.01.03.01,0,0,0,0,0,0,0,0,0,0,0,0,.01,0,.07.01.09,0,0,0,.02,0,.02.01.01,0,.02,0,.04,0,0,0,0,0,0,0,.04,0,.09.03.12.03.05,0,.13.02.19.03.05,0,.09.04.14.03.02.02.17.07.19.06,0,0,0,0,0,.01,0,0,.01,0,.02,0,.04.02.08.04.12.05,0,0,.11.03.14.04.14.07.28.14.4.23.02.01.07.03.08.04.03.03.07.06.11.09.02.01.04.01.05.03,0,0,0,0,.01,0,.01.03.08.06.11.09.02.02.07.06.09.09,0,0,0,.02.01.02,0,0,.02.02.02.02,0,0,0,0,.01,0,.03.05.12.12.16.17.03.03.07.08.09.12,0,.01.01.02.02.03.04.03.05.08.09.12.03.04.06.07.09.11.03.04.05.1.08.15.02.04.06.08.08.13,0,.02,0,.04.02.06.05.08.1.21.13.32,0,.03,0,.06.02.09,0,.01.02.03.02.04,0,.01,0,.06,0,.07,0,0,.01,0,.01,0v.02s0,.03,0,.04c0,.01,0,.03,0,.04.05.08.03.2.06.29,0,.01,0,.03,0,.04,0,0,0,0,0,0,0,0,0,.03,0,.04,0,0,0,0,0,0,0,0,0,.01,0,.02,0,0,.01.02.01.03,0,.02,0,.04,0,.06,0,.02,0,.05,0,.07.01.03.01.07.02.1,0,.07-.01.14-.01.19-.02.02-.01.07-.02.1l-.02.04c0,.07-.02.15-.03.21-.01.04-.03.09-.04.13,0,.04-.04.13-.05.18,0,.04-.02.1-.05.15-.01.02-.01.06-.02.07h0ZM44.36,40.07c-.03-.08-.07-.12-.12-.2-.02-.03-.03-.07-.04-.1-.01-.02-.03-.05-.05-.07-.01-.02-.04-.03-.04-.05-.01-.04-.02-.07-.04-.11-.02-.02-.04-.04-.06-.06-.04-.06-.08-.12-.12-.18-.03-.04-.05-.05-.07-.09,0,0,0,0,0,0-.02,0-.03-.04-.03-.05,0-.02.04-.08.05-.1.01-.03.02-.08.04-.11.02-.04.04-.1.06-.14,0-.01.02-.03.02-.04,0-.02,0-.05.02-.08.02-.04.04-.11.06-.13.03-.04.06-.14.07-.19,0-.04.04-.18.04-.19-.01-.05.03-.2.05-.24.04-.01.09-.04.12-.06,0,0,.01,0,.02,0,.03,0,.05-.03.07-.04h.01s.07-.03.11-.04c.05-.02.1-.05.16-.08.08-.04.18-.07.26-.12.04-.03.12-.05.17-.07.01,0,.03,0,.04-.01.02-.01.02-.04.02-.05,0,0,0,0,0,0,0,0,0,0,0-.01,0-.01,0-.01.02-.01.03-.03.01-.2,0-.24,0-.04.02-.09.01-.13,0,0,0,0,0-.01,0-.02,0-.04,0-.05.01-.03,0-.12-.01-.17,0-.04,0-.08,0-.13,0-.05-.03-.11-.03-.15,0-.04,0-.07,0-.11-.01-.04-.03-.07-.04-.11-.02-.06-.03-.12-.05-.18,0-.02-.03-.03-.04-.05-.01,0,0-.02,0-.03-.03-.04-.11-.05-.14-.06,0,0,0,0,0,0-.04,0-.11-.03-.16-.04-.02,0-.11-.03-.11-.03-.01,0-.21-.04-.27-.05-.05-.01-.07-.03-.12-.04-.06,0-.2-.02-.23-.04-.02,0-.07-.02-.08-.03,0,0-.01-.02-.02-.03,0,0,0,0,0,0-.03-.05-.03-.09-.05-.14-.01-.03-.04-.05-.05-.08-.02-.05-.04-.09-.07-.14,0-.02,0-.03-.01-.05-.04-.06-.07-.13-.09-.19-.02-.06-.1-.14-.14-.2-.02-.03-.03-.06-.05-.09-.03-.03-.06-.06-.07-.1,0,0-.03-.03-.03-.03-.03-.04-.06-.09-.08-.13-.01-.02.05-.15.06-.17l.03-.08c.02-.07.05-.13.07-.2.04-.09.07-.22.11-.32.03-.08.08-.16.09-.25-.03-.01-.05-.05-.07-.06-.03-.02-.05-.03-.08-.06-.04-.03-.07-.08-.11-.11-.05-.04-.09-.06-.14-.11,0,0-.09-.06-.1-.08-.02,0-.13-.09-.14-.1-.02-.03-.16-.1-.17-.13,0,0,0,0-.01,0-.01-.02-.08-.06-.09-.06,0,0,0,0,0,0-.01-.02-.15-.08-.15-.11-.02,0-.06-.01-.09,0-.09.01-.16.07-.24.1-.15.05-.31.14-.44.23-.05.02-.1.05-.16.07-.02,0-.03,0-.04,0-.05.02-.1.05-.14.06-.03.01-.09-.03-.14-.04-.02,0-.1-.04-.12-.06,0,0-.09-.03-.11-.04,0,0-.09-.04-.09-.04-.03.01-.12-.03-.15-.05,0,0-.08-.02-.08-.02-.01,0-.03-.01-.04-.02-.06-.01-.12-.04-.19-.03,0,0-.1-.03-.13-.03-.02,0-.03,0-.05,0-.03,0-.06-.01-.08-.02-.09,0-.17-.03-.21-.04,0,0,0,0,0-.02,0,0,0,0,0,0,0,0-.07-.1-.08-.13,0,0-.01-.05-.02-.05,0,0,0,0,0,0-.02-.04-.04-.07-.05-.11,0,0-.02-.03-.02-.03,0-.02-.06-.09-.07-.13,0-.02,0-.03,0-.05,0-.01-.02-.02-.03-.03-.01-.02-.02-.04-.03-.06,0-.02-.01-.04-.02-.05-.03-.03-.06-.09-.07-.12,0,0-.01,0-.02-.01-.01-.01-.01-.03-.03-.04,0-.01,0-.03,0-.04,0,0-.01-.01-.02-.02-.03,0-.06,0-.09,0-.04,0-.06-.01-.11-.01-.03,0-.06,0-.09,0-.01,0-.14,0-.16,0,0,0-.02.01-.04,0-.03-.01-.08,0-.12,0,0,0,0,0,0,0-.03,0-.08,0-.11.01-.02,0-.09,0-.12,0-.04,0-.08.01-.12.03,0,0-.11,0-.12.01-.01,0-.03,0-.04,0-.07.03-.17.02-.24.05,0,0-.05,0-.06,0,0,0,0,0-.01,0,0,0,0,0,0,.01,0,0-.02,0-.03.01,0,.02-.02.09-.04.1,0,0-.01.05-.02.06,0,.01,0,.02-.01.04,0,.01-.02.11-.03.14,0,.02-.01.03-.02.05,0,.04-.01.07-.02.11,0,.04-.03.08-.04.12,0,.02-.01.03-.02.05,0,.03-.01.1-.02.12-.02.07-.05.25-.1.29-.01.01-.04.01-.06.02-.04,0-.07.03-.11.04-.06.02-.14.06-.19.09,0,0-.02.02-.02.02-.03.01-.08.01-.09.02h0s-.03.01-.04.02c0,0,0,.01-.02.02-.02.01-.05.02-.07.04,0,0,0,0-.01,0h0s-.02.03-.04.02c0,0,0,0,0,0-.01,0-.05.03-.07.03-.03.01-.05.03-.08.05-.04.03-.11.03-.14.08,0,0,0,0,0,0-.03.02-.19.13-.2.15,0,0,0,0,0,0,0,0,0,0,0,0-.08.03-.12-.02-.22-.03-.05,0-.12-.01-.16-.03-.03-.01-.07-.02-.1-.04-.04,0-.07-.02-.1-.03-.07-.02-.14-.04-.18-.06-.07-.03-.12-.03-.17-.05-.02,0-.08-.03-.09-.03-.04,0-.08-.03-.12-.02-.07.02-.12.11-.18.16-.12.1-.22.21-.33.33-.04.04-.06.09-.1.14-.03.04-.07.07-.1.11,0,0,0,.03-.01.03-.04.03-.09.11-.12.15v.04s-.11.07-.12.11c.02.04.03.08.05.12.06.1.12.2.19.29,0,.01.01.03.02.05,0,.01.02.02.03.03.02.03.03.06.05.09.02.03.04.06.06.08,0,0,.02.01.02.02,0,0,0,0,0,0,.02.03.02.06.05.09.01.02.03.03.05.05.01.01.02.04.03.06.01.02.04.04.05.06,0,.01-.03.06-.04.08-.03.04-.06.12-.09.17-.01.02-.02.07-.03.08,0,0,0,0,0,.01-.02.03-.03.07-.05.09,0,0,0,0,0,0,0,.01-.01.03-.02.04,0,.02,0,.02,0,.03,0,0,0,0-.02,0,0,.02-.02.06-.02.09,0,0,0,0,0,0-.01.04-.05.17-.04.2-.02.01-.04.15-.04.17,0,0,0,0-.01,0,0,0,0,.01,0,.02,0,0,0,0,0,0-.01.03-.01.05,0,.08-.02.02-.03.09-.03.12,0,0-.13.07-.14.08-.01,0-.05,0-.04.03,0,0-.04.01-.04,0-.02,0-.04.03-.06.03-.02,0-.05,0-.07.02-.05.03-.1.07-.16.09-.06.02-.12.04-.17.07,0,0,0,0,0,0-.02,0-.12.06-.15.07-.05.02-.14.05-.18.09-.01.02-.02.13-.02.15h0s0,.09,0,.11c0,0,0,.07,0,.08,0,0,0,0,0,.01,0,0-.01.09-.01.1,0,.04.03.09,0,.12,0,0,0,0,.01,0,0,.02,0,.05.02.06,0,0,0,0,0,0,0,0,0,.01,0,.02,0,0,0,0,0,0,0,0,.01.11.01.12,0,0,0,0,0,0,0,.01.02.03.02.04,0,.03,0,.07,0,.11,0,.02.02.03.02.05,0,0,0,0,0,0h0s0,.04.01.06c0,0,0,.06,0,.06.02.06.03.13.05.2,0,.02.01.09.02.1.02.02.07.02.1.04.05.03.16.05.21.06.02,0,.05.03.07.03h.02s.06,0,.08,0c.03,0,.08.02.1.03.04.02.11.02.16.03.03,0,.03.01.05,0,.01.02.04.02.06.03,0,0,0,0,0,0,.02.02.05.01.08.03.05.03.13.03.19.05.01.06.04.11.07.17.01.04.02.07.03.11.02.03.03.07.05.1.02.06.04.11.07.17,0,0,0,0,0,0,0,.03.03.05.04.07.02.02.02.05.03.07.04.05.07.1.11.14,0,.01,0,.03.01.04.03.04.06.09.09.14.04.05.1.1.12.16-.03.04-.08.2-.08.24-.01.01-.03.05-.03.07,0,.03,0,.08-.02.1,0,.01-.02.06-.02.06,0,.02,0,.04,0,.05-.03.04-.04.1-.06.14-.06.1-.07.21-.12.31,0,.02.02.02.04.04,0,.01.02.03.02.04.02.02.04.04.06.06.01.01.03.01.04.02.03.04.1.08.14.12,0,0,.02.01.03.01.06.08.18.14.25.21h0s0,0,.01.01c0,0,.02,0,.02,0,0,0,0,.01,0,.01.03.04.08.04.1.07,0,0,0,0,0,0,.01.02.04.05.07.05,0,0,0,0-.01,0h0s0,0,.02,0c0,0,0,0,0,.01.03.03.08.06.11.09,0,0,.04.01.04.01.05.04.18.12.27.12,0,0,.01-.02.01-.02,0,0,.02,0,.03,0,.02,0,.03-.02.06-.03.05-.02.09-.05.13-.07.03-.01.07-.02.11-.03.06-.02.13-.07.18-.1.01,0,.03,0,.05,0,0,0,.02-.01.03-.02.02-.01.06-.01.08-.03.06-.03.11-.07.17-.11.04-.03.13-.06.17-.09.03,0,.1.03.14.05.01,0,.02,0,.03,0,0,0,.02.02.03.02.12.02.26.09.38.13,0,0,0,0,.01,0,0,0,.21.07.26.07.04,0,.07.04.1.02.1.05.24.03.37.07.01.05.05.09.07.14.02.08.06.16.11.22,0,.02.01.03.02.05.02.05.05.1.07.15,0,.01.03.06.04.06,0,0,.01,0,.02,0,0,0,0,0,0,0,0,.03.04.07.05.1.02.03.05.06.06.09.01.03.03.08.06.1.02.02.05,0,.08.01.01,0,.02,0,.03,0,.05,0,.1.01.15,0,0,0,0,0,0,0,0,0,0,0,0,0,.03,0,.08,0,.1,0,0,0,0,0,0,0,.02,0,.07.02.09,0,0,0,.01,0,.03,0,0,0,0,0,0,0,0,0,0,0,.01,0,.02,0,.05-.01.08-.02.03,0,.06,0,.09,0,.07-.02.14-.01.22-.03.03,0,.09,0,.12,0,0,0,.02-.01.03-.01,0,0,.03,0,.03,0,.03,0,.06-.01.08-.02.04-.01.12,0,.13-.02.04-.01.11,0,.15-.03.01-.02.02-.03.03-.05,0-.03.02-.07.02-.09,0-.02.01-.03.02-.05.01-.14.1-.3.13-.47,0-.01.02-.03.02-.04,0-.05.02-.1.03-.14.02-.02.05-.2.05-.2.06-.02.1-.03.15-.05,0,0,0,0,.01-.01.08-.03.16-.04.23-.09.03-.02.1-.03.11-.06,0,0,0,0,0,0,.02,0,.03,0,.03-.02.02,0,.15-.07.17-.08,0,0,0,0,0,0,0,0,0,0,.01,0,0,0,0,0,0,0,.04-.02.08-.03.12-.05.02-.01.04-.03.06-.04,0,0,0,0,0,0,.03,0,.11-.04.13-.06,0,0,0-.01,0-.02,0,0,.02,0,.03,0,.01,0,.05-.03.06-.05.01-.01.02-.04.04-.05.02-.01.08-.04.09-.06.07.03.15.05.21.07.06.03.14.03.19.06,0,0,0,0,0,0,.02.01.04.02.05.03,0,0,.02,0,.03,0,.04.03.17.07.18.08,0,0,0,0,.01,0,.05.04.12.03.19.06.02,0,.03,0,.05,0,.05,0,.1.02.11.06.03,0,.04-.02.05-.03.02,0,.04.01.06.01,0,0,.08-.08.09-.09.07-.06.14-.13.2-.18.02-.02.08-.09.1-.09,0,0,0,0,0-.01.03-.02.05-.04.07-.07,0,0,0-.01,0-.02,0,0,.02,0,.03-.01.03-.03.05-.07.09-.11.01-.01.04-.03.05-.05.02-.02.05-.08.06-.09h0s.03-.04.05-.06v-.03s.06-.07.08-.1c.01-.01.12-.14.12-.15,0-.02-.01-.03-.02-.04h0Z"/>
    <path class="cls-2" d="M31.6,26.59s-.02.07-.02.1c0,.16-.04.44-.09.56-.02.04-.02.14-.03.19-.03.11-.07.22-.12.34-.12.32-.22.6-.39.89,0,.02-.02.05-.02.07-.01.01-.02.02-.03.03,0,.01,0,.03,0,.04-.09.14-.2.3-.28.43-.03.04,0,.05-.02.09-.02.03-.06.05-.07.06-.02.02-.05.07-.06.09-.02.02-.05.04-.07.06-.04.06-.08.12-.13.16,0,0-.04.01-.04.01-.09.11-.16.19-.25.29-.06.06-.2.12-.21.2,0,0,0,0-.02,0v.02s-.29.26-.3.27c0,0,0,0-.01,0h0s0-.01,0-.01c-.03.08-.19.15-.2.22,0,0,0-.01,0-.02-.01.01-.01.01-.03.01,0,.01,0,.02-.01.04-.04.04-.24.17-.28.17,0,0,0,0,0,0-.34.29-.7.43-1.15.63-.06.02-.27.07-.27.07-.02.03-.1.03-.14.05-.1.05-.21.09-.29.15-.05.03-.14.02-.2.04.02,0-.12.04-.14.04,0,0-.23.01-.25.02-.02,0-.13.05-.16.04,0,0,0,0-.02,0,0,0-.21.03-.27.05-.08.03-.18.04-.27.06-.02,0-.06-.02-.08-.02-.05.02-.13.03-.18.01-.08-.02-.15-.03-.24-.01,0,0,0,0,0-.01-.11,0-.29,0-.36-.02-.06,0-.12,0-.18.01-.12-.03-.42-.04-.54-.07-.08-.02-.21-.01-.27-.06-.02,0,0,0-.02.01-.02-.03-.13-.03-.16-.04-.02-.01-.03-.02-.05-.03-.01,0-.06,0-.09,0-.15-.06-.31-.1-.46-.18,0,0-.08-.03-.1-.03,0-.01,0,0,0-.02,0,0-.02,0-.02,0,0,0,0,0,0-.01-.16,0-.34-.12-.54-.18-.2-.06-.37-.17-.56-.27-.08-.04-.14-.12-.22-.16-.23-.13-.42-.25-.6-.4-.12-.11-.22-.19-.32-.3-.02-.02-.11-.1-.11-.12-.04,0-.08-.09-.12-.11-.11-.07-.19-.19-.28-.32-.03-.03-.05-.05-.08-.08-.01-.03-.02-.05-.04-.08-.05-.06-.11-.12-.16-.19-.03-.03-.03-.09-.06-.14-.03-.05-.09-.09-.12-.13-.07-.09-.12-.18-.19-.27-.1-.15-.16-.4-.26-.57-.04-.08-.1-.16-.14-.24-.05-.12-.08-.27-.12-.39-.04-.11-.03-.23-.07-.33,0-.04,0-.09,0-.13-.04-.15-.02-.31-.04-.44,0-.07-.01-.15-.02-.22,0-.04,0-.07,0-.11-.03-.09-.04-.2-.03-.29.01-.09.03-.17.04-.26.01-.07,0-.17.01-.24,0-.03.03-.07.02-.11-.03-.14.04-.27.07-.42,0-.03,0-.07,0-.1.05-.12.05-.24.1-.37.02-.05.05-.09.07-.14.07-.18.13-.35.22-.5,0-.01.09-.27.1-.3.03-.07.1-.12.14-.19.03-.07.06-.13.09-.2.07-.13.17-.26.25-.37.02-.03,0-.05.03-.08.03-.04.07-.08.1-.13.01-.02.01-.04.03-.07.03-.04.09-.07.12-.11.16-.21.32-.41.49-.59.09-.1.21-.15.3-.24.07-.06.13-.12.2-.19-.01,0,0-.01,0-.01.06-.07.08-.14.17-.19.1-.05.16-.11.25-.16.08-.04.16-.08.23-.13.03-.02.15-.05.14-.09.04,0,.19-.07.21-.1,0,0,0,0,0,.01.04-.03.17-.08.18-.13,0,0,.01,0,.02.01.07-.03.14-.04.19-.08,0-.01.25-.08.28-.12,0,.02.12-.03.12-.04.02,0,.15,0,.18-.04.03,0,.1,0,.17-.01.16-.05.36-.09.53-.11,0,0,0-.01,0-.02.02,0,.04.01.06,0,.01,0,.01,0,0-.02.01,0,0,0,0,.01.03,0,.14-.01.17-.03.02,0,.03,0,.05,0,.03,0,.04-.02.08-.03,0,0,0,0,0,.01.07-.02.18,0,.25-.01.1-.03.25-.03.37-.06.1-.02.2.02.27-.01.04.03.36.03.39.01.02,0,.01.01.02.02.01,0,.02,0,.03,0,.09.01.18.02.27.03.02,0,.23,0,.28,0,.31.06.61.11.89.21.05.02.15.01.18.03.08.04.18.08.26.11.04.01.08,0,.11.04.02,0,.01,0,.02-.01.04.05.19.07.27.1.06.02.17.07.22.11.01.01.02.03.04.04.02,0,.04.02.06.03,0,0,.01,0,.02,0,.09.09.29.15.41.22.08.05.18.11.25.17.02.02.04.04.06.06.09.04.15.13.24.19.08.05.16.11.23.16.08.06.17.17.24.24.06.07.17.12.23.2.02.03.04.08.07.1.15.13.33.34.45.53.03.05.05.11.08.15.01.02.06.04.06.06.02.03.03.11.06.13.01,0,.03,0,.03,0v.03s.04.04.05.06c0,.03.02.05.03.08.14.13.17.36.29.51,0,.03.01.05.02.08,0,0,.01,0,.02,0,0,0,.01.07.02.07,0,0,.01,0,.02,0,0,.01,0,.02,0,.04,0,.01.03.03.04.04.02.04,0,.07.04.11.01.05.02.1.03.14.04.05.07.12.09.18.05.12.06.26.1.36-.02.05.02.13.03.19v.08c.02.13.05.29.07.4,0,.09,0,.18,0,.27.03.07.01.26.03.36,0,.07.02.2,0,.32,0,.04.01.12,0,.15h0ZM36.2,28.57c-.11-.14-.21-.19-.35-.3-.06-.05-.09-.13-.14-.17-.04-.04-.09-.07-.13-.11-.03-.03-.09-.04-.11-.07-.04-.07-.09-.12-.15-.17-.05-.03-.1-.06-.14-.09-.11-.09-.22-.19-.33-.27-.07-.05-.13-.07-.19-.14,0-.01,0,0,0-.01-.04,0-.09-.06-.1-.09-.01-.04.02-.16.03-.22,0-.07-.01-.15.01-.23.02-.08,0-.21.03-.3,0-.03.01-.06.02-.1,0-.05-.02-.11,0-.16.02-.08,0-.22.02-.28.03-.08.03-.3.01-.39-.01-.08-.04-.35-.05-.37-.05-.09-.07-.39-.07-.48.07-.04.14-.12.18-.18.01,0,.02,0,.03,0,.04-.03.08-.09.1-.12h.02c.06-.05.11-.1.17-.15.08-.07.16-.16.24-.23.14-.11.29-.23.41-.37.07-.08.19-.17.28-.22.02-.01.05-.02.07-.04.03-.03.01-.08,0-.11,0,0,0,0,.01,0,0,0-.01-.01-.02-.02,0-.02,0-.02.02-.03.04-.07-.11-.39-.14-.45-.03-.07-.02-.18-.05-.24,0,0-.01-.01-.02-.02,0-.03-.02-.07-.03-.1,0-.06-.09-.23-.13-.3-.04-.07-.05-.15-.09-.23-.04-.09-.11-.18-.16-.26-.04-.06-.04-.14-.08-.2-.04-.06-.11-.12-.15-.18-.07-.11-.13-.22-.21-.32-.03-.04-.09-.04-.11-.08-.03,0-.03-.02-.03-.06-.09-.06-.23-.03-.3-.04,0,0,0,0,0,.01-.08.01-.22,0-.32.01-.05,0-.22,0-.22,0-.02.01-.41.05-.53.06-.11,0-.16-.02-.24,0-.12.02-.39.07-.45.04-.03.02-.15,0-.17,0-.02-.01-.04-.03-.05-.06,0,0,0,0,0-.01-.09-.07-.1-.15-.18-.23-.05-.05-.1-.08-.14-.13-.07-.08-.13-.15-.21-.23-.02-.03-.03-.05-.05-.08-.11-.08-.21-.2-.29-.3-.08-.1-.28-.21-.39-.3-.05-.04-.09-.1-.15-.14-.07-.05-.14-.08-.2-.15,0,.01-.07-.04-.08-.05-.08-.06-.16-.13-.24-.19-.03-.02,0-.32,0-.35v-.16c0-.13,0-.27,0-.4.02-.2-.01-.45,0-.66.01-.16.05-.34.01-.51-.06,0-.11-.06-.16-.09-.07-.03-.12-.03-.18-.06-.09-.04-.18-.1-.28-.14-.13-.05-.21-.06-.34-.12-.02,0-.21-.07-.24-.09-.02.02-.3-.1-.32-.11-.06-.05-.37-.09-.39-.14,0,0-.02,0-.02.01-.04-.03-.18-.07-.21-.07,0,0,0,0,0,0-.04-.03-.33-.07-.35-.11-.04,0-.13.01-.17.03-.15.08-.26.22-.39.31-.26.18-.5.43-.68.66-.08.07-.16.15-.25.22-.03.02-.06.03-.08.04-.07.06-.16.14-.23.2-.05.04-.19-.01-.29,0-.03,0-.21-.01-.27-.04,0,0-.18,0-.24,0-.02,0-.19-.03-.19-.03-.05.04-.24,0-.31,0,0,0-.16.01-.16.01-.03,0-.06-.01-.09-.02-.12.01-.25,0-.37.04-.02-.01-.21,0-.25.01-.03,0-.05.03-.08.04-.06,0-.11,0-.17,0-.17.04-.33.04-.43.04-.02,0-.02-.01-.02-.03,0,0-.01,0-.02.01,0-.01-.19-.15-.23-.2,0,0-.06-.09-.08-.08,0,.01,0,0,0,0-.05-.07-.12-.12-.18-.19,0,0-.06-.04-.06-.05,0-.05-.17-.14-.22-.2-.02-.03-.03-.05-.04-.08-.02-.01-.05-.03-.07-.04-.04-.03-.07-.07-.1-.1-.02-.03-.05-.06-.07-.09-.07-.05-.16-.13-.21-.19-.02,0-.03,0-.05-.01-.03-.02-.04-.05-.08-.06,0-.03-.01-.05-.02-.08-.02,0-.04-.02-.06-.03-.07,0-.11.04-.16.06-.07.02-.12,0-.21.03-.05.02-.1.05-.16.07-.03,0-.27.07-.31.09-.02,0-.04.03-.06.03-.06,0-.15.04-.21.08,0,0,0,0,0,0-.06,0-.15.05-.2.09-.03.02-.18.05-.23.07-.07.02-.15.07-.2.11-.01-.01-.19.08-.21.09-.03,0-.06,0-.08.01-.12.1-.3.13-.42.23,0,0-.09.03-.11.05-.01,0-.02,0-.03-.01,0,.02,0,.01,0,.03-.01.01-.03.02-.04.04.01.04.01.18-.01.22.02.01,0,.1,0,.13,0,.03,0,.05,0,.08,0,.02.04.22.03.27,0,.03,0,.06,0,.1.01.07.02.14.04.21.02.08,0,.17,0,.24,0,.03,0,.07,0,.1.02.05.04.19.04.23,0,.14.06.49-.01.6-.02.03-.07.04-.1.06-.06.04-.11.1-.18.14-.11.07-.23.18-.31.28,0,.02-.02.04-.03.06-.05.04-.13.06-.16.09v.02s-.05.03-.07.04c-.01.01,0,.03-.02.04-.04.04-.09.06-.11.11,0,0-.02,0-.02,0v.02s-.03.05-.07.05c0,0,0,0,0,.01-.03,0-.08.08-.12.1-.04.03-.07.09-.12.14-.06.07-.2.12-.21.22,0,0-.01,0-.02,0-.04.05-.27.34-.27.39,0,0,0,0-.01,0,0,0,0,0,0,.01-.13.11-.25.02-.43.06-.09.02-.24.04-.31.03-.07,0-.14,0-.21-.01-.08.02-.15,0-.21,0-.15.01-.29,0-.38,0-.14-.02-.25,0-.35,0-.05,0-.16-.02-.19-.01-.07.03-.17,0-.23.03-.12.08-.15.28-.23.4-.16.25-.28.51-.41.79-.05.11-.05.2-.1.32-.03.09-.09.18-.12.26,0,.02,0,.05,0,.06-.05.07-.1.26-.13.36v.09c-.03.08-.13.18-.13.27.06.06.11.13.17.19.18.16.35.3.55.44.03.02.05.06.07.08.02.02.06.02.08.04.06.05.09.11.16.14.06.03.1.09.16.12.02.01.04,0,.06.02,0,0,0,.01,0,.01.05.04.09.1.14.14.04.02.09.04.13.07.04.02.05.07.09.09.04.02.11.04.13.08.02.02,0,.13-.02.17-.03.1-.04.25-.06.38-.01.05.01.13,0,.17,0,.01,0,.01.02.02-.02.07,0,.14-.04.19,0,0,.01,0,.02.01,0,.03,0,.06-.01.09,0,.04,0,.04.03.05,0,.01,0,.02-.02.03.02.04,0,.12.02.17,0,0-.01,0-.02.01,0,.08.02.34.06.4-.03.03.02.3.04.34,0,0-.02,0-.02,0,0,0,.01.02.02.03,0,0,0,0-.01,0,0,.06.01.1.03.16-.02.05,0,.18.01.23-.02,0-.2.2-.21.23-.02.02-.08.04-.07.07,0,0-.06.04-.08.04-.03.03-.05.07-.09.1-.04.03-.08.05-.12.08-.08.08-.14.19-.23.26-.1.07-.21.14-.27.22,0,0,0,0,0,0-.04,0-.19.18-.23.22-.08.07-.23.18-.27.27-.02.04.04.26.06.3h0s.05.16.06.21c-.01.02.04.14.06.15,0,0,0,.02,0,.03,0,.02.04.17.04.2.03.08.11.16.08.23,0,0,.02,0,.02,0,.02.04.02.09.07.11,0,0-.01,0-.02,0,0,0,0,.02,0,.03.01,0,0,0,.02,0,0,0,.09.2.1.22,0,0,0,0-.01,0,.01.02.05.05.06.06.02.05.04.14.08.2.02.03.05.05.07.09.01,0,0,0,.02,0h0s.04.07.06.1c0,0,.04.11.04.12.07.11.15.23.21.34.02.03.08.16.11.17.06.03.14,0,.21.01.12.04.33,0,.43-.01.03,0,.11.02.15.01l.02-.02s.13,0,.16-.01c.05-.01.17,0,.2,0,.09.02.23-.02.33-.03.05,0,.06,0,.1-.01.04.02.08.01.13.01,0,0,0-.01.01-.02.05.04.1,0,.16,0,.12.02.26-.01.4,0,.07.11.15.19.23.28.04.06.08.12.12.18.05.05.11.1.16.16.08.09.15.19.24.27.01,0,0,0,.01,0,.03.04.08.07.13.1.04.03.06.09.11.12.1.07.2.15.3.21.02.02.03.04.05.06.09.06.17.14.26.2.11.08.25.13.33.23-.03.1-.03.42,0,.49-.02.03-.03.11-.02.14.01.05.04.16.03.2,0,.02,0,.13,0,.13,0,.04.01.07.02.11-.02.09,0,.21-.02.3-.04.23-.01.43-.02.65.03.04.06.03.1.06.02.02.05.04.07.06.04.03.1.06.15.08.03.01.06,0,.08.02.09.07.23.1.34.14.02,0,.05,0,.06.01.17.12.43.16.6.26h0s.02.01.03.01c0,0,.03-.01.03-.01.01,0,0,.02.02.03.08.06.17.03.23.09.02,0,0,0,.02-.01.04.04.11.07.17.05,0,.02,0,.01-.02.02h0s.02,0,.03,0c.01.01,0,0,0,.02.08.04.18.07.26.1.01,0,.08,0,.08,0,.12.05.42.13.58.08,0,0,0-.05,0-.05.02,0,.03,0,.05-.01.04-.02.04-.06.09-.09.08-.06.13-.14.21-.2.05-.05.11-.08.18-.12.1-.07.19-.2.28-.29.02-.02.05-.02.08-.04.01-.02.03-.03.04-.05.04-.03.09-.06.13-.09.09-.09.17-.19.25-.29.06-.08.22-.18.25-.26.05-.03.21,0,.29.02.02,0,.05,0,.06,0,.02,0,.06.03.08.03.24-.03.54.03.8.03.02,0,.01,0,.02-.01,0,0,.44,0,.53,0,.07-.01.15.04.21-.01.21.04.46-.07.74-.07.05.08.15.14.21.22.09.13.21.26.35.34.02.02.04.05.06.07.08.08.16.15.23.24.01.02.1.08.12.1.01,0,.02,0,.04,0,0,0,0,0,0,.01.03.04.11.12.16.16.05.05.14.08.18.14.04.05.11.13.17.16.06.03.1-.02.15-.02.03,0,.04-.02.06-.03.1-.03.2-.04.28-.07,0,0,0,0,0-.02,0,0,0,0,.01.01.04-.03.14-.06.19-.06,0,0,0-.01,0-.02.04,0,.14,0,.17-.06.01,0,.03,0,.06,0,0-.02,0,0,0-.01,0,0,0,.01.03,0,.04-.01.09-.05.14-.08.05-.02.11-.02.16-.04.13-.07.26-.1.39-.17.05-.03.17-.05.21-.07.02,0,.04-.04.05-.04.01,0,.05,0,.06,0,.05-.01.1-.05.14-.08.06-.04.22-.05.23-.11.07-.05.21-.06.26-.14.01-.04.02-.07.04-.11,0-.05,0-.13-.02-.18,0-.03,0-.07,0-.1-.07-.28,0-.63-.05-.96,0-.03.01-.06.02-.09-.01-.1-.03-.19-.04-.29.02-.04-.02-.4-.03-.41.1-.07.16-.11.24-.17,0,0,0-.02.01-.03.12-.1.27-.17.37-.29.04-.05.16-.12.16-.18,0,0,0,.01,0,.02.03,0,.05-.03.04-.05.03,0,.24-.21.27-.25,0-.01.01,0,0-.01,0-.02,0-.01.02,0,0-.01,0,0,0-.01.06-.06.13-.1.19-.16.03-.03.05-.08.09-.1,0-.01,0,0-.01-.01.05-.03.17-.14.19-.19,0-.01-.01-.02,0-.04.02,0,.03,0,.05-.01.02-.02.07-.09.09-.12.02-.03.02-.08.05-.11.03-.03.12-.12.14-.17.15.01.32,0,.44.03.12.02.28-.03.4,0,0,0,0,0,0-.01.04.01.09,0,.12.02.01,0,.03-.02.05-.01.1.02.36.03.39.05,0,0,.01-.01.02-.02.12.04.25,0,.4.01.03,0,.07-.01.1-.02.09-.02.2-.01.23.05.06,0,.06-.06.08-.09.04-.01.08,0,.11-.01,0,0,.1-.2.12-.23.1-.16.17-.32.27-.45.03-.05.1-.21.12-.23,0,0-.01-.01-.02-.02.04-.04.06-.09.08-.17,0,0,0-.02,0-.03.01-.01.03-.02.04-.04.04-.08.05-.17.1-.25.02-.04.05-.08.07-.12.02-.05.05-.17.06-.21v-.02s.04-.07.05-.11v-.06c.02-.08.05-.15.07-.23.01-.03.14-.32.13-.36-.01-.04-.05-.05-.06-.07h0Z"/>
    <path class="cls-5" d="M30.94,40.5s0,.02,0,.03c0,.04,0,.12-.03.15,0,.01,0,.04,0,.05,0,.03-.02.06-.03.09-.03.09-.06.16-.11.24,0,0,0,.01,0,.02,0,0,0,0,0,0,0,0,0,0,0,.01-.03.04-.05.08-.08.12,0,.01,0,.01,0,.02,0,0-.02.01-.02.02,0,0-.01.02-.02.03,0,0-.01.01-.02.02-.01.02-.02.03-.03.04,0,0-.01,0-.01,0-.02.03-.04.05-.07.08-.02.02-.05.03-.06.05,0,0,0,0,0,0h0s-.08.08-.08.08c0,0,0,0,0,0h0s0,0,0,0c0,.02-.05.04-.06.06,0,0,0,0,0,0,0,0,0,0,0,0,0,0,0,0,0,.01,0,.01-.07.05-.08.05,0,0,0,0,0,0-.09.08-.19.12-.32.17-.02,0-.07.02-.07.02,0,0-.03,0-.04.01-.03.01-.06.02-.08.04-.01,0-.04,0-.06.01,0,0-.03.01-.04.01,0,0-.06,0-.07,0,0,0-.04.01-.04.01,0,0,0,0,0,0,0,0-.06,0-.07.01-.02,0-.05.01-.07.02,0,0-.02,0-.02,0-.01,0-.04,0-.05,0-.02,0-.04,0-.07,0,0,0,0,0,0,0-.03,0-.08,0-.1,0-.02,0-.03,0-.05,0-.03,0-.12-.01-.15-.02-.02,0-.06,0-.07-.02,0,0,0,0,0,0,0,0-.03,0-.04-.01,0,0,0,0-.01,0,0,0-.02,0-.02,0-.04-.02-.08-.03-.13-.05,0,0-.02,0-.03,0,0,0,0,0,0,0,0,0,0,0,0,0,0,0,0,0,0,0-.04,0-.09-.03-.15-.05-.05-.02-.1-.05-.15-.07-.02-.01-.04-.03-.06-.04-.06-.04-.12-.07-.16-.11-.03-.03-.06-.05-.09-.08,0,0-.03-.03-.03-.03-.01,0-.02-.02-.03-.03-.03-.02-.05-.05-.08-.09,0,0-.01-.01-.02-.02,0,0,0-.01,0-.02-.01-.02-.03-.03-.04-.05,0,0,0-.03-.02-.04,0-.01-.02-.02-.03-.04-.02-.02-.03-.05-.05-.08-.03-.04-.04-.11-.07-.16-.01-.02-.03-.04-.04-.07-.01-.03-.02-.07-.03-.11-.01-.03,0-.06-.02-.09,0-.01,0-.02,0-.04-.01-.04,0-.09-.01-.12,0-.02,0-.04,0-.06,0-.01,0-.02,0-.03,0-.02-.01-.05,0-.08,0-.02,0-.05.01-.07,0-.02,0-.05,0-.07,0,0,0-.02,0-.03,0-.04,0-.08.02-.11,0,0,0-.02,0-.03.01-.03.01-.07.03-.1,0-.01.01-.03.02-.04.02-.05.04-.1.06-.14,0,0,.02-.08.03-.08,0-.02.03-.03.04-.05,0-.02.02-.04.02-.05.02-.03.05-.07.07-.1,0,0,0-.01,0-.02,0-.01.02-.02.03-.03,0,0,0-.01,0-.02,0-.01.02-.02.03-.03.04-.06.09-.11.13-.16.02-.03.06-.04.08-.07.02-.02.04-.03.05-.05,0,0,0,0,0,0,.02-.02.02-.04.05-.05.03-.01.04-.03.07-.04.02-.01.04-.02.06-.03,0,0,.04-.01.04-.02.01,0,.05-.02.06-.03,0,0,0,0,0,0,.01,0,.05-.02.05-.03,0,0,0,0,0,0,.02,0,.04-.01.05-.02,0,0,.07-.02.08-.03,0,0,.03,0,.03-.01,0,0,.04,0,.05-.01,0,0,.03,0,.05,0,.04-.01.1-.02.14-.03,0,0,0,0,0,0,0,0,.01,0,.02,0,0,0,0,0,0,0,0,0,0,0,0,0,0,0,.04,0,.05,0,0,0,0,0,.01,0,0,0,.01,0,.02,0,0,0,0,0,0,0,.02,0,.05,0,.07,0,.03,0,.07,0,.1-.02.03,0,.05,0,.08,0,.01,0,.1,0,.11,0,0,0,0,0,0,0,0,0,0,0,0,0,.02,0,.05,0,.07,0,0,0,.06,0,.08,0,.08.02.17.03.24.06.01,0,.04,0,.05,0,.02,0,.05.02.07.03.01,0,.02,0,.03.01,0,0,0,0,0,0,.01.01.05.02.07.03.02,0,.05.02.06.03,0,0,0,0,0,.01,0,0,.01,0,.02,0,0,0,0,0,0,0,.02.02.08.04.11.06.02.01.05.03.07.05,0,0,.01.01.02.02.02.01.04.04.07.05.02.01.04.03.06.04.02.02.05.05.07.07.02.02.05.03.06.05,0,0,.01.02.02.03.04.04.09.09.12.14,0,.01.01.03.02.04,0,0,.02.01.02.02,0,0,0,.03.02.03,0,0,0,0,0,0h0s.01.02.01.03c0,0,0,.01,0,.02.04.04.05.1.08.14,0,0,0,.01,0,.02,0,0,0,0,0,0,0,0,0,.02,0,.02,0,0,0,0,0,0,0,0,0,0,0,.01,0,0,0,0,.01.01,0,.01,0,.02,0,.03,0,.01,0,.03,0,.04.01.01.02.03.03.05.01.03.02.07.03.1,0,.01,0,.04,0,.05v.02s.01.08.02.11c0,.02,0,.05,0,.07,0,.02,0,.07,0,.1,0,.02,0,.06,0,.09,0,.01,0,.03,0,.04h0ZM32.2,41.05s-.06-.05-.1-.08c-.02-.01-.03-.03-.04-.05-.01-.01-.02-.02-.04-.03,0,0-.02-.01-.03-.02-.01-.02-.02-.03-.04-.05-.01,0-.03-.02-.04-.02-.03-.02-.06-.05-.09-.08-.02-.01-.04-.02-.05-.04,0,0,0,0,0,0-.01,0-.02-.02-.03-.02,0,0,0-.04,0-.06,0-.02,0-.04,0-.06,0-.02,0-.06,0-.08,0,0,0-.02,0-.03,0-.01,0-.03,0-.04,0-.02,0-.06,0-.08,0-.02,0-.08,0-.11,0-.02-.01-.1-.01-.1-.01-.03-.02-.11-.02-.13.02-.01.04-.03.05-.05,0,0,0,0,0,0,.01,0,.02-.02.03-.03h0s.03-.03.05-.04c.02-.02.04-.04.07-.06.04-.03.08-.06.11-.1.02-.02.05-.05.08-.06,0,0,.01,0,.02-.01,0,0,0-.02,0-.03,0,0,0,0,0,0,0,0,0,0,0,0,0,0,0,0,0,0,0-.02-.03-.11-.04-.12,0-.02,0-.05-.01-.07,0,0,0,0,0,0,0,0,0-.02,0-.03,0-.02-.02-.06-.04-.08-.01-.02-.01-.04-.03-.06-.01-.02-.03-.05-.04-.07-.01-.02,0-.04-.02-.05-.01-.02-.03-.03-.04-.05-.02-.03-.04-.06-.06-.09,0,0-.02-.01-.03-.02,0,0,0,0,0-.02-.02-.02-.06,0-.08-.01,0,0,0,0,0,0-.02,0-.06,0-.09,0-.01,0-.06,0-.06,0,0,0-.11.01-.14.02-.03,0-.04,0-.07,0-.03,0-.11.02-.12.01,0,0-.04,0-.05,0,0,0-.01,0-.01-.02,0,0,0,0,0,0-.02-.02-.03-.04-.05-.06-.01-.01-.03-.02-.04-.03-.02-.02-.04-.04-.06-.06,0,0,0-.01-.01-.02-.03-.02-.06-.05-.08-.08-.02-.03-.08-.06-.11-.08-.01-.01-.03-.03-.04-.04-.02-.01-.04-.02-.05-.04,0,0-.02-.01-.02-.01-.02-.02-.04-.04-.07-.05,0,0,0-.09,0-.1v-.04s0-.07,0-.11c0-.05,0-.12,0-.18,0-.04.01-.09,0-.14-.02,0-.03-.02-.04-.02-.02,0-.03,0-.05-.02-.02-.01-.05-.03-.08-.04-.04-.01-.06-.02-.09-.03,0,0-.06-.02-.07-.02,0,0-.08-.03-.09-.03-.02-.01-.1-.02-.11-.04,0,0,0,0,0,0-.01,0-.05-.02-.06-.02,0,0,0,0,0,0,0,0-.09-.02-.1-.03-.01,0-.04,0-.05,0-.04.02-.07.06-.11.09-.07.05-.14.12-.19.18-.02.02-.04.04-.07.06,0,0-.02,0-.02.01-.02.02-.04.04-.06.05-.01.01-.05,0-.08,0,0,0-.06,0-.07-.01,0,0-.05,0-.07,0,0,0-.05,0-.05,0-.01,0-.07,0-.08,0,0,0-.04,0-.04,0,0,0-.02,0-.03,0-.03,0-.07,0-.1.01,0,0-.06,0-.07,0,0,0-.01,0-.02.01-.02,0-.03,0-.05,0-.05.01-.09.01-.12.01,0,0,0,0,0,0,0,0,0,0,0,0,0,0-.05-.04-.06-.05,0,0-.02-.02-.02-.02,0,0,0,0,0,0-.01-.02-.03-.03-.05-.05,0,0-.02-.01-.02-.01,0-.01-.05-.04-.06-.06,0,0,0-.01-.01-.02,0,0-.01,0-.02-.01,0,0-.02-.02-.03-.03,0,0-.01-.02-.02-.02-.02-.01-.04-.04-.06-.05,0,0,0,0-.01,0,0,0-.01-.01-.02-.02,0,0,0-.01,0-.02,0,0-.01,0-.02,0-.02,0-.03.01-.04.02-.02,0-.03,0-.06,0-.01,0-.03.01-.04.02,0,0-.07.02-.08.02,0,0,0,0-.02,0-.02,0-.04.01-.06.02,0,0,0,0,0,0-.02,0-.04.01-.05.02,0,0-.05.01-.06.02-.02,0-.04.02-.05.03,0,0-.05.02-.06.02,0,0-.02,0-.02,0-.03.03-.08.04-.12.06,0,0-.02,0-.03.01,0,0,0,0,0,0,0,0,0,0,0,0,0,0,0,0-.01.01,0,0,0,.05,0,.06,0,0,0,.03,0,.03,0,0,0,.01,0,.02,0,0,0,.06,0,.07,0,0,0,.02,0,.03,0,.02,0,.04,0,.06,0,.02,0,.05,0,.07,0,0,0,.02,0,.03,0,.01.01.05.01.06,0,.04.02.13,0,.17,0,0-.02.01-.03.02-.02.01-.03.03-.05.04-.03.02-.06.05-.08.08,0,0,0,.01,0,.02-.01,0-.04.02-.04.02h0s-.01.01-.02.02c0,0,0,0,0,.01,0,.01-.02.02-.03.03,0,0,0,0,0,0h0s0,.02-.02.02c0,0,0,0,0,0,0,0-.02.02-.03.03-.01,0-.02.02-.03.04-.02.02-.05.03-.06.06,0,0,0,0,0,0-.01.01-.07.09-.08.11,0,0,0,0,0,0,0,0,0,0,0,0-.03.03-.07,0-.12.02-.02,0-.07.01-.09,0-.02,0-.04,0-.06,0-.02,0-.04,0-.06,0-.04,0-.08,0-.1,0-.04,0-.07,0-.1,0-.01,0-.04,0-.05,0-.02,0-.05,0-.06,0-.03.02-.04.08-.06.11-.04.07-.08.14-.11.22-.01.03-.01.06-.03.09,0,.02-.02.05-.03.07,0,0,0,.01,0,.02-.01.02-.03.07-.04.1v.02s-.04.05-.03.07c.02.02.03.04.05.05.05.04.1.08.15.12,0,0,.01.02.02.02,0,0,.02,0,.02.01.02.01.02.03.04.04.02,0,.03.02.04.03,0,0,.01,0,.02,0,0,0,0,0,0,0,.01.01.02.03.04.04.01,0,.02.01.03.02,0,0,.01.02.02.02.01,0,.03.01.04.02,0,0,0,.04,0,.05,0,.03,0,.07-.02.1,0,.01,0,.04,0,.05,0,0,0,0,0,0,0,.02,0,.04,0,.05,0,0,0,0,0,0,0,0,0,.02,0,.03,0,.01,0,0,0,.01,0,0,0,0,0,0,0,.01,0,.03,0,.05,0,0,0,0,0,0,0,.02,0,.09.02.11,0,0,0,.08,0,.09,0,0,0,0,0,0,0,0,0,0,0,0,0,0,0,0,0,0,0,.02,0,.03,0,.04,0,.01,0,.05,0,.06,0,0-.06.06-.06.06,0,0-.02.01-.02.02,0,0-.02.01-.02.01,0,0-.01.02-.02.03-.01,0-.02.01-.03.02-.02.02-.04.05-.06.07-.03.02-.06.04-.08.06,0,0,0,0,0,0,0,0-.05.05-.06.06-.02.02-.06.05-.08.08,0,.01.01.07.02.08h0s.01.04.02.06c0,0,.01.04.02.04,0,0,0,0,0,0,0,0,0,.05.01.05,0,.02.03.04.02.06,0,0,0,0,0,0,0,.01,0,.03.02.03,0,0,0,0,0,0,0,0,0,0,0,0,0,0,0,0,0,0,0,0,.02.06.03.06,0,0,0,0,0,0,0,0,.01.01.02.02,0,.01.01.04.02.05,0,0,.01.01.02.02,0,0,0,0,0,0h0s0,.02.02.03c0,0,.01.03.01.03.02.03.04.06.06.09,0,0,.02.04.03.05.02,0,.04,0,.06,0,.03,0,.09,0,.12,0,0,0,.03,0,.04,0h0s.03,0,.04-.01c.01,0,.05,0,.06,0,.02,0,.06,0,.09,0,.01,0,.02,0,.03,0,.01,0,.02,0,.03,0,0,0,0,0,0,0,.01.01.03,0,.04,0,.03,0,.07,0,.11,0,.02.03.04.05.06.08.01.02.02.03.03.05.01.01.03.03.04.04.02.02.04.05.07.07,0,0,0,0,0,0,0,.01.02.02.03.03.01,0,.02.03.03.03.03.02.05.04.08.06,0,0,0,.01.01.02.02.02.05.04.07.06.03.02.07.04.09.06,0,.03,0,.11,0,.13,0,0,0,.03,0,.04,0,.01,0,.04,0,.05,0,0,0,.04,0,.04,0,0,0,.02,0,.03,0,.03,0,.06,0,.08-.01.06,0,.12,0,.18,0,0,.02,0,.03.02,0,0,.01.01.02.02.01,0,.03.02.04.02,0,0,.02,0,.02,0,.02.02.06.03.09.04,0,0,.01,0,.02,0,.05.03.12.04.17.07h0s0,0,0,0c0,0,0,0,0,0,0,0,0,0,0,0,.02.02.05,0,.06.02,0,0,0,0,0,0,.01.01.03.02.05.01,0,0,0,0,0,0h0s0,0,0,0c0,0,0,0,0,0,.02.01.05.02.07.03,0,0,.02,0,.02,0,.03.01.12.04.16.02,0,0,0-.01,0-.01,0,0,0,0,.01,0,0,0,.01-.02.02-.03.02-.02.04-.04.06-.06.02-.01.03-.02.05-.03.03-.02.05-.05.08-.08,0,0,.01,0,.02-.01,0,0,0,0,.01-.01.01,0,.03-.02.04-.03.03-.03.05-.05.07-.08.02-.02.06-.05.07-.07.01,0,.06,0,.08,0,0,0,.01,0,.02,0,0,0,.02,0,.02,0,.06,0,.15,0,.22,0,0,0,0,0,0,0,0,0,.12,0,.14,0,.02,0,.04,0,.06,0,.06.01.13-.02.2-.02.01.02.04.04.06.06.03.04.06.07.1.09,0,0,.01.01.02.02.02.02.04.04.06.06,0,0,.03.02.03.03,0,0,0,0,0,0,0,0,0,0,0,0,0,.01.03.03.04.04.01.01.04.02.05.04.01.01.03.03.05.04.02,0,.03,0,.04,0,0,0,.01,0,.02,0,.03,0,.05,0,.08-.02,0,0,0,0,0,0,0,0,0,0,0,0,.01,0,.04-.02.05-.02,0,0,0,0,0,0,.01,0,.04,0,.05-.02,0,0,0,0,.02,0,0,0,0,0,0,0,0,0,0,0,0,0,.01,0,.03-.01.04-.02.01,0,.03,0,.04-.01.03-.02.07-.03.11-.05.01,0,.05-.01.06-.02,0,0,0,0,.01-.01,0,0,.01,0,.02,0,.01,0,.03-.01.04-.02.02-.01.06-.01.06-.03.02-.01.06-.02.07-.04,0,0,0-.02,0-.03,0-.01,0-.04,0-.05,0,0,0-.02,0-.03-.02-.08,0-.17-.01-.26,0,0,0-.02,0-.03,0-.03,0-.05-.01-.08,0-.01,0-.11,0-.11.03-.02.04-.03.07-.05,0,0,0,0,0,0,.03-.03.07-.05.1-.08,0-.01.04-.03.04-.05,0,0,0,0,0,0,0,0,.01,0,.01-.01,0,0,.07-.06.07-.07,0,0,0,0,0,0,0,0,0,0,0,0,0,0,0,0,0,0,.02-.02.04-.03.05-.04,0,0,.01-.02.03-.03,0,0,0,0,0,0,.01,0,.05-.04.05-.05,0,0,0,0,0-.01,0,0,0,0,.01,0,0,0,.02-.03.02-.03,0,0,0-.02.01-.03,0,0,.03-.03.04-.05.04,0,.09,0,.12,0,.03,0,.08,0,.11,0,0,0,0,0,0,0,.01,0,.02,0,.03,0,0,0,0,0,.01,0,.03,0,.1,0,.11.01,0,0,0,0,0,0,.03.01.07,0,.11,0,0,0,.02,0,.03,0,.02,0,.05,0,.06.01.02,0,.02-.02.02-.02.01,0,.02,0,.03,0,0,0,.03-.05.03-.06.03-.04.05-.09.07-.12,0-.01.03-.06.03-.06,0,0,0,0,0,0,.01-.01.02-.03.02-.05,0,0,0,0,0,0,0,0,0,0,.01-.01.01-.02.02-.05.03-.07,0,0,.01-.02.02-.03,0-.01.01-.05.02-.06h0s.01-.03.02-.04v-.02s.01-.04.02-.06c0,0,.04-.09.03-.1,0-.01-.01-.01-.02-.02h0Z"/>
    <path class="cls-5" d="M54.16,26.32s-.01.05-.02.07c0,.11-.02.3-.06.38-.01.03-.01.1-.02.13-.02.07-.05.15-.08.23-.08.22-.15.4-.26.6,0,.02-.01.03-.02.05,0,0-.01.02-.02.02,0,.01,0,.02,0,.03-.06.1-.13.21-.19.29-.02.03,0,.04-.02.06-.01.02-.04.03-.05.04-.02.01-.03.05-.04.06-.01.02-.04.03-.05.04-.03.04-.05.08-.09.11,0,0-.03.01-.03.01-.06.07-.11.13-.17.2-.04.04-.14.08-.15.14,0,0,0,0-.02,0h0s-.2.19-.2.2c0,0,0,0,0,0h0s0-.01,0-.01c-.02.06-.13.1-.14.15,0,0,0,0,0-.01,0,0,0,0-.02,0,0,0,0,.02,0,.03-.02.03-.16.12-.19.12,0,0,0,0,0,0-.23.19-.48.29-.78.43-.04.02-.18.05-.18.05-.02.02-.07.02-.09.03-.07.03-.14.06-.2.1-.03.02-.1.01-.14.03.01,0-.08.03-.1.03,0,0-.15,0-.17.01-.01,0-.09.03-.11.03,0,0,0,0-.01,0,0,0-.15.02-.18.03-.05.02-.12.03-.18.04-.01,0-.04-.02-.05-.01-.04.01-.09.02-.12.01-.05-.01-.11-.02-.16,0,0,0,0,0,0,0-.07,0-.2,0-.24-.02-.04,0-.08,0-.12,0-.08-.02-.29-.03-.37-.05-.05-.01-.14,0-.18-.04-.01,0,0,0-.02,0-.02-.02-.09-.02-.11-.03-.01,0-.02-.02-.03-.02,0,0-.04,0-.06,0-.1-.04-.21-.07-.31-.12,0,0-.05-.02-.06-.02,0,0,0,0,0-.01,0,0-.01,0-.02,0,0,0,0,0,0,0-.11,0-.23-.08-.36-.12-.14-.04-.25-.11-.38-.18-.05-.03-.1-.08-.15-.11-.15-.09-.29-.17-.41-.27-.08-.07-.15-.13-.22-.2-.02-.02-.07-.07-.08-.08-.03,0-.06-.06-.08-.08-.07-.05-.13-.13-.19-.21-.02-.02-.04-.04-.05-.05,0-.02-.02-.04-.02-.05-.03-.04-.07-.08-.11-.13-.02-.02-.02-.06-.04-.09-.02-.03-.06-.06-.08-.09-.05-.06-.08-.12-.13-.19-.07-.1-.11-.27-.18-.39-.03-.05-.07-.11-.09-.17-.03-.08-.05-.18-.08-.26-.03-.08-.02-.16-.05-.22,0-.03,0-.06,0-.09-.03-.1-.01-.21-.03-.3,0-.05,0-.1-.01-.15,0-.03,0-.05,0-.08-.02-.06-.03-.13-.02-.19,0-.06.02-.12.03-.18,0-.05,0-.12,0-.16,0-.02.02-.05.01-.08-.02-.1.02-.19.05-.28,0-.02,0-.05,0-.07.04-.08.03-.16.07-.25.01-.03.03-.06.05-.1.05-.12.09-.24.15-.34,0,0,.06-.19.07-.2.02-.05.06-.08.09-.13.02-.04.04-.09.06-.13.05-.09.12-.18.17-.25.01-.02,0-.04.02-.05.02-.03.05-.05.07-.09,0-.01,0-.03.02-.05.02-.03.06-.05.08-.08.11-.14.22-.28.33-.4.06-.07.14-.1.21-.17.05-.04.09-.08.14-.13,0,0,0,0,0-.01.04-.05.06-.1.12-.13.06-.03.11-.08.17-.11.05-.03.11-.05.16-.09.02-.02.1-.03.09-.06.03,0,.13-.05.14-.07,0,0,0,0,0,0,.03-.02.11-.05.12-.09,0,0,0,0,.01.01.05-.02.09-.03.13-.06,0,0,.17-.06.19-.08,0,.01.08-.02.08-.03.01,0,.11,0,.12-.03.02,0,.07,0,.11-.01.11-.04.24-.06.36-.08,0,0,0,0,0-.01.01,0,.03,0,.04,0,0,0,0,0,0-.01,0,0,0,0,0,0,.02,0,.09,0,.11-.02.01,0,.02,0,.04,0,.02,0,.03-.02.05-.02,0,0,0,0,0,0,.05-.01.12,0,.17-.01.07-.02.17-.02.25-.04.07-.01.13.02.19-.01.03.02.24.02.27.01.02,0,0,0,.02.02,0,0,.01,0,.02,0,.06,0,.12.02.18.02.01,0,.16,0,.19,0,.21.04.41.08.6.14.03.01.1.01.12.02.06.02.12.05.18.08.03,0,.05,0,.08.03.01,0,0,0,.02,0,.03.03.13.05.18.07.04.01.12.05.15.08,0,0,.01.02.02.03.01,0,.03.02.04.02,0,0,0,0,.01,0,.06.06.2.1.28.15.06.03.12.08.17.12.01.01.03.03.04.04.06.03.1.09.16.13.05.04.11.07.16.11.05.04.11.11.16.17.04.05.12.08.15.13.02.02.03.05.05.07.1.09.22.23.31.36.02.04.03.07.06.1,0,.01.04.03.04.04.01.02.02.07.04.09,0,0,.02,0,.02,0v.02s.03.03.04.04c0,.02.01.04.02.05.09.09.12.24.2.35,0,.02,0,.04.01.05,0,0,0,0,.01,0,0,0,0,.04.01.05,0,0,0,0,.01,0,0,0,0,.02,0,.03,0,0,.02.02.03.03.01.03,0,.05.02.07,0,.03.01.07.02.1.03.03.05.08.06.12.03.08.04.18.07.25-.01.03.01.09.02.13v.05c.02.09.03.2.05.27,0,.06,0,.12,0,.18.02.05.01.18.02.25,0,.05.01.14,0,.21,0,.03,0,.08,0,.1h0ZM57.29,27.68c-.07-.1-.14-.13-.24-.2-.04-.03-.06-.09-.1-.12-.03-.03-.06-.05-.09-.08-.02-.02-.06-.03-.08-.05-.03-.05-.06-.08-.1-.12-.03-.02-.06-.04-.1-.06-.07-.06-.15-.13-.23-.19-.05-.04-.09-.05-.13-.09,0,0,0,0,0,0-.03,0-.06-.04-.06-.06,0-.02.02-.11.02-.15,0-.05,0-.1,0-.16.02-.05,0-.14.02-.2,0-.02,0-.04.01-.07,0-.03-.01-.07,0-.11.01-.06,0-.15.01-.19.02-.06.02-.21,0-.26,0-.05-.03-.24-.03-.25-.04-.06-.05-.26-.05-.33.05-.03.09-.08.12-.12,0,0,.01,0,.02,0,.03-.02.05-.06.07-.08h.02s.07-.07.11-.1c.06-.05.11-.11.16-.16.09-.08.2-.16.28-.25.04-.05.13-.11.19-.15.01,0,.03-.01.05-.03.02-.02,0-.06,0-.08,0,0,0,0,0,0,0,0,0,0-.01-.01,0-.02,0-.02.02-.02.02-.05-.07-.26-.09-.31-.02-.05-.01-.12-.04-.17,0,0,0,0-.01-.01,0-.02-.01-.05-.02-.07,0-.04-.06-.16-.09-.21-.03-.05-.04-.1-.06-.16-.03-.06-.08-.12-.11-.18-.03-.04-.02-.1-.05-.14-.03-.04-.07-.08-.1-.12-.05-.08-.09-.15-.14-.21-.02-.02-.06-.03-.07-.05-.02,0-.02-.02-.02-.04-.06-.04-.16-.02-.21-.03,0,0,0,0,0,0-.06,0-.15,0-.22,0-.03,0-.15,0-.15,0-.01,0-.28.03-.36.04-.07,0-.11-.01-.16,0-.08.01-.26.05-.31.03-.02.01-.1,0-.12,0-.01,0-.03-.02-.04-.04,0,0,0,0,0,0-.06-.05-.07-.1-.12-.16-.03-.03-.07-.05-.1-.09-.05-.06-.09-.1-.15-.16-.01-.02-.02-.04-.04-.05-.07-.06-.14-.13-.2-.2-.06-.07-.19-.14-.26-.2-.04-.03-.06-.07-.1-.1-.05-.03-.1-.06-.14-.1,0,0-.05-.03-.05-.03-.05-.04-.11-.09-.16-.13-.02-.01,0-.21,0-.24v-.11c0-.09,0-.18,0-.27.01-.14,0-.31,0-.45.01-.11.04-.23,0-.35-.04,0-.08-.04-.11-.06-.04-.02-.08-.02-.12-.04-.06-.03-.12-.07-.19-.1-.09-.04-.14-.04-.23-.08-.01,0-.14-.04-.16-.06-.02.02-.21-.07-.22-.08-.04-.03-.25-.06-.26-.1,0,0-.01,0-.02,0-.03-.02-.12-.05-.14-.05,0,0,0,0,0,0-.02-.02-.23-.05-.24-.08-.02,0-.09,0-.11.02-.1.05-.17.15-.26.21-.17.12-.34.29-.46.45-.06.05-.11.1-.17.15-.02.01-.04.02-.05.03-.05.04-.11.1-.16.13-.04.03-.13,0-.19,0-.02,0-.14,0-.18-.03,0,0-.12,0-.16,0-.01,0-.13-.02-.13-.02-.03.02-.16,0-.21,0,0,0-.11,0-.11,0-.02,0-.04,0-.06-.01-.08,0-.17,0-.25.03-.02,0-.14,0-.17.01-.02,0-.03.02-.06.03-.04,0-.08,0-.12,0-.11.03-.22.03-.29.03-.01,0-.01,0-.02-.02,0,0,0,0-.01,0,0,0-.13-.1-.15-.13,0,0-.04-.06-.05-.05,0,0,0,0,0,0-.04-.05-.08-.08-.12-.13,0,0-.04-.03-.04-.03,0-.03-.12-.1-.15-.14-.01-.02-.02-.03-.03-.06-.02-.01-.03-.02-.05-.03-.02-.02-.05-.05-.07-.07-.02-.02-.03-.04-.05-.06-.05-.03-.11-.09-.14-.13-.01,0-.02,0-.03-.01-.02-.01-.03-.03-.06-.04,0-.02,0-.04-.01-.06-.01,0-.03-.01-.04-.02-.04,0-.07.03-.11.04-.05.02-.08,0-.14.02-.04.01-.07.03-.11.05-.02,0-.19.05-.21.06-.01,0-.02.02-.04.02-.04,0-.1.03-.15.05,0,0,0,0,0,0-.04,0-.1.04-.14.06-.02.01-.12.03-.16.05-.05.02-.1.05-.14.08,0,0-.13.05-.15.06-.02,0-.04,0-.06.01-.08.06-.21.09-.29.16,0,0-.06.02-.08.03,0,0-.01,0-.02,0,0,.01,0,0,0,.02,0,0-.02.02-.03.03,0,.02,0,.12,0,.15.01,0,0,.07,0,.09,0,.02,0,.04,0,.05,0,.02.02.15.02.18,0,.02,0,.04,0,.07,0,.05.02.1.02.14.01.06,0,.11,0,.16,0,.02,0,.05,0,.07.01.04.03.13.03.16,0,.1.04.33,0,.41-.01.02-.05.03-.07.04-.04.03-.08.07-.12.1-.07.05-.16.12-.21.19,0,.01-.01.03-.02.04-.03.02-.09.04-.11.06h0s-.04.03-.05.04c0,0,0,.02-.01.03-.02.03-.06.04-.07.08,0,0-.01,0-.02,0h0s-.02.04-.05.05c0,0,0,0,0,0-.02,0-.06.05-.08.07-.03.02-.05.06-.08.1-.04.05-.13.08-.14.15,0,0,0,0-.01,0-.03.03-.18.23-.19.26,0,0,0,0,0,0,0,0,0,0,0,.01-.09.07-.17.01-.29.04-.06.01-.16.03-.21.02-.05,0-.1,0-.14,0-.06.01-.11,0-.15,0-.1,0-.19,0-.26,0-.1-.02-.17,0-.24,0-.03,0-.11-.01-.13,0-.05.02-.12,0-.15.02-.08.05-.1.19-.16.27-.11.17-.19.35-.28.54-.03.07-.04.14-.07.22-.02.06-.06.12-.08.17,0,.01,0,.04,0,.04-.04.05-.07.18-.09.24v.06c-.02.05-.09.12-.09.18.04.04.07.09.12.13.12.11.24.2.37.3.02.01.03.04.05.06.01.01.04.02.05.03.04.04.06.07.11.1.04.02.07.06.11.08.01,0,.03,0,.04.02,0,0,0,0,0,.01.03.03.06.07.09.09.03.02.06.03.09.05.02.01.04.05.06.06.03.02.07.03.09.06.01.01,0,.09-.01.11-.02.07-.02.17-.04.26,0,.04,0,.09,0,.12,0,0,0,0,.02.01-.01.05,0,.09-.02.13,0,0,0,0,.01,0,0,.02,0,.04,0,.06,0,.03,0,.02.02.04,0,0,0,.01-.02.02.01.03,0,.08.01.12,0,0,0,0-.01,0,0,.05.01.23.04.27-.02.02.02.2.02.23,0,0-.01,0-.02,0,0,0,0,.01.01.02,0,0,0,0,0,0,0,.04,0,.07.02.11-.01.03,0,.12,0,.16-.01,0-.14.14-.14.15-.01.01-.05.03-.05.05,0,0-.04.03-.05.03-.02.02-.04.05-.06.07-.03.02-.06.03-.08.05-.05.06-.09.13-.16.17-.06.05-.14.09-.19.15,0,0,0,0,0,0-.02,0-.13.12-.16.15-.06.05-.16.12-.19.19-.01.03.03.18.04.2h0s.03.11.04.14c0,.01.03.09.04.1,0,0,0,.01,0,.02,0,.02.02.12.03.13.02.05.07.11.05.16,0,0,.01,0,.02,0,.01.03.02.06.05.07,0,0,0,0-.01,0,0,0,0,.01,0,.02.01,0,0,0,.01,0,0,0,.06.14.06.15,0,0,0,0,0,0,0,.01.03.03.04.04.02.04.03.09.06.13.01.02.04.03.05.06,0,0,0,0,.01,0h0s.02.05.04.07c0,0,.03.08.03.08.05.07.1.16.15.23.01.02.06.11.07.12.04.02.09,0,.14.01.08.02.22,0,.29,0,.02,0,.08.02.1,0l.02-.02s.09,0,.11-.01c.04,0,.12,0,.14,0,.06.01.16-.01.22-.02.03,0,.04,0,.06-.01.03.02.05,0,.09.01,0,0,0,0,0-.01.03.03.07,0,.11,0,.08.02.18,0,.27,0,.04.07.1.13.16.19.03.04.06.08.08.12.04.04.07.07.11.11.05.06.1.13.16.18,0,0,0,0,0,0,.02.03.06.05.09.07.03.02.04.06.07.08.07.04.14.1.2.14.01.01.02.03.04.04.06.04.11.09.18.14.07.05.17.09.22.16-.02.07-.02.28,0,.34-.01.02-.02.07-.01.1,0,.04.02.11.02.13,0,.01,0,.09,0,.09,0,.02,0,.05.01.07-.02.06,0,.14-.02.2-.03.15,0,.29-.02.44.02.02.04.02.07.04.02.01.03.03.05.04.03.02.07.04.1.06.02,0,.04,0,.05.02.06.04.16.07.23.1.01,0,.04,0,.04,0,.12.08.29.11.41.17h0s.01,0,.02.01c0,0,.02,0,.02,0,0,0,0,.01.01.02.06.04.12.02.16.06.01,0,0,0,.01,0,.03.03.07.05.11.03,0,.01,0,0-.01.01h0s.01,0,.02,0c0,0,0,0,0,.01.06.03.12.05.18.07,0,0,.05,0,.05,0,.08.04.29.09.39.06,0,0,0-.04,0-.04.01,0,.02,0,.04,0,.02-.02.03-.04.06-.06.05-.04.09-.1.14-.14.04-.03.08-.06.12-.08.07-.05.13-.13.19-.2.02-.02.03-.02.05-.03,0-.01.02-.02.03-.04.03-.02.06-.04.09-.06.06-.06.11-.13.17-.2.04-.05.15-.12.17-.18.03-.02.15,0,.2.02.02,0,.03,0,.04,0,.01,0,.04.02.05.02.16-.02.37.02.54.02.01,0,0,0,.01,0,0,0,.3,0,.36,0,.05,0,.1.02.14-.01.14.03.32-.05.5-.05.04.05.1.09.14.15.06.09.14.18.24.23.01.02.03.03.04.05.05.05.11.1.16.16,0,.01.07.06.08.07,0,0,.02,0,.02,0,0,0,0,0,0,.01.02.03.08.08.11.11.03.03.09.06.12.09.03.04.07.09.11.11.04.02.07-.01.1-.02.02,0,.03-.01.04-.02.06-.02.13-.02.19-.05,0,0,0,0,0-.01,0,0,0,0,0,.01.03-.02.09-.04.13-.04,0,0,0,0,0-.01.03,0,.1,0,.12-.04,0,0,.02,0,.04,0,0-.01,0,0,0-.01,0,0,0,0,.02,0,.03,0,.06-.04.09-.05.03-.02.08-.01.11-.03.09-.05.18-.07.26-.12.03-.02.12-.03.15-.05.01,0,.02-.02.03-.03,0,0,.03,0,.04,0,.03,0,.07-.03.09-.05.04-.03.15-.03.16-.08.05-.03.15-.04.18-.09,0-.02.02-.05.02-.07,0-.03,0-.09-.01-.12,0-.02,0-.05,0-.07-.05-.19,0-.42-.03-.65,0-.02,0-.04.01-.06,0-.06-.02-.13-.03-.19.01-.03-.02-.27-.02-.28.07-.05.11-.07.16-.12,0,0,0-.01,0-.02.08-.07.18-.11.25-.2.02-.03.11-.08.11-.12,0,0,0,0,0,.01.02,0,.03-.02.03-.04.02,0,.16-.14.18-.17,0,0,0,0,0-.01,0-.01,0,0,.01,0,0,0,0,0,0-.01.04-.04.09-.07.13-.11.02-.02.03-.05.06-.07,0,0,0,0,0,0,.04-.02.12-.09.13-.13,0,0,0-.02,0-.03.01,0,.02,0,.03-.01.01-.01.05-.06.06-.08.01-.02.01-.06.03-.08.02-.02.08-.08.09-.11.1,0,.21,0,.3.02.08.01.19-.02.27,0,0,0,0,0,0,0,.03,0,.06,0,.08.01,0,0,.02-.01.04-.01.07.02.25.02.26.04,0,0,0-.01.01-.02.08.03.17,0,.27,0,.02,0,.05-.01.07-.02.06-.01.13,0,.16.03.04,0,.04-.04.05-.06.03,0,.06,0,.08,0,0,0,.07-.13.08-.15.07-.11.12-.22.18-.31.02-.03.06-.15.08-.15,0,0,0,0-.01-.01.03-.03.04-.06.06-.12,0,0,0-.01,0-.02,0,0,.02-.02.03-.03.03-.06.04-.12.06-.17.01-.02.04-.05.05-.08.02-.03.03-.12.04-.14v-.02s.02-.05.04-.07v-.04c.02-.05.03-.1.05-.15.01-.02.09-.22.09-.24,0-.03-.03-.03-.04-.05h0Z"/>
    <path class="cls-6" d="M42.74,16.28s0,.03-.01.05c0,.08-.02.22-.05.28,0,.02,0,.07-.02.09-.02.05-.03.11-.06.17-.06.16-.11.3-.2.45,0,.01,0,.02-.01.04,0,0-.01.01-.02.02,0,0,0,.02,0,.02-.05.07-.1.15-.14.22-.01.02,0,.03-.01.04,0,.01-.03.02-.04.03-.01.01-.02.04-.03.05,0,.01-.03.02-.03.03-.02.03-.04.06-.06.08,0,0-.02,0-.02,0-.04.06-.08.09-.13.15-.03.03-.1.06-.11.1,0,0,0,0-.01,0h0s-.15.14-.15.15c0,0,0,0,0,0h0s0,0,0,0c-.02.04-.09.08-.1.11,0,0,0,0,0,0,0,0,0,0-.02,0,0,0,0,.01,0,.02-.02.02-.12.09-.14.09,0,0,0,0,0,0-.17.15-.36.22-.59.32-.03.01-.14.04-.14.04-.01.01-.05.02-.07.02-.05.03-.11.05-.15.08-.03.02-.07.01-.1.02,0,0-.06.02-.07.02,0,0-.12,0-.13,0-.01,0-.07.02-.08.02,0,0,0,0,0,0,0,0-.11.01-.14.02-.04.02-.09.02-.14.03,0,0-.03-.01-.04,0-.03,0-.07.01-.09,0-.04,0-.08-.01-.12,0,0,0,0,0,0,0-.05,0-.15,0-.18-.01-.03,0-.06,0-.09,0-.06-.02-.22-.02-.28-.04-.04-.01-.11,0-.14-.03,0,0,0,0-.01,0-.01-.01-.06-.02-.08-.02,0,0-.02-.01-.02-.02,0,0-.03,0-.04,0-.08-.03-.16-.05-.23-.09,0,0-.04-.01-.05-.01,0,0,0,0,0,0,0,0,0,0-.01,0,0,0,0,0,0,0-.08,0-.17-.06-.27-.09-.1-.03-.19-.09-.28-.14-.04-.02-.07-.06-.11-.08-.12-.07-.21-.13-.3-.2-.06-.06-.11-.1-.16-.15-.01-.01-.06-.05-.06-.06-.02,0-.04-.04-.06-.06-.05-.04-.1-.09-.14-.16-.01-.01-.03-.03-.04-.04,0-.01-.01-.03-.02-.04-.02-.03-.05-.06-.08-.09-.01-.02-.02-.05-.03-.07-.02-.03-.04-.05-.06-.07-.04-.05-.06-.09-.1-.14-.05-.08-.08-.2-.13-.29-.02-.04-.05-.08-.07-.12-.03-.06-.04-.14-.06-.2-.02-.06-.02-.12-.04-.17,0-.02,0-.05,0-.07-.02-.08,0-.16-.02-.22,0-.04,0-.07-.01-.11,0-.02,0-.04,0-.06-.01-.04-.02-.1-.01-.15,0-.04.01-.09.02-.13,0-.03,0-.09,0-.12,0-.02.01-.04,0-.06-.02-.07.02-.14.04-.21,0-.02,0-.04,0-.05.03-.06.02-.12.05-.19,0-.02.03-.05.03-.07.04-.09.07-.18.11-.25,0,0,.05-.14.05-.15.02-.04.05-.06.07-.09.01-.03.03-.07.04-.1.04-.06.09-.13.13-.19,0-.01,0-.03.01-.04.02-.02.04-.04.05-.06,0,0,0-.02.01-.03.02-.02.05-.03.06-.06.08-.11.16-.21.25-.3.05-.05.1-.08.15-.12.03-.03.07-.06.1-.09,0,0,0,0,0,0,.03-.03.04-.07.09-.1.05-.02.08-.06.13-.08.04-.02.08-.04.12-.06.02-.01.08-.02.07-.05.02,0,.1-.03.11-.05,0,0,0,0,0,0,.02-.02.09-.04.09-.06,0,0,0,0,0,0,.04-.01.07-.02.1-.04,0,0,.13-.04.14-.06,0,0,.06-.01.06-.02.01,0,.08,0,.09-.02.01,0,.05,0,.09,0,.08-.03.18-.05.27-.06,0,0,0,0,0,0,0,0,.02,0,.03,0,0,0,0,0,0,0,0,0,0,0,0,0,.01,0,.07,0,.09-.02,0,0,.02,0,.03,0,.01,0,.02-.01.04-.01,0,0,0,0,0,0,.04-.01.09,0,.13,0,.05-.01.13-.02.19-.03.05,0,.1.01.14,0,.02.01.18.02.2,0,.01,0,0,0,.01.01,0,0,.01,0,.02,0,.05,0,.09.01.14.02,0,0,.12,0,.14,0,.16.03.31.06.45.11.02,0,.07,0,.09.02.04.02.09.04.13.06.02,0,.04,0,.06.02,0,0,0,0,.01,0,.02.03.1.04.14.05.03.01.09.04.11.06,0,0,.01.01.02.02,0,0,.02.01.03.02,0,0,0,0,.01,0,.05.04.15.08.21.11.04.02.09.06.13.09,0,0,.02.02.03.03.04.02.08.07.12.09.04.03.08.05.12.08.04.03.08.09.12.12.03.04.09.06.12.1.01.02.02.04.04.05.08.07.17.17.23.27.02.03.02.05.04.08,0,0,.03.02.03.03,0,.01.02.05.03.06,0,0,.01,0,.02,0v.02s.02.02.03.03c0,.01,0,.03.01.04.07.07.09.18.15.26,0,.01,0,.03.01.04,0,0,0,0,.01,0,0,0,0,.03.01.04,0,0,0,0,.01,0,0,0,0,.01,0,.02,0,0,.02.01.02.02,0,.02,0,.04.02.05,0,.02.01.05.02.07.02.02.04.06.05.09.02.06.03.13.05.19,0,.03,0,.07.01.1v.04c.01.06.02.15.04.21,0,.05,0,.09,0,.14.01.04,0,.13.01.19,0,.04,0,.1,0,.16,0,.02,0,.06,0,.08h0ZM45.09,17.29c-.05-.07-.1-.09-.18-.15-.03-.02-.05-.06-.07-.09-.02-.02-.04-.04-.07-.06-.02-.01-.05-.02-.06-.04-.02-.03-.04-.06-.07-.09-.02-.01-.05-.03-.07-.04-.06-.05-.11-.1-.17-.14-.04-.03-.07-.04-.1-.07,0,0,0,0,0,0-.02,0-.04-.03-.05-.04,0-.02.01-.08.01-.11,0-.03,0-.08,0-.12.01-.04,0-.11.01-.15,0-.02,0-.03,0-.05,0-.02-.01-.05,0-.08.01-.04,0-.11.01-.14.01-.04.01-.15,0-.2,0-.04-.02-.18-.02-.19-.03-.05-.04-.2-.03-.24.03-.02.07-.06.09-.09,0,0,.01,0,.02,0,.02-.02.04-.05.05-.06h.01s.06-.05.09-.08c.04-.04.08-.08.12-.12.07-.06.15-.12.21-.19.03-.04.1-.08.14-.11,0,0,.03-.01.03-.02.01-.02,0-.04,0-.06,0,0,0,0,0,0,0,0,0,0,0,0,0-.01,0-.01.01-.02.02-.04-.05-.2-.07-.23-.02-.04,0-.09-.03-.12,0,0,0,0,0,0,0-.02,0-.04-.01-.05,0-.03-.04-.12-.07-.15-.02-.03-.03-.08-.05-.12-.02-.04-.06-.09-.08-.13-.02-.03-.02-.07-.04-.1-.02-.03-.06-.06-.08-.09-.04-.06-.07-.11-.11-.16-.01-.02-.04-.02-.05-.04-.01,0-.01-.01-.01-.03-.04-.03-.12-.02-.15-.02,0,0,0,0,0,0-.04,0-.11,0-.16,0-.02,0-.11,0-.11,0,0,0-.21.02-.27.03-.05,0-.08-.01-.12,0-.06,0-.2.03-.23.02-.02,0-.08,0-.09,0,0,0-.02-.02-.03-.03,0,0,0,0,0,0-.05-.04-.05-.07-.09-.12-.02-.03-.05-.04-.07-.06-.04-.04-.07-.08-.11-.12,0-.01-.02-.03-.03-.04-.05-.04-.11-.1-.15-.15-.04-.05-.14-.11-.2-.15-.03-.02-.05-.05-.08-.07-.04-.03-.07-.04-.1-.08,0,0-.04-.02-.04-.02-.04-.03-.08-.07-.12-.1-.02-.01,0-.16,0-.18v-.08c0-.07,0-.14,0-.21.01-.1,0-.23,0-.33,0-.08.03-.17,0-.26-.03,0-.06-.03-.08-.04-.03-.02-.06-.02-.09-.03-.05-.02-.09-.05-.14-.07-.07-.03-.11-.03-.17-.06,0,0-.11-.03-.12-.04-.01.01-.15-.05-.16-.06-.03-.02-.19-.05-.2-.07,0,0,0,0-.01,0-.02-.02-.09-.03-.11-.03,0,0,0,0,0,0-.02-.01-.17-.04-.18-.06-.02,0-.07,0-.09.02-.08.04-.13.11-.2.16-.13.09-.25.22-.35.34-.04.04-.08.08-.13.11-.01,0-.03.01-.04.02-.04.03-.08.07-.12.1-.03.02-.09,0-.15,0-.02,0-.11,0-.14-.02,0,0-.09,0-.12,0,0,0-.1-.01-.1-.01-.02.02-.12,0-.16,0,0,0-.08,0-.08,0-.02,0-.03,0-.05,0-.06,0-.13,0-.19.02-.01,0-.11,0-.13,0-.02,0-.03.01-.04.02-.03,0-.06,0-.09,0-.08.02-.17.02-.22.02,0,0-.01,0-.01-.02,0,0,0,0,0,0,0,0-.09-.08-.12-.1,0,0-.03-.04-.04-.04,0,0,0,0,0,0-.03-.03-.06-.06-.09-.09,0,0-.03-.02-.03-.02,0-.02-.09-.07-.11-.1-.01-.02-.01-.02-.02-.04-.01,0-.02-.02-.03-.02-.02-.01-.03-.04-.05-.05-.01-.02-.02-.03-.04-.05-.04-.02-.08-.07-.11-.1,0,0-.02,0-.02,0-.02-.01-.02-.03-.04-.03,0-.01,0-.03,0-.04,0,0-.02-.01-.03-.02-.03,0-.05.02-.08.03-.04.01-.06,0-.11.02-.03,0-.05.02-.08.03-.01,0-.14.04-.16.04,0,0-.02.02-.03.02-.03,0-.08.02-.11.04,0,0,0,0,0,0-.03,0-.08.03-.1.04-.01.01-.09.02-.12.03-.04.01-.07.04-.1.06,0,0-.1.04-.11.05-.01,0-.03,0-.04,0-.06.05-.15.07-.21.12,0,0-.05.01-.06.02,0,0-.01,0-.02,0,0,0,0,0,0,.01,0,0-.01.01-.02.02,0,.02,0,.09,0,.11,0,0,0,.05,0,.06,0,.01,0,.03,0,.04,0,.01.02.11.02.14,0,.02,0,.03,0,.05,0,.04.01.07.02.11,0,.04,0,.08,0,.12,0,.02,0,.04,0,.05,0,.03.02.1.02.12,0,.07.03.25,0,.31,0,.01-.03.02-.05.03-.03.02-.06.05-.09.07-.06.04-.12.09-.16.14,0,.01,0,.02-.01.03-.03.02-.07.03-.08.05h0s-.03.02-.03.03c0,0,0,.01-.01.02-.02.02-.04.03-.05.06,0,0,0,0-.01,0h0s-.02.03-.03.04c0,0,0,0,0,0-.01,0-.04.04-.06.05-.02.02-.04.05-.06.07-.03.04-.1.06-.11.11,0,0,0,0,0,0-.02.02-.14.17-.14.2,0,0,0,0,0,0,0,0,0,0,0,0-.06.05-.13.01-.22.03-.04,0-.12.02-.16.02-.04,0-.07,0-.11,0-.04,0-.08,0-.11,0-.08,0-.15,0-.19,0-.07-.01-.13,0-.18,0-.02,0-.08-.01-.1,0-.04.01-.09,0-.12.02-.06.04-.08.14-.12.2-.08.13-.14.26-.21.4-.02.05-.03.1-.05.16-.02.04-.05.09-.06.13,0,0,0,.03,0,.03-.03.04-.05.13-.07.18v.04s-.07.09-.06.14c.03.03.05.07.09.1.09.08.18.15.28.22.01,0,.02.03.03.04,0,.01.03.01.04.02.03.03.04.05.08.07.03.02.05.04.08.06.01,0,.02,0,.03.01,0,0,0,0,0,0,.02.02.04.05.07.07.02.01.04.02.06.03.02.01.03.03.04.05.02.01.05.02.07.04.01,0,0,.07-.01.08-.01.05-.02.13-.03.19,0,.03,0,.07,0,.09,0,0,0,0,.01,0,0,.04,0,.07-.02.1,0,0,0,0,0,0,0,.01,0,.03,0,.05,0,.02,0,.02.01.03,0,0,0,0-.01.01.01.02,0,.06.01.09,0,0,0,0,0,0,0,.04,0,.18.03.21-.01.01.01.15.02.18,0,0,0,0-.01,0,0,0,0,.01,0,.02,0,0,0,0,0,0,0,.03,0,.05.02.08-.01.02,0,.09,0,.12,0,0-.1.1-.11.12,0,0-.04.02-.03.04,0,0-.03.02-.04.02-.02.01-.03.04-.04.05-.02.01-.04.02-.06.04-.04.04-.07.1-.12.13-.05.03-.1.07-.14.11,0,0,0,0,0,0-.02,0-.1.09-.12.11-.04.04-.12.09-.14.14,0,.02.02.13.03.15h0s.02.08.03.11c0,.01.02.07.03.08,0,0,0,0,0,.01,0,.01.02.09.02.1.01.04.05.08.04.12,0,0,0,0,.01,0,0,.02.01.05.03.05,0,0,0,0,0,0,0,0,0,.01,0,.02,0,0,0,0,0,0,0,0,.05.1.05.11,0,0,0,0,0,0,0,.01.03.02.03.03.01.03.02.07.04.1.01.02.03.02.03.04,0,0,0,0,0,0h0s.02.04.03.05c0,0,.02.06.02.06.04.06.07.12.11.18,0,.02.04.08.05.09.03.01.07,0,.11,0,.06.02.17,0,.22,0,.02,0,.06.01.08,0h.01s.06-.02.08-.02c.03,0,.09,0,.1,0,.04.01.12,0,.17-.01.03,0,.03,0,.05,0,.02.01.04,0,.06,0,0,0,0,0,0,0,.02.02.05,0,.08,0,.06.01.13,0,.2,0,.03.05.08.1.12.14.02.03.04.06.06.09.03.03.05.05.08.08.04.05.08.1.12.14,0,0,0,0,0,0,.02.02.04.04.06.05.02.02.03.05.05.06.05.03.1.08.15.11,0,.01.02.02.03.03.05.03.09.07.13.1.05.04.13.07.17.12-.02.05-.01.21,0,.25,0,.02-.01.05-.01.07,0,.03.02.08.02.1,0,.01,0,.07,0,.07,0,.02,0,.04,0,.05-.01.05,0,.11-.01.15-.02.12,0,.22-.01.33.01.02.03.02.05.03.01.01.02.02.03.03.02.02.05.03.07.04.01,0,.03,0,.04.01.04.03.12.05.17.07,0,0,.03,0,.03,0,.09.06.22.08.31.13h0s.01,0,.01,0c0,0,.02,0,.02,0,0,0,0,.01,0,.01.04.03.09.01.12.04,0,0,0,0,0,0,.02.02.06.03.09.02,0,0,0,0,0,0h0s0,0,.02,0c0,0,0,0,0,0,.04.02.09.03.13.05,0,0,.04,0,.04,0,.06.03.22.07.3.04,0,0,0-.03,0-.03,0,0,.02,0,.03,0,.02-.01.02-.03.04-.05.04-.03.07-.07.11-.1.03-.02.06-.04.09-.06.05-.03.1-.1.14-.15.01-.01.03-.01.04-.02,0,0,.01-.02.02-.03.02-.02.05-.03.07-.05.05-.05.09-.1.13-.15.03-.04.11-.09.13-.13.03-.02.11,0,.15.01.01,0,.02,0,.03,0,.01,0,.03.01.04.01.12-.02.27.02.41.01,0,0,0,0,.01,0,0,0,.22,0,.27,0,.04,0,.08.02.11,0,.11.02.24-.03.38-.03.03.04.08.07.11.11.05.07.11.13.18.18.01.01.02.03.03.04.04.04.08.08.12.12,0,0,.05.04.06.05,0,0,.01,0,.02,0,0,0,0,0,0,0,.02.02.06.06.08.08.03.02.07.04.09.07.02.03.05.06.09.08.03.02.05-.01.07-.01.01,0,.02-.01.03-.01.05-.02.1-.02.14-.04,0,0,0,0,0,0,0,0,0,0,0,0,.02-.02.07-.03.1-.03,0,0,0,0,0,0,.02,0,.07,0,.09-.03,0,0,.01,0,.03,0,0,0,0,0,0,0,0,0,0,0,.01,0,.02,0,.05-.03.07-.04.02-.01.06,0,.08-.02.07-.04.13-.05.2-.09.03-.02.09-.02.11-.03,0,0,.02-.02.02-.02,0,0,.03,0,.03,0,.02,0,.05-.03.07-.04.03-.02.11-.02.12-.06.04-.03.11-.03.13-.07,0-.02.01-.04.02-.05,0-.03,0-.07,0-.09,0-.02,0-.03,0-.05-.03-.14,0-.32-.02-.49,0-.02,0-.03,0-.05,0-.05-.01-.1-.02-.15,0-.02-.01-.2-.01-.21.05-.03.08-.05.12-.09,0,0,0-.01,0-.02.06-.05.14-.08.19-.15.02-.02.08-.06.08-.09,0,0,0,0,0,0,.01,0,.03-.02.02-.03.02,0,.12-.11.14-.13,0,0,0,0,0,0,0,0,0,0,.01,0,0,0,0,0,0,0,.03-.03.07-.05.1-.08.02-.02.02-.04.05-.05,0,0,0,0,0,0,.03-.01.09-.07.1-.1,0,0,0-.01,0-.02,0,0,.02,0,.02,0,0,0,.04-.05.04-.06,0-.02,0-.04.02-.06.02-.02.06-.06.07-.08.08,0,.16,0,.22.01.06.01.14-.01.2,0,0,0,0,0,0,0,.02,0,.05,0,.06,0,0,0,.01-.01.03,0,.05.01.19.02.2.03,0,0,0,0,0-.01.06.02.13,0,.2,0,.02,0,.03,0,.05-.01.05,0,.1,0,.12.02.03,0,.03-.03.04-.05.02,0,.04,0,.06,0,0,0,.05-.1.06-.12.05-.08.09-.16.14-.23.02-.02.05-.11.06-.12,0,0,0,0,0,0,.02-.02.03-.05.04-.09,0,0,0-.01,0-.02,0,0,.01-.01.02-.02.02-.04.03-.09.05-.13,0-.02.03-.04.04-.06.01-.03.02-.09.03-.11h0s.02-.05.03-.07v-.03s.02-.08.04-.12c0-.02.07-.16.06-.18,0-.02-.02-.02-.03-.04h0Z"/>
  </g>
</svg>