<?xml version="1.0" encoding="UTF-8"?>
<svg id="Layer_1" data-name="Layer 1" xmlns="http://www.w3.org/2000/svg" viewBox="0 0 327.87 72.62">
  <defs>
    <style>
      .cls-1, .cls-2 {
        fill: #fff;
      }

      .cls-2 {
        fill-rule: evenodd;
      }
    </style>
  </defs>
  <g>
    <g>
      <path class="cls-1" d="M98.55,5.67h19.15v7.46h-3.21v24.52h7.82v-7.17h10.18v14.69h-33.94v-7.51h3.33V13.12h-3.33v-7.46Z"/>
      <path class="cls-1" d="M186,45.15h-24.3v-7.4h5.76l-1.27-3.84h-12.42l-1.27,3.84h4.73v7.4h-19.27v-7.4h4.12l8.18-24.8h-2.48v-7.29h23.27l10.73,32.09h4.24v7.4ZM156,27.13h7.94l-4-12.2-3.94,12.2Z"/>
      <path class="cls-1" d="M191.45,45.15v-7.34h3.52V12.95h-3.52v-7.29h22.61c10.06,0,14.85,3.5,14.85,9.66,0,4.75-1.39,7.06-5.94,8.76,4.36,1.13,8,4.12,8,9.6,0,7.97-4.79,11.47-16.49,11.47h-23.03ZM207.52,13.12v8.47h3.7c3.21,0,4.12-1.64,4.12-4.35s-1.7-4.12-4-4.12h-3.82ZM212.36,37.81c2.55,0,4.91-1.81,4.91-4.86,0-2.88-1.76-4.97-5.09-4.97h-4.67v9.83h4.85Z"/>
      <path class="cls-1" d="M235.52,25.21c0-12.2,8.73-20.62,21.27-20.62,14.85,0,21.76,8.3,21.76,21.01s-7.64,20.56-21.33,20.56c-12.67,0-21.7-6.84-21.7-20.96ZM263.39,25.61c0-6.84-2-12.32-6.67-12.32-3.7-.06-6.24,4.92-6.24,11.92,0,7.4,2.85,12.09,6.73,12.09s6.18-4.69,6.18-11.69Z"/>
      <path class="cls-1" d="M284,5.67h19.7c14.06,0,16.79,5.2,16.79,11.64,0,4.41-3.76,7.51-8.79,8.19,4.18.56,7.94,3.95,7.94,8.02,0,2.43.36,3.84,1.45,3.84.91,0,1.39-.68,1.39-1.81v-1.86h4.06v3.11c0,4.69-2.12,9.04-8.85,9.04-7.94,0-11.76-3.9-11.76-10.51,0-5.14-.67-6.38-6.06-6.38v8.76h3.7v7.46h-19.58v-7.46h3.39V13.07h-3.39v-7.4ZM299.88,13.01v9.6h2.73c3.52,0,5.82-1.58,5.82-4.58,0-3.33-2-5.03-5.52-5.03h-3.03Z"/>
    </g>
    <g>
      <path class="cls-1" d="M104.47,52.15c3.54,0,5.36,1.88,5.36,1.88l-1.62,2.46s-1.6-1.36-3.58-1.36c-2.74,0-4.04,1.88-4.04,3.8s1.4,4.01,4.04,4.01c2.16,0,3.8-1.64,3.8-1.64l1.8,2.38s-2.02,2.24-5.76,2.24c-4.48,0-7.5-2.96-7.5-6.91s3.2-6.86,7.5-6.86Z"/>
      <path class="cls-1" d="M117.01,55.88c3.26,0,5.86,2.03,5.86,5.05s-2.6,4.99-5.84,4.99-5.84-1.99-5.84-4.99,2.6-5.05,5.82-5.05ZM117.03,63.24c1.26,0,2.34-.88,2.34-2.31s-1.08-2.37-2.34-2.37-2.34.91-2.34,2.37,1.08,2.31,2.34,2.31Z"/>
      <path class="cls-1" d="M124.66,56.1h3.32v.84c0,.32-.04.6-.04.6h.04c.48-.67,1.44-1.66,3.06-1.66,1.3,0,2.34.54,2.88,1.62h.04c.54-.8,1.76-1.62,3.3-1.62,1.88,0,3.34.95,3.34,3.6v6.22h-3.46v-5.68c0-.71-.14-1.21-.8-1.21-1.1,0-1.68.75-1.9,1.81-.08.34-.08.73-.08,1.12v3.97h-3.46v-5.68c0-.71-.14-1.21-.8-1.21-1.08,0-1.64.71-1.88,1.73-.08.35-.1.78-.1,1.19v3.97h-3.46v-9.59Z"/>
      <path class="cls-1" d="M143.01,56.1h3.32v.84c0,.32-.04.6-.04.6h.04c.48-.67,1.44-1.66,3.06-1.66,1.3,0,2.34.54,2.88,1.62h.04c.54-.8,1.76-1.62,3.3-1.62,1.88,0,3.34.95,3.34,3.6v6.22h-3.46v-5.68c0-.71-.14-1.21-.8-1.21-1.1,0-1.68.75-1.9,1.81-.08.34-.08.73-.08,1.12v3.97h-3.46v-5.68c0-.71-.14-1.21-.8-1.21-1.08,0-1.64.71-1.88,1.73-.08.35-.1.78-.1,1.19v3.97h-3.46v-9.59Z"/>
      <path class="cls-1" d="M161.22,56.1h3.46v5.63c0,.89.38,1.27,1.1,1.27,1.48,0,2.18-1.21,2.18-2.65v-4.25h3.46v9.59h-3.32v-.84c0-.32.04-.6.04-.6h-.04c-.56,1.02-1.84,1.66-3.22,1.66-2.04,0-3.66-.89-3.66-3.6v-6.22Z"/>
      <path class="cls-1" d="M173.97,56.1h3.32v.84c0,.32-.04.6-.04.6h.04c.48-.75,1.46-1.66,3.28-1.66,2.08,0,3.7.89,3.7,3.6v6.22h-3.46v-5.63c0-.89-.38-1.27-1.14-1.27-1.08,0-1.74.56-2.04,1.38-.14.37-.2.8-.2,1.27v4.25h-3.46v-9.59Z"/>
      <path class="cls-1" d="M186.68,56.1h3.46v9.59h-3.46v-9.59ZM186.72,52.38h3.38v2.52h-3.38v-2.52Z"/>
      <path class="cls-1" d="M193.21,58.79h-1.32v-2.52h1.42v-2.76h3.36v2.76h2.16v2.52h-2.16v2.94c0,1.08,1.18,1.23,1.84,1.23.28,0,.46-.02.46-.02v2.79s-.38.06-.94.06c-1.64,0-4.82-.41-4.82-3.63v-3.37Z"/>
      <path class="cls-1" d="M200.83,66.57s.56.35,1.06.35c.56,0,1.3-.15,1.66-.97l.2-.45-4.38-9.41h3.92l1.52,4.42c.18.52.38,1.49.38,1.49h.04s.2-.91.34-1.43l1.3-4.47h3.78l-4.22,10.62c-.86,2.14-2.66,2.89-4.3,2.89-1.36,0-2.4-.67-2.4-.67l1.1-2.37Z"/>
      <path class="cls-1" d="M216.88,52.38h8.75v2.79h-5.26v2.79h4.36v2.79h-4.36v4.94h-3.5v-13.32Z"/>
      <path class="cls-1" d="M232.51,55.88c3.26,0,5.86,2.03,5.86,5.05s-2.6,4.99-5.84,4.99-5.84-1.99-5.84-4.99,2.6-5.05,5.82-5.05ZM232.53,63.24c1.26,0,2.34-.88,2.34-2.31s-1.08-2.37-2.34-2.37-2.34.91-2.34,2.37,1.08,2.31,2.34,2.31Z"/>
      <path class="cls-1" d="M240.02,56.1h3.46v5.63c0,.89.38,1.27,1.1,1.27,1.48,0,2.18-1.21,2.18-2.65v-4.25h3.46v9.59h-3.32v-.84c0-.32.04-.6.04-.6h-.04c-.56,1.02-1.84,1.66-3.22,1.66-2.04,0-3.66-.89-3.66-3.6v-6.22Z"/>
      <path class="cls-1" d="M252.78,56.1h3.32v.84c0,.32-.04.6-.04.6h.04c.48-.75,1.46-1.66,3.28-1.66,2.08,0,3.7.89,3.7,3.6v6.22h-3.46v-5.63c0-.89-.38-1.27-1.14-1.27-1.08,0-1.74.56-2.04,1.38-.14.37-.2.8-.2,1.27v4.25h-3.46v-9.59Z"/>
      <path class="cls-1" d="M269.48,55.88c2.08,0,2.7.76,2.7.76h.04s-.02-.19-.02-.43v-3.84h3.46v13.32h-3.24v-.63c0-.3.02-.54.02-.54h-.04s-.86,1.4-2.98,1.4c-2.8,0-4.64-2.05-4.64-5.03s1.96-5.01,4.7-5.01ZM270.28,63.26c1.04,0,2.02-.71,2.02-2.37,0-1.16-.66-2.29-2.02-2.29-1.08,0-2.02.82-2.02,2.29s.82,2.37,2.02,2.37Z"/>
      <path class="cls-1" d="M283.42,59.72h.14v-.17c0-.8-.66-1.06-1.52-1.06-1.3,0-2.78.91-2.78.91l-1.2-2.27s1.78-1.25,4.32-1.25c2.9,0,4.64,1.47,4.64,3.91v5.91h-3.16v-.58c0-.32.04-.6.04-.6h-.04s-.76,1.4-2.92,1.4c-1.92,0-3.5-1.19-3.5-3.09,0-2.79,4.38-3.11,5.98-3.11ZM281.9,63.46c.9,0,1.7-.91,1.7-1.7v-.21h-.32c-1.1,0-2.36.3-2.36,1.1,0,.45.3.8.98.8Z"/>
      <path class="cls-1" d="M289.93,58.79h-1.32v-2.52h1.42v-2.76h3.36v2.76h2.16v2.52h-2.16v2.94c0,1.08,1.18,1.23,1.84,1.23.28,0,.46-.02.46-.02v2.79s-.38.06-.94.06c-1.64,0-4.82-.41-4.82-3.63v-3.37Z"/>
      <path class="cls-1" d="M297.71,56.1h3.46v9.59h-3.46v-9.59ZM297.75,52.38h3.38v2.52h-3.38v-2.52Z"/>
      <path class="cls-1" d="M308.78,55.88c3.26,0,5.86,2.03,5.86,5.05s-2.6,4.99-5.84,4.99-5.84-1.99-5.84-4.99,2.6-5.05,5.82-5.05ZM308.8,63.24c1.26,0,2.34-.88,2.34-2.31s-1.08-2.37-2.34-2.37-2.34.91-2.34,2.37,1.08,2.31,2.34,2.31Z"/>
      <path class="cls-1" d="M316.43,56.1h3.32v.84c0,.32-.04.6-.04.6h.04c.48-.75,1.46-1.66,3.28-1.66,2.08,0,3.7.89,3.7,3.6v6.22h-3.46v-5.63c0-.89-.38-1.27-1.14-1.27-1.08,0-1.74.56-2.04,1.38-.14.37-.2.8-.2,1.27v4.25h-3.46v-9.59Z"/>
    </g>
  </g>
  <g>
    <path class="cls-1" d="M4.25,43.03c1.72-.27,3-1.6,3.18-3.16v-.76c-.28-2.65-.16-5.33.36-7.97,1.47-7.55,6.01-14.11,12.78-18.47,6.77-4.36,14.95-6.01,23.05-4.64,14.52,2.46,24.81,14.09,25.27,27.31h6.87c-.06-2.3-.36-4.59-.9-6.86-1.07-4.48-3.05-8.67-5.86-12.46-2.81-3.79-6.33-6.99-10.45-9.51-4.26-2.61-8.99-4.36-14.05-5.22-.59-.1-1.17-.19-1.76-.26-4.47-.56-8.96-.39-13.36.53-4.8,1-9.3,2.84-13.37,5.46-4.07,2.62-7.5,5.9-10.2,9.74C3.01,20.73,1.13,25.13.21,29.85c-.69,3.51-.81,7.08-.35,10.59l.03.23H-.04c.61,1.64,2.41,2.66,4.29,2.36Z"/>
    <g>
      <g>
        <path class="cls-1" d="M29.68,52.91c1.24,1.15.9.9,2.31,1.36,3.53.8,6.66.91,9.75.82-.56-.55-2.16-1.49-2.51-1.75-.79-.57-1.62-1.1-2.4-1.68-2.27-1.68-4.5-3.42-6.8-5.07-.88-.63-1.96-.97-2.96-.21-.96.72-1.19,1.62-.56,2.6,1.19,1.88,1.6,2.47,3.18,3.93Z"/>
        <path class="cls-1" d="M17.22,45.25c-1.04.62-1.5,1.54-1.35,2.69.1.79.39,1.54.94,2.13,1.97,2.12,2.98,3.24,3.54,3.99,2.37-.72,5.7-.79,8.13-.37-2.08-1.93-7.35-7.71-8.26-8.28-.97-.6-1.99-.77-3.01-.16Z"/>
        <path class="cls-1" d="M7.64,45.8c-1.29.89-1.59,2.03-.8,3.36.23.39.48.77.77,1.12,1.92,2.37,6.42,7.12,8.87,9.28-.28-.35-.48-.77-.53-1.26-.18-1.64,1.35-2.91,2.95-3.55,0,0,0,0,0,0,0,0,0,0-.01-.01-2.22-2.01-5.69-6.16-7.6-8.43-.98-1.17-2.49-1.33-3.66-.52Z"/>
      </g>
      <path class="cls-1" d="M68.5,40.89c-.03.18-.06.36-.1.54-1.07,5.48-3.79,10.46-7.77,14.43-4.38-1.65-9.37-1.08-13.69-.13-5.61,1.24-10.94.94-16.34-.63-3.55-1.03-7.07-.62-10.47.74-1.6.64-2.5,1.73-2.31,3.38.19,1.69,1.64,2.01,3.1,2.22,2.65.39,5.3.72,7.94,1.15.89.15,1.91.11,2.64.91-.81.7-1.81.59-2.71.65-9.04.61-15.64-3.31-20.8-9.83-.92-1.16-1.6-2.49-3.01-3.23-.96-.51-1.92-.55-2.83.15-.95.73-1.13,1.66-.72,2.7.16.41.44.78.71,1.15,2.07,2.91,4.5,5.54,7.05,8.08,1.33,1.33,2.79,2.53,4.36,3.6,6.3,4.29,14.28,6.47,22.04,6.33,8.87-.16,17.56-3.06,24.48-8.17,3.81-2.58,7.04-5.75,9.59-9.43,2.73-3.93,4.57-8.27,5.48-12.92.11-.56.2-1.12.28-1.68h-6.92ZM31.92,63.57l-.08-.11.14.02-.06.08Z"/>
    </g>
    <path class="cls-2" d="M60.08,43.76s-.01.06-.02.08c0,.13-.03.37-.08.47-.02.03-.02.12-.03.16-.03.09-.06.19-.1.29-.1.27-.18.5-.33.75,0,.02-.01.04-.02.06,0,0-.02.02-.03.03,0,.01,0,.03,0,.04-.08.12-.17.26-.24.36-.02.03,0,.05-.02.07-.01.02-.05.04-.06.05-.02.02-.04.06-.05.08-.01.02-.04.03-.06.05-.04.05-.07.11-.11.14,0,0-.03.01-.03.01-.07.09-.13.16-.22.24-.05.05-.17.1-.18.17,0,0,0,0-.02,0v.02s-.25.22-.25.23c0,0,0,0-.01,0h0s0-.01,0-.01c-.03.07-.16.13-.17.18,0,0,0-.01,0-.02-.01,0-.01.01-.03,0,0,.01,0,.02-.01.03-.03.03-.2.15-.24.15,0,0,0,0,0,0-.28.24-.6.36-.98.53-.05.02-.23.06-.23.06-.02.02-.09.03-.11.04-.09.04-.18.08-.25.13-.04.03-.12.02-.17.04.01,0-.1.03-.12.03,0,0-.19,0-.21.02-.02,0-.11.04-.13.03,0,0,0,0-.01,0,0,0-.18.02-.23.04-.07.03-.15.03-.23.05-.01,0-.05-.02-.06-.02-.05.01-.11.02-.15.01-.06-.02-.13-.02-.2,0,0,0,0,0,0,0-.09,0-.25,0-.3-.02-.05,0-.1,0-.15,0-.11-.03-.36-.04-.46-.06-.06-.02-.18-.01-.23-.05-.01,0,0,0-.02,0-.02-.02-.11-.03-.13-.04-.01,0-.03-.02-.04-.03-.01,0-.05,0-.07,0-.12-.05-.26-.09-.39-.15,0,0-.06-.02-.08-.02,0,0,0,0,0-.02,0,0-.01,0-.02,0,0,0,0,0,0,0-.14,0-.29-.1-.45-.15-.17-.05-.31-.14-.47-.23-.07-.04-.12-.1-.19-.14-.19-.11-.36-.21-.51-.34-.1-.09-.19-.16-.27-.25-.02-.02-.09-.09-.09-.1-.03,0-.07-.07-.1-.09-.09-.06-.16-.16-.24-.27-.02-.02-.04-.04-.07-.07-.01-.02-.02-.04-.03-.07-.04-.05-.09-.1-.13-.16-.02-.03-.03-.08-.05-.12-.03-.04-.07-.08-.1-.11-.06-.08-.11-.15-.16-.23-.09-.13-.14-.33-.22-.48-.04-.07-.09-.13-.12-.21-.04-.1-.07-.23-.1-.33-.04-.1-.03-.2-.06-.28,0-.04,0-.08,0-.11-.03-.13-.02-.26-.03-.37,0-.06-.01-.12-.02-.19,0-.03,0-.06,0-.09-.02-.07-.04-.17-.02-.24.01-.07.02-.15.03-.22.01-.06,0-.15.01-.2,0-.03.02-.06.01-.1-.03-.12.03-.23.06-.35,0-.03,0-.06,0-.09.05-.1.04-.2.08-.32.01-.04.04-.08.06-.12.06-.15.11-.3.19-.42,0,0,.08-.23.09-.25.03-.06.08-.1.11-.16.02-.06.05-.11.07-.17.06-.11.15-.22.22-.31.02-.02,0-.05.02-.07.03-.04.06-.07.09-.11.01-.02,0-.04.02-.06.03-.04.08-.06.1-.09.13-.18.27-.34.41-.5.08-.08.17-.13.26-.21.06-.05.11-.1.17-.16,0,0,0,0,0-.01.05-.06.07-.12.14-.16.08-.04.14-.1.21-.14.07-.04.14-.06.2-.11.03-.02.13-.04.12-.08.04,0,.16-.06.18-.09,0,0,0,0,0,0,.04-.03.14-.07.15-.11,0,0,0,0,.01.01.06-.02.12-.04.16-.07,0-.01.21-.07.24-.1,0,.01.1-.02.1-.04.02,0,.13,0,.15-.03.02,0,.08,0,.14-.01.14-.04.3-.08.44-.09,0,0,0-.01,0-.02.01,0,.03.01.05,0,.01,0,0,0,0-.02.01,0,0,0,0,0,.02,0,.12-.01.14-.03.01,0,.03,0,.04,0,.02,0,.03-.02.06-.02,0,0,0,0,0,0,.06-.02.15,0,.21-.01.09-.02.21-.03.31-.05.08-.02.17.02.23-.01.04.02.3.03.33.01.02,0,0,0,.02.02,0,0,.02,0,.03,0,.08,0,.15.02.23.03.01,0,.2,0,.24,0,.26.05.51.1.75.18.04.01.12.01.15.03.07.03.15.07.22.09.03.01.06,0,.09.03.01,0,.01,0,.02,0,.04.04.16.06.23.08.05.02.15.06.19.09.01,0,.02.02.03.03.01,0,.04.02.05.03,0,0,.01,0,.02,0,.08.07.25.13.35.19.07.04.15.09.21.14.02.02.03.03.05.05.07.04.13.11.21.16.07.04.13.09.2.14.07.05.14.14.2.21.06.06.15.1.19.17.02.03.04.07.06.09.12.11.28.29.38.45.03.04.04.09.07.13.01.02.05.04.05.05.02.02.03.09.05.11,0,0,.02,0,.03,0v.03s.03.03.04.05c0,.02.02.04.02.07.12.11.15.3.25.43,0,.02.01.04.02.07,0,0,.01,0,.02,0,0,0,.01.06.02.06,0,0,.01,0,.02,0,0,.01,0,.02,0,.03,0,.01.03.02.03.04.02.04,0,.06.03.09,0,.04.02.08.03.12.03.04.06.1.08.15.04.11.05.22.08.31-.02.04.01.11.02.16v.07c.02.11.04.24.06.34,0,.08,0,.15,0,.23.02.06.01.22.02.31,0,.06.01.17,0,.27,0,.04.01.1,0,.13h0ZM63.98,45.45c-.09-.12-.17-.16-.3-.25-.05-.04-.08-.11-.12-.14-.04-.03-.07-.06-.11-.09-.03-.02-.08-.03-.09-.06-.04-.06-.07-.11-.12-.15-.04-.02-.08-.05-.12-.07-.09-.08-.19-.16-.28-.23-.06-.04-.11-.06-.16-.12,0,0,0,0,0,0-.03,0-.07-.05-.08-.07,0-.03.02-.14.02-.18,0-.06,0-.13.01-.19.02-.07,0-.18.02-.25,0-.03,0-.05.01-.08,0-.04-.02-.09,0-.13.02-.07,0-.18.02-.24.02-.07.02-.26.01-.33-.01-.06-.03-.3-.04-.31-.04-.08-.06-.33-.06-.4.06-.04.11-.1.15-.15,0,0,.02,0,.03,0,.04-.03.07-.08.09-.1h.02s.09-.08.14-.13c.07-.06.13-.13.21-.19.11-.1.25-.2.35-.32.06-.07.16-.14.24-.19.02,0,.04-.02.06-.03.02-.03,0-.07,0-.09,0,0,0,0,.01,0,0,0,0-.01-.01-.02,0-.02,0-.02.02-.03.03-.06-.09-.33-.11-.38-.03-.06-.02-.15-.04-.21,0,0,0-.01-.01-.02,0-.03-.02-.06-.02-.09,0-.05-.07-.19-.11-.26-.03-.06-.05-.13-.08-.2-.03-.07-.1-.15-.13-.22-.03-.05-.03-.12-.06-.17-.04-.05-.09-.1-.13-.15-.06-.09-.11-.18-.18-.27-.02-.03-.07-.04-.09-.07-.02,0-.02-.02-.02-.05-.07-.05-.19-.03-.26-.04,0,0,0,0,0,0-.07.01-.18,0-.27,0-.04,0-.19,0-.19,0-.02.01-.35.04-.45.05-.09,0-.14-.02-.21,0-.1.02-.33.06-.38.04-.03.01-.13,0-.14,0-.02,0-.03-.03-.04-.05,0,0,0,0,0,0-.08-.06-.09-.12-.15-.2-.04-.04-.08-.06-.12-.11-.06-.07-.11-.13-.18-.2-.01-.02-.03-.04-.04-.07-.09-.07-.18-.17-.25-.25-.07-.09-.23-.17-.33-.25-.04-.04-.08-.09-.13-.12-.06-.04-.12-.07-.17-.13,0,0-.06-.04-.07-.04-.07-.05-.13-.11-.2-.16-.03-.02,0-.27,0-.3v-.13c0-.11,0-.23,0-.34.02-.17,0-.38,0-.56.01-.14.05-.29.01-.43-.05,0-.1-.05-.14-.07-.06-.03-.1-.03-.15-.05-.08-.03-.15-.09-.24-.12-.11-.04-.18-.05-.29-.1-.01,0-.18-.06-.2-.07-.02.02-.26-.09-.27-.1-.05-.04-.31-.08-.33-.12,0,0-.01,0-.02,0-.03-.03-.15-.06-.18-.06,0,0,0,0,0,0-.03-.02-.28-.06-.3-.1-.03,0-.11,0-.14.03-.13.06-.22.19-.33.26-.22.15-.42.36-.58.56-.07.06-.14.13-.21.19-.02.02-.05.02-.06.03-.06.05-.13.12-.2.17-.05.03-.16,0-.24,0-.03,0-.18-.01-.23-.04,0,0-.15,0-.2,0-.01,0-.16-.02-.16-.02-.04.03-.21,0-.26,0,0,0-.13,0-.13,0-.03,0-.05-.01-.08-.02-.1.01-.21,0-.31.04-.02-.01-.18,0-.22.01-.03,0-.04.02-.07.03-.05,0-.1,0-.14,0-.14.03-.28.03-.36.03-.01,0-.02,0-.02-.03,0,0,0,0-.01,0,0,0-.16-.13-.19-.17,0,0-.05-.07-.06-.07,0,0,0,0,0,0-.05-.06-.1-.1-.15-.16,0,0-.05-.03-.05-.04,0-.04-.15-.12-.19-.17-.02-.03-.02-.04-.04-.07-.02-.01-.04-.03-.06-.04-.03-.02-.06-.06-.08-.09-.02-.03-.04-.05-.06-.08-.06-.04-.14-.11-.18-.16-.01,0-.03,0-.04-.01-.03-.02-.04-.04-.07-.05,0-.02,0-.05-.01-.07-.02,0-.03-.02-.05-.03-.06,0-.09.03-.13.05-.06.02-.1,0-.18.03-.04.01-.08.04-.13.06-.02,0-.23.06-.26.07-.01,0-.03.03-.05.03-.05,0-.13.04-.18.07,0,0,0,0,0,0-.05,0-.13.04-.17.07-.02.02-.15.04-.2.06-.06.02-.12.06-.17.1-.01,0-.16.06-.18.08-.02,0-.05,0-.07.01-.1.08-.26.11-.36.19,0,0-.08.02-.09.04,0,0-.02,0-.03,0,0,.01,0,0,0,.02-.01.01-.02.02-.04.03,0,.03.01.15-.01.19.01.01,0,.08,0,.11,0,.02,0,.04,0,.07,0,.02.03.19.03.23,0,.03,0,.05,0,.08.01.06.02.12.03.18.01.07,0,.14,0,.2,0,.03,0,.06,0,.09.02.05.03.16.03.19,0,.12.05.42-.01.51-.02.02-.06.04-.09.05-.05.03-.1.08-.15.12-.09.06-.19.16-.26.24,0,.02-.02.03-.02.05-.04.03-.11.05-.14.08v.02s-.04.02-.06.04c0,.01,0,.02-.02.03-.03.03-.07.05-.09.1,0,0-.01,0-.02,0v.02s-.03.04-.06.04c0,0,0,0,0,0-.02,0-.07.07-.1.09-.04.03-.06.08-.1.12-.05.06-.17.1-.18.18,0,0,0,0-.01,0-.03.04-.23.29-.23.33,0,0,0,0-.01,0,0,0,0,0,0,.01-.11.09-.21.02-.36.05-.07.02-.2.04-.27.03-.06,0-.12,0-.18,0-.07.01-.13,0-.18,0-.13,0-.24,0-.32,0-.12-.02-.21,0-.3,0-.04,0-.14-.02-.16,0-.06.02-.14,0-.19.03-.1.07-.13.23-.2.34-.14.21-.24.43-.35.67-.04.09-.04.17-.08.27-.03.07-.08.15-.1.22,0,.01,0,.05,0,.05-.05.06-.08.22-.11.3v.07c-.03.06-.11.15-.11.23.05.05.09.11.14.16.16.14.29.25.46.37.02.02.04.05.06.07.02.02.05.02.06.03.05.04.07.09.13.12.05.03.09.07.13.1.02.01.03,0,.05.02,0,0,0,0,0,.01.04.03.07.09.12.12.03.02.07.04.11.06.03.02.05.06.07.08.03.02.09.04.11.07.02.02,0,.11-.02.14-.02.08-.03.21-.05.32,0,.05,0,.11,0,.14,0,0,0,.01.02.02-.02.06,0,.12-.03.16,0,0,0,0,.01,0,0,.02,0,.05-.01.08,0,.03,0,.03.02.04,0,.01,0,.01-.02.02.02.04,0,.1.02.14,0,0,0,0-.01,0,0,.07.01.29.05.34-.02.02.02.25.03.29,0,0-.01,0-.02,0,0,0,0,.02.01.03,0,0,0,0-.01,0,0,.05,0,.09.03.13-.02.04,0,.15.01.2-.01,0-.17.17-.18.19-.01.02-.07.04-.06.06,0,0-.05.03-.06.03-.03.02-.04.06-.07.08-.03.02-.07.04-.1.07-.07.07-.12.16-.2.22-.08.06-.17.11-.23.19,0,0,0,0,0,0-.03,0-.16.15-.2.19-.07.06-.2.15-.23.23-.01.03.03.22.05.25h0s.04.14.05.18c0,.02.03.12.05.13,0,0,0,.01,0,.02,0,.02.03.15.04.17.02.06.09.14.07.2,0,0,.01,0,.02,0,.01.03.02.08.06.09,0,0,0,0-.01,0,0,0,0,.02,0,.03.01,0,0,0,.01,0,0,0,.08.17.08.19,0,0,0,0-.01,0,.01.02.04.04.05.05.02.05.04.12.07.17.02.03.05.04.06.07.01,0,0,0,.01,0h0s.03.06.05.09c0,0,.03.1.03.1.06.09.12.2.18.29.02.03.07.14.09.15.05.02.11,0,.18.01.1.03.28,0,.37,0,.03,0,.09.02.13,0l.02-.02s.11,0,.13-.01c.05,0,.15,0,.17,0,.07.02.19-.01.28-.02.04,0,.05,0,.08-.01.03.02.07,0,.11.01,0,0,0-.01.01-.02.04.03.08,0,.13,0,.1.02.22-.01.34,0,.06.09.13.16.2.24.03.05.07.1.1.15.04.04.09.09.13.13.06.08.13.16.2.23,0,0,0,0,.01,0,.03.04.07.06.11.09.04.03.05.08.09.1.09.06.17.13.25.18.01.02.03.04.04.05.08.05.14.12.22.17.09.07.21.11.28.19-.03.08-.02.35,0,.42-.01.03-.02.09-.02.12,0,.04.03.13.03.17,0,.02,0,.11,0,.11,0,.03,0,.06.01.09-.02.08,0,.18-.02.25-.04.19,0,.36-.02.55.02.03.05.03.09.05.02.02.04.03.06.05.04.03.09.05.12.07.02.01.05,0,.07.02.07.06.2.08.29.12.01,0,.04,0,.05,0,.14.1.36.13.51.22h0s.02.01.02.01c0,0,.03,0,.03,0,0,0,0,.02.01.02.07.05.15.02.2.07.01,0,0,0,.01,0,.03.03.09.06.14.04,0,.01,0,0-.01.02h0s.02,0,.03,0c.01,0,0,0,0,.02.07.03.15.06.22.08,0,0,.06,0,.06,0,.1.04.36.11.49.07,0,0,0-.04,0-.04.01,0,.03,0,.04,0,.03-.02.04-.05.07-.08.07-.05.11-.12.18-.17.05-.04.1-.07.15-.1.09-.06.16-.17.24-.24.02-.02.04-.02.07-.03.01-.01.02-.03.04-.04.03-.03.08-.05.11-.08.08-.08.14-.16.21-.25.05-.06.18-.15.22-.22.04-.03.18,0,.25.02.02,0,.04,0,.05,0,.02,0,.05.02.07.02.2-.03.45.03.67.02.01,0,.01,0,.02,0,0,0,.37,0,.45,0,.06-.01.13.03.18-.01.18.04.39-.06.63-.06.04.07.13.12.18.19.08.11.18.22.3.29.02.02.04.04.05.06.07.07.13.13.2.2.01.01.08.07.1.08.01,0,.02,0,.03,0,0,0,0,0,0,.01.03.04.1.1.13.13.04.04.11.07.15.12.03.05.09.11.14.13.05.03.09-.02.12-.02.02,0,.03-.02.05-.02.08-.03.17-.03.24-.06,0,0,0,0,0-.02,0,0,0,0,.01.01.04-.03.12-.05.16-.05,0,0,0-.01,0-.02.03,0,.12,0,.14-.05.01,0,.02,0,.05,0,0-.01,0,0,0-.01,0,0,0,.01.02,0,.04-.01.08-.05.12-.07.04-.02.09-.01.14-.04.11-.06.22-.08.33-.15.04-.03.15-.04.18-.06.01,0,.03-.03.04-.03.01,0,.04,0,.05,0,.04-.01.08-.04.11-.07.05-.04.19-.04.2-.1.06-.04.18-.05.22-.12.01-.03.02-.06.03-.09,0-.04,0-.11-.01-.15,0-.03,0-.06,0-.08-.06-.23,0-.53-.04-.81,0-.03,0-.05.01-.08-.01-.08-.02-.16-.03-.24.01-.04-.02-.34-.02-.35.08-.06.14-.09.21-.15,0,0,0-.02.01-.03.1-.09.23-.14.31-.25.03-.04.13-.1.14-.15,0,0,0,.01,0,.02.02,0,.04-.03.04-.04.03,0,.2-.18.23-.21,0-.01.01,0,0-.01,0-.02,0,0,.02,0,0-.01,0,0,0-.01.05-.05.11-.08.16-.14.03-.03.04-.07.08-.08,0-.01,0,0-.01,0,.04-.02.15-.11.17-.16,0,0-.01-.02,0-.03.01,0,.03,0,.04-.01.02-.01.06-.08.07-.1.02-.03.01-.07.04-.1.03-.03.1-.11.12-.14.13,0,.27,0,.37.02.1.02.24-.02.34,0,0,0,0,0,0,0,.03,0,.08,0,.1.02.01,0,.02-.02.04-.01.08.02.31.03.33.04,0,0,0-.01.01-.02.1.03.21,0,.34,0,.03,0,.06-.01.08-.02.08-.02.17-.01.2.04.05,0,.05-.05.06-.08.03,0,.07,0,.09,0,0,0,.08-.17.1-.19.08-.13.14-.27.23-.38.03-.04.08-.18.1-.19,0,0,0-.01-.01-.02.04-.04.05-.08.07-.14,0,0,0-.02,0-.03.01-.01.02-.02.03-.03.04-.07.05-.14.08-.21.02-.03.05-.07.06-.1.02-.04.04-.15.05-.18v-.02s.03-.06.04-.09v-.05c.02-.06.04-.13.06-.19.01-.03.12-.27.11-.3-.01-.04-.04-.04-.05-.06h0Z"/>
    <path class="cls-2" d="M42.2,39.03s-.02.03-.03.05c-.02.08-.09.21-.13.26-.02.02-.03.07-.05.09-.03.05-.07.1-.11.15-.11.14-.2.26-.33.37,0,.01-.02.02-.02.03,0,0-.01,0-.02.01,0,0,0,.01,0,.02-.07.06-.14.12-.2.17-.02.01-.01.03-.03.04-.01.01-.04.02-.04.02-.01,0-.04.03-.04.04-.01,0-.03.01-.04.02-.03.02-.06.05-.09.06,0,0-.02,0-.02,0-.06.04-.11.07-.17.1-.04.02-.12.03-.14.07,0,0,0,0-.01,0h0s-.18.09-.19.1c0,0,0,0,0,0h0s0,0,0,0c-.03.03-.12.05-.13.08,0,0,0,0,0,0,0,0,0,0-.02,0,0,0,0,.01-.01.02-.02.01-.14.05-.16.05,0,0,0,0,0,0-.21.09-.41.11-.66.14-.03,0-.14,0-.14,0-.02.01-.06,0-.07,0-.06,0-.12.01-.17.03-.03,0-.07-.01-.11,0,0,0-.07,0-.08,0,0,0-.11-.03-.12-.03-.01,0-.07,0-.08,0,0,0,0,0,0,0,0,0-.11-.02-.14-.01-.04,0-.09,0-.14-.01,0,0-.02-.02-.03-.02-.03,0-.07,0-.09-.02-.03-.02-.07-.04-.11-.04,0,0,0,0,0,0-.05-.01-.14-.04-.17-.06-.03,0-.06-.01-.09-.02-.06-.03-.2-.08-.25-.11-.03-.02-.1-.04-.12-.07,0,0,0,0-.01,0,0-.02-.06-.03-.07-.04,0,0-.01-.02-.02-.02,0,0-.03,0-.04-.02-.06-.05-.13-.09-.19-.15,0,0-.03-.02-.04-.03,0,0,0,0,0,0,0,0,0,0-.01,0,0,0,0,0,0,0-.08-.02-.15-.11-.23-.16-.09-.06-.15-.13-.23-.21-.03-.03-.05-.08-.08-.11-.09-.09-.16-.18-.22-.28-.04-.07-.08-.13-.11-.19,0-.01-.04-.07-.03-.08-.02,0-.03-.05-.04-.07-.04-.05-.06-.12-.08-.19,0-.02-.02-.03-.03-.05,0-.01,0-.03,0-.04-.01-.04-.03-.07-.04-.11,0-.02,0-.05,0-.08,0-.03-.03-.06-.04-.08-.02-.05-.03-.1-.05-.16-.02-.09-.01-.21-.03-.31,0-.04-.02-.09-.03-.14,0-.07,0-.14,0-.21,0-.06.02-.12.02-.17,0-.02.01-.04.02-.07,0-.08.04-.15.05-.22,0-.04.02-.07.03-.11,0-.02.01-.04.02-.05,0-.05.01-.1.03-.14.02-.04.04-.08.06-.12.02-.03.03-.08.05-.12,0-.01.02-.03.03-.05,0-.07.06-.13.1-.19,0-.02.01-.03.02-.05.05-.05.06-.11.11-.17.02-.02.04-.04.06-.06.06-.08.12-.15.19-.21,0,0,.09-.12.1-.13.03-.03.07-.05.1-.07.02-.03.05-.06.07-.08.06-.05.13-.1.18-.14.01,0,.01-.02.03-.03.02-.02.05-.03.07-.05,0,0,.01-.02.02-.03.02-.02.06-.02.08-.04.11-.08.22-.15.33-.22.06-.03.12-.05.19-.08.04-.02.08-.04.13-.06,0,0,0,0,0,0,.04-.02.06-.06.11-.07.05,0,.1-.03.15-.04.05-.01.09-.01.13-.03.02,0,.08,0,.08-.02.02,0,.1,0,.12-.02,0,0,0,0,0,0,.03-.01.09-.01.11-.04,0,0,0,0,0,0,.04,0,.07,0,.1-.01,0,0,.13,0,.15-.02,0,0,.06,0,.07,0,0,0,.08.02.09,0,.02,0,.05.02.08.02.09,0,.19,0,.27.02,0,0,0,0,0-.01,0,0,.02.01.03.01,0,0,0,0,0,0,0,0,0,0,0,0,.01,0,.07.01.09,0,0,0,.02,0,.02.01.01,0,.02,0,.04,0,0,0,0,0,0,0,.04,0,.08.03.12.03.05,0,.13.02.19.03.05,0,.09.04.14.03.02.02.17.07.19.06,0,0,0,0,0,.01,0,0,.01,0,.02,0,.04.02.08.04.12.05,0,0,.11.03.14.04.14.07.28.14.4.23.02.01.07.03.08.04.03.03.07.06.11.09.02.01.04.01.05.03,0,0,0,0,.01,0,.01.03.08.06.11.09.02.02.07.06.09.09,0,0,0,.02.01.02,0,0,.02.02.02.02,0,0,0,0,.01,0,.03.05.12.12.16.17.03.03.07.08.09.12,0,.01.01.02.02.03.04.03.05.08.09.12.03.04.06.07.09.11.03.04.05.1.08.15.02.04.06.08.08.13,0,.02,0,.04.02.06.05.08.1.21.13.32,0,.03,0,.06.02.09,0,.01.02.03.02.04,0,.01,0,.06,0,.07,0,0,.01,0,.01,0v.02s0,.03,0,.04c0,.01,0,.03,0,.04.05.08.03.2.06.29,0,.01,0,.03,0,.04,0,0,0,0,0,0,0,0,0,.03,0,.04,0,0,0,0,0,0,0,0,0,.01,0,.02,0,0,.01.02.01.03,0,.02,0,.04,0,.06,0,.02,0,.05,0,.07.01.03.01.07.02.1,0,.07-.01.14-.01.19-.02.02-.01.06-.02.1l-.02.04c0,.07-.02.15-.03.21-.01.04-.03.09-.04.13,0,.04-.04.13-.05.18,0,.04-.02.1-.05.15-.01.02-.01.06-.02.07h0ZM44.1,40.65c-.03-.08-.07-.12-.12-.2-.02-.03-.03-.07-.04-.1-.01-.02-.03-.05-.05-.07-.01-.02-.04-.03-.04-.05-.01-.04-.02-.07-.04-.11-.02-.02-.04-.04-.06-.06-.04-.06-.08-.12-.12-.18-.03-.04-.05-.05-.07-.09,0,0,0,0,0,0-.02,0-.03-.04-.03-.05,0-.02.04-.07.05-.1.01-.03.02-.08.04-.11.02-.03.04-.1.06-.14,0-.01.02-.03.02-.04,0-.02,0-.05.02-.08.02-.04.04-.11.05-.13.03-.04.06-.14.07-.19,0-.04.04-.18.04-.19-.01-.05.03-.2.05-.24.04-.01.09-.04.12-.06,0,0,.01,0,.02,0,.03,0,.05-.03.07-.04h.01s.07-.03.11-.04c.05-.02.1-.05.15-.08.08-.04.18-.07.26-.12.04-.03.12-.05.17-.07.01,0,.03,0,.04-.01.02-.01.02-.04.02-.05,0,0,0,0,0,0,0,0,0,0,0-.01,0-.01,0-.01.02-.01.03-.03.01-.2,0-.24,0-.04.02-.09.01-.13,0,0,0,0,0-.01,0-.02,0-.04,0-.05.01-.03,0-.12-.01-.17,0-.04,0-.08,0-.13,0-.05-.03-.1-.03-.15,0-.04,0-.07,0-.11-.01-.04-.03-.07-.04-.11-.02-.06-.03-.12-.05-.18,0-.02-.03-.03-.04-.05-.01,0,0-.02,0-.03-.03-.04-.11-.05-.14-.06,0,0,0,0,0,0-.04,0-.11-.03-.16-.04-.02,0-.11-.03-.11-.03-.01,0-.21-.03-.27-.05-.05-.01-.07-.03-.12-.04-.06,0-.2-.02-.23-.04-.02,0-.07-.02-.08-.03,0,0-.01-.02-.02-.03,0,0,0,0,0,0-.03-.05-.03-.09-.05-.14-.01-.03-.04-.05-.05-.08-.02-.05-.04-.09-.07-.14,0-.02,0-.03-.01-.05-.04-.06-.07-.13-.09-.19-.02-.06-.1-.14-.14-.2-.02-.03-.03-.06-.05-.09-.03-.03-.06-.06-.07-.1,0,0-.03-.03-.03-.03-.03-.04-.06-.08-.08-.13-.01-.02.05-.15.06-.17l.03-.08c.02-.07.05-.13.07-.2.04-.09.07-.22.11-.32.03-.08.08-.16.09-.25-.03-.01-.05-.05-.07-.06-.03-.02-.05-.03-.08-.06-.04-.03-.07-.08-.11-.11-.05-.04-.09-.06-.14-.11,0,0-.09-.06-.1-.08-.02,0-.13-.09-.14-.1-.02-.03-.16-.1-.17-.13,0,0,0,0-.01,0-.01-.02-.08-.06-.09-.06,0,0,0,0,0,0-.01-.02-.15-.08-.15-.11-.02,0-.06-.01-.09,0-.09.01-.16.07-.24.1-.15.05-.31.14-.44.23-.05.02-.1.05-.16.07-.02,0-.03,0-.04,0-.05.02-.1.05-.14.06-.03.01-.09-.03-.14-.04-.02,0-.1-.04-.12-.06,0,0-.09-.03-.11-.04,0,0-.09-.04-.09-.04-.03.01-.12-.03-.15-.05,0,0-.08-.02-.08-.02-.01,0-.03-.01-.04-.02-.06-.01-.12-.04-.18-.03,0,0-.1-.03-.13-.03-.02,0-.03,0-.05,0-.03,0-.06-.01-.08-.02-.09,0-.17-.03-.21-.04,0,0,0,0,0-.02,0,0,0,0,0,0,0,0-.07-.1-.08-.13,0,0-.01-.05-.02-.05,0,0,0,0,0,0-.02-.04-.04-.07-.05-.11,0,0-.02-.03-.02-.03,0-.02-.06-.09-.07-.13,0-.02,0-.03,0-.05,0-.01-.02-.02-.03-.03-.01-.02-.02-.04-.03-.06,0-.02-.01-.04-.02-.05-.03-.03-.06-.09-.07-.12,0,0-.01,0-.02-.01-.01-.01-.01-.03-.03-.04,0-.01,0-.03,0-.04,0,0-.01-.01-.02-.02-.03,0-.06,0-.09,0-.04,0-.06-.01-.11-.01-.03,0-.06,0-.09,0-.01,0-.14,0-.16,0,0,0-.02.01-.04,0-.03-.01-.08,0-.12,0,0,0,0,0,0,0-.03,0-.08,0-.11.01-.02,0-.09,0-.12,0-.04,0-.08.01-.12.03,0,0-.11,0-.12.01-.01,0-.03,0-.04,0-.07.03-.17.02-.24.05,0,0-.05,0-.06,0,0,0,0,0-.01,0,0,0,0,0,0,.01,0,0-.02,0-.03.01,0,.02-.02.09-.04.1,0,0-.01.05-.02.06,0,.01,0,.02-.01.04,0,.01-.02.11-.03.14,0,.02-.01.03-.02.05,0,.04-.01.07-.02.11,0,.04-.03.08-.04.12,0,.02-.01.03-.02.05,0,.03-.01.1-.02.12-.02.07-.05.25-.1.29-.01.01-.04.01-.06.02-.04,0-.07.03-.11.04-.06.02-.14.06-.19.09,0,0-.02.02-.02.02-.03.01-.08.01-.09.02h0s-.03.01-.04.02c0,0,0,.01-.02.02-.02.01-.05.02-.07.04,0,0,0,0-.01,0h0s-.02.03-.04.02c0,0,0,0,0,0-.01,0-.05.03-.07.03-.03.01-.05.03-.08.05-.04.02-.11.03-.14.07,0,0,0,0,0,0-.03.02-.19.13-.2.15,0,0,0,0,0,0,0,0,0,0,0,0-.08.03-.12-.02-.22-.03-.05,0-.12-.01-.16-.03-.03-.01-.07-.02-.1-.04-.04,0-.07-.02-.1-.03-.07-.02-.14-.04-.18-.06-.07-.03-.12-.03-.17-.05-.02,0-.08-.03-.09-.03-.04,0-.08-.03-.11-.02-.07.02-.12.11-.18.16-.12.1-.22.21-.33.32-.04.04-.06.09-.1.14-.03.04-.07.07-.1.11,0,0,0,.03-.01.03-.04.03-.09.11-.12.15v.04s-.11.07-.12.11c.02.04.03.08.05.12.06.1.12.19.19.29,0,.01.01.03.02.05,0,.01.02.02.03.03.02.03.02.06.05.09.02.03.04.06.06.08,0,0,.02.01.02.02,0,0,0,0,0,0,.02.03.02.06.05.09.01.02.03.03.05.05.01.01.02.04.03.06.01.02.04.04.05.06,0,.01-.03.06-.04.08-.03.04-.06.12-.09.17-.01.02-.02.07-.03.08,0,0,0,0,0,.01-.02.03-.03.07-.05.09,0,0,0,0,0,0,0,.01-.01.03-.02.04,0,.02,0,.02,0,.03,0,0,0,0-.02,0,0,.02-.02.06-.02.09,0,0,0,0,0,0-.01.04-.05.17-.04.2-.02.01-.04.15-.04.17,0,0,0,0-.01,0,0,0,0,.01,0,.02,0,0,0,0,0,0-.01.03-.01.05,0,.08-.02.02-.03.09-.03.11,0,0-.13.07-.14.08-.01,0-.05,0-.04.03,0,0-.04.01-.04,0-.02,0-.04.03-.06.03-.02,0-.05,0-.07.02-.05.03-.1.07-.16.09-.06.02-.12.04-.17.07,0,0,0,0,0,0-.02,0-.12.06-.15.07-.05.02-.14.05-.18.09-.01.02-.02.13-.02.15h0s0,.09,0,.11c0,0,0,.07,0,.08,0,0,0,0,0,.01,0,0-.01.09-.01.1,0,.04.03.09,0,.12,0,0,0,0,.01,0,0,.02,0,.05.02.06,0,0,0,0,0,0,0,0,0,.01,0,.02,0,0,0,0,0,0,0,0,.01.11.01.12,0,0,0,0,0,0,0,.01.02.03.02.04,0,.03,0,.07,0,.11,0,.02.02.03.02.05,0,0,0,0,0,0h0s0,.04.01.06c0,0,0,.06,0,.06.02.06.03.13.05.2,0,.02.01.09.02.1.02.02.07.02.1.04.05.03.16.05.21.06.02,0,.05.03.07.03h.02s.06,0,.08,0c.03,0,.08.02.1.03.04.02.11.02.16.03.02,0,.03.01.05,0,.01.02.04.02.06.03,0,0,0,0,0,0,.02.02.05.01.08.03.05.03.13.03.19.05.01.06.04.11.07.17.01.04.02.07.03.11.02.03.03.07.05.1.02.05.04.11.07.16,0,0,0,0,0,0,0,.03.03.05.04.07.02.02.02.05.03.07.04.05.07.1.11.14,0,.01,0,.03.01.04.03.04.06.09.09.14.04.05.1.1.12.16-.03.04-.08.2-.08.24-.01.01-.03.05-.03.07,0,.03,0,.08-.02.1,0,.01-.02.06-.02.06,0,.02,0,.04,0,.05-.03.04-.04.1-.06.14-.06.1-.07.21-.12.31,0,.02.02.02.04.04,0,.01.02.03.02.04.02.02.04.04.06.06.01.01.03.01.03.02.03.04.1.08.14.12,0,0,.02.01.03.01.06.08.18.14.25.21h0s0,0,.01.01c0,0,.02,0,.02,0,0,0,0,.01,0,.01.03.04.08.04.1.07,0,0,0,0,0,0,.01.02.04.05.07.05,0,0,0,0-.01,0h0s0,0,.02,0c0,0,0,0,0,.01.03.03.08.06.11.09,0,0,.04.01.04.01.05.04.18.12.27.12,0,0,.01-.02.01-.02,0,0,.02,0,.03,0,.02,0,.03-.02.06-.03.05-.02.09-.05.13-.07.03-.01.07-.02.1-.03.06-.02.13-.07.18-.1.01,0,.03,0,.05,0,0,0,.02-.01.03-.02.02-.01.05-.01.08-.03.06-.03.11-.07.17-.11.04-.03.13-.06.17-.09.03,0,.1.03.14.05.01,0,.02,0,.03,0,0,0,.02.02.03.02.12.02.26.09.38.13,0,0,0,0,.01,0,0,0,.21.07.26.07.04,0,.07.04.1.02.09.05.24.03.37.07.01.04.05.09.07.14.02.08.06.15.11.22,0,.01.01.03.02.04.02.05.05.1.07.15,0,.01.03.05.04.06,0,0,.01,0,.02,0,0,0,0,0,0,0,0,.03.04.07.05.1.02.03.05.06.06.09.01.03.03.08.05.1.02.02.05,0,.07.01.01,0,.02,0,.03,0,.05,0,.1.01.15,0,0,0,0,0,0,0,0,0,0,0,0,0,.03,0,.08,0,.1,0,0,0,0,0,0,0,.02,0,.07.02.09,0,0,0,.01,0,.03,0,0,0,0,0,0,0,0,0,0,0,.01,0,.02,0,.05-.01.08-.02.03,0,.06,0,.09,0,.07-.02.14-.01.22-.03.03,0,.09,0,.11,0,0,0,.02-.01.03-.01,0,0,.02,0,.03,0,.03,0,.06-.01.08-.02.04-.01.11,0,.13-.02.04-.01.11,0,.15-.03.01-.02.02-.03.03-.05,0-.02.02-.06.02-.09,0-.02.01-.03.02-.05.01-.14.1-.3.13-.47,0-.01.02-.03.02-.04,0-.05.02-.1.03-.14.02-.02.05-.2.05-.2.06-.02.1-.03.15-.05,0,0,0,0,.01-.01.08-.03.16-.04.22-.09.03-.02.1-.03.11-.06,0,0,0,0,0,0,.02,0,.03,0,.03-.02.02,0,.15-.07.17-.08,0,0,0,0,0,0,0,0,0,0,.01,0,0,0,0,0,0,0,.04-.02.08-.03.12-.05.02-.01.04-.03.06-.04,0,0,0,0,0,0,.03,0,.11-.04.13-.06,0,0,0-.01,0-.02,0,0,.02,0,.03,0,.01,0,.05-.03.06-.05.01-.01.02-.04.04-.05.02-.01.08-.04.09-.06.07.03.15.05.21.07.06.03.14.03.19.06,0,0,0,0,0,0,.02.01.04.02.05.03,0,0,.02,0,.03,0,.04.03.17.07.18.08,0,0,0,0,.01,0,.05.04.12.03.19.06.02,0,.03,0,.05,0,.05,0,.1.02.11.06.03,0,.04-.02.05-.03.02,0,.04.01.06.01,0,0,.08-.08.09-.09.07-.06.13-.13.2-.18.02-.02.08-.09.1-.09,0,0,0,0,0-.01.03-.02.05-.04.07-.07,0,0,0-.01,0-.02,0,0,.02,0,.03-.01.03-.03.05-.07.09-.11.01-.01.04-.03.05-.05.02-.02.05-.08.06-.09h0s.03-.04.05-.06v-.03s.06-.07.08-.1c.01-.01.12-.14.12-.15,0-.02-.01-.03-.02-.04h0Z"/>
    <path class="cls-2" d="M31.38,27.21s-.02.07-.02.1c0,.16-.04.44-.09.55-.02.04-.02.14-.03.18-.03.11-.07.22-.12.34-.12.32-.22.59-.38.88,0,.02-.02.05-.02.07-.01.01-.02.02-.03.03,0,.01,0,.03,0,.04-.09.14-.2.3-.28.43-.03.04,0,.05-.02.09-.02.03-.06.05-.07.06-.02.02-.05.07-.06.09-.02.02-.05.04-.07.06-.04.06-.08.12-.13.16,0,0-.04.01-.04.01-.09.11-.16.19-.25.29-.06.06-.2.12-.21.2,0,0,0,0-.02,0v.02s-.29.26-.3.27c0,0,0,0-.01,0h0s0-.01,0-.01c-.03.08-.19.15-.2.21,0,0,0-.01,0-.02-.01.01-.01.01-.03.01,0,.01,0,.02-.01.04-.04.04-.24.17-.28.17,0,0,0,0,0,0-.33.29-.7.43-1.15.62-.06.02-.27.07-.27.07-.02.03-.1.03-.13.05-.1.05-.21.09-.29.15-.05.03-.14.02-.2.04.02,0-.12.04-.14.04,0,0-.23.01-.25.02-.02,0-.13.05-.15.04,0,0,0,0-.02,0,0,0-.21.03-.27.05-.08.03-.18.04-.27.06-.02,0-.06-.02-.08-.02-.05.02-.13.03-.17.01-.08-.02-.15-.03-.24-.01,0,0,0,0,0-.01-.11,0-.29,0-.36-.02-.06,0-.12,0-.17.01-.12-.03-.42-.04-.54-.07-.08-.02-.21-.01-.27-.06-.02,0,0,0-.02.01-.02-.03-.13-.03-.15-.04-.02-.01-.03-.02-.05-.03-.01,0-.06,0-.09,0-.15-.06-.3-.1-.46-.18,0,0-.08-.03-.1-.03,0-.01,0,0,0-.02,0,0-.02,0-.02,0,0,0,0,0,0-.01-.16,0-.34-.12-.54-.18-.2-.06-.37-.17-.56-.27-.08-.04-.14-.12-.22-.16-.23-.13-.42-.25-.6-.4-.12-.11-.22-.19-.32-.3-.02-.02-.11-.1-.11-.12-.04,0-.08-.09-.12-.11-.11-.07-.19-.19-.28-.31-.03-.03-.05-.05-.08-.08-.01-.03-.02-.05-.04-.08-.05-.06-.11-.12-.15-.18-.03-.03-.03-.09-.06-.14-.03-.05-.09-.09-.12-.13-.07-.09-.12-.18-.19-.27-.1-.15-.16-.39-.26-.57-.04-.08-.1-.16-.14-.24-.05-.12-.08-.27-.12-.39-.04-.11-.03-.23-.07-.33,0-.04,0-.09,0-.13-.04-.15-.02-.31-.04-.44,0-.07-.01-.15-.02-.22,0-.04,0-.07,0-.11-.03-.09-.04-.2-.03-.28.01-.09.03-.17.04-.26.01-.07,0-.17.01-.24,0-.03.03-.07.02-.11-.03-.14.04-.27.07-.41,0-.03,0-.07,0-.1.05-.12.05-.24.1-.37.02-.04.05-.09.07-.14.07-.18.13-.35.22-.5,0-.01.09-.27.1-.3.03-.07.09-.12.13-.18.03-.07.06-.13.09-.2.07-.13.17-.26.25-.37.02-.03,0-.05.03-.08.03-.04.07-.08.1-.13.01-.02.01-.04.03-.07.03-.04.09-.07.12-.11.16-.21.32-.41.49-.59.09-.1.21-.15.3-.24.07-.06.13-.12.2-.18-.01,0,0-.01,0-.01.06-.07.08-.14.17-.19.1-.05.16-.11.25-.16.08-.04.16-.08.23-.13.03-.02.15-.05.14-.09.04,0,.19-.07.21-.1,0,0,0,0,0,.01.04-.03.17-.08.18-.13,0,0,.01,0,.02.01.07-.03.14-.04.19-.08,0-.01.25-.08.28-.12,0,.02.12-.03.12-.04.02,0,.15,0,.17-.04.03,0,.1,0,.17-.01.16-.05.36-.09.52-.11,0,0,0-.01,0-.02.02,0,.04.01.06,0,.01,0,.01,0,0-.02.01,0,0,0,0,.01.03,0,.14-.01.17-.03.02,0,.03,0,.05,0,.03,0,.04-.02.08-.03,0,0,0,0,0,.01.07-.02.18,0,.25-.01.1-.03.25-.03.37-.06.1-.02.2.02.27-.01.04.03.36.03.39.01.02,0,.01.01.02.02.01,0,.02,0,.03,0,.09.01.18.02.27.03.02,0,.23,0,.28,0,.31.06.61.11.88.21.05.02.14.01.18.03.08.04.18.08.26.11.04.01.07,0,.11.04.02,0,.01,0,.02-.01.04.05.19.07.27.1.06.02.17.07.22.11.01.01.02.03.04.04.02,0,.04.02.06.03,0,0,.01,0,.02,0,.09.09.29.15.41.22.08.04.18.11.25.17.02.02.04.04.06.06.09.04.15.13.24.18.08.05.15.11.23.16.08.06.17.17.24.24.06.07.17.12.23.2.02.03.04.08.07.1.15.13.33.34.45.53.03.05.05.11.08.15.01.02.05.04.06.06.02.03.03.11.06.13.01,0,.03,0,.03,0v.03s.04.04.05.06c0,.03.02.05.03.08.14.13.17.36.29.51,0,.03.01.05.02.08,0,0,.01,0,.02,0,0,0,.01.07.02.07,0,0,.01,0,.02,0,0,.01,0,.02,0,.04,0,.01.03.03.04.04.02.04,0,.07.04.11.01.05.02.1.03.14.04.05.07.12.09.18.05.12.06.26.1.36-.02.05.02.13.03.19v.08c.02.13.05.29.07.4,0,.09,0,.18,0,.27.03.07.01.26.03.36,0,.07.02.2,0,.31,0,.04.01.12,0,.15h0ZM35.97,29.19c-.11-.14-.2-.19-.35-.3-.06-.05-.09-.13-.14-.17-.04-.04-.09-.07-.13-.11-.03-.03-.09-.04-.11-.07-.04-.07-.08-.12-.15-.17-.05-.03-.1-.06-.14-.09-.11-.09-.22-.19-.33-.27-.07-.05-.13-.07-.19-.14,0-.01,0,0,0-.01-.04,0-.09-.06-.1-.09-.01-.04.02-.16.03-.21,0-.07-.01-.15.01-.23.02-.08,0-.21.03-.3,0-.03.01-.06.02-.1,0-.05-.02-.11,0-.16.02-.08,0-.22.02-.28.03-.08.03-.3.01-.39-.01-.08-.04-.35-.05-.37-.05-.09-.07-.39-.07-.48.07-.04.14-.12.18-.18.01,0,.02,0,.03,0,.04-.03.08-.09.1-.12h.02c.06-.05.11-.1.17-.15.08-.07.16-.16.24-.23.14-.11.29-.23.41-.37.07-.08.19-.17.28-.22.02-.01.05-.02.07-.04.03-.03.01-.08,0-.11,0,0,0,0,.01,0,0,0-.01-.01-.02-.02,0-.02,0-.02.02-.03.04-.07-.11-.39-.13-.45-.03-.07-.02-.18-.05-.24,0,0-.01-.01-.02-.02,0-.03-.02-.07-.03-.1,0-.06-.09-.23-.13-.3-.04-.07-.05-.15-.09-.23-.04-.09-.11-.18-.16-.26-.04-.06-.04-.14-.08-.2-.04-.06-.11-.12-.15-.18-.07-.11-.13-.22-.21-.31-.03-.04-.09-.04-.11-.08-.03,0-.03-.02-.03-.06-.09-.06-.23-.03-.3-.04,0,0,0,0,0,.01-.08.01-.22,0-.32.01-.05,0-.22,0-.22,0-.02.01-.41.05-.53.06-.11,0-.16-.02-.24,0-.12.02-.39.07-.45.04-.03.02-.15,0-.17,0-.02-.01-.04-.03-.05-.06,0,0,0,0,0-.01-.09-.07-.1-.15-.18-.23-.05-.05-.1-.08-.14-.13-.07-.08-.13-.15-.21-.23-.02-.03-.03-.05-.05-.08-.11-.08-.21-.2-.29-.3-.08-.1-.28-.21-.39-.3-.05-.04-.09-.1-.15-.14-.07-.05-.14-.08-.2-.15,0,.01-.07-.04-.08-.05-.08-.06-.16-.13-.24-.19-.03-.02,0-.31,0-.35v-.16c0-.13,0-.27,0-.4.02-.2-.01-.45,0-.65.01-.16.05-.34.01-.51-.06,0-.11-.06-.16-.09-.07-.03-.12-.03-.18-.06-.09-.04-.18-.1-.28-.14-.13-.05-.21-.06-.34-.12-.02,0-.21-.07-.24-.09-.02.02-.3-.1-.32-.11-.06-.05-.36-.09-.39-.14,0,0-.02,0-.02.01-.04-.03-.18-.07-.21-.07,0,0,0,0,0,0-.04-.03-.33-.07-.35-.11-.04,0-.13.01-.17.03-.15.07-.26.22-.39.31-.25.18-.49.43-.68.66-.08.07-.16.15-.25.22-.03.02-.06.03-.08.04-.07.06-.16.14-.23.2-.05.04-.19-.01-.29,0-.03,0-.21-.01-.27-.04,0,0-.18,0-.24,0-.02,0-.19-.03-.19-.03-.05.04-.24,0-.31,0,0,0-.16.01-.16.01-.03,0-.06-.01-.09-.02-.12.01-.25,0-.36.04-.02-.01-.21,0-.25.01-.03,0-.05.03-.08.04-.06,0-.11,0-.17,0-.16.04-.33.04-.42.04-.02,0-.02-.01-.02-.03,0,0-.01,0-.02.01,0-.01-.19-.15-.23-.2,0,0-.06-.09-.08-.08,0,.01,0,0,0,0-.05-.07-.12-.12-.17-.18,0,0-.06-.04-.06-.05,0-.05-.17-.14-.22-.2-.02-.03-.03-.05-.04-.08-.02-.01-.04-.03-.07-.04-.04-.03-.07-.07-.1-.1-.02-.03-.05-.06-.07-.09-.07-.05-.16-.13-.21-.19-.02,0-.03,0-.05-.01-.03-.02-.04-.05-.08-.06,0-.03-.01-.05-.02-.08-.02,0-.04-.02-.06-.03-.07,0-.11.04-.16.06-.07.02-.12,0-.21.03-.05.02-.1.05-.16.07-.03,0-.27.07-.31.09-.02,0-.04.03-.06.03-.06,0-.15.04-.21.08,0,0,0,0,0,0-.06,0-.15.05-.2.09-.03.02-.18.05-.23.07-.07.02-.14.07-.2.11-.01-.01-.19.08-.21.09-.03,0-.06,0-.08.01-.12.1-.3.13-.42.23,0,0-.09.03-.11.05-.01,0-.02,0-.03-.01,0,.02,0,.01,0,.03-.01.01-.03.02-.04.04.01.04.01.18-.01.22.02.01,0,.1,0,.13,0,.03,0,.05,0,.08,0,.02.04.22.03.27,0,.03,0,.06,0,.1.01.07.02.14.04.21.02.08,0,.16,0,.24,0,.03,0,.07,0,.1.02.05.04.19.04.23,0,.14.06.49-.01.6-.02.03-.07.04-.1.06-.06.04-.11.1-.18.14-.11.07-.23.18-.31.28,0,.02-.02.04-.03.06-.05.04-.13.06-.16.09v.02s-.05.03-.07.04c-.01.01,0,.03-.02.04-.04.04-.09.06-.11.11,0,0-.02,0-.02,0v.02s-.03.05-.07.05c0,0,0,0,0,.01-.03,0-.08.08-.12.1-.04.03-.07.09-.12.14-.06.07-.2.12-.21.21,0,0-.01,0-.02,0-.04.05-.27.34-.27.39,0,0,0,0-.01,0,0,0,0,0,0,.01-.12.11-.25.02-.42.06-.09.02-.24.04-.31.03-.07,0-.14,0-.21-.01-.08.02-.15,0-.21,0-.15.01-.29,0-.38,0-.14-.02-.25,0-.35,0-.05,0-.16-.02-.19-.01-.07.03-.17,0-.23.03-.12.08-.15.28-.23.4-.16.25-.28.51-.41.79-.05.11-.05.2-.1.32-.03.09-.09.18-.12.26,0,.02,0,.05,0,.06-.05.07-.1.26-.13.35v.09c-.03.08-.13.18-.13.27.06.06.11.13.17.19.18.16.35.3.54.44.03.02.05.06.07.08.02.02.06.02.08.04.05.05.09.11.15.14.06.03.1.09.16.12.02.01.04,0,.06.02,0,0,0,.01,0,.01.05.04.09.1.14.14.04.02.09.04.13.07.04.02.05.07.09.09.04.02.11.04.13.08.02.02,0,.13-.02.17-.03.1-.04.25-.06.38-.01.05.01.13,0,.17,0,.01,0,.01.02.02-.02.07,0,.14-.04.19,0,0,.01,0,.02.01,0,.03,0,.06-.01.09,0,.04,0,.04.03.05,0,.01,0,.02-.02.03.02.04,0,.12.02.17,0,0-.01,0-.02.01,0,.08.02.34.06.4-.03.03.02.3.04.34,0,0-.02,0-.02,0,0,0,.01.02.02.03,0,0,0,0-.01,0,0,.06.01.1.03.16-.02.05,0,.18.01.23-.02,0-.2.2-.21.23-.02.02-.08.04-.07.07,0,0-.06.04-.08.04-.03.03-.05.07-.09.1-.04.03-.08.05-.12.08-.08.08-.14.19-.23.26-.1.07-.2.14-.27.22,0,0,0,0,0,0-.04,0-.19.18-.23.22-.08.07-.23.18-.27.27-.02.04.04.26.06.3h0s.05.16.06.21c-.01.02.04.14.06.15,0,0,0,.02,0,.03,0,.02.04.17.04.2.03.08.11.16.08.23,0,0,.02,0,.02,0,.02.04.02.09.07.11,0,0-.01,0-.02,0,0,0,0,.02,0,.03.01,0,0,0,.02,0,0,0,.09.2.1.22,0,0,0,0-.01,0,.01.02.05.05.06.06.02.05.04.14.08.2.02.03.05.05.07.09.01,0,0,0,.02,0h0s.04.07.06.1c0,0,.04.11.04.12.07.11.15.23.21.34.02.03.08.16.11.17.06.03.14,0,.21.01.12.04.32,0,.43-.01.03,0,.11.02.15.01l.02-.02s.13,0,.16-.01c.05-.01.17,0,.2,0,.09.02.23-.02.33-.03.05,0,.06,0,.1-.01.04.02.08.01.13.01,0,0,0-.01.01-.02.05.04.1,0,.16,0,.12.02.26-.01.4,0,.07.11.15.19.23.28.04.06.08.12.12.18.05.05.11.1.16.16.08.09.15.19.24.27.01,0,0,0,.01,0,.03.04.08.07.13.1.04.03.06.09.11.12.1.07.2.15.3.21.02.02.03.04.05.06.09.06.17.14.26.2.11.08.24.13.33.23-.03.1-.03.42,0,.49-.02.03-.03.11-.02.14.01.05.04.16.03.2,0,.02,0,.13,0,.13,0,.04.01.07.02.11-.02.09,0,.21-.02.3-.04.23-.01.43-.02.65.03.04.06.03.1.06.02.02.04.04.07.06.04.03.1.06.15.08.03.01.06,0,.08.02.09.07.23.1.34.14.02,0,.05,0,.06.01.17.12.42.16.6.26h0s.02.01.03.01c0,0,.03-.01.03-.01.01,0,0,.02.02.03.08.06.17.03.23.09.02,0,0,0,.02-.01.04.04.11.07.17.05,0,.02,0,.01-.02.02h0s.02,0,.03,0c.01.01,0,0,0,.02.08.04.18.07.26.1.01,0,.08,0,.08,0,.12.05.42.13.58.08,0,0,0-.05,0-.05.02,0,.03,0,.05-.01.04-.02.04-.06.09-.09.08-.05.13-.14.21-.2.05-.05.11-.08.17-.12.1-.07.19-.2.28-.29.02-.02.05-.02.08-.04.01-.02.03-.03.04-.05.04-.03.09-.06.13-.09.09-.09.17-.19.25-.29.06-.08.22-.18.25-.26.05-.03.21,0,.29.02.02,0,.05,0,.06,0,.02,0,.06.03.08.03.24-.03.54.03.79.03.02,0,.01,0,.02-.01,0,0,.44,0,.53,0,.07-.01.15.04.21-.01.21.04.46-.07.74-.07.05.08.15.14.21.22.09.13.21.26.35.34.02.02.04.05.06.07.08.08.16.15.23.24.01.02.1.08.12.1.01,0,.02,0,.04,0,0,0,0,0,0,.01.03.04.11.12.15.16.05.05.13.08.17.14.04.05.11.13.17.16.05.03.1-.02.15-.02.03,0,.04-.02.06-.03.09-.03.2-.04.28-.07,0,0,0,0,0-.02,0,0,0,0,.01.01.04-.03.14-.06.19-.06,0,0,0-.01,0-.02.04,0,.14,0,.17-.06.01,0,.03,0,.06,0,0-.02,0,0,0-.01,0,0,0,.01.03,0,.04-.01.09-.05.14-.08.05-.02.11-.02.16-.04.13-.07.26-.1.38-.17.05-.03.17-.05.21-.07.02,0,.04-.04.05-.04.01,0,.05,0,.06,0,.05-.01.1-.05.13-.08.06-.04.22-.05.23-.11.07-.05.21-.06.26-.14.01-.04.02-.07.04-.11,0-.05,0-.13-.02-.18,0-.03,0-.07,0-.1-.07-.28,0-.62-.05-.96,0-.03.01-.06.02-.09-.01-.09-.03-.19-.04-.28.02-.04-.02-.4-.03-.41.1-.07.16-.11.24-.17,0,0,0-.02.01-.03.12-.1.27-.17.36-.29.04-.05.16-.12.16-.18,0,0,0,.01,0,.02.03,0,.05-.03.04-.05.03,0,.24-.21.27-.25,0-.01.01,0,0-.01,0-.02,0-.01.02,0,0-.01,0,0,0-.01.06-.06.13-.1.19-.16.03-.03.05-.08.09-.1,0-.01,0,0-.01-.01.05-.03.17-.13.19-.19,0-.01-.01-.02,0-.04.02,0,.03,0,.05-.01.02-.02.07-.09.09-.12.02-.03.02-.08.05-.11.03-.03.12-.12.14-.17.15.01.31,0,.44.03.12.02.28-.03.4,0,0,0,0,0,0-.01.04.01.09,0,.12.02.01,0,.03-.02.05-.01.1.02.36.03.38.05,0,0,.01-.01.02-.02.12.04.25,0,.4.01.03,0,.07-.01.1-.02.09-.02.19-.01.23.05.06,0,.06-.06.08-.09.04-.01.08,0,.11-.01,0,0,.1-.2.12-.23.1-.16.17-.32.27-.45.03-.05.09-.21.12-.23,0,0-.01-.01-.02-.02.04-.04.06-.09.08-.17,0,0,0-.02,0-.03.01-.01.03-.02.04-.04.04-.08.05-.17.1-.25.02-.04.05-.08.07-.12.02-.05.05-.17.06-.21v-.02s.04-.07.05-.11v-.06c.02-.08.05-.15.07-.23.01-.03.14-.32.13-.35-.01-.04-.05-.05-.06-.07h0Z"/>
    <path class="cls-2" d="M30.73,41.08s0,.02,0,.03c0,.04,0,.12-.02.15,0,.01,0,.04,0,.05,0,.03-.02.06-.03.09-.03.09-.06.16-.11.24,0,0,0,.01,0,.02,0,0,0,0,0,0,0,0,0,0,0,.01-.02.04-.05.08-.08.12,0,.01,0,.01,0,.02,0,0-.02.01-.02.02,0,0-.01.02-.02.03,0,0-.01.01-.02.02-.01.02-.02.03-.03.04,0,0-.01,0-.01,0-.02.03-.04.05-.07.08-.02.02-.05.03-.06.05,0,0,0,0,0,0h0s-.08.08-.08.08c0,0,0,0,0,0h0s0,0,0,0c0,.02-.05.04-.06.06,0,0,0,0,0,0,0,0,0,0,0,0,0,0,0,0,0,.01,0,.01-.07.05-.08.05,0,0,0,0,0,0-.09.08-.19.12-.31.17-.02,0-.07.02-.07.02,0,0-.03,0-.04.01-.03.01-.06.02-.08.04-.01,0-.04,0-.06.01,0,0-.03.01-.04.01,0,0-.06,0-.07,0,0,0-.04.01-.04.01,0,0,0,0,0,0,0,0-.06,0-.07.01-.02,0-.05.01-.07.02,0,0-.02,0-.02,0-.01,0-.04,0-.05,0-.02,0-.04,0-.07,0,0,0,0,0,0,0-.03,0-.08,0-.1,0-.02,0-.03,0-.05,0-.03,0-.12-.01-.15-.02-.02,0-.06,0-.07-.02,0,0,0,0,0,0,0,0-.03,0-.04-.01,0,0,0,0-.01,0,0,0-.02,0-.02,0-.04-.02-.08-.03-.12-.05,0,0-.02,0-.03,0,0,0,0,0,0,0,0,0,0,0,0,0,0,0,0,0,0,0-.04,0-.09-.03-.15-.05-.05-.02-.1-.05-.15-.07-.02-.01-.04-.03-.06-.04-.06-.04-.12-.07-.16-.11-.03-.03-.06-.05-.09-.08,0,0-.03-.03-.03-.03-.01,0-.02-.02-.03-.03-.03-.02-.05-.05-.08-.09,0,0-.01-.01-.02-.02,0,0,0-.01,0-.02-.01-.02-.03-.03-.04-.05,0,0,0-.03-.02-.04,0-.01-.02-.02-.03-.04-.02-.02-.03-.05-.05-.07-.03-.04-.04-.11-.07-.16-.01-.02-.03-.04-.04-.07-.01-.03-.02-.07-.03-.11-.01-.03,0-.06-.02-.09,0-.01,0-.02,0-.04-.01-.04,0-.08-.01-.12,0-.02,0-.04,0-.06,0-.01,0-.02,0-.03,0-.02-.01-.05,0-.08,0-.02,0-.05.01-.07,0-.02,0-.05,0-.07,0,0,0-.02,0-.03,0-.04,0-.07.02-.11,0,0,0-.02,0-.03.01-.03.01-.07.03-.1,0-.01.01-.03.02-.04.02-.05.03-.1.06-.14,0,0,.02-.07.03-.08,0-.02.03-.03.04-.05,0-.02.02-.04.02-.05.02-.03.05-.07.07-.1,0,0,0-.01,0-.02,0-.01.02-.02.03-.03,0,0,0-.01,0-.02,0-.01.02-.02.03-.03.04-.06.09-.11.13-.16.02-.03.06-.04.08-.07.02-.02.04-.03.05-.05,0,0,0,0,0,0,.02-.02.02-.04.05-.05.03-.01.04-.03.07-.04.02-.01.04-.02.06-.03,0,0,.04-.01.04-.02.01,0,.05-.02.06-.03,0,0,0,0,0,0,.01,0,.05-.02.05-.03,0,0,0,0,0,0,.02,0,.04-.01.05-.02,0,0,.07-.02.08-.03,0,0,.03,0,.03-.01,0,0,.04,0,.05-.01,0,0,.03,0,.05,0,.04-.01.1-.02.14-.03,0,0,0,0,0,0,0,0,.01,0,.02,0,0,0,0,0,0,0,0,0,0,0,0,0,0,0,.04,0,.05,0,0,0,0,0,.01,0,0,0,.01,0,.02,0,0,0,0,0,0,0,.02,0,.05,0,.07,0,.03,0,.07,0,.1-.02.03,0,.05,0,.07,0,.01,0,.1,0,.11,0,0,0,0,0,0,0,0,0,0,0,0,0,.02,0,.05,0,.07,0,0,0,.06,0,.08,0,.08.02.17.03.24.06.01,0,.04,0,.05,0,.02,0,.05.02.07.03.01,0,.02,0,.03.01,0,0,0,0,0,0,.01.01.05.02.07.03.02,0,.05.02.06.03,0,0,0,0,0,.01,0,0,.01,0,.02,0,0,0,0,0,0,0,.02.02.08.04.11.06.02.01.05.03.07.05,0,0,.01.01.02.02.02.01.04.03.07.05.02.01.04.03.06.04.02.02.05.05.07.07.02.02.05.03.06.05,0,0,.01.02.02.03.04.04.09.09.12.14,0,.01.01.03.02.04,0,0,.02.01.02.02,0,0,0,.03.02.03,0,0,0,0,0,0h0s.01.02.01.03c0,0,0,.01,0,.02.04.04.05.1.08.14,0,0,0,.01,0,.02,0,0,0,0,0,0,0,0,0,.02,0,.02,0,0,0,0,0,0,0,0,0,0,0,.01,0,0,0,0,.01.01,0,.01,0,.02,0,.03,0,.01,0,.03,0,.04.01.01.02.03.02.05.01.03.02.07.03.1,0,.01,0,.04,0,.05v.02s.01.08.02.11c0,.02,0,.05,0,.07,0,.02,0,.07,0,.1,0,.02,0,.06,0,.09,0,.01,0,.03,0,.04h0ZM31.98,41.62s-.06-.05-.1-.08c-.02-.01-.03-.03-.04-.05-.01-.01-.02-.02-.04-.03,0,0-.02-.01-.03-.02-.01-.02-.02-.03-.04-.05-.01,0-.03-.02-.04-.02-.03-.02-.06-.05-.09-.07-.02-.01-.04-.02-.05-.04,0,0,0,0,0,0-.01,0-.02-.02-.03-.02,0,0,0-.04,0-.06,0-.02,0-.04,0-.06,0-.02,0-.06,0-.08,0,0,0-.02,0-.03,0-.01,0-.03,0-.04,0-.02,0-.06,0-.08,0-.02,0-.08,0-.11,0-.02-.01-.1-.01-.1-.01-.03-.02-.11-.02-.13.02-.01.04-.03.05-.05,0,0,0,0,0,0,.01,0,.02-.02.03-.03h0s.03-.03.05-.04c.02-.02.04-.04.07-.06.04-.03.08-.06.11-.1.02-.02.05-.05.08-.06,0,0,.01,0,.02-.01,0,0,0-.02,0-.03,0,0,0,0,0,0,0,0,0,0,0,0,0,0,0,0,0,0,0-.02-.03-.11-.04-.12,0-.02,0-.05-.01-.07,0,0,0,0,0,0,0,0,0-.02,0-.03,0-.02-.02-.06-.04-.08-.01-.02-.01-.04-.02-.06-.01-.02-.03-.05-.04-.07-.01-.02,0-.04-.02-.05-.01-.02-.03-.03-.04-.05-.02-.03-.04-.06-.06-.09,0,0-.02-.01-.03-.02,0,0,0,0,0-.02-.02-.02-.06,0-.08-.01,0,0,0,0,0,0-.02,0-.06,0-.09,0-.01,0-.06,0-.06,0,0,0-.11.01-.14.02-.03,0-.04,0-.07,0-.03,0-.11.02-.12.01,0,0-.04,0-.05,0,0,0-.01,0-.01-.02,0,0,0,0,0,0-.02-.02-.03-.04-.05-.06-.01-.01-.03-.02-.04-.03-.02-.02-.04-.04-.06-.06,0,0,0-.01-.01-.02-.03-.02-.06-.05-.08-.08-.02-.03-.08-.06-.11-.08-.01-.01-.03-.03-.04-.04-.02-.01-.04-.02-.05-.04,0,0-.02-.01-.02-.01-.02-.02-.04-.04-.07-.05,0,0,0-.09,0-.1v-.04s0-.07,0-.11c0-.05,0-.12,0-.18,0-.04.01-.09,0-.14-.02,0-.03-.02-.04-.02-.02,0-.03,0-.05-.02-.02-.01-.05-.03-.08-.04-.04-.01-.06-.02-.09-.03,0,0-.06-.02-.07-.02,0,0-.08-.03-.09-.03-.02-.01-.1-.02-.11-.04,0,0,0,0,0,0-.01,0-.05-.02-.06-.02,0,0,0,0,0,0,0,0-.09-.02-.1-.03,0,0-.04,0-.05,0-.04.02-.07.06-.11.08-.07.05-.13.12-.19.18-.02.02-.04.04-.07.06,0,0-.02,0-.02.01-.02.02-.04.04-.06.05-.01.01-.05,0-.08,0,0,0-.06,0-.07-.01,0,0-.05,0-.07,0,0,0-.05,0-.05,0-.01,0-.07,0-.08,0,0,0-.04,0-.04,0,0,0-.02,0-.02,0-.03,0-.07,0-.1.01,0,0-.06,0-.07,0,0,0-.01,0-.02.01-.02,0-.03,0-.05,0-.05.01-.09.01-.12.01,0,0,0,0,0,0,0,0,0,0,0,0,0,0-.05-.04-.06-.05,0,0-.02-.02-.02-.02,0,0,0,0,0,0-.01-.02-.03-.03-.05-.05,0,0-.02-.01-.02-.01,0-.01-.05-.04-.06-.06,0,0,0-.01-.01-.02,0,0-.01,0-.02-.01,0,0-.02-.02-.03-.03,0,0-.01-.02-.02-.02-.02-.01-.04-.04-.06-.05,0,0,0,0-.01,0,0,0-.01-.01-.02-.02,0,0,0-.01,0-.02,0,0-.01,0-.02,0-.02,0-.03.01-.04.02-.02,0-.03,0-.06,0-.01,0-.03.01-.04.02,0,0-.07.02-.08.02,0,0,0,0-.02,0-.02,0-.04.01-.06.02,0,0,0,0,0,0-.02,0-.04.01-.05.02,0,0-.05.01-.06.02-.02,0-.04.02-.05.03,0,0-.05.02-.06.02,0,0-.02,0-.02,0-.03.03-.08.04-.11.06,0,0-.02,0-.03.01,0,0,0,0,0,0,0,0,0,0,0,0,0,0,0,0-.01.01,0,0,0,.05,0,.06,0,0,0,.03,0,.03,0,0,0,.01,0,.02,0,0,0,.06,0,.07,0,0,0,.02,0,.03,0,.02,0,.04,0,.06,0,.02,0,.04,0,.07,0,0,0,.02,0,.03,0,.01.01.05.01.06,0,.04.02.13,0,.16,0,0-.02.01-.03.02-.02.01-.03.03-.05.04-.03.02-.06.05-.08.08,0,0,0,.01,0,.02-.01,0-.04.02-.04.02h0s-.01.01-.02.02c0,0,0,0,0,.01,0,.01-.02.02-.03.03,0,0,0,0,0,0h0s0,.02-.02.02c0,0,0,0,0,0,0,0-.02.02-.03.03-.01,0-.02.02-.03.04-.02.02-.05.03-.06.06,0,0,0,0,0,0-.01.01-.07.09-.07.11,0,0,0,0,0,0,0,0,0,0,0,0-.03.03-.07,0-.12.02-.02,0-.06.01-.09,0-.02,0-.04,0-.06,0-.02,0-.04,0-.06,0-.04,0-.08,0-.1,0-.04,0-.07,0-.1,0-.01,0-.04,0-.05,0-.02,0-.05,0-.06,0-.03.02-.04.08-.06.11-.04.07-.08.14-.11.22-.01.03-.01.06-.03.09,0,.02-.02.05-.03.07,0,0,0,.01,0,.02-.01.02-.03.07-.04.1v.02s-.04.05-.03.07c.02.02.03.04.05.05.05.04.09.08.15.12,0,0,.01.02.02.02,0,0,.02,0,.02.01.02.01.02.03.04.04.02,0,.03.02.04.03,0,0,.01,0,.02,0,0,0,0,0,0,0,.01.01.02.03.04.04.01,0,.02.01.03.02,0,0,.01.02.02.02.01,0,.03.01.04.02,0,0,0,.03,0,.05,0,.03,0,.07-.02.1,0,.01,0,.04,0,.05,0,0,0,0,0,0,0,.02,0,.04,0,.05,0,0,0,0,0,0,0,0,0,.02,0,.03,0,.01,0,0,0,.01,0,0,0,0,0,0,0,.01,0,.03,0,.05,0,0,0,0,0,0,0,.02,0,.09.02.11,0,0,0,.08,0,.09,0,0,0,0,0,0,0,0,0,0,0,0,0,0,0,0,0,0,0,.02,0,.03,0,.04,0,.01,0,.05,0,.06,0,0-.06.06-.06.06,0,0-.02.01-.02.02,0,0-.02.01-.02.01,0,0-.01.02-.02.03-.01,0-.02.01-.03.02-.02.02-.04.05-.06.07-.03.02-.06.04-.07.06,0,0,0,0,0,0,0,0-.05.05-.06.06-.02.02-.06.05-.07.07,0,.01.01.07.02.08h0s.01.04.02.06c0,0,.01.04.02.04,0,0,0,0,0,0,0,0,0,.05.01.05,0,.02.03.04.02.06,0,0,0,0,0,0,0,.01,0,.03.02.03,0,0,0,0,0,0,0,0,0,0,0,0,0,0,0,0,0,0,0,0,.02.06.03.06,0,0,0,0,0,0,0,0,.01.01.02.02,0,.01.01.04.02.05,0,0,.01.01.02.02,0,0,0,0,0,0h0s0,.02.02.03c0,0,.01.03.01.03.02.03.04.06.06.09,0,0,.02.04.03.05.02,0,.04,0,.06,0,.03,0,.09,0,.12,0,0,0,.03,0,.04,0h0s.03,0,.04-.01c.01,0,.05,0,.06,0,.02,0,.06,0,.09,0,.01,0,.02,0,.03,0,.01,0,.02,0,.03,0,0,0,0,0,0,0,.01.01.03,0,.04,0,.03,0,.07,0,.11,0,.02.03.04.05.06.08.01.02.02.03.03.05.01.01.03.03.04.04.02.02.04.05.07.07,0,0,0,0,0,0,0,.01.02.02.03.03.01,0,.02.03.03.03.03.02.05.04.08.06,0,0,0,.01.01.02.02.02.05.04.07.06.03.02.07.04.09.06,0,.03,0,.11,0,.13,0,0,0,.03,0,.04,0,.01,0,.04,0,.05,0,0,0,.04,0,.04,0,0,0,.02,0,.03,0,.03,0,.06,0,.08-.01.06,0,.12,0,.18,0,0,.02,0,.03.02,0,0,.01.01.02.02.01,0,.03.02.04.02,0,0,.02,0,.02,0,.02.02.06.03.09.04,0,0,.01,0,.02,0,.05.03.12.04.16.07h0s0,0,0,0c0,0,0,0,0,0,0,0,0,0,0,0,.02.02.05,0,.06.02,0,0,0,0,0,0,.01.01.03.02.05.01,0,0,0,0,0,0h0s0,0,0,0c0,0,0,0,0,0,.02.01.05.02.07.03,0,0,.02,0,.02,0,.03.01.12.04.16.02,0,0,0-.01,0-.01,0,0,0,0,.01,0,0,0,.01-.02.02-.03.02-.02.04-.04.06-.06.01-.01.03-.02.05-.03.03-.02.05-.05.08-.08,0,0,.01,0,.02-.01,0,0,0,0,.01-.01.01,0,.03-.02.04-.03.03-.03.05-.05.07-.08.02-.02.06-.05.07-.07.01,0,.06,0,.08,0,0,0,.01,0,.02,0,0,0,.02,0,.02,0,.06,0,.15,0,.22,0,0,0,0,0,0,0,0,0,.12,0,.14,0,.02,0,.04,0,.06,0,.06.01.13-.02.2-.02.01.02.04.04.06.06.03.04.06.07.1.09,0,0,.01.01.02.02.02.02.04.04.06.06,0,0,.03.02.03.03,0,0,0,0,0,0,0,0,0,0,0,0,0,.01.03.03.04.04.01.01.04.02.05.04.01.01.03.03.05.04.02,0,.03,0,.04,0,0,0,.01,0,.02,0,.03,0,.05,0,.08-.02,0,0,0,0,0,0,0,0,0,0,0,0,.01,0,.04-.02.05-.02,0,0,0,0,0,0,.01,0,.04,0,.05-.02,0,0,0,0,.02,0,0,0,0,0,0,0,0,0,0,0,0,0,.01,0,.03-.01.04-.02.01,0,.03,0,.04-.01.03-.02.07-.03.11-.05.01,0,.05-.01.06-.02,0,0,0,0,.01-.01,0,0,.01,0,.02,0,.01,0,.03-.01.04-.02.02-.01.06-.01.06-.03.02-.01.06-.02.07-.04,0,0,0-.02,0-.03,0-.01,0-.04,0-.05,0,0,0-.02,0-.03-.02-.08,0-.17-.01-.26,0,0,0-.02,0-.03,0-.03,0-.05-.01-.08,0-.01,0-.11,0-.11.03-.02.04-.03.07-.05,0,0,0,0,0,0,.03-.03.07-.05.1-.08,0-.01.04-.03.04-.05,0,0,0,0,0,0,0,0,.01,0,.01-.01,0,0,.07-.06.07-.07,0,0,0,0,0,0,0,0,0,0,0,0,0,0,0,0,0,0,.02-.02.04-.03.05-.04,0,0,.01-.02.02-.03,0,0,0,0,0,0,.01,0,.05-.04.05-.05,0,0,0,0,0-.01,0,0,0,0,.01,0,0,0,.02-.03.02-.03,0,0,0-.02.01-.03,0,0,.03-.03.04-.05.04,0,.09,0,.12,0,.03,0,.08,0,.11,0,0,0,0,0,0,0,.01,0,.02,0,.03,0,0,0,0,0,.01,0,.03,0,.1,0,.11.01,0,0,0,0,0,0,.03.01.07,0,.11,0,0,0,.02,0,.03,0,.02,0,.05,0,.06.01.02,0,.02-.02.02-.02.01,0,.02,0,.03,0,0,0,.03-.05.03-.06.03-.04.05-.09.07-.12,0-.01.03-.06.03-.06,0,0,0,0,0,0,.01-.01.02-.03.02-.05,0,0,0,0,0,0,0,0,0,0,.01-.01.01-.02.01-.05.03-.07,0,0,.01-.02.02-.03,0-.01.01-.05.02-.06h0s.01-.03.02-.04v-.02s.01-.04.02-.06c0,0,.04-.09.03-.1,0-.01-.01-.01-.02-.02h0Z"/>
    <path class="cls-2" d="M53.87,26.95s-.01.05-.02.07c0,.11-.02.3-.06.38-.01.03-.01.1-.02.13-.02.07-.05.15-.08.23-.08.21-.15.4-.26.6,0,.02-.01.03-.02.05,0,0-.01.02-.02.02,0,.01,0,.02,0,.03-.06.1-.13.21-.19.29-.02.03,0,.04-.02.06-.01.02-.04.03-.05.04-.02.01-.03.05-.04.06-.01.02-.03.03-.05.04-.03.04-.05.08-.09.11,0,0-.03.01-.03.01-.06.07-.11.13-.17.2-.04.04-.14.08-.15.14,0,0,0,0-.02,0h0s-.2.19-.2.2c0,0,0,0,0,0h0s0-.01,0-.01c-.02.05-.13.1-.14.15,0,0,0,0,0-.01,0,0,0,0-.02,0,0,0,0,.02,0,.03-.02.03-.16.12-.19.12,0,0,0,0,0,0-.23.19-.48.29-.78.42-.04.02-.18.05-.18.05-.02.02-.07.02-.09.03-.07.03-.14.06-.2.1-.03.02-.1.01-.14.03.01,0-.08.03-.1.03,0,0-.15,0-.17.01-.01,0-.09.03-.11.03,0,0,0,0-.01,0,0,0-.15.02-.18.03-.05.02-.12.03-.18.04-.01,0-.04-.02-.05-.01-.04.01-.09.02-.12.01-.05-.01-.1-.02-.16,0,0,0,0,0,0,0-.07,0-.2,0-.24-.02-.04,0-.08,0-.12,0-.08-.02-.29-.03-.37-.05-.05-.01-.14,0-.18-.04-.01,0,0,0-.02,0-.02-.02-.09-.02-.11-.03-.01,0-.02-.02-.03-.02,0,0-.04,0-.06,0-.1-.04-.21-.07-.31-.12,0,0-.05-.02-.06-.02,0,0,0,0,0-.01,0,0-.01,0-.02,0,0,0,0,0,0,0-.11,0-.23-.08-.36-.12-.14-.04-.25-.11-.38-.18-.05-.03-.1-.08-.15-.11-.15-.09-.29-.17-.4-.27-.08-.07-.15-.13-.22-.2-.01-.02-.07-.07-.08-.08-.03,0-.06-.06-.08-.08-.07-.05-.13-.13-.19-.21-.02-.02-.04-.04-.05-.05,0-.02-.02-.04-.02-.05-.03-.04-.07-.08-.11-.13-.02-.02-.02-.06-.04-.09-.02-.03-.06-.06-.08-.09-.05-.06-.08-.12-.13-.19-.07-.1-.11-.27-.18-.39-.03-.05-.07-.11-.09-.17-.03-.08-.05-.18-.08-.26-.03-.08-.02-.16-.05-.22,0-.03,0-.06,0-.09-.03-.1-.01-.21-.03-.3,0-.05,0-.1-.01-.15,0-.03,0-.05,0-.08-.02-.06-.03-.13-.02-.19,0-.06.02-.12.03-.18,0-.04,0-.12,0-.16,0-.02.02-.05.01-.08-.02-.1.02-.19.05-.28,0-.02,0-.05,0-.07.04-.08.03-.16.07-.25.01-.03.03-.06.05-.1.05-.12.09-.24.15-.34,0,0,.06-.19.07-.2.02-.05.06-.08.09-.13.02-.04.04-.09.06-.13.05-.09.12-.18.17-.25.01-.02,0-.04.02-.05.02-.03.05-.05.07-.09,0-.01,0-.03.02-.05.02-.03.06-.05.08-.08.11-.14.22-.28.33-.4.06-.07.14-.1.2-.17.04-.04.09-.08.13-.13,0,0,0,0,0-.01.04-.05.06-.1.12-.13.06-.03.11-.08.17-.11.05-.03.11-.05.16-.09.02-.02.1-.03.09-.06.03,0,.13-.05.14-.07,0,0,0,0,0,0,.03-.02.11-.05.12-.09,0,0,0,0,.01.01.05-.02.09-.03.13-.06,0,0,.17-.06.19-.08,0,.01.08-.02.08-.03.01,0,.1,0,.12-.03.02,0,.07,0,.11-.01.11-.03.24-.06.36-.08,0,0,0,0,0-.01.01,0,.03,0,.04,0,0,0,0,0,0-.01,0,0,0,0,0,0,.02,0,.09,0,.11-.02.01,0,.02,0,.04,0,.02,0,.03-.02.05-.02,0,0,0,0,0,0,.05-.01.12,0,.17-.01.07-.02.17-.02.25-.04.07-.01.13.02.19-.01.03.02.24.02.27.01.02,0,0,0,.02.02,0,0,.01,0,.02,0,.06,0,.12.02.18.02.01,0,.16,0,.19,0,.21.04.41.08.6.14.03.01.1.01.12.02.06.02.12.05.18.08.03,0,.05,0,.08.03.01,0,0,0,.02,0,.03.03.13.05.18.07.04.01.12.05.15.08,0,0,.01.02.02.03.01,0,.03.02.04.02,0,0,0,0,.01,0,.06.06.2.1.28.15.05.03.12.08.17.12.01.01.03.03.04.04.06.03.1.09.16.13.05.03.11.07.16.11.05.04.11.11.16.17.04.05.12.08.15.13.02.02.03.05.05.07.1.09.22.23.31.36.02.04.03.07.06.1,0,.01.04.03.04.04.01.02.02.07.04.09,0,0,.02,0,.02,0v.02s.03.03.04.04c0,.02.01.04.02.05.09.09.12.24.2.35,0,.02,0,.04.01.05,0,0,0,0,.01,0,0,0,0,.04.01.05,0,0,0,0,.01,0,0,0,0,.02,0,.03,0,0,.02.02.03.03.01.03,0,.05.02.07,0,.03.01.07.02.1.03.03.05.08.06.12.03.08.04.18.07.25-.01.03.01.09.02.13v.05c.02.09.03.2.05.27,0,.06,0,.12,0,.18.02.05,0,.18.02.25,0,.05.01.14,0,.21,0,.03,0,.08,0,.1h0ZM56.99,28.29c-.07-.1-.14-.13-.24-.2-.04-.03-.06-.08-.1-.12-.03-.03-.06-.05-.09-.08-.02-.02-.06-.03-.08-.05-.03-.05-.06-.08-.1-.12-.03-.02-.06-.04-.1-.06-.07-.06-.15-.13-.23-.19-.05-.04-.09-.05-.13-.09,0,0,0,0,0,0-.03,0-.06-.04-.06-.06,0-.02.02-.11.02-.15,0-.05,0-.1,0-.16.02-.05,0-.14.02-.2,0-.02,0-.04.01-.07,0-.03-.01-.07,0-.11.01-.06,0-.15.01-.19.02-.06.02-.2,0-.26,0-.05-.03-.24-.03-.25-.04-.06-.05-.26-.05-.32.05-.03.09-.08.12-.12,0,0,.01,0,.02,0,.03-.02.05-.06.07-.08h.02s.07-.07.11-.1c.06-.05.11-.11.16-.16.09-.08.2-.16.28-.25.04-.05.13-.11.19-.15.01,0,.03-.01.05-.03.02-.02,0-.06,0-.08,0,0,0,0,0,0,0,0,0,0-.01-.01,0-.02,0-.02.02-.02.02-.05-.07-.26-.09-.31-.02-.05-.01-.12-.04-.17,0,0,0,0-.01-.01,0-.02-.01-.05-.02-.07,0-.04-.06-.16-.09-.21-.03-.05-.04-.1-.06-.16-.03-.06-.08-.12-.11-.18-.03-.04-.02-.1-.05-.14-.03-.04-.07-.08-.1-.12-.05-.08-.09-.15-.14-.21-.02-.02-.06-.03-.07-.05-.02,0-.02-.02-.02-.04-.06-.04-.16-.02-.2-.03,0,0,0,0,0,0-.06,0-.15,0-.22,0-.03,0-.15,0-.15,0-.01,0-.28.03-.36.04-.07,0-.11-.01-.16,0-.08.01-.26.05-.31.03-.02.01-.1,0-.12,0-.01,0-.03-.02-.04-.04,0,0,0,0,0,0-.06-.05-.07-.1-.12-.16-.03-.03-.07-.05-.1-.09-.05-.06-.09-.1-.15-.16-.01-.02-.02-.04-.04-.05-.07-.06-.14-.13-.2-.2-.06-.07-.19-.14-.26-.2-.04-.03-.06-.07-.1-.1-.05-.03-.1-.06-.13-.1,0,0-.05-.03-.05-.03-.05-.04-.11-.09-.16-.13-.02-.01,0-.21,0-.24v-.11c0-.09,0-.18,0-.27.01-.14,0-.3,0-.44.01-.11.04-.23,0-.35-.04,0-.08-.04-.11-.06-.04-.02-.08-.02-.12-.04-.06-.03-.12-.07-.19-.1-.09-.04-.14-.04-.23-.08-.01,0-.14-.04-.16-.06-.02.02-.21-.07-.22-.08-.04-.03-.25-.06-.26-.1,0,0-.01,0-.02,0-.03-.02-.12-.05-.14-.05,0,0,0,0,0,0-.02-.02-.23-.05-.24-.08-.02,0-.09,0-.11.02-.1.05-.17.15-.26.21-.17.12-.34.29-.46.45-.06.05-.11.1-.17.15-.02.01-.04.02-.05.03-.05.04-.11.1-.16.13-.04.03-.13,0-.19,0-.02,0-.14,0-.18-.03,0,0-.12,0-.16,0-.01,0-.13-.02-.13-.02-.03.02-.16,0-.21,0,0,0-.11,0-.11,0-.02,0-.04,0-.06-.01-.08,0-.17,0-.25.03-.02,0-.14,0-.17.01-.02,0-.03.02-.06.03-.04,0-.08,0-.12,0-.11.03-.22.03-.29.03-.01,0-.01,0-.02-.02,0,0,0,0-.01,0,0,0-.13-.1-.15-.13,0,0-.04-.06-.05-.05,0,0,0,0,0,0-.04-.05-.08-.08-.12-.13,0,0-.04-.03-.04-.03,0-.03-.12-.1-.15-.14-.01-.02-.02-.03-.03-.06-.02-.01-.03-.02-.05-.03-.02-.02-.05-.05-.07-.07-.02-.02-.03-.04-.05-.06-.05-.03-.11-.09-.14-.13-.01,0-.02,0-.03-.01-.02-.01-.03-.03-.06-.04,0-.02,0-.04-.01-.06-.01,0-.03-.01-.04-.02-.04,0-.07.03-.11.04-.05.02-.08,0-.14.02-.03.01-.07.03-.11.05-.02,0-.18.05-.21.06-.01,0-.02.02-.04.02-.04,0-.1.03-.15.05,0,0,0,0,0,0-.04,0-.1.04-.13.06-.02.01-.12.03-.16.05-.05.02-.1.05-.13.08,0,0-.13.05-.15.06-.02,0-.04,0-.06.01-.08.06-.2.09-.29.16,0,0-.06.02-.08.03,0,0-.01,0-.02,0,0,.01,0,0,0,.02,0,0-.02.02-.03.03,0,.02,0,.12,0,.15.01,0,0,.07,0,.09,0,.02,0,.04,0,.05,0,.02.02.15.02.18,0,.02,0,.04,0,.07,0,.05.02.1.02.14.01.06,0,.11,0,.16,0,.02,0,.05,0,.07.01.04.03.13.03.16,0,.1.04.33,0,.41-.01.02-.05.03-.07.04-.04.03-.08.07-.12.1-.07.05-.15.12-.21.19,0,.01-.01.03-.02.04-.03.02-.09.04-.11.06h0s-.04.03-.05.04c0,0,0,.02-.01.03-.02.03-.06.04-.07.08,0,0-.01,0-.02,0h0s-.02.04-.05.05c0,0,0,0,0,0-.02,0-.06.05-.08.07-.03.02-.05.06-.08.1-.04.05-.13.08-.14.15,0,0,0,0-.01,0-.03.03-.18.23-.19.26,0,0,0,0,0,0,0,0,0,0,0,.01-.08.07-.17.01-.29.04-.06.01-.16.03-.21.02-.05,0-.1,0-.14,0-.06.01-.1,0-.15,0-.1,0-.19,0-.26,0-.1-.02-.17,0-.24,0-.03,0-.11-.01-.13,0-.05.02-.12,0-.15.02-.08.05-.1.19-.16.27-.11.17-.19.34-.28.54-.03.07-.03.14-.07.22-.02.06-.06.12-.08.17,0,.01,0,.04,0,.04-.04.05-.07.18-.09.24v.06c-.02.05-.09.12-.09.18.04.04.07.09.12.13.12.11.24.2.37.3.02.01.03.04.05.06.01.01.04.02.05.03.04.04.06.07.11.1.04.02.07.06.11.08.01,0,.03,0,.04.02,0,0,0,0,0,.01.03.03.06.07.09.09.03.02.06.03.09.05.02.01.04.05.06.06.03.02.07.03.09.06.01.01,0,.09-.01.11-.02.07-.02.17-.04.26,0,.04,0,.09,0,.12,0,0,0,0,.02.01-.01.05,0,.09-.02.13,0,0,0,0,.01,0,0,.02,0,.04,0,.06,0,.03,0,.02.02.04,0,0,0,.01-.02.02.01.03,0,.08.01.12,0,0,0,0-.01,0,0,.05.01.23.04.27-.02.02.02.2.02.23,0,0-.01,0-.02,0,0,0,0,.01.01.02,0,0,0,0,0,0,0,.04,0,.07.02.11-.01.03,0,.12,0,.16-.01,0-.14.14-.14.15-.01.01-.05.03-.05.05,0,0-.04.03-.05.03-.02.02-.04.05-.06.07-.03.02-.06.03-.08.05-.05.06-.09.13-.16.17-.06.04-.14.09-.19.15,0,0,0,0,0,0-.02,0-.13.12-.16.15-.06.05-.16.12-.19.19-.01.03.03.18.04.2h0s.03.11.04.14c0,.01.03.09.04.1,0,0,0,.01,0,.02,0,.02.02.12.03.13.02.05.07.11.05.16,0,0,.01,0,.02,0,.01.03.02.06.05.07,0,0,0,0-.01,0,0,0,0,.01,0,.02.01,0,0,0,.01,0,0,0,.06.14.06.15,0,0,0,0,0,0,0,.01.03.03.04.04.02.04.03.09.06.13.01.02.04.03.05.06,0,0,0,0,.01,0h0s.02.05.04.07c0,0,.03.08.03.08.05.07.1.16.15.23.01.02.06.11.07.12.04.02.09,0,.14.01.08.02.22,0,.29,0,.02,0,.08.02.1,0l.02-.02s.09,0,.11-.01c.04,0,.12,0,.14,0,.06.01.16-.01.22-.02.03,0,.04,0,.06-.01.03.02.05,0,.09.01,0,0,0,0,0-.01.03.02.07,0,.11,0,.08.02.18,0,.27,0,.04.07.1.13.16.19.03.04.06.08.08.12.04.04.07.07.11.11.05.06.1.13.16.18,0,0,0,0,0,0,.02.03.06.05.09.07.03.02.04.06.07.08.07.04.14.1.2.14.01.01.02.03.04.04.06.04.11.09.18.14.07.05.17.09.22.16-.02.07-.02.28,0,.33-.01.02-.02.07-.01.1,0,.03.02.11.02.13,0,.01,0,.09,0,.09,0,.02,0,.05.01.07-.02.06,0,.14-.02.2-.03.15,0,.29-.02.44.02.02.04.02.07.04.02.01.03.03.05.04.03.02.07.04.1.06.02,0,.04,0,.05.02.06.04.16.07.23.1.01,0,.04,0,.04,0,.12.08.29.11.41.17h0s.01,0,.02.01c0,0,.02,0,.02,0,0,0,0,.01.01.02.06.04.12.02.16.06.01,0,0,0,.01,0,.03.03.07.05.11.03,0,.01,0,0-.01.01h0s.01,0,.02,0c0,0,0,0,0,.01.06.03.12.05.18.07,0,0,.05,0,.05,0,.08.04.29.09.39.06,0,0,0-.04,0-.04.01,0,.02,0,.04,0,.02-.02.03-.04.06-.06.05-.04.09-.1.14-.14.04-.03.08-.06.12-.08.07-.05.13-.13.19-.2.01-.02.03-.01.05-.03,0-.01.02-.02.03-.04.03-.02.06-.04.09-.06.06-.06.11-.13.17-.2.04-.05.15-.12.17-.18.03-.02.15,0,.2.02.02,0,.03,0,.04,0,.01,0,.04.02.05.02.16-.02.36.02.54.02.01,0,0,0,.01,0,0,0,.3,0,.36,0,.05,0,.1.02.14-.01.14.03.31-.05.5-.05.04.05.1.09.14.15.06.09.14.17.24.23.01.02.03.03.04.05.05.05.11.1.16.16,0,.01.07.06.08.07,0,0,.02,0,.02,0,0,0,0,0,0,.01.02.03.08.08.11.11.03.03.09.06.12.09.03.04.07.09.11.11.04.02.07-.01.1-.02.02,0,.03-.01.04-.02.06-.02.13-.02.19-.05,0,0,0,0,0-.01,0,0,0,0,0,.01.03-.02.09-.04.13-.04,0,0,0,0,0-.01.03,0,.1,0,.12-.04,0,0,.02,0,.04,0,0-.01,0,0,0-.01,0,0,0,0,.02,0,.03,0,.06-.04.09-.05.03-.02.08-.01.11-.03.09-.05.18-.07.26-.12.03-.02.12-.03.15-.05.01,0,.02-.02.03-.03,0,0,.03,0,.04,0,.03,0,.07-.03.09-.05.04-.03.15-.03.16-.08.05-.03.15-.04.18-.09,0-.02.02-.05.02-.07,0-.03,0-.09-.01-.12,0-.02,0-.05,0-.07-.05-.19,0-.42-.03-.65,0-.02,0-.04.01-.06,0-.06-.02-.13-.03-.19.01-.03-.02-.27-.02-.28.07-.05.11-.07.16-.12,0,0,0-.01,0-.02.08-.07.18-.11.25-.2.02-.03.11-.08.11-.12,0,0,0,0,0,.01.02,0,.03-.02.03-.04.02,0,.16-.14.18-.17,0,0,0,0,0-.01,0-.01,0,0,.01,0,0,0,0,0,0-.01.04-.04.09-.07.13-.11.02-.02.03-.05.06-.07,0,0,0,0,0,0,.04-.02.12-.09.13-.13,0,0,0-.02,0-.03.01,0,.02,0,.03-.01.01-.01.05-.06.06-.08.01-.02.01-.06.03-.08.02-.02.08-.08.09-.11.1,0,.21,0,.3.02.08.01.19-.02.27,0,0,0,0,0,0,0,.03,0,.06,0,.08.01,0,0,.02-.01.04-.01.07.02.25.02.26.04,0,0,0-.01.01-.02.08.03.17,0,.27,0,.02,0,.04-.01.07-.02.06-.01.13,0,.16.03.04,0,.04-.04.05-.06.03,0,.06,0,.08,0,0,0,.07-.13.08-.15.07-.11.12-.22.18-.31.02-.03.06-.14.08-.15,0,0,0,0-.01-.01.03-.03.04-.06.06-.12,0,0,0-.01,0-.02,0,0,.02-.02.03-.03.03-.06.04-.11.06-.17.01-.02.04-.05.05-.08.02-.03.03-.12.04-.14v-.02s.02-.05.04-.07v-.04c.02-.05.03-.1.05-.15.01-.02.09-.22.09-.24,0-.03-.03-.03-.04-.05h0Z"/>
    <path class="cls-2" d="M42.49,16.93s0,.03-.01.05c0,.08-.02.22-.05.28,0,.02,0,.07-.02.09-.02.05-.03.11-.06.17-.06.16-.11.3-.2.45,0,.01,0,.02-.01.04,0,0-.01.01-.02.02,0,0,0,.02,0,.02-.05.07-.1.15-.14.22-.01.02,0,.03-.01.04,0,.01-.03.02-.04.03-.01.01-.02.04-.03.05,0,.01-.03.02-.03.03-.02.03-.04.06-.06.08,0,0-.02,0-.02,0-.04.06-.08.09-.13.15-.03.03-.1.06-.11.1,0,0,0,0-.01,0h0s-.15.14-.15.15c0,0,0,0,0,0h0s0,0,0,0c-.02.04-.09.08-.1.11,0,0,0,0,0,0,0,0,0,0-.02,0,0,0,0,.01,0,.02-.02.02-.12.09-.14.09,0,0,0,0,0,0-.17.15-.36.22-.59.32-.03.01-.14.04-.14.04-.01.01-.05.02-.07.02-.05.03-.11.05-.15.08-.03.02-.07.01-.1.02,0,0-.06.02-.07.02,0,0-.12,0-.13,0-.01,0-.07.02-.08.02,0,0,0,0,0,0,0,0-.11.01-.14.02-.04.02-.09.02-.14.03,0,0-.03-.01-.04,0-.03,0-.07.01-.09,0-.04,0-.08-.01-.12,0,0,0,0,0,0,0-.05,0-.15,0-.18-.01-.03,0-.06,0-.09,0-.06-.02-.21-.02-.27-.04-.04-.01-.11,0-.14-.03,0,0,0,0-.01,0-.01-.01-.06-.02-.08-.02,0,0-.02-.01-.02-.02,0,0-.03,0-.04,0-.07-.03-.16-.05-.23-.09,0,0-.04-.01-.05-.01,0,0,0,0,0,0,0,0,0,0-.01,0,0,0,0,0,0,0-.08,0-.17-.06-.27-.09-.1-.03-.19-.08-.28-.14-.04-.02-.07-.06-.11-.08-.12-.07-.21-.13-.3-.2-.06-.05-.11-.1-.16-.15-.01-.01-.06-.05-.06-.06-.02,0-.04-.04-.06-.06-.05-.04-.1-.09-.14-.16-.01-.01-.03-.03-.04-.04,0-.01-.01-.03-.02-.04-.02-.03-.05-.06-.08-.09-.01-.02-.02-.05-.03-.07-.02-.03-.04-.05-.06-.07-.04-.05-.06-.09-.1-.14-.05-.08-.08-.2-.13-.29-.02-.04-.05-.08-.07-.12-.03-.06-.04-.14-.06-.2-.02-.06-.02-.12-.04-.17,0-.02,0-.05,0-.07-.02-.08,0-.16-.02-.22,0-.04,0-.07-.01-.11,0-.02,0-.04,0-.06-.01-.04-.02-.1-.01-.14,0-.04.01-.09.02-.13,0-.03,0-.09,0-.12,0-.02.01-.04,0-.06-.02-.07.02-.14.04-.21,0-.02,0-.04,0-.05.03-.06.02-.12.05-.19,0-.02.03-.05.03-.07.04-.09.07-.18.11-.25,0,0,.05-.14.05-.15.02-.04.05-.06.07-.09.01-.03.03-.07.04-.1.04-.06.09-.13.13-.19,0-.01,0-.03.01-.04.02-.02.04-.04.05-.06,0,0,0-.02.01-.03.02-.02.05-.03.06-.06.08-.11.16-.21.25-.3.05-.05.1-.08.15-.12.03-.03.07-.06.1-.09,0,0,0,0,0,0,.03-.03.04-.07.09-.1.05-.02.08-.06.13-.08.04-.02.08-.04.12-.06.02-.01.08-.02.07-.05.02,0,.1-.03.11-.05,0,0,0,0,0,0,.02-.02.09-.04.09-.06,0,0,0,0,0,0,.04-.01.07-.02.09-.04,0,0,.13-.04.14-.06,0,0,.06-.01.06-.02.01,0,.08,0,.09-.02.01,0,.05,0,.08,0,.08-.03.18-.05.27-.06,0,0,0,0,0,0,0,0,.02,0,.03,0,0,0,0,0,0,0,0,0,0,0,0,0,.01,0,.07,0,.08-.02,0,0,.02,0,.03,0,.01,0,.02-.01.04-.01,0,0,0,0,0,0,.04-.01.09,0,.13,0,.05-.01.13-.02.19-.03.05,0,.1.01.14,0,.02.01.18.02.2,0,.01,0,0,0,.01.01,0,0,.01,0,.02,0,.05,0,.09.01.14.02,0,0,.12,0,.14,0,.16.03.31.06.45.11.02,0,.07,0,.09.02.04.02.09.04.13.06.02,0,.04,0,.06.02,0,0,0,0,.01,0,.02.03.09.04.14.05.03.01.09.04.11.06,0,0,.01.01.02.02,0,0,.02.01.03.02,0,0,0,0,.01,0,.05.04.15.08.21.11.04.02.09.06.13.09,0,0,.02.02.03.03.04.02.08.06.12.09.04.03.08.05.12.08.04.03.08.08.12.12.03.03.09.06.12.1.01.02.02.04.04.05.07.07.17.17.23.27.02.03.02.05.04.08,0,0,.03.02.03.03,0,.01.02.05.03.06,0,0,.01,0,.02,0v.02s.02.02.03.03c0,.01,0,.03.01.04.07.07.09.18.15.26,0,.01,0,.03.01.04,0,0,0,0,.01,0,0,0,0,.03.01.04,0,0,0,0,.01,0,0,0,0,.01,0,.02,0,0,.02.01.02.02,0,.02,0,.04.02.05,0,.02.01.05.02.07.02.02.04.06.05.09.02.06.03.13.05.18,0,.03,0,.07.01.1v.04c.01.06.02.15.04.21,0,.05,0,.09,0,.14.01.04,0,.13.01.18,0,.04,0,.1,0,.16,0,.02,0,.06,0,.08h0ZM44.83,17.94c-.05-.07-.1-.09-.18-.15-.03-.02-.05-.06-.07-.09-.02-.02-.04-.04-.07-.06-.02-.01-.05-.02-.06-.04-.02-.03-.04-.06-.07-.09-.02-.01-.05-.03-.07-.04-.06-.05-.11-.1-.17-.14-.04-.03-.07-.04-.09-.07,0,0,0,0,0,0-.02,0-.04-.03-.05-.04,0-.02.01-.08.01-.11,0-.03,0-.08,0-.12.01-.04,0-.11.01-.15,0-.02,0-.03,0-.05,0-.02-.01-.05,0-.08.01-.04,0-.11.01-.14.01-.04.01-.15,0-.2,0-.04-.02-.18-.02-.19-.03-.05-.04-.2-.03-.24.03-.02.07-.06.09-.09,0,0,.01,0,.02,0,.02-.02.04-.05.05-.06h.01s.06-.05.08-.08c.04-.04.08-.08.12-.12.07-.06.15-.12.21-.19.03-.04.1-.08.14-.11,0,0,.03-.01.03-.02.01-.02,0-.04,0-.06,0,0,0,0,0,0,0,0,0,0,0,0,0-.01,0-.01.01-.02.02-.04-.05-.2-.07-.23-.02-.04,0-.09-.03-.12,0,0,0,0,0,0,0-.02,0-.04-.01-.05,0-.03-.04-.12-.07-.15-.02-.03-.03-.08-.05-.12-.02-.04-.06-.09-.08-.13-.02-.03-.02-.07-.04-.1-.02-.03-.06-.06-.08-.09-.04-.06-.07-.11-.11-.16-.01-.02-.04-.02-.05-.04-.01,0-.01-.01-.01-.03-.04-.03-.12-.02-.15-.02,0,0,0,0,0,0-.04,0-.11,0-.16,0-.02,0-.11,0-.11,0,0,0-.21.02-.27.03-.05,0-.08-.01-.12,0-.06,0-.2.03-.23.02-.02,0-.08,0-.09,0,0,0-.02-.02-.03-.03,0,0,0,0,0,0-.05-.04-.05-.07-.09-.12-.02-.03-.05-.04-.07-.06-.04-.04-.07-.08-.11-.12,0-.01-.02-.03-.03-.04-.05-.04-.11-.1-.15-.15-.04-.05-.14-.1-.2-.15-.03-.02-.05-.05-.08-.07-.04-.03-.07-.04-.1-.08,0,0-.04-.02-.04-.02-.04-.03-.08-.07-.12-.1-.02-.01,0-.16,0-.18v-.08c0-.07,0-.14,0-.21.01-.1,0-.23,0-.33,0-.08.03-.17,0-.26-.03,0-.06-.03-.08-.04-.03-.02-.06-.02-.09-.03-.05-.02-.09-.05-.14-.07-.07-.03-.11-.03-.17-.06,0,0-.11-.03-.12-.04-.01.01-.15-.05-.16-.06-.03-.02-.19-.05-.2-.07,0,0,0,0-.01,0-.02-.02-.09-.03-.11-.03,0,0,0,0,0,0-.02-.01-.17-.04-.18-.06-.02,0-.07,0-.08.02-.08.04-.13.11-.2.16-.13.09-.25.22-.35.34-.04.04-.08.08-.13.11-.01,0-.03.01-.04.02-.04.03-.08.07-.12.1-.03.02-.09,0-.15,0-.02,0-.11,0-.14-.02,0,0-.09,0-.12,0,0,0-.09-.01-.09-.01-.02.02-.12,0-.16,0,0,0-.08,0-.08,0-.02,0-.03,0-.05,0-.06,0-.13,0-.19.02-.01,0-.11,0-.13,0-.02,0-.03.01-.04.02-.03,0-.06,0-.09,0-.08.02-.17.02-.22.02,0,0-.01,0-.01-.02,0,0,0,0,0,0,0,0-.09-.08-.12-.1,0,0-.03-.04-.04-.04,0,0,0,0,0,0-.03-.03-.06-.06-.09-.09,0,0-.03-.02-.03-.02,0-.02-.09-.07-.11-.1-.01-.02-.01-.02-.02-.04-.01,0-.02-.02-.03-.02-.02-.01-.03-.04-.05-.05-.01-.02-.02-.03-.04-.05-.04-.02-.08-.07-.11-.1,0,0-.02,0-.02,0-.02-.01-.02-.03-.04-.03,0-.01,0-.03,0-.04,0,0-.02-.01-.03-.02-.03,0-.05.02-.08.03-.04.01-.06,0-.11.02-.03,0-.05.02-.08.03-.01,0-.14.04-.16.04,0,0-.02.02-.03.02-.03,0-.08.02-.11.04,0,0,0,0,0,0-.03,0-.08.03-.1.04-.01.01-.09.02-.12.03-.04.01-.07.03-.1.06,0,0-.1.04-.11.05-.01,0-.03,0-.04,0-.06.05-.15.07-.21.12,0,0-.05.01-.06.02,0,0-.01,0-.02,0,0,0,0,0,0,.01,0,0-.01.01-.02.02,0,.02,0,.09,0,.11,0,0,0,.05,0,.06,0,.01,0,.03,0,.04,0,.01.02.11.02.14,0,.02,0,.03,0,.05,0,.04.01.07.02.11,0,.04,0,.08,0,.12,0,.02,0,.04,0,.05,0,.03.02.1.02.12,0,.07.03.25,0,.31,0,.01-.03.02-.05.03-.03.02-.06.05-.09.07-.06.04-.12.09-.16.14,0,.01,0,.02-.01.03-.03.02-.07.03-.08.05h0s-.03.02-.03.03c0,0,0,.01-.01.02-.02.02-.04.03-.05.06,0,0,0,0-.01,0h0s-.02.03-.03.04c0,0,0,0,0,0-.01,0-.04.04-.06.05-.02.02-.04.05-.06.07-.03.03-.1.06-.11.11,0,0,0,0,0,0-.02.02-.14.17-.14.2,0,0,0,0,0,0,0,0,0,0,0,0-.06.05-.13.01-.22.03-.04,0-.12.02-.16.02-.04,0-.07,0-.11,0-.04,0-.08,0-.11,0-.08,0-.15,0-.19,0-.07-.01-.12,0-.18,0-.02,0-.08-.01-.09,0-.04.01-.09,0-.12.02-.06.04-.08.14-.12.2-.08.13-.14.26-.21.4-.02.05-.03.1-.05.16-.02.04-.05.09-.06.13,0,0,0,.03,0,.03-.03.04-.05.13-.07.18v.04s-.07.09-.06.14c.03.03.05.07.09.1.09.08.18.15.28.22.01,0,.02.03.03.04,0,.01.03.01.04.02.03.03.04.05.08.07.03.02.05.04.08.06.01,0,.02,0,.03.01,0,0,0,0,0,0,.02.02.04.05.07.07.02.01.04.02.06.03.02.01.03.03.04.05.02.01.05.02.07.04.01,0,0,.07-.01.08-.01.05-.02.13-.03.19,0,.03,0,.07,0,.09,0,0,0,0,.01,0,0,.04,0,.07-.02.1,0,0,0,0,0,0,0,.01,0,.03,0,.05,0,.02,0,.02.01.03,0,0,0,0-.01.01.01.02,0,.06.01.09,0,0,0,0,0,0,0,.04,0,.17.03.21-.01.01.01.15.02.18,0,0,0,0-.01,0,0,0,0,.01,0,.02,0,0,0,0,0,0,0,.03,0,.05.02.08-.01.02,0,.09,0,.12,0,0-.1.1-.11.11,0,0-.04.02-.03.04,0,0-.03.02-.04.02-.02.01-.03.04-.04.05-.02.01-.04.02-.06.04-.04.04-.07.1-.12.13-.05.03-.1.07-.14.11,0,0,0,0,0,0-.02,0-.1.09-.12.11-.04.04-.12.09-.14.14,0,.02.02.13.03.15h0s.02.08.03.11c0,.01.02.07.03.08,0,0,0,0,0,.01,0,.01.02.09.02.1.01.04.05.08.04.12,0,0,0,0,.01,0,0,.02.01.05.03.05,0,0,0,0,0,0,0,0,0,.01,0,.02,0,0,0,0,0,0,0,0,.05.1.05.11,0,0,0,0,0,0,0,.01.03.02.03.03.01.03.02.07.04.1.01.02.03.02.03.04,0,0,0,0,0,0h0s.02.04.03.05c0,0,.02.06.02.06.04.06.07.12.11.18,0,.02.04.08.05.09.03.01.07,0,.11,0,.06.02.17,0,.22,0,.02,0,.06.01.08,0h.01s.06-.02.08-.02c.03,0,.09,0,.1,0,.04.01.12,0,.17-.01.03,0,.03,0,.05,0,.02.01.04,0,.06,0,0,0,0,0,0,0,.02.02.05,0,.08,0,.06.01.13,0,.2,0,.03.05.08.1.12.14.02.03.04.06.06.09.03.03.05.05.08.08.04.05.08.1.12.14,0,0,0,0,0,0,.02.02.04.04.06.05.02.02.03.05.05.06.05.03.1.08.15.11,0,.01.02.02.03.03.05.03.09.07.13.1.05.04.12.07.17.12-.02.05-.01.21,0,.25,0,.02-.01.05-.01.07,0,.03.02.08.02.1,0,.01,0,.07,0,.07,0,.02,0,.04,0,.05-.01.05,0,.11-.01.15-.02.12,0,.22-.01.33.01.02.03.02.05.03.01.01.02.02.03.03.02.02.05.03.07.04.01,0,.03,0,.04.01.04.03.12.05.17.07,0,0,.03,0,.03,0,.09.06.22.08.31.13h0s.01,0,.01,0c0,0,.02,0,.02,0,0,0,0,.01,0,.01.04.03.09.01.12.04,0,0,0,0,0,0,.02.02.06.03.08.02,0,0,0,0,0,0h0s0,0,.02,0c0,0,0,0,0,0,.04.02.09.03.13.05,0,0,.04,0,.04,0,.06.03.22.07.29.04,0,0,0-.03,0-.03,0,0,.02,0,.03,0,.02-.01.02-.03.04-.05.04-.03.07-.07.11-.1.03-.02.06-.04.09-.06.05-.03.1-.1.14-.15.01-.01.03-.01.04-.02,0,0,.01-.02.02-.03.02-.02.05-.03.07-.05.05-.05.09-.1.13-.15.03-.04.11-.09.13-.13.03-.02.11,0,.15.01.01,0,.02,0,.03,0,.01,0,.03.01.04.01.12-.02.27.02.4.01,0,0,0,0,.01,0,0,0,.22,0,.27,0,.04,0,.08.02.11,0,.11.02.24-.03.38-.03.03.04.08.07.11.11.05.07.11.13.18.18.01.01.02.03.03.04.04.04.08.08.12.12,0,0,.05.04.06.05,0,0,.01,0,.02,0,0,0,0,0,0,0,.02.02.06.06.08.08.03.02.07.04.09.07.02.03.05.06.08.08.03.02.05-.01.07-.01.01,0,.02-.01.03-.01.05-.02.1-.02.14-.04,0,0,0,0,0,0,0,0,0,0,0,0,.02-.02.07-.03.1-.03,0,0,0,0,0,0,.02,0,.07,0,.09-.03,0,0,.01,0,.03,0,0,0,0,0,0,0,0,0,0,0,.01,0,.02,0,.05-.03.07-.04.02-.01.06,0,.08-.02.06-.04.13-.05.2-.09.03-.02.09-.02.11-.03,0,0,.02-.02.02-.02,0,0,.03,0,.03,0,.02,0,.05-.03.07-.04.03-.02.11-.02.12-.06.04-.03.11-.03.13-.07,0-.02.01-.04.02-.05,0-.03,0-.07,0-.09,0-.02,0-.03,0-.05-.03-.14,0-.32-.02-.49,0-.02,0-.03,0-.05,0-.05-.01-.1-.02-.14,0-.02-.01-.2-.01-.21.05-.03.08-.05.12-.09,0,0,0-.01,0-.02.06-.05.14-.08.19-.15.02-.02.08-.06.08-.09,0,0,0,0,0,0,.01,0,.03-.02.02-.03.02,0,.12-.11.14-.13,0,0,0,0,0,0,0,0,0,0,.01,0,0,0,0,0,0,0,.03-.03.07-.05.1-.08.02-.02.02-.04.05-.05,0,0,0,0,0,0,.03-.01.09-.07.1-.1,0,0,0-.01,0-.02,0,0,.02,0,.02,0,0,0,.04-.05.04-.06,0-.02,0-.04.02-.06.02-.02.06-.06.07-.08.08,0,.16,0,.22.01.06.01.14-.01.2,0,0,0,0,0,0,0,.02,0,.05,0,.06,0,0,0,.01-.01.03,0,.05.01.18.02.2.03,0,0,0,0,0-.01.06.02.13,0,.2,0,.02,0,.03,0,.05-.01.05,0,.1,0,.12.02.03,0,.03-.03.04-.05.02,0,.04,0,.06,0,0,0,.05-.1.06-.11.05-.08.09-.16.14-.23.02-.02.05-.11.06-.11,0,0,0,0,0,0,.02-.02.03-.05.04-.09,0,0,0-.01,0-.02,0,0,.01-.01.02-.02.02-.04.03-.09.05-.13,0-.02.03-.04.04-.06.01-.03.02-.09.03-.11h0s.02-.05.03-.07v-.03s.02-.08.04-.11c0-.02.07-.16.06-.18,0-.02-.02-.02-.03-.04h0Z"/>
  </g>
</svg>