<?xml version="1.0" encoding="UTF-8"?>
<svg id="Layer_1" data-name="Layer 1" xmlns="http://www.w3.org/2000/svg" viewBox="0 0 300.03 349.64">
  <defs>
    <style>
      .cls-1 {
        fill: #057eb6;
        fill-rule: evenodd;
      }
    </style>
  </defs>
  <path class="cls-1" d="m81.39,2.37s-1.58.03-1.19.09h-1.72c-.29-.03,2.26-.05.6-.07.19-.03,1.44-.02,2.3-.02Zm7.52-.15c-.15.02-1.15.01-1.17.04-1.18.02-.8-.04-1.12-.05-.91-.02-3.38.04-2.84-.05,2.4,0,3.87.02,5.13.05Zm-7.54.2h2.86c-.03.07-3.4.09-2.86,0Zm32.23-.32c-1.37.03-1.09.05-2.87.02-1.06,0-.39.08-1.19.09h-5.73c-1.81-.02,1.03-.03,1.73-.03-.15-.05-1.97-.04-1.67-.11-1.06,0-.39.08-1.19.09-3.34.02-3.75-.08-5.09-.14-1.7.03-3.56.03-4.57-.03,2.61-.05,6.55.05,9.13.07-.36-.02-1.31-.02-1.11-.07,1.04,0,2.17.01,3.05.02.87.01,1.48.03,1.49.08,3.21.05,5.34-.07,8.05-.06-.15,0,.36.07,1.12.05.13-.06-1.92-.05-1.08-.14,1.83.05,2.54-.02,4.02-.02,1.04,0,1.75.05,3.43.02-.03.02-.71.02-1.16.02-1.94.06-1.5.21-4.69.22,1.44-.03,1.13-.12,2.36-.16-.08-.03-1.04-.02-1.71-.02-.43.05-.72.07-1.22.16-1.23,0-1.08-.03-1.11-.07Zm-20.77.3c.37.08-2.04.08-2.88.04.11-.05,1.46-.05,2.88-.04Zm12.6,0h-1.15c-1.84.02-1.76-.04-2.84-.05-5.05-.02.85,0,1.74-.04.66.03,2.37.03,2.25.09Zm-8.61.04c-1.2,0-1.51-.02-2.28-.02.68-.04,3.05-.01,2.34-.11,1.27.01.39.12-.06.14Zm-6.77-.23c-1.58-.01,0-.07,1.17-.04-.47-.06-3.99,0-4.56-.05,1.33-.05,2.02.01,4.02-.02.15.05,1.97.04,1.67.11-1.08.02-1.88-.07-2.29,0Zm-12.05.04c-.63-.1,4.72-.09,4.01,0-1.61-.02-2.38-.03-4.01,0ZM2,287.52c-.08-.62-.04,1.77-.05,2.84-.04-.48-.07-2.73,0-2.86,0-1.07-.08-.39-.09-1.19.04-1.35,0-3.24.03-4.57,0-.22.06.21.07.03.02-.37-.01-4.03.05-2.27.02,2.32-.04,2.53-.07,3.41,0,1.47.01,2.73.04,3.45.1-.71,0-1.88,0-3.44.11-1.85,0-10.43.08-14.29,0,8.29-.01,18.99-.02,26.92-.07-1.39.03-6.65-.04-8.04Zm.28,18.46c.1.76.03,3.13.06,4.61.02.91.02.57,0,2.29-.16,1-.06-6.38-.06-6.9Zm.07-5.12c-.02-.41-.06-.92-.07-.03-.01,1.17.04,1.38.04.59.07,1.09-.03,2.71,0,4.58l-.05-.02c-.03-4.37-.06-8.55-.08-12.07,0-1.9.07-2.17.03-4.57.03-.67.04-.21.07.03.06-.51.05-2.87.07-4.55.09-.5-.03,4.7.04,3.46.07,1.14-.07,1.67-.09,2.25.03,1.44-.04,1.41-.05,1.7,0,.62,0,1.72,0,2.29,0,.27-.07.05-.05,1.12,0,.6.03.26.05.02.06-.71,0-1.21.05-2.85,0-.1.04.83.04.59.02-.99-.04-3.34.05-2.84-.02,4.63-.04,6.98-.05,10.29Zm-.07-1.18c.01-1.09.07-1.01.05-2.84-.07-.72-.1,2.37-.05,2.84ZM85.51,2.12c-2.35,0-2.25-.09-5.12-.07,1.62-.07,3.17-.07,4.58,0,1.17-.06,3.76-.1,5.17-.02,1.32.05-1.5-.02-2.86,0-1.18,0-1.17.06-1.76.09ZM2.41,317.5c.01,2.24-.11,5.08-.11,1.67.08,2,.04-2.01.11-1.67Zm-.15-4.66v2.86c-.07.85-.07-3.77,0-2.86ZM76.22,2.39h1.72s-.04.09-.04.09h-1.72c.97-.05-.04-.03.04-.09ZM2.44,283.13c.06.42.05,2.63.11,2.91-.01,3.98.01,8.94-.03,12.02-.06-3.45.01-7.56-.01-10.89-.01-1.77-.06-2.29-.06-4.04Zm.58-184.24c.12,1.83.07,5.03.06,9.2-.07-.5-.01-2.82-.02-4.59-.02-1.8-.03-3-.04-4.6ZM119.85,2.21c-2.47,0,.92.1-1.76.09.36.02,1.31.02,1.11.07-1.08.02-1.84-.02-2.86-.02-.97,0-3.35.03-2.84-.05,1.33,0,2.2,0,2.85.02,1.24,0,.12-.08.03-.07.42-.04,2.58,0,1.76-.09,2.64.06,3.21-.05,5.16,0-.31.02-.62.04-.6.07-.83-.01-2.97.02-2.85-.02ZM2.53,272.29c.06.89.04,2.49,0,3.44,0,.56.03.45.04.59-.05,1.32.02,2.72.02,4.02,0,.65.02,2.58-.05,2.27.03-2.43-.06-3.76-.06-5.19,0-1.81.06-2.69.05-5.13Zm189.33,75.36c.78.09-5.22.15-4.59.02,1.14,0,.7.06,2.27.05,1.36,0-.61-.06-1.12-.07-2.48,0-1.47.12-4.06.11.43-.08,2.5-.16,4.66-.15,1.37.02,1.39.02,2.84.05Zm-47.51-.1c-1.39,0-3.64.05-3.42-.05,1.09.01,1,.07,2.84.05.47-.08-2.31-.03-1.66-.11,1.53.01,5.5.09,4.58,0,.86-.06,3.14.01,2.83.07-.67,0-1.65,0-2.29,0-.33,0-.48.04-.59.04-.7,0-1.57,0-2.29,0Zm8.46.3c-1.76.05-5.91,0-8.6.02.78-.04,1.55-.07,1.22-.16,1.94-.02.86.07,1.1.11,1.52.02.7-.05,1.18-.07.31-.01,1.35-.02,1.15,0,.28-.03.2-.06-.53-.09-.34-.01-.71.02-.58.02-.57-.01-2.28-.1-3.4-.07.67-.05,2.95-.06,3.43,0,3.07,0,2.88-.07,5.74-.02-.09.06-1.94.04-3.46.04l-.03.07c2.24,0,2.32-.08,4.59-.02.67,0,.51-.04.6-.07,1.57-.02,1.14.05,2.27.05,1.62,0,1.15-.08,3.46-.04-.05.07-1.67.09-3.48.09-2.07.05-1.77.08-2.36.16-2.19.03-.07-.1-2.26-.07-.72,0-.6.04-.02.05Zm31.72-.45c.83-.04,1.1.02,2.28.02,1.08,0,1.71-.02,2.3-.02,1.54.01,2.45.07,3.98.07-1.55.12-4-.06-6.31.02-.5-.04-1.25-.07-2.25-.09Zm-8.05.06c-.25-.04,2.66-.07,2.88-.02,1.38-.03,2.15-.08,4.61-.06-2.92.03-1.03.1,1.1.11-2.52.12-4.84-.04-8.03.02.1-.03-.11-.04-.55-.05Zm-51.03.08h1.72c-.35.06-.54.12-2.35.11-.44-.06.83-.06.63-.11Zm.44.29c1.09.01,1.01.07,2.84.05.59-.01.62-.05,1.74-.04-.07.03-.13.06.54.07-1.43.02-4.98.05-5.13-.07Zm5.71.05c.66-.09,2.72,0,5.17-.02-1.06-.1,3.86.02,5.75-.04.4.1-3,.06-4.62.06-2.34.01-4.93.05-6.3,0Zm-1.09-.11s.71-.02,1.16-.02c.04-.04-.4-.06-1.11-.07-.09-.03,3.33-.03,1.17-.07.29-.08,2.01.02,2.28.02.68,0,1.63,0,2.29,0,.28,0,.33.04.55.05.85.02,2.01-.01,1.69.05,1.02,0,2.88-.02,2.27.05-1.5-.01-3.47-.03-5.14-.05-1.02-.02-1.97-.14-3.41-.05,1,.04,3.77.02,3.38.12-2.87.02-2.76-.08-5.14-.03Zm61.45-.32c-.34-.02-.67-.04.02-.05,2.41,0,7.93,0,12.03,0,2.08-.01,2.05.04-.01.02-4.05.02-8.24.05-12.04.01Zm-57.88.03c1.09-.03.73-.12,2.92-.11-1.72.03,1.45.12-1.2.11.34.05,2.89,0,2.25.09-2.14-.07-4.86,0-8-.05,1.52-.06-.92-.02-.53-.09,2.62-.03,2.22.06,4.56.05Zm1.25-.22c-.93-.03.09-.02,1.34-.02.62,0,1.3,0,1.82,0,.52,0,.88,0,.87-.02,1.6.04,2.45-.02,4,.03-2.12.01-5.07.09-6.33.06,1.93-.04.48-.05-1.7-.05Zm39.93.39c1.18.01,1.31-.04,1.74-.04,1.46,0,.69.06,2.26.07-1.36.07.15.12-2.36.13-.38-.07,1.02-.07.64-.13-1.48-.01-3.28.08-1.77.11-.12.03-.58.01-.57,0h-1.15c-.39-.07,1.59-.04,1.2-.11-2.54.02-3.05.06-5.17.02.07-.07,1.35-.08,2.34-.11,1.88,0,1.52.06,2.83.07Zm68.27-.18c-1.07-.05,4.6-.01,6.31-.02-1.01.1-3.89,0-6.31.02Zm-22.55.44c.91.04,2.37.06,4.56.05-.12.04-1.12.05-2.09.06-.48,0-.96,0-1.32,0-.36,0-.6-.02-.61-.03-.24.05-2.3.03-2.89.07,1.77.07,5.55-.01,6.31-.02-.11,0,.09.04-.02.05,1.21-.02,1.76-.06,2.33-.09.98,0,1.48.02,1.7.05,1.44,0,3.17-.03,4.02-.02,2.19-.03.06.1,2.26.07.8,0,.07-.04-.55-.05.45-.05,3.22,0,4.59-.02-.77.02-2.14.05-2.9.07.1.02.56.02.55.05,1.29,0,1.85-.05,2.9-.07-.56.08,4.37.06,5.69.07-1.1.02-2.06.04-3.47.07.16.03,1.42.02,2.28.02-1.83.07-8.49.09-12.07.08-.97,0-1.08-.01-1.12-.05-.6,0-.44.04-1.17.04-1.21,0-.9-.05-1.13-.05-.68.02-1.01.03-1.74.04-1.23-.01-2.96-.03-4.56-.05-2.56,0-4.88.01-7.46.02-2.25-.02-4.41-.05-6.84-.07-.97,0-1.5.02-1.73.02-3.82,0-7.53-.08-10.88,0-.41-.02-1.03-.03-1.7-.05.47-.05,3.54,0,2.9-.09-1.64.04-3.31.08-4.63.11-2.68-.08-7.66-.02-11.43-.05-1.38-.01-1.25-.05-2.26-.07-1.42-.03-3.48,0-3.98-.07.48-.1,3.32-.02,4.59-.02,1.77,0,3.85,0,5.16,0,.61,0,1.16-.02,1.16-.02.41.01,1.54.04,1.69.05.69,0,2.04-.01,2.88-.02,2.02,0,2.62.03,4.59-.02.13.07-2.34.08-.05.11.85,0-.21-.03.03-.07,1.27-.02,3.17-.02,3.48-.09,4.48.03,7.39.05,10.85.08,2.2-.02,3.82-.06,4.65-.13,1.43,0,3.06.02,5.14.03l-.04.09c1.49,0,2.47,0,2.32-.07Zm-20.65.05c.11.03.62.04,1.13.05.03-.11-1.61-.04-3.42-.05.51.04.14.11,1.08.14,1.25-.05-.7-.1,1.21-.13Zm3.99.05c-1.8-.01-1.54.06-2.9.07,0-.01-.25-.02-.51-.02-.27,0-.55,0-.63.02,2.15-.02.87.09,2.83.07-.57-.08,1.45-.06,1.21-.13Zm3.99.05c-.25-.06-2.15-.07-3.4-.09-.5.06.78.06.52.11,1.38.01,1.26-.04,2.88-.02Zm24.57.15c.45,0,.66.02.55.05,1.4-.01,2.95-.02,2.9-.09-1.64,0-2.91,0-3.46.04Zm-17.15-.08c-1.83.02-5.62-.06-4.58,0,.69.02,5.9.05,4.58,0Zm1.79-.16c-.34-.13-5.85-.01-6.33.06,3.28.03,2.76-.1,6.33-.06ZM2.36,321.49c-.02,1.95.09.77.07,2.89-.07-.23-.06-2.38-.16-1.79,0-1,.04-1.29.09-1.1Zm296.04,26.24c-.78.1-2.85,0-5.17.02-1.37-.04,3.78-.01,5.17-.02Zm-105.41-.05c2.18-.03,1.07.06,2.85.05-.83.07-2.81-.03-3.45.02-1.94-.03,1.6,0,.6-.07Zm3.92.21c.29.05-1.11.03-1.18.07-1.61-.02-2.38-.03-4.01,0,.91-.11,2.57-.04,5.19-.06Zm12.82-.46c.76,0,1.53,0,2.29,0-.31.02-.62.04-.61.07h1.14c.72,0,.6-.04.02-.04.73-.07,2.18.02,2.85.02.09-.04-.68-.05-.53-.09,1.36.08,3,.06,5.71.05-.2.05-2.72.01-2.33.09-.34,0-1.7-.05-1.7-.05-.37,0-.59.04-.59.04-1.25,0-2.47,0-5.16,0,.01-.04-1.55-.03-1.1-.09ZM130.13,2.29c.09.07-2.08.08-2.88.04.11-.05,1.47-.05,2.88-.04Zm75.5,345.33c2.36,0,4.14.1,5.17-.02,2.15-.02,1.61.06,3.42.05,2.22.02,3.01-.08,4.59-.02-.55.04-2.4.06-4.61.06-2.87,0-8.06.03-8.56-.07Zm-1.15.02c-.52.18-4.93,0-7.49.09.7-.1.35-.03-1.12-.07,2.03-.11,5.57.07,8.6-.02Zm4.49.21c1.02,0,1.23-.01,2.3-.02.88.09-2.48,0-2.32.07-2.72-.02-5.18-.03-8.57-.05-.92-.06,6.99,0,8.59,0Zm86.77-1.79c-1.5.1-2.1.23-4.72.29-.42,0-1.97.01-2.87.02-.89.02-3.14.08-5.18.04-1.17.03-1.88.04-2.9.07-8.23,0-13.42,0-18.9-.01.46-.01,1.07-.03,1.74-.04-.37-.07-1.52-.03-2.85-.02-.4-.07-3.36-.12-4.54-.09,1.63.07,3.3.14,5.09.14-2.27.05-4.22-.02-6.88.02,1.02-.08-1.65-.08,1.19-.09-.79-.03-2.8-.05-3.43-.02.08.07,2.24.06,1.65.16-.96,0-1.91,0-2.86,0,3.71-.03-.61-.15-2.25-.09-.08.03,1.25,0,1.71.02,1.34.04-3.19,0-4.6.04-.36-.02-1.31-.02-1.12-.07-1.75.05-4.36-.04-6.27-.07,2.96-.03,6.49-.04,6.96-.18.62,0,.37.04,1.12.05,1.72-.01-.53-.05.04-.09,2.16,0,2.75-.01,4.59-.02.55.07-1.3.04-2.31.04-.57.1,4.02.05,4.58,0,1.81,0,1.26.07,3.41.05.6-.02,1.18-.04,1.75-.07,0-.05-1.85,0-1.72,0-.75,0-.88-.04-1.7-.05-.91,0-2.6.04-4.58,0,5.03-.02,10.32-.04,15.5-.06-.74.09-.69.16-.11.23,1.74-.01,1.7-.01,3.44-.02,1.57-.02-1.51-.04-.52-.11.96,0,1.91,0,2.86,0-.19-.1-1.79-.09-3.98-.07,1.43-.09,5.9-.05,8.63-.08-.31.02-.61.04-.61.07,1.43,0,1.79-.03,2.89-.04-.24-.02-.48-.04-1.12-.05,2.44-.07,6.82-.06,10.35-.08-.66.03-.64.05.54.07,1.26.02,2.4-.08,1.19-.09.09-.05,2.43,0,3.45-.02,1.47.07,1.65.19,3.32.25Zm-40.78.22c.09-.07-4.26-.1-4.57-.03,1.63,0,2.34.01,4.57.03Zm10.32-.02c-1.71-.06-2.38-.06-1.63-.18-2.95-.03-.89.13-1.78.13-.84-.06-5.34-.07-5.18.04,1.79.03,1.41-.03,2.31-.04,2.3.03,4.3.13,6.28.05Zm12.09-.13c-2.27-.04-2.83,0-4.02.02-.81,0-3.68-.03-2.89.04.12.05,2.51,0,2.84.05.81-.11,2.65-.05,4.07-.11Zm-1.21.13c-.2.06,1.17.06,2.26.07.61-.07-.76-.07-2.26-.07Zm4.09-.18c-1.43,0-1.81.03-2.32.07.77,0,1.08.03,2.28.02l.04-.09Zm1.75-.07c-.48.02-1.61.16.51.14.88,0,1.33-.17-.51-.14Zm8.06-.08c.6,0,.47-.03-.56-.02-.18.07.63.11,2.24.11.53-.07-1.88-.03-1.68-.09Zm-271.57,1.21c-1.41-.03-4.47,0-4.55-.07,2.51.01,3.21.01,5.72.03-.16.02-1.15.01-1.17.04Zm-1.68-.09c-1.92-.05,2.66-.1,3.46-.04-.64.05-2.8-.04-3.46.04Zm18.92-.03c-.28.05-5.02.16-6.89.04-1.08.01-2.12.03-3.46.04-.1-.02.24-.02.58-.02.12-.02-.21-.02-.56-.02,1.78-.1,7.52.11,7.48-.06,1.62-.02,1.47.03,2.85.02Zm-23.52.07c-2.78-.02-2.97.06-5.75.04.08-.1,3.61-.05,4.64-.11.89.02,3.37.09,1.66.14.02.07,2.27-.07,2.29,0-.12.09-2.6.06-4.03.04-.46-.07.93-.07,1.2-.11Zm15.4.15c-3.65-.01-5.24-.02-9.15-.03.52-.1,2.8-.13,5.79-.13.88.09-2.48,0-2.32.07,1.73.08,4.8-.02,5.69.09Zm122.6.04c-.1-.04,1.01-.06.03-.07.89-.07,2.56.02,2.26.07h-2.29Zm-147.42-.11c.66,0,1.25,0,1.99,0,.87,0,1.92.01,3.38,0-.21.05-2.72.01-2.34.09-.67,0-1.55-.02-2.25-.02-.54,0-.9-.03-.79-.07Zm-.21-21.01c.05.5.07,5.94,0,7.44-.09.48,0-1.04,0-1.72,0-1.63-.02-4.29,0-5.73Zm31.35,21.06c3.64,0,.46-.14,4.07-.13-.36.06-1.85.08-1.79.16-2.36,0-5.05.06-5.71-.05,1.73.02,4.85-.07,3.43.03Zm-31.31-10.73c.05,1.38,0,5.14.02,7.46-.04-2.62-.05-5.22-.02-7.46Zm-.21,6.21c-.02.73-.02,1.17-.02,1.63,0,.23,0,.47,0,.75,0,.25,0,.55-.01.94-.01-.04-.02-.11-.02-.31,0-.22,0-.48,0-.75,0-.54,0-1.07-.03-1.16.02-.76.05-1.05.09-1.1Zm-.06-14.93c.06.2.07-.76.07-2.26.1,1.37-.01,4.57.04,6.9-.03.56-.08.5-.09,1.68.01,1.72.05-.53.09.04-.02.5-.03,1.28-.02,2.28-.04.53-.07-1.75-.09-.04-.03-.22-.07-2.95-.02-3.45,0-1.14-.06-.76-.04-2.31.05-.25.04.84.04,1.74.04.18.04-.52.07-.54-.04-2.13-.13-2.79-.13-5.79.1,1.48.04-.79.02-2.28.04-.06.05.72.09.61-.01,1.75-.01,1.68-.02,3.43Zm1.4,19.04c1.31.05,3.55,0,5.73,0,1.01.01,1.22.01,2.28.02,1.02,0,1.22-.01,2.3-.02,4.43,0,10.38,0,16.04.01-.21.12-3.84.04-5.18.04-1.66,0-2.67.06-4.02.02-.72,0-.6.04-.02.05-.6.06-2.53-.02-2.26-.07-4.92.02-8.45-.01-12.05.04-1.07-.03-2.62-.03-2.82-.09Zm151.64.42c-1.48-.06,3.44-.08,4.6-.04-.28.07-4.31-.02-4.6.04Zm6.62.57c-1.1,0-2.26-.06-3.42-.05-.29-.09,3.87.03,3.42.03.46,0,2.79-.01,4.59-.02,1.71,0,3.13.03,4.58,0,.12.04.96.05,2.27.05-1.82.06-4.12-.02-6.86-.03-1.74,0-3.09.01-4.59.02Zm-4.96-.43c.39.07-1.99.03-1.2.11-.98,0-1.47-.02-1.7-.05,1.02-.02.77-.09,2.9-.07Zm-2.9.07c-1.63,0,.62.15-1.77.11-.72-.06,1.72-.09.05-.11.19-.05,1.57-.05,1.72,0Zm2.13.36c1.75,0,2.19.07,3.43.02,1.84.02-4.73.11-3.43-.02Zm-92.88-1.13c2.38,0,2.22.03,4.01,0,0,.13-3.42-.03-2.92.11-1.93.02-.86-.07-1.09-.11Zm63.03,0c3.08-.07,7.14.01,10.31,0,2.52,0,4.08-.08,5.75-.04.13.06-2.2.03-3.46.04-1.06.02-2.03.03-2.89.04-.84,0-.84-.02-1.13-.02-.65,0-2.28.05-2.86-.02-2.96.04-2.81.04-5.73,0Zm38.51,1c-.5.03-1.86.03-2.89.04-.36-.08,2.05-.08,2.89-.04Zm5.88-.31c.92.02,2.22.05,3.4.07-1.83.17-7.03.08-10.92.08-.67,0-.5.04-.6.07-1.56-.09-3.1,0-5.17.02-1.8,0-1.48-.06-2.83-.07,1.89-.06,4.03.03,6.31-.02,1.03-.03,1.06-.11,2.92-.11.14.04-.56.04-.6.07,3.38-.03,7.39.08,7.5-.11Zm-10.09-.5c.6-.1,2.79-.09,5.19-.06.67-.04,4.93-.08,4.57.03-3.29.01-7.71.03-9.76.04Zm136.95-236.37c-.01-2.78-.03-7.23-.04-10.33.06,2.84.06,7.11.04,10.33ZM.92,285.87c.07.37.03,2.18.02,3.45-.07-.36-.03-2.18-.02-3.45Zm.11,4.06v-5.15c.06-.14.08,5.48,0,5.15Zm-.23-.67c-.07-.43-.03-1.54-.02-2.88.06.08.05,2.16.02,2.88Zm.27-34.83c-.05-.27,0-2.83-.02-4.02.09.56.01,2.31.02,4.02Zm-.48,35.88c0,4.09,0,6.05,0,9.17-.09-.88,0,2.56-.09,1.68,0-1.89.02-3.64.03-5.14,0-.12.04.12.05.02,0-.52,0-2.25,0-2.86-.02-.87-.03.14-.09-.62.08-1.37,0-3.02.05-5.14,0-.65-.02-.33-.02,0-.07-.59.03-1.52.02-2.28.05-.22.05,3.47.09,1.76.05,1.11-.04,2.89-.09,1.68.02.54,0,2.12.07,1.75Zm.47,11.67c-.08-.44-.03-4.19-.04-6.32.1,1.23-.01,4.03.04,6.32Zm-.3-56.86c.06.12.07-.85.09-1.67-.02-.54-.04-.89-.07-1.18,0-1.34.04-2.13.03-4,.06,1.4.07.28.11,1.77-.04,2.24-.03-.12-.09-.04.01,2.01.1,1.99.06,5.19-.12-.23-.06,1.07-.07,3.41-.1-.07-.11-2.16-.11-4.63.04-.19.04.46.04,1.17Zm-.04,54.99c.04.65-.03,3.07,0,5.15-.07-.18-.01-3.75,0-5.15Zm-.31-5.87c-.05.07,0-2.03-.02-2.87.09.27.06,1.99.02,2.87Zm.31-60.02c-.03-1.01-.08-1.54-.07-3.47.07.01.05,2.04.07,3.47Zm.03-16.03c-.01.46-.02.92-.02,1.71-.03-1-.08-1.53-.07-3.47.05.19.04,1.57.09,1.76Zm.3,86.08c-.02,7.82-.02,9.92-.04,17.75-.03,1.79-.02-2.08-.02-3.45,0-4.2,0-10.85.01-15.47.04-.19.04.47.04,1.17Zm-.35-109.6c0-2.47.06-2.19.11-1.67,0,1.74-.07,1.15-.11,1.67Zm-.25-25.9c0-1.5.01-2.46.07-2.26,0,1.5,0,2.46-.07,2.26Zm0,22.35c-.04-3.35-.01-7.68.03-11.45.01-1.8-.07-1.33-.04-3.46.02.12.02.58.04.59.03-3.09-.03-4.26-.04-6.32.11.78.11-1.39.14-2.8.11,1.43,0,5.22-.05,6.28.08.41.17,3.04.13,4.65-.06.22-.02-2.14-.07-2.32-.07.53,0,1.93.02,2.3-.02.55.03,2.72,0,3.43,0,.07-.04-.08-.05-.02.01.72.03,1.35.04,2.31,0,.89-.02.81-.02,1.14,0,.78.05,1.5,0,2.86,0,.25-.02.89-.02,1.14-.03.69-.12-1.28-.11,1.67Zm.07-2.26c-.02-2.58.12-4.5-.04-4.6,0,1.73-.03,4.44.04,4.6Zm.53,47.8c.08.34.03,2.77.02,4.02-.05-.27,0-2.83-.02-4.02Zm-.11-1.2c.05,1.19,0,4.76.02,6.88-.05-1.19,0-4.76-.02-6.88Zm.17-77.85c-.07-1.12-.01-2.32-.02-4.59.04-1.51.01,3.36.02,4.59Zm-.01,19.48c-.04-2.05-.02-4.96-.02-8.03,0-2.59.02-11.84.03-6.86,0,3.78,0,10.73-.01,14.89ZM14.12,1.62c1.5.1-4.42,0-6.32.04,1.22-.05,3.37-.09,4.59-.02.81,0,1.62,0,1.73-.02Zm8.56.07c-2.09,0-4.15-.02-6.86-.03,1.52-.05,6.63-.07,6.86.03Zm3.93.18c1.42,0,.13.08-.04.09-1.42,0-1.75-.04-2.84-.05.48-.06,2.67.05,2.88-.04ZM1.01,326.59c.04,1.67.03,6.92,0,8.59-.06-2.74,0-6.78,0-8.59Zm-.34-159.44c-.2-.34-.19-5.09-.11-8.64,0-.81-.04-.07-.05.55-.07-1.67.03-3.73.05-5.14,0-.7-.03-.26-.02-.01-.03-1.34-.02-5.1.03-6.29-.03-.87,0-3.27-.09-2.91.07-2.23.03-4.83.03-8.01.03-1.37.11-1.26.12-3.38-.05-1.41-.05,3.16-.14,1.08,0-1.15,0-1.79.05-1.7,0-3.89.03-9.06-.01-12.04,0-1.25.02-1.81.07-1.69-.08-.86-.08-4.1-.04-6.89-.06-.63-.04-3.14-.06-4.61.05-.24.04.84.04,1.74.07-1.45-.03-3.6.03-5.14,0-.65-.02-.33-.02,0-.09-.62.02-.92.02-1.71,0,0,0-2.52,0-2.86,0-.94,0-1.93,0-2.86.02-.67.05-1.69.05-1.69-.02-.62-.04-1.49-.07-2.32,0-.9.02-1,.02-1.71,0-.46-.01-.59-.02-1.16.01-2.24.06-3.69.03-5.14,0-.18-.03.84-.03,1.44-.03-2.56.02-5.29.03-7.74,0-.9-.01-1.86-.02-2.87,0-.32.01-1.27.02-2.28,0-.79-.03-.13-.04-.59,0-1.07,0-2.91,0-4.01.04.16.05,1.01.04,2.31.04-2.28.08.81.14-.51,0-.45-.01-.59-.02-1.15-.01-1.72-.05.53-.09-.04-.04-.46,0-1.24,0-2.29,0-.21-.04-1.64-.04-1.74,0-.27.07-2.58-.02-2.3-.01-1.28.04-.79.05-1.7,0-.97-.02-1.09-.04-1.17.05-2.46.07-4.27,0-6.88.03-1.45.06-2.59.07-4.55-.04-.23-.04.43-.05,1.13-.03-1,0-2.08-.02-4.02,0-1.06-.08-.39-.09-1.19.03-1.79-.05-2.49-.07-3.47,0-.54,0-1.89,0-2.86-.04-4.1,0-12.03.01-18.33,0-1.24-.06-3.24.03-4,.01-1.26-.04-.83-.04-1.74,0-5.57.02-9.97.02-14.02,1.59.01,3.14.02,4.68.03-.59,0-1.17.01-1.77.02-.93,0-1.89,0-2.86,0,0,.98,0,1.97-.01,2.95,0,.62.01,1.25.02,1.88.04.41.05-.1.05-.88,0-1.14,0-2.68,0-3.7,0-.07,0-.14,0-.21,1.11.01,2.46.02,2.6.02.77-.01,1.34-.02,1.84-.03.44-.01.81-.02,1.26-.02,3.03.05,6.82.07,8.6-.02,5.07.03,9.22-.03,12.58.05,3.32-.08,9.63-.01,13.75,0,1.31-.09,5.72-.02,9.74-.02,3.07-.01,6.02-.03,8.61-.04,3.64,0,7.3,0,10.31,0,3.09,0,6.33.06,8.6-.02,1.48.07,2.73,0,4.58,0,.93.01.97.01,1.71.02,3.17-.01,7.13-.02,10.9-.04,2.03,0,3.87.02,5.72.03,1.17-.01,2.25-.03,3.46-.04,1.29,0,2.65.02,4,.03,1.93,0,3.88-.06,5.74-.02.56,0,.46-.03.59-.04,1.37,0,2.6.01,4.57.03,1.74.05,2.71.13,6.25.12,1.12.07-2.39.11-1.82.22.65.06,2.98,0,4.01,0,.87-.02-.14-.03.61-.09,2.16-.02,1.21.09,2.82.09,2.13.03,1.66-.05,3.46-.04-.09.04.68.05.53.09,1.98.02,2.22-.03,4.02-.02.14.04-.56.04-.6.07,2.11-.01,3.95-.04,5.14.03.69,0,.28-.03.01-.02,1.67-.03,5.45-.02,6.86.03,1.09-.02.43-.07,1.73-.02,1.56-.01,2.7-.04,3.48-.09.77.02.71.08,1.68.09.48,0,.95-.01,1.73-.02.04-.05-.96-.07-.51-.14,1.47,0,.69.02.55.05,1.6.03,1.52-.04,2.88-.02,1.42.02,2.82.19,3.99.05-.12-.03-1.7-.03-1.72,0-.94-.02-.58-.1-1.08-.14,1.38,0,2.63-.01,4.59-.02-.26.05-3.14,0-2.89.07,2.11.05,6.49,0,7.48-.06,1.86.03,5.47-.02,5.11.09,2.13.03,1.66-.05,3.46-.04,1.04.02-.35.02-1.16.02.22.07,3.63.09,1.64.18.75.03,3.23.03,4.01,0-.47-.03-1.83-.03-2.84-.05.94-.03-.85-.13,1.78-.13,2.68,0-.64.03-.04.09,1.94,0,2.52-.07,3.44,0,1.72-.01-.53-.05.04-.09,1.07.04,3.78.02,5.72.03,1.1.03-1.04.09,1.09.11.98,0,1.49-.02,1.74-.04-.11-.03-1.71,0-1.7-.05-.55-.08,1.8-.03,2.88-.04-.48-.09-2.29-.02-4-.03,1-.12,3.91-.03,6.9-.04-.22.03-1.03.03-1.18.07,3.75-.04,3.64.07,5.1.12.46,0,.6-.01,1.16-.02-.83-.07-2.42-.12-2.77-.21,1.25.02,2.27.05,2.24.11,1.79.01,2.35-.03,2.9-.07.76.02,1.05.05,1.1.09,1.83-.01.71-.05,3.45-.02.45,0,1.02.01,1.48.01.46,0,.81.02.79.03,2.12-.01-.21-.07,1.2-.11h-1.72c.6-.04,4.17-.01,3.41.07,2.56.01,3.43.02,5.72.03-1.35-.05-6.08-.05-4.52-.14,1.62,0,1.3.07,2.83.07.46,0,.59-.01,1.16-.02.09-.04-.68-.05-.53-.09-1.19-.01-1.52.01-2.3.02-1.01-.06,3.55-.04,4.58,0,.05.04-.72.05-.61.09,2.22-.04,6.07-.03,6.85.05,1.12-.04-.45-.08-1.09-.11,3.18-.06,5.88.13,9.72.05,1.77-.02.66.08,2.84.05,1.83.02,1.21-.06,2.32-.07,2.74.05,4.49,0,6.27.07.59-.01.62-.05,1.74-.04.79-.02.78-.08,1.76-.09-.62-.03-.47-.05.6-.04.12.07-1.67.14.5.16,1.48,0-.77-.04.04-.09,2.21.02,3.59-.04,5.18-.04,2.13,0,3.6.08,6.27.07,1.37,0-.27-.1,1.75-.07,1.79,0,.27.03.55.05.35.02,1.85.01,1.69.07,2.32-.03.75-.08,1.78-.13,1.72.03,4.56.03,6.3,0,1.22.05-.1.07-.62.11.94.05,3.53,0,5.74-.02-.52.08.34.1-1.78.13.16.03,1.43.02,2.28.02,1.27,0,.29-.1.64-.13,1.75,0,1.41-.08,3.47-.07.67,0,.5-.04.6-.07,3.48,0,6.73.01,9.75.02,0,.93,0,1.84,0,2.72,0,.49,0,.5.02.58l.03.14c0,2.4,0,4.16,0,5.73,0,.11-.04-.11-.05-.02,0,.52,0,2.25,0,2.86,0,.62.04.41.04,1.17.07.74.02-1.85.09-1.1.06,2.6-.13,1.36-.05,4.56-.04.14-.04-.56-.07-.6-.03,1.76.06,3.21,0,4.01,0,.67.04.5.07.6-.04,3.4,0,5.52.02,8.6-.03-.15,0-1.71-.04-1.74-.07.69.09,6.32.07,2.32.05.27,0,2.83.02,4.02-.05-.26-.06.37-.09.53,0,.65.02.33.02,0,.08,1.4-.08,5.53.04,6.32,0,1.81-.07,1.27-.05,3.42.05.29.04-.8.05-1.7.05.58,0,3.3-.03,4,0,.99.08-.71.07,1.75,0,1.23-.03,1.08-.07,1.12-.02,1.9.05,3.61.06,5.76,0,.33-.01.69-.02,1.14,0,.75.02.98.02,1.16,0,1.41,0,3.9,0,6.3,0,1.06,0,2.93,0,4.01,0,1.48.06,2.82,0,4.01-.01.26-.04,1.43-.02,2.28,0,.07.04.59.04.59,0,.21-.11,3.97.02,4.59,0,2.26,0,3.54.02,6.88,0,.66.02,2.13.02,2.3,0,.76-.05.87-.05,1.7,0,1.82.07,1.6,0,2.86.02.59.04,1.18.07,1.75.03,8.47.05,16.69.07,24.1-.02.53-.04.85-.07,1.11.11,5.52.09,11.16.12,16.67,0,1.5.09.49.07,2.32-.07-.3-.09.67-.11,1.67.07.46.04-1.55.11-1.09,0,1.42,0,2.78-.05,2.84.01.78.05,1.09.09,1.19,0,3.97,0,5.34,0,9.74-.1-1.6-.12-1.52-.25-1.83-.01,1.22.03,1.1.07,1.18-.01,1.59-.09,1.56-.14,2.23.04,2.82-.04,5.3.04,6.9.01,1.27-.04.79-.05,1.7,0,.62.04.41.04,1.17.02,2-.04,2.19-.03,4-.05.32-.09.85-.07,2.83.07,1.34.03-4.68.07-1.12,0,.95,0,2.1,0,2.29.03,1.39.03,1.75.04,2.31-.01,1-.01,1.22-.02,2.28,0,4.45.01,10,.01,12.61,0,.67.04.5.07.6-.04,2.76-.02,7.6.06,10.34-.01,1.18-.02,1.87-.02,2.85,0,1.06.04,1.39.04,1.74,0,.69-.04.78-.05,1.13,0,.29.02,2.67.02,2.87,0,1.05.01,1.78.02,3.45.03-.16.02-1.43.02-2.28.04-1.37.01,3.78.02,5.17-.06-1.35-.07,1.65-.11-.62-.06.5.06,1.09.02,2.87.05.81.09-1.44.09.04,0,2.26-.03-.2-.07,1.11-.01,1.06.05.72.07,1.17.01.47-.03,3.03.04,2.31-.01,3.17-.02,5.4-.03,8.01-.07-.32-.09,1.21-.14-.06-.04,2.21-.04,7.93,0,10.31,0,.5.02.5.04.59.03,4.76-.07,10.02.01,12.61-.02,2.46-.06,6.22.04,6.32-.02,1.55.02,2.97.02,4.59,0,1.1-.02,2.53-.02,3.43.02.61.03,1.35.04,1.74,0,2.31.01,5.1.02,7.45,0,1.97.01,5.54.02,8.6.02,1.96.04,3.38.06,5.19,0,2.11-.02,4.18.02,6.31-.07-.45-.08.55-.14.51.02-2.14-.09-1.29-.09-2.91-.06.5.03,1.81,0,3.44-.07-1.46-.2-1.97-.25.46,0,.31.03,1.3.04,1.74,0,1.22,0,3.97,0,6.3.01,2.08.07,3.12.02,5.17.08,1.31.05,7.22.08,10.92.03,1.13.04,1.74.07,2.9.04,3.3-.02,6.66-.03,9.73-.09-.35-.09,1.42-.16,1.65-.04,3.16-.18,3.37-.23,6.2-.08-1.19-.09,0-.11,1.67-.11-2.15-.16,1.43-.25,1.61,0-.92-.02-1-.02-1.73-.03.16-.02,1.43-.02,2.28-.06-1.4-.07-.28-.11-1.77-.04-.23-.04.43-.05,1.12-.01-.76-.06-.45-.09-1.19,0-.18,0-1,0-1.15-.03-.6-.1.25-.11-.62,0-.38.03-.64.02-1.14-.02-1.13-.04-1.61-.11-2.34.02-1.98-.03-2.22-.02-4.02,0-.67-.04-.5-.07-.6.09-2.74.07-8.19.19-10.23v-4.58c-.13-.27-.18,1.71-.29,2.16-.02-3.81-.14.32-.2-1.24v-2.29c-.05-.04-.07.96-.13.51.01-3.13.02-3.63.03-6.29.05-.32.08-1.07.09-2.25,0-2-.06.02-.07-1.18v-2.29s.09.04.09.04c-.02-2.27.07-3.95-.02-4.59,0,0-.01.23-.01.54,0,.31,0,.72,0,1.11,0,.78,0,1.48-.06,1.18v-17.76c0-.73-.01-.95-.03-1.74-.05-.04-.07.95-.14.51-.02-2.77-.08-2.5-.04-5.75-.07-.61-.04,1.26-.05,2.27-.02,1.81-.03-1.03-.02-1.73.03-3.95-.05-10.72.08-12-.04-1.13-.09-1.89-.06-4.61.03.15,0,1.71.04,1.74.02-.1.02-.56.05-.55-.01-1.37-.03-2.68-.09-2.9-.02-4,.06-7.1,0-10.31.07,2.96.05-2.39,0-2.86,0-3.59,0-7.78,0-10.88-.03-8.37.08-19.11-.03-25.22.02-1.01.04-.06.07.03,0-.67,0-1.02.02-1.13-.02-1.61-.02-1.41-.04-2.89.01-1,.03-2.41.05-3.42,0-1.22-.05-1.53-.04-2.88,0-1.25.02-1.81.07-1.69-.03-1.24-.1-1.42-.06-4.04.02.15.01,1.15.04,1.17.04-.67,0-2.4.03-4,0-.18.04-1.04.05-1.12,0-4.17-.01-8.82-.01-11.47-.02-.54-.04-.88-.07-1.17.08-2.19.02-6.24,0-9.16l.07.03c-.02-1.28-.01-3.11-.07-3.47.02-1.75.06.68.09.61,0-1.98-.04-2.72-.06-4.04.02-2.49.02-5.97-.04-8.04.02-.83.03-1.44.05-2.27-.1-8.15-.13-17.6-.07-26.96-.02-1.39-.04-2.78-.06-4.04.02-2.28.03-4.08.05-6.85l.09.04c-.04-2.07-.13-5.61-.04-7.47.06.71,0,2.99,0,4.01.02,1.42.1,1.33.09,3.48.03-.36.04-1.2.05-2.27.04,1.86.14.92.18,1.8.1,2.1.03,5.09.08,8.06-.01,1.09,0,2.46-.07,2.26.02.85.03,1.47.04,2.31.04-.12.05-.96.05-2.27.05,1.35.01,5.4,0,6.87-.07-.67-.06-.3-.11.52,0,1.43.08,1.95.02,3.45.03-.08.04.14.04.59.07-.11-.03-4.73.07-3.98,0,2.49,0,5.16-.03,6.86.02,2.16.08.07.11,1.2,0-1.77-.05-3.26,0-4.58.04.1.08.41.09,1.19.03-.31.06-.87.07-1.69-.04-2.09-.06.98-.11.52.01-1.22-.03-1.11-.07-1.18-.02-1.76.02-2.08.03-3.43.03.19.02,1.44.02,2.3.1-.84-.01-3.07-.04-4.03,0-2.14.06-2.76.09-3.97-.01-1.17-.11-.21-.09-2.33.02-.97.07-1.22.11-1.67-.02-.79-.08-.78-.09-1.76,0-5.39,0-12.57.01-19.48,0-1.32-.06-.67-.07-1.75-.03.36-.04,1.2-.05,2.27-.07-1.6-.14.59-.2,1.05v-1.15s0-1.15,0-1.15c.07.85.13.54.14-1.66-.07-.46-.03,1.96-.11,1.09.07-2.22.03-3.83-.02-5.74-.05.99,0,2.19,0,3.43-.01,2.22-.07,3.38-.09,5.12-.03-.82-.12-2.12-.14-.06-.04-1.87-.08-3.68-.11-5.21-.02-1.57.05-1.13.05-2.27.02-1.57-.02-2.93-.02-4.59.01-.92.01-.98.02-1.71,0-1.95-.01-3.45-.02-5.16,0-3.47,0-10.58.01-14.32,0-1.05.06-2.82-.02-3.45-.02-1.57.05-1.13.05-2.27,0-.97-.02-1.09-.04-1.17-.02-1.85.07-.75.07-2.26.02-2.09-.05-3.21,0-4.58,0-.67-.04-.5-.07-.6.05-1.72.06-4.33.05-7.42-.02-.54-.04-.89-.07-1.18,0-6.33,0-21.99,0-32.66-.01-1.62-.03-2.86-.04-4.6,0-1.81,0-3.58,0-5.27,0-.84,0-1.66,0-2.46,0-.55-.01-1.08-.02-1.6-.06,0-.13,0-.19,0,.07,0,.13,0,.18,0-.02,1.34-.05,1.15-.06.06-.25,0-.54,0-.88,0-1.79,0-11.72,0-16.43-.01-.93-.01-.98-.01-1.71-.02-1.03,0-2.57.01-4.02.02-1.23-.01-2.22-.02-2.85-.02-1.35,0-2.33.06-5.18.04-.55-.02-1.58-.04-1.7-.05-.85.02-1.92.04-2.89.07-.3,0-1.03-.01-1.71-.02-1.47.01-3,.03-4.6.04-1.48,0-7.65,0-9.74,0-.63,0-.58.06-1.74.04-.15-.04.56-.04.6-.07-1.02,0-1.23.01-2.3.02-.11.03.11.04.55.05-.28.06-1.8,0-1.12-.05-1.36.03-2.07.03-3.45.02-.44,0-3.17.03-4.03.04-1.09,0-2.17-.02-3.43-.02-3.44,0-7.84.01-10.89.01-1.46.01-3.18.03-4.6.04-.91-.01-.99-.01-1.71-.02-1.71,0-3.32.01-4.59.02-1.1-.02-2.1-.03-2.84-.05-1.06,0-2.68-.02-3.43-.03-.49.01-1.53.04-1.74.04-.93-.01-.97-.01-1.71-.02-1.01,0-1.23.01-2.3.02-1.2,0-2.3-.02-3.43-.02-1.66,0-6.11.09-9.18.02-.5.04-4.72.06-8.05.06-.82,0-2-.02-2.85-.02-6.14,0-12.5.07-17.78.03-1.12,0-2.1-.07-3.43-.02.08.03,1.04.02,1.71.02-1.26.04-6.59.04-6.28-.05-.42.06-1.42.02-3.46.04-.98,0-2.41.07-5.18.04-.24-.05.84-.04,1.74-.04-.34-.02-1.29-.08.6-.07-.35-.07-1.23.02-2.29,0,.45-.02.64-.05.61-.09-1.61-.02-1.5.03-2.87.02.68-.09-1.71-.11-2.83-.07.69.08,3.14.09,3.36.18-.88.03-2.43.04-2.91.09-.81-.03-.83-.09-1.67-.11-1.66,0-1.43.11.53.09-2.08.08-3.68-.05-3.96-.12-1.08.05-3.4.05-2.94.16-.81,0-1.62,0-1.73.02-1.15-.04-3.77-.03-3.96-.12,1.5,0,2.87,0,2.26.07h2.86c.51-.08-2.75-.03-2.24-.11,1.81-.02,1.52,0,2.85.02-.14-.08-2.51-.07-2.8-.14-1.76,0-2.61.08-4.02.02.09-.1,4.19-.16,3.54-.22,1.35-.04,3.08.02,5.16-.02-.97.04.04.03-.04.09,2.7.01,1.16-.15,4.07-.13,1.47,0,.69.02.55.05,1.26.01.83-.04,1.74-.04,2.62-.03,2.22.06,4.56.05,1.91-.03-1.17-.06-.52-.11.33.04,2.72,0,2.84.05,1.37,0-.61-.06-1.12-.07,1.43-.04,4.07.02,5.75-.04-1.05-.08-2.03.04-3.45.02-.23-.05-2.5-.06-1.09-.11-2.6-.03-2.28.06-4.6.04-1.99,0-.43-.06-2.85-.02-1.13.02-1.79.03-2.88.04-1.11-.02-2.48-.04-3.98-.07-1.96.02,1.59,0,.54.07-2.22.07-7.15-.04-8.04.04-.95-.03-1.89-.06-3.99-.05,1.04-.12,3.17.05,4.59-.02-2.03-.07-4.61-.16-6.77-.23-2.08.07,1.45.12,2.8.14-.26.08-4.44,0-3.5.13-.98,0-1.48-.02-1.7-.05-1.02.06-3.83.04-6.32.04.18-.05,2.54,0,2.32-.07-1.24-.02-2.61-.05-3.98-.07-1.46,0-1.17.07-1.21.13-1.36-.01-4.17.03-4.57-.03-.11-.11,2.5.03,3.46-.04-1.57-.1-3.33.02-5.14-.03-.09.04.68.05.53.09h-5.15c-1.75-.05,4.1.01,3.47-.07-1.36-.05-4.15.03-6.31.02,3.05.08-3.18.03-5.18.04-1.63-.04,2.93-.02,4.02-.02-.8-.1-4.42-.03-5.73,0-1.48-.06-5.7-.1-7.44-.03.77.05,3.98.01,5.72.03.07.05-2.04,0-2.88.02-2.08,0-4.52-.02-5.18.04-3.23-.07-5.61-.03-9.72-.05-.62,0-.41.04-1.17.04-1.51,0-1.87-.03-1.68-.09-3.88.07-6.26-.05-9.74,0-1.13-.05.27-.04.61-.09-.93,0-.98-.02-1.71-.02-.73,0-.78.07-.03.07-1.6.09-4.09.04-6.33.06-.06.03-.12.06.54.07-1.35.04-3.08-.02-5.17.02,1.25-.05.27-.12-1.08-.14.41-.07,1.22.02,2.29,0,.13-.05-.44-.07-1.69-.07-2.51.02.25.12-1.22.16-2.53-.05-2.75-.04-6.28-.05l.03-.07c-2.86,0-3.72.08-6.9.06.84-.06-.91-.05-1.12-.07-.38-.03.41-.09-1.1-.09-1.91.05,2.05.07,1.07.16-2.28.01-1.6-.09-3.98-.07-.8,0-.07.04.55.05-1.25.06-2.46-.02-4-.03-1.38.01-3.17.03-4.6.04-1.45,0-2.8-.04-4.01,0-.14-.04.56-.04.6-.07-1.72,0-2.31.07-3.35.02-.08-.03.3-.03.71-.04.42,0,.91,0,.95-.03-1.73-.02-1.66.03-2.53.04,0,.18,0,.41,0,.71.02-.09.03-.36.05-.66.64.02,1.4.04,1.33.09-.22,0-.77,0-1.23,0,0,.31,0,.58,0,.7,0,.14-.03-.78-.04-.54-.03.58-.05,1.09-.07,1.97-.01.89-.03,1.97-.05,3.48.02,1.58.05-1.72.09.04-.02,1.59-.03,2.96-.05,4.56l-.07-.03c-.03,1.21,0,1.28,0,2.29-.02,2.01-.08,2.1.02,3.45.02-1.18.08-3.72.09-.53.05-.96.01-4.37.03-6.29.08-.19.04,2.6.04,4.03,0,1.82,0,3.88,0,5.15l-.11-.05c0,2.39.04,3.14.11,2.34,0,1.15,0,2.29,0,3.44-.03-.21-.03-1.02-.07-1.17-.01,2.62-.02,3.55-.03,6.29-.02-.12-.02-.58-.04-.6-.01,4.43-.02,6.84-.03,10.88.08.5.11,2.25.09,5.19.09-.14-.02-3.25.05-4.56.05,1,0,4.37.02,6.31-.04.19-.04-.47-.04-1.17-.02,2.01-.08-.13-.11,1.1-.02,2.66.06-.76.07,1.18.02,2.6-.1,1.23-.07,3.98,0,1.1.08-.85.11.62-.06,1.34.04,4.9-.05,3.42.04,2.79.04,5.52.02,8.03.11.88.06-2.37.07-3.98.09.52.01,2.49.02,4.02,0,1.35.06,2,.04,3.45-.08.54-.07-.83-.07-2.32-.05.06-.05,1.42-.05,2.85-.06-.33-.08-.79-.11.52,0,.77.1-.64.11,1.2.06.64.08-2.43.11-.52,0,1.47-.02.69-.05.55,0,2.98,0,3.73,0,6.87-.11.03.04-2.89-.07-2.89-.06,1.18-.02,1.65-.05,3.41,0,1.26.07.08.07.03.08.55-.02,2.04.09,1.76-.02,2.13.06,3.65,0,5.16.07,1.33.03,6.54.04,10.9,0,2.44.03,2.67-.03,4.57,0,.62.04.41.04,1.17-.03,7.36.05,11.68-.01,17.75,0,.63.04.41.04,1.17,0,1.38-.04,1.23-.02,2.85-.08.57-.07-1.24-.11-1.77.04-1,.11-3.26.05-5.14-.07.3,0,2.09-.05,3.42,0,.31-.06.3-.07.54,0,1.01-.02,2.25-.03,3.43.07.74.02-1.84.09-1.1.03.89.07,4.38.11,1.77.03.3.05,5.19-.03,4.57.08,2.89.02,7.21.01,12.04.01,5.26.02,11.82.03,16.06.02,1.57-.05,1.13-.05,2.27.02,1.25,0,2.69,0,2.86,0,.93.08.9.04,2.89-.08,1.05-.04-.99-.07-1.75-.01-.37-.06-.79-.07-1.17-.01-.74.07-3.19-.02-2.88-.04.17.02.82,0,1.72,0,.24-.11.36-.07,2.26.05.25-.01-2.61.07-1.69.03,2.71-.06,6.09-.05,8.57.04,0,.05-.94.05-1.97,0-1.03,0-2.17.02-2.58.09-.75.07,1.28.13,1.21.04,5.73-.02,10.48-.06,14.87.07,3.4.08,7.31.04,10.9.08.47.11-.59.11-2.24.05.21.02,2.51.07,2.9.09,0,0-1.62,0-2.29,0-1.89.02-3.92.03-6.29,0-.62-.04-.41-.04-1.17-.01-2.06.03-2.76.05-3.99-.01-1.3-.04.68-.07-.6.05-3.91-.03-8.26.03-12.02.08,1.59.06-3.17.14-3.38,0-1.51-.13.48-.09-1.76-.03.08-.02,1.04-.02,1.71-.02,1.81-.03-1.03-.02-1.73.02-1.3.07-2,.07-3.98-.07-.61-.04,1.26-.05,2.27-.08-.11-.02-1.69-.02-2.88,0-2.38-.01-6-.02-9.18.05-.24.04.84.04,1.74.11-1,0-3.23-.04-4.03,0-4.61.11-5,.1-9.12-.09-.5-.03,2.7-.05,3.99-.11-4.42.01-10.09-.01-13.76,0-.42-.04-1.09-.04-1.17,0-.87.04.11.05.02-.01-1.12-.03-2.44-.04-3.46,0-2.22.08-2.75.07-4.55,0-.67-.04-.5-.07-.6.03-5.35-.06-10.15.03-13.74,0-.7-.03-.26-.02-.01-.04-1.95-.03-7.26.03-8.58-.02-1.21-.05-2.52-.07-3.46.04-4.58.08-10.87.12-15.99.1-.74.14-2.38.23-2.19,0-4.95,0-7.23,0-12.03-.02-.54-.04-.89-.07-1.17,0-1.33,0-2.2.02-2.86,0-1.37-.06.61-.07,1.12-.03,2.6.09,3.22.02,5.17-.05-1.14-.07-2.91-.06-5.19-.02.24-.04.48-.05,1.12-.04-.36,0-.88,0-1.15.01-.41.03-1.49.09-1.1,0-.75,0-1.54,0-2.29.02-.68.05-1.68.05-1.7,0-1.04-.07-1.13-.04-2.89.08-.13.06-3.17.14-3.38-.03-1.76-.09.8-.11-.62,0-1.79.03-2.76.07-1.69-.07-1.44.06-4.21-.06-4.04-.08.42.07,2.72,0,2.86-.08.57-.03-2.49-.04-3.46-.01-.48-.04-1.49-.04-1.74-.02-3.02-.02-7.7.05-9.14-.03-1.54.02-4.06,0-6.3-.03-1.34-.05-2.64-.07-3.47-.07,2.5.03,4.54,0,6.87-.08-1.06-.06-3.44-.06-5.19,0-1.81.05-4.12.03-6.87.07-.47.05,1.51.09,1.76-.03-1.74-.05-2.86-.09-4.62.07-1.2.02-2.46.05-5.13-.06-.21.02,3.22-.07,2.26,0-1.73.03-4.44-.04-4.6.02-.64.04-1.41.06-2.04.4.01.71.03.87.06.35,0,.8-.02,1.14-.02.39-.01.62-.03.39-.06,1.51-.03,2.43.07,2.3-.02,2.1,0,2.16.08,3.39.12,1.57-.02-1.51-.04-.52-.11,3.97.08,7.27,0,10.87.03.59-.01.61-.05,1.74-.04-1.56.1,1.3.04,1.67.11.7-.04,4.69-.07,3.49-.11.59-.07,1.12.03,1.71.02,1.62-.02-.8-.06.62-.09,5.55,0,10.48,0,14.9-.01.91.01,1,.01,1.71.02,1.49,0,2.7-.05,4.6-.04.58,0,1.71,0,2.27.05,2.06,0,4.67-.01,6.88-.02,6.3-.02,11.17,0,14.25.17-.24.09-.06.17,1.64.18-.16.04-1.01.05-2.31.04,1.23.05-1.41.17,1.64.18-1.99.01-1.88.11-2.94.16-.46.02-2.31-.02-1.74.04-5.84-.03-12.42-.05-18.3-.08-.93-.02-1.79-.03-2.84-.05-1.47,0-2.96.01-4.59.02-.98-.01-1.23-.01-2.28-.02-2.01,0-3.18.07-4.58,0-.62,0-.41.04-1.17.04-1.56,0-3.1,0-4.58,0-.64-.02-1.67-.05-1.7-.05-.62,0-1.07.04-1.74.04-1.36,0-2.83-.02-4-.03-1.05.02-1.36.03-2.31.04-1.85.02-3.68,0-5.72-.03-.97,0-1.08.02-1.16.04-1.71,0-3.73-.01-5.96-.02-2.06,0-4.31,0-6.66.01-.44-.03.37-.09-.49-.11v.02c.03.74.09-.23.11.34,0,4.13,0,5.51,0,9.53-.03-.26-.05-.76-.04-1.74-.04.96-.03,1.68,0,2.17.03.49.07.72.07.72.02,2.68-.06-.82-.07,1.11-.01,1.22.03,1.1.07,1.18v4.01c-.05.93-.03-.07-.09-.04v1.72c.01,1.21.09-2.08.09,1.18,0,2.35-.03-.11-.09.53,0,1.57-.04,1.14,0,2.29,0,1.27.1.29.14.64v4.01c-.02-.45-.05-.64-.09-.61.03.74,0,3.02.09,2.33.02,3.2-.02,4.81-.09,5.69,0,1.08.11,2.69,0,2.86.02,1.59.09-1.29.07,1.75.02-.24.04-.49.05-1.13,0,.31.07,5.24-.05,3.99,0,1.74.08,1.41.07,3.47l-.07-.03c.04.38.04,1.75.07,2.32,0,1.68-.05,2.1-.09,2.82.1.14.05,4.29.06,5.18,0,.12.04-1.19.02-1.71.07,3.16-.03,7.07,0,10.89-.08.96-.14,1.56-.21,3.92-.02,1.76.06,1.13.04,2.89.08-1.65.1,1.85.14-.51.05.73-.01,4.07.11,2.92,0,6.72,0,15.62,0,21.78-.08-.38-.04-3.46-.04-5.75,0-2.1,0-4.35-.02-5.74-.03,1.09-.04,2.89-.09,3.4-.02,2.3.09,1.45.09,3.48l-.05-.02c0,2.73-.03,4.27-.07,5.7,0,.62.04.41.04,1.17v4.01c-.03,1.38-.05.33-.07,1.11,0,2.26.03-.17.07,1.18,0,1.51-.02,3.58.07,2.89-.05,3.46,0,8.65-.03,11.44-.05-1.95,0-6.29-.02-9.18-.03-.68-.05-1.68-.11-1.77,0,1.49,0,2.47.07,2.32-.05,2.16.02,3.8,0,6.87-.03-.7-.04-.24-.07-.03.01,4.93.02,9.67.03,16.06-.03,1.39-.07-1.06-.09.53,0,2.47.12-.77.09,2.91-.05,1.17-.12-.86-.13-2.35-.08.37-.04,3.76.07,2.89-.01,1.1.01,2.08.02,1.16,0,11.2,0,27.52,0,38.39,0,.65.02.33.02.01,0,1.33.01,3.69.02,6.31-.07.32-.03-2.07-.09-.61-.05,1.53-.02,2.38-.02,2.86-.03,1.48,0-2.06-.04-2.89-.03,2.17-.06,3.97-.09,6.26.1.64.15,2.74.2,4.67-.01,1.39-.02,2.94-.09,2.82.07,2.66,0,5.95.01,11.46-.02.44-.05.59-.09.53-.01,1.22.03,1.1.07,1.17,0,2.63,0,5.68,0,9.17-.03,5.08-.05,10.05-.08,14.29,0,2.06.04,4.12-.03,5.14.02.73.02.95.04,1.74,0,1.46-.04,1.99-.07,2.83.08,4.44,0,10.46,0,17.77-.05,1.38-.04-.87-.11-.63,0,2.75.14,2.24.11,5.78-.04-.53-.06-1.63-.13-1.21-.02,2.07.09,2.26.02,4.02-.05-.38-.01-2.68-.07-2.9-.05,1.33.08,2.99.04,5.75-.06.14-.07-.83-.07-2.32-.08,1.05.04,2.03.02,3.45-.05.13,0,2.52-.05,2.85.04,1.56.14,3.66.11,5.2-.03-.6-.08-.6-.11-1.2.01-1.02.01-1.21.02-2.28-.11-.35-.06,3.22-.05,4.56-.07.12-.07-1.33-.13-1.21.03.86.06,1.47.09,2.33,0,2-.06,1.97-.09,2.82,0-2.73-.09-9.13.03-11.44-.01-1.3-.04.68-.07-.6.01-2.44-.02-5.91.03-7.44,0-.56-.03-.46-.04-.59,0-3.36.07-5.59-.02-8.03.07-1.54.03-7.45-.02-9.75.06-.8.05-3.25.07-5.13-.09-.13-.08,2.31-.12,3.38-.09-.78,0-1.18,0-2.86,0-1.24-.08-.29-.11-.62-.02,3.53.05,4.72.11,6.35-.01,7.21-.02,11.35-.03,16.6-.03-1.42-.12-1.17-.13-2.92-.05.21,0,3.04-.05,3.42.05.21.07-.09.07-1.11.07.16.04,2.87.04,4.6-.04.03-.09-.31-.09.53-.02,2.07.11.31.07,2.9-.07-1.03-.05-1.04-.11.52.01.98.05.39.05-.55.03.14,0,1.71.04,1.74-.04,1.36-.06,2.67-.14,1.65-.01,2.34.07,2.35.04,5.18,0,2.26-.1,1.71-.09,3.97.03,1.63.05,3.39.13,2.35,0,3.19.04,4.76.11,4.64.02,1.63-.03,1.47-.02,2.85-.05.25-.04-.84-.04-1.74-.07.01-.08,1.27-.11,2.24.04,2.28.04,1.77,0,4.01-.07.67-.02-1.86-.09-1.19-.05-.02,0,1.56.04,1.16,0,1.88.01,2.87.02,5.17.05.21.09-.05.11-.52-.03-.75-.02-2.5-.02-4.02.11.41.08-3.04.18-2.78-.01,6.56-.03,18.08-.04,24.05-.1-.11-.02-1.34-.02-2.3,0-4.83,0-12.22.01-17.18-.04,1.55-.04,4.5-.12,5.1-.02,1.95.09.77.07,2.9.01,1.28-.04.79-.05,1.69-.04,1.33.04,1.55.04,1.74,0,.26-.02.74-.02,1.13,0,.75.02.98.02,1.16,0,2.56-.05,4.56,0,7.45,0,.98-.02,1.07-.05,1.13.01,1.72.05-.53.09.04,0,1.44-.05,1.37-.07,2.26,0,1.24.08.3.11.62.01,4.52.03,8.74.04,12.63,0,.63-.04.84-.05,1.12,0,.59.01,2.34.02,3.24,0,.16,0,.32,0,.5.46,0,.96,0,1.4,0,.44,0,.94,0,1.16-.02.45.02,1.56.01,1.7.05,2.88-.07,9.4.02,13.77-.04.47.07-1.51.05-1.76.09-2.28-.02-3.43-.02-5.73,0-1.11,0-.49.09-2.32.07,1.76.08,3.42-.04,5.18-.04.56.05,3.83,0,3.4.09,1.01-.03-.54-.1,1.21-.13,1.63-.02,1.47.03,2.86.02.6-.07-1.26-.04-2.27-.05.84-.05,3.92-.06,5.76-.06,1.61,0,3.27,0,4.58,0,.35,0,.77.02,1.11.02.33.01.58.02.59.02.69,0,.81-.04,1.16-.04,1.28-.01,2.23.05,3.45-.02.98,0,1.07.02,1.12.05,1.65-.02,1.81-.02,3.46-.04-.16.04-1.01.05-2.31.04.37.05,1.72.05,2.25.09,1.33,0,2.69-.01,2.33-.09.38.02,3.38.06,2.87-.02-.53-.06-2.21.03-4.01,0,.5-.03,1.86-.03,2.89-.04-.33-.07-3.06-.05-3.39-.12-2.56.03-3.03,0-4.56-.05.28-.05,2.43.09,2.87-.02-.13-.03-1.13-.02-1.14,0-1.83-.05,2.72-.15-1.66-.14.31-.11,4.57.05,5.19-.06-2.12-.02-3.39-.08-6.27-.07-1.69.02.72.06-.05.11-1.44-.02-1.42-.09-2.23-.14-1.34,0-2.38.04-3.44,0,2.16-.11,5.97-.02,9.77-.06-.26.04-1.81.02-1.18.09,2.21.02.98-.1,3.47-.07.11-.03-.11-.04-.55-.05,1.92-.04,4.28-.07,4.67-.18,1.83-.02,1.75.04,2.84.05,2.54,0,3.45-.01,5.74-.02.08.05-.5.07-1.75.07,1.67.11,6.09,0,6.24.14,2.41-.03-.04-.13-1.07-.16-.07-.05,2.03,0,2.87-.02-1.74.07.83.1,1.07.16,2.85-.04,4.06-.14,8.08-.13,1.55-.01,1.08.05,1.69.07.46,0,.6-.01,1.16-.02,1.18-.03-1.64-.06.62-.09,1.23,0,1.07.03,1.11.07,1.74-.03,3.15-.07,5.76-.06,1.5,0,1.57.07,3.99.05-.08-.03-1.04-.02-1.71-.02,1.73-.07,8.04.02,11.48-.04,1.17.02.43.12,2.24.11.86,0-.21-.03.03-.07,3.29,0,6.6-.01,9.18-.02.04.06.67.11,2.82.09-.36-.02-1.31-.02-1.11-.07,1.13-.03.87.04,1.12.05,1.22.02,2.65-.06,4.01,0-1.95.08-3.82.02-6.89.04-1.35,0-1.1.08-2.89.07,1.8-.08-4.16-.02-5.12-.07-.59.02-1.18.04-1.75.07-1.44-.02-1.42-.09-2.23-.14-1.75.06-1.97-.06-4.57-.03-.86.13,3.47.09,1.62.2-1.48-.04-2.86-.08-2.78-.18-2.46-.02-2.65.06-1.19.09-.39.04-1.33.01-1.14-.02-2.06.01-2.76-.03-3.99-.05-1.11,0-.89.1.54.07-.79.07-2.52-.04-3.44.02-.18.04.52.04.54.07.97-.03,3.64.01,3.47-.07,2.29-.02,1.69.07,3.99.05.29.05-1.11.03-1.18.07.17.05,1.03-.02,1.16-.02.73,0,.9.05,1.7.05.94,0,1.53-.05,2.88-.04.78,0,.5-.06.61-.09,2.33,0,2.61.06,3.97.09,1.79.01,1.64-.06,2.33-.09,1.3.03,1.8.09,2.8.14,1.15-.09,4.63-.09,7.5-.11-.58.08,2.24.03,3.41.05,1.78-.01,1.19-.12,4.05-.09-.47.01-1.07.03-1.74.04.12.05,2.51.01,2.86,0-.42-.03-.69-.04-1.12-.07-1.56-.07-2.71-.03-1.67-.09h-5.16c1.04-.08,3.59,0,6.31-.02,2.03,0,5.6,0,9.16,0-.45.07.55.08.51.14,3,.01,4.32.02,6.87.03-.27.05-1.05.08-2.34.09,1.61.07,2.56-.08,4.05-.09,2.03-.01,1.37.08,3.4.07,1.08,0-.1-.1-1.69-.07,1.21-.11,2.01.04,3.42.05,2.33-.03.75-.08,1.78-.13,2.26.01-.73.1,1.66.11.34-.05,2.93-.02,2.35-.11,1.73.04,4.92-.02,3.42.05,1.56-.01,4.53.03,5.17-.02,1.01.02.06.04-.03.07,1.84.02.84-.07,1.76-.09.9.09,1.57-.04,4.58,0-.36.05-1.24.07-1.77.11-10.8-.03-15.14.07-24.67.07-.81,0-.07.04.55.05-2.02.01-4.17.03-5.75.04-.47,0-.98-.04-1.7-.05-.4,0-1.38.02-1.16.02-.9-.01.79-.06-2.27-.05,1.03-.14,3.99-.03,5.76-.06-2.44-.08-6.03-.13-10.25-.14.31-.02.61-.04.6-.07-2.32.02-1.35.11-.66.18,2.5.03,1.92-.08,4.04-.06-.35.1-2.61.21,1.04.23-4.64,0-11.14.1-16.62.01-1.78.07-5.86.04-9.18.04-1.11,0-.49.09-2.32.07-1.34-.06-1.31-.11-1.65-.16-2.76,0-2.17,0-5.74.02-.26.05.37.06.53.09.92-.05,3.21-.04,4.05-.09,3.41.15-2.39.19-5.23.15.04,0,.67-.04.59-.04-.28,0-3.4,0-2.88.04-3.31,0-10.38.02-15.49.03-3.52,0-7.27,0-10.31,0-1.46.02-3.35.04-5.19.06-2.27,0-4.47,0-5.76.06.3.08,3.28.05,3.37.14,2.56-.04,6.77-.02,7.42.07.62-.08,2.41-.12,4.65-.13.5-.06-.78-.06-.52-.11,3.5-.02,1.79.13,1.07.18.55,0,2.87.02,4.57.03,1.1,0-.85-.08.62-.11-.22-.04-2.76.07-4.01,0,.58-.03,1.57-.04,1.76-.09,4.19,0,9.09,0,15.46.01,1.81.05-3.56,0-2.9.07.04.06,1.9.05,3.42.05,1.5,0,.49-.09,2.32-.07-1.41.07.72.09,1.69.07,1.32-.02.04-.1,1.16-.02.89.06,2.57.09,3.99.05-.55-.05-2.52-.04-2.24-.11,1.8,0,1.48.06,2.83.07.46,0,.59-.01,1.15-.02.42-.06-1.16-.04-1.69-.07-.53-.05,1.68-.02,1.73-.02,1.3-.02,1.38-.03,2.31-.04,2.54,0,6,0,9.16,0-1.46.06-2.21.02-4.59.02.02.03.49.04,1.15.04.66,0,1.5,0,2.26,0,0,.07,1.27.08,2.24.11,1.88-.04-1.46-.06-.51-.14,3.33-.02,2.24.14,3.93.18,2.12.02,3.6.03,5.14.05,1.06,0,.38-.08,1.19-.09,2.95-.02,2.34.1,5.7.07-.37.1,2.11.1,1.62.2-1.94-.06-4.04.02-5.19.06.16.03,1.42.02,2.28.02-.45.02-.64.05-.61.09-1.25,0-1.81-.02-1.69-.07-.82-.01-1.44.09-1.73.02-.81-.04-.5-.05,1.17-.04-1.05-.04-.53-.12.63-.13-.77-.07-1.99.04-3.45.02-.16-.05-.87-.09-.5-.16-1.73,0-.6.11-2.34.11-.2.06,2.21.02,1.68.09-.83-.01-2.97.02-2.86-.02-.94.03-1.45.08-3.46.07,1.01-.07.77-.14-2.24-.11-1.5-.05,1.55-.06.05-.11-.7.02-1.07.06-2.89.04.23-.04-.43-.04-1.13-.05.39-.05,1.2-.14.08-.18-1.02.02-.77.09-2.89.07-.7-.09,1.9-.04,1.21-.13-2.25-.03-1.52.06-2.33.09-1.1,0,0-.1-2.26-.07-.34.02-.21.08-1.77.11.46.05,1.44-.06,3.45-.02-.92.06,1.26.04,1.69.07.23.01-.16.05-.03.07.18.03,1.44.02,1.11.07-.67.02-1.55.03-2.88.02.22-.03,1.03-.03,1.18-.07-1.42,0-2.38,0-2.88.04.21.11,2.91.09,5.12.07.55.07-1.3.04-2.31.04,1.04.06,1.61.11-.07.16.13.02,1.13.02,1.13.05,1.43,0,1.95-.08,3.45-.02-.47.1-5.2.05-8.62.06-1.93,0-3.44.04-5.16.02-.05-.02,1.76-.04,2.3-.02-1.79-.05-1.96.02-3.45.02-.87,0-1.63-.05-1.7-.05-.97.02-1.82.04-2.89.07-.92,0-1.29-.01-2.28-.02-1.9,0-4.38.05-5.73,0,.49-.11,2.78-.16,5.78-.11-.15-.08-2.57-.07-4.55-.07-1.67.02-.66.03-.62.09-1.14,0-1.79,0-1.74.04-1.02,0-2.86-.02-2.31.04.04.04,2.15-.03,2.85.02-2.72.06-5.91,0-9.18.02-.72.01-1.47.03-2.31.04-2.52,0-6.01.01-8.6.02-4.32,0-9.1,0-12.03,0-.09,0,.11-.04.02-.05-.56-.02-1.58.04-2.3.02,1.27-.15-1.22.04-4.01,0-.67,0-.5.04-.6.07-2.34,0-5.53.02-6.28-.05-1.8-.01-1.33.07-3.46.04-.41-.08.37-.11,2.33-.09.08-.07-1.7-.07-3.41-.07-.44.07.55.08.51.14-8.24.01-16.49.02-24.72.03.02-19.38.03-38.67.05-57.46,0-4.48,0-8.12,0-12.6-.01-.92-.01-1.01-.02-1.73,0-1.96.02-5.7.03-9.15,0-1.91-.01-3.7-.02-5.74,0-2.73,0-10.89.01-15.46-.01-2.66-.08-6.06,0-9.74-.03-2.96-.05-5.18,0-7.45-.02.36-.02,1.31-.07,1.12,0-4.27,0-7.46,0-12.61.03.22.03,1.03.07,1.18.03-2.33-.08-1.5-.09-2.9,0-1.34.1-.28.11.05-.03-1.6-.04-2.48-.06-4.04.04-1.8,0-2.96,0-5.16,0-1.03.02-1.94.02-2.85,0-1.43-.07-3.79-.04-6.9.02-.79.04-1.48.05-1.7,0-.99-.08-1.53,0-2.86-.02-1.94-.06-6.6-.08-9.21.01-1.06.02-2.03.02-2.28,0-1.02-.01-1.22-.02-2.3,0-1.17.04-1.16.05-1.7,0-.29-.01-1.06-.02-1.73,0-2.47.02-6.31.03-8.58-.01-.99-.03-1.69-.04-2.88.01-.45.03-1.05.05-1.7-.04-1.18-.02-3.48-.02-5.17-.01-1.21-.03-2.73-.04-4.03.01-1.02.01-1.2.02-2.28-.01-3.85-.02-8.98-.04-13.2.01-.92.01-.99.02-1.71-.02-3.89-.03-7.34-.04-9.76,0-1.22.03-.83.05-1.7-.01-3.09-.02-5.72-.04-9.18.02-.36.02-1.31.07-1.12,0-.67-.04-.5-.07-.6.01-3.72-.1-6.43,0-9.17,0-2.05,0-2.08-.02-4.59.03-.63.04-1.62.11-1.1,0-2.56-.05-.75-.09-1.76-.02-2.64.06-2.74.05-5.13,0-1.06-.08-.39-.09-1.19.04-2.85-.01-6.84,0-10.89.01-1.2.03-2.62.05-3.99,0-3.52-.08-9.91.03-12.02-.02-.54-.04-.89-.07-1.18.06-3.78-.05-6.05,0-10.31-.1-.95-.04-2.25-.06-4.61-.02-.21-.07.91-.07,1.11,0,.61.04,1.04.04,1.74-.01.86-.02,1.08-.02,1.71.02.82.03,1.57.04,2.31,0,1.25-.02,2.08-.03,3.43,0,1.36,0,3.23,0,5.73-.02.69-.04,1.57-.05,1.7,0,.63.01,2.52.02,4.02,0,1.9,0,2.19,0,4.58,0,2.02,0,4.85,0,8.02-.04.14-.04-.56-.07-.6,0,1.74.01,3.77-.07,3.41,0,.67.04.5.07.6.05.12.01-2.02.02-2.85.08,1.73.05,5.7.02,8.6-.03,1.42.09,1.83.02,2.3-.05,1.16-.04-.27-.07-1.18-.01-.58-.05.16-.04-1.17,0-.45.01-.57.02-1.14.03.1.02,1.05.02,1.73.06-1.81-.01-3.78.03-5.72-.12-.91,0,4.47-.14,3.37.03,3.19.14,4.2.08,8.06.1.79.03-2.71.11-2.24,0,2.66,0,4.96-.05,6.28-.03-.99-.03-4.25-.11-2.34,0,1.11.09.49.07,2.32-.13-.55-.09,3.76-.03,4.58.04-.51.05-1.77.05-3.42.09.58.02,2.9.02,4.59-.09-1.36-.09,1.02-.14,2.23.09.68.08-1.99.14-.51-.02,1.55-.1,1.38-.09,3.39.01,1.64.03-.91.05-1.12,0,5.62.02,13.79.03,21.22,0,.68-.06,3.12.02,4.02,0,3.21-.02,9.47-.03,12.02-.08-.91-.04-3.9-.04-6.32,0-3.47-.01-6.69-.02-9.18-.08.16-.06,1.55-.14.52.02,2.1-.04,3.03,0,4,.01-.73.02-1.18.05-2.84.11,1.36-.02,3.46,0,5.73.05.25-.01-2.61.07-1.69,0,13.2-.02,31.77-.03,45.82,0,.95-.02,1.91-.02,2.85,0,1.29.01,2.26.02,3.45,0,1.93-.11,4.21-.03,5.72-.05.19-.03,2.28-.07,2.83,0,.72.04.6.05.02.11,10.11-.04,21.2.05,29.25-.01.83-.02-.07-.05-.02.03,2,.05,4.12.04,6.89-.06-.08-.03-2.25-.09-2.33,0,1.8.08,4.36.02,5.74-.1-.06.03-2.41-.07-2.9,0-1.81.04-2,.03-4,0-.46-.01-.59-.02-1.16-.05-.18-.08.1-.09,1.1-.03-1.84-.12-2.21-.16-2.36-.09.9,0,3.37-.05,4.56-.07.28-.02-1.84-.02-2.3,0-.6-.04-.33-.04-.59,0-1.68-.01-3.81-.02-6.31.04-.96.17-.81.18.65.05.45.09-2.07.05-2.27.04-1.77.07,1.21.11,1.2,0-1.25-.02-1.83-.07-1.75,0-1.81.07-1.27.05-3.41.09,1.02-.03,3.69.06,4.61,0,1.96-.1,4.29-.03,6.29.1.8,0-4.55.09-2.25-.05-2.38,0-3.98-.06-5.76.01-1.09,0-2.46.07-2.26-.06-2.42-.02-7.23,0-11.46-.05-2.17-.08-5.22-.04-6.89-.03-1.59-.06-2.94-.06-5.19.04-.06.05.73.09.61,0-1.43-.05-1.41-.07-2.32,0-1.95.02-4.63-.02-5.73-.03.36-.04,1.2-.05,2.27-.04-1.11-.02-3.68-.06-4.61,0-2.59.08-3.3.09-5.69,0-.86-.03.21-.07-.03,0-2.43.06-3.05.05-5.7-.01-.59-.05-.62-.04-1.74-.04-.23-.04.43-.05,1.12-.04-1.88-.01-3.28.03-4.57-.01-1.3-.04.68-.07-.61.02-1.87.15-.74.12-3.96-.02.36-.02,1.31-.07,1.11.04-1.93-.05-2.13-.02-3.45,0,.16.06.64.07.03,0-.53-.05-1.56-.04-.59-.06.23.02-3.12-.04-2.89-.06.69.02,5.32-.09,4.54,0,.78.06.5.09.62v2.86Zm-.18,60.08c.07-.07.14-.34.14-2.23l-.14-.06v2.29Zm.29-.44v-1.72c-.07.54-.16.53-.14,3.38.11,1.02.03-2.68.14-1.66Zm.08-43.51c-.01,1.68-.13.43-.09,3.4.07.69.06-.87.09-1.1.04.43.04-2.69,0-2.29Zm109.05,164.4c1.31-.03,3.7-.02,3.49-.11-1.83-.02-1.21.06-2.32.07.11-.06.15-.11-1.1-.11l-.07.16Zm-26.9-.06c-.57,0-1.14,0-1.72,0,.38.07-.62.08-.64.13,2.1,0,1.77-.08,2.35-.13Zm1.05.2c-1.26.07-.65.11-2.94.16,2.02,0,5.55-.11,2.94-.16Zm10.36-.11c-.05.07-2.49.13.51.14-.57-.08,1.24-.07,1.77-.11-1.07-.01-1.26-.01-2.28-.02Zm-.51-.14c.15-.03.96-.04,1.17-.07-.77,0-1.08-.03-2.28-.02-.18.05.1.08,1.11.09Zm-2.98.25c-.19.03-.83.04-.62.09,1,0,1.78,0,2.28.02.14-.06.13-.12-1.67-.11Zm-10.75-.3c1.76.06,3.64-.02,6.3,0,.12.03.93.04,1.11.07-.02.03-1.01.02-1.17.04,1.4.02,1.24.1,3.4.09,1.17,0,1.54-.04,2.32-.07-.15-.11-1.21-.19-3.92-.21-.41.05.75.03,1.13.05.59.02,1.69.1.52.11-1.4-.02-2.46-.05-2.23-.14-2.89,0-5.51,0-7.47.04Zm-.95-.43c1.64,0,2.91,0,3.46-.04-2.08.04-1.69,0-3.43-.03l-.03.07Zm-11.9-.28c.47.02,4.45.07,4.02-.02-.41-.04-4.22-.04-4.02.02Zm-5.84.24c2.89-.01,4.92.1,7.43.03.66-.12-2.51-.1-3.41-.05-2.26,0-2.95-.05-4.02.02Zm-8.02,0c1.88.07,4.42-.07,6.3,0-.96-.12-4.52-.04-6.3,0Zm-2.18-.25c2.61,0,5.53.11,7.45,0-2.96.03-5.62-.07-7.45,0Zm21.31,1.01s-.1.03-.59.02c-.2.06.76.07,2.26.07.19-.06-.17-.1-1.67-.09Zm-.39-.41c-.39.09,3.13.03,4.56.05-.98.07.09.09,2.25.09.59-.15-5.04-.15-6.81-.14Zm-.07.16c1.85-.02,1.78.04,2.26.07,1.07,0,1.92-.01,2.31-.04-2.25,0-2.48-.04-1.1-.09-1.47,0-4.25.05-3.47.07Zm-.73.34c-1.61-.03-.97-.14-3.95-.12-.63.05,1.03.05,1.1.09,0,0-.33.01-.65.02-.32.01-.62.02-.52.05.09.02.19.06,2.27.05-.53-.13.91-.04,1.76-.09Zm-13.11-.14c-.55-.14,4.74.04,2.92-.11,1.97.02,2.43-.02,3.45-.04,1.89.05,3.75.09,6.25.12l.04-.09c-2.56,0-4.03-.01-2.82-.09-3.04.02-5.17.04-8.05.06.62.1-5.43.07-1.79.16Zm-6.45.31c2.28-.03,3.94-.06,5.77-.09,2.06.04,4.88.05,8,.05.21-.05-.05-.09-.52-.11-1.03.03-3.34,0-4.03.04,1.45.04,2.02-.02,2.85.02-1.61.05-3.74,0-4.56-.05,3.02-.03.93-.09,2.93-.13,1.08.01,1.26.01,2.28.02.12-.06-1.69-.05-1.67-.11.23-.01,2.8-.03,1.17-.04-1.92.02-1.85.12-4.64.11,1.48.1-.88.11-1.77.11,1.09,0-.39.09-1.19.09.27-.11-3.99-.06-4.52-.14l-.05.11c1.52,0,3.38-.01,3.41.05-1.55,0-4.22-.03-3.47.07Zm-2.67-.41c-1.63.02-1.47-.03-2.86-.02-1.05.1,2.99.08,2.86.02Zm-3.54.22c2.46.01.76-.06,1.75-.07,1.52,0,3.37.02,3.46-.04-2.18-.02-3.67.03-4.58,0,.44.06-.84.06-.62.11Zm-3.49.11c1.01,0,2.83.07,3.44,0-.45,0-.66-.02-.55-.05-1.42,0-2.77,0-2.88.04Zm-3.99-.05c-1.87.03-.4-.07-2.27-.05-.9,0-.52.07-2.31.04-.74.07,1.84.02,1.1.09-1.7,0-2.79-.09-3.44,0,1.65.02,1.76.02,3.42.05,2.14-.04,3.49-.1,6.35-.11.1-.03-.07-.06.61-.07,2.83-.03-1.55-.02-1.73.02-.76,0-1.69-.09-2.28-.02.62,0,1.36.04.55.05Zm-6.8-.16c.66.03,2.01.03,3.43.03.74-.07-1.85-.02-1.11-.09,1.76-.02,2.08.02,3.43.02.97-.04-.04-.03.04-.09-1.71.02-4.58,0-5.19.06,2.68,0-.43.04-.6.07Zm-2.35.13c-.49-.05-1.05-.21-2.8-.14,1,0,1.29.04,1.1.09-1.02,0-2.86-.02-2.31.04,1.97.01,3.2.02,4.57.03.75,0,4.14,0,2.3-.02h-2.86Zm1.85-.29c-.73-.02-5.49-.06-4-.03.09.04,3.31.08,4,.03Zm-4.54-.09c1.84.03.47-.07,2.31-.04.9,0,.42.06,1.7.05l.04-.09c-2.17.02-2.72-.03-4.57-.03-.31.07,1.95.06.52.11Zm-4.69.22c-.7.07,4.9.09,3.41.05-2.28.03-1.14-.08-3.41-.05Zm-2.2-.2c1.6.02,2.31.07,4.55.07.32-.08-3.31-.12-4.55-.07Zm-6.33.06c1.42.01,4.52.09,5.16,0-1.41-.02-4.97-.08-5.16,0Zm-2.39.22c1.44,0,2.61.1,3.41.05-.71-.04-2.71-.14-3.41-.05Zm-.1.2c1.37.04,4.6.02,6.86.03.6-.09-3.2-.01-2.82-.09.79,0,.63-.06-.55-.05-.33.03.62.12-.63.11-.55-.05-2.1-.05-2.86,0Zm-9.15-12.63c0-1.35.04-1.67.03-3.43-.04-.42-.05.43-.05,1.39,0,.48,0,.98,0,1.37,0,.39.02.67.02.67Zm7.65,12.16c-.44,0-1.13,0-1.16.02,2.26.02,1.81-.06,2.35-.11h-2.29c-.45.06,1.12.04,1.1.09Zm-1.91.43c-.13.06.85.07,1.68.09.2-.03.83-.04.62-.09h-2.29Zm-5.29-2.65c0,.95,0,1.64,0,2.21,1.17-.02,1.92-.03,3.22-.05-.03.06-1.64.06-2.28.09,1.64.06,3.07-.04,4-.09-2.03-.01-3.51-.02-4.87-.02,0-.54.02-1.06.05-1.55-.03.19-.05.03-.06-.2-.01-.24-.03-.5-.05-.4Zm-.34,1.67c0-1.09-.01-1.71-.01-2,0-.28,0-.24-.01,0,0,.51,0,1.83,0,2.91.45,0,.86-.01,1.17-.02.3,0,.49-.02.49-.03-.77,0-1.14,0-1.63.01,0-.24,0-.51,0-.88Zm.03-7.54l-.11-.05c-.03-.06-.01-4.13-.04-2.31-.01,2.21-.02,4.2-.03,5.72.11.96.04-2.94.14-2.23,0,1.07.01,1.28.02,2.3-.04-.14-.08.56-.11,1.56,0,.52-.02,1.1-.03,1.68,0,.66,0,1.31,0,1.89.79,0,1.42-.03,1.7-.06-.6,0-1.18,0-1.63,0,.01-1.86.02-3.33.02-3.93.11-1.05.06,1.93.13,1.78,0-2.67-.08-3.2-.06-6.33Zm.32-8.45c.02,1.57-.05,1.13-.05,2.27.03,1.28.06-.69.07.61-.04.22,0,.74,0,1.72-.07.31-.07-1.11-.11-.05,0,.86,0,2.11.02,2.3,0-.32.02-.64.02,0,.03,2.94-.07,2.41-.09,3.97.09-.15.12,1.08.23.68-.02-2.4,0-2.83.03-5.15-.03-.08-.05-.2-.04-1.17,0-1.78.07-1.6.05-3.99-.04-.26-.04-1.66-.11-1.2Zm-.14.51c-.06,2.16-.08,1.02-.02,2.85-.08-.65-.07,1.39-.14,1.09-.02,1.17.07,2.2.07,1.17-.02-.02-.03-1.02,0-1.14l.05.02c.01,1.19-.03,3.75.02,4.02.05-1.07.01-2.7,0-4.01.09-1.5.05-3.4.07-5.7-.06-.42-.03.98-.05,1.7Zm-.18-6.38c-.01,1.01-.01,2.37-.05,2.84v-4.01c-.02-.49-.06-.78-.11-.62-.03,3.4.07,3.57.06,6.33.05.38.04-1.01.07-1.11,0,.02,0,.29.02.58,0,.29.03.58.03.58,0,0,0-.28,0-.56,0-.28.02-.56.02-.58.02-.24.05,1.2.05-.55-.11,1.1-.03-2.62-.09-2.9Zm.18-5.07c-.04,1.07-.02,3.78-.03,5.72.13-.36.08-4.08.03-5.72Zm-.1-1.91c0-.21,0-.5.01-.99.01-.67.04-.39.05-1.7,0-.42.01-2.17-.04-2.31-.01,1,.02,3.38-.03,3.43.02-2.71-.05-1.61-.07-2.32.03-.66.03-2.01.02-3.42-.1.32-.05,4.5-.09,6.26-.02,0-.03-.48-.04-.59-.02,1.76-.02,1.09,0,2.86.09.88,0-2.56.09-1.68v2.86c.09.63,0-2.56.07-2.83.02-.11.03.17.03.44,0,.61,0,.34,0,0Zm.09-8.98c-.02,3.05.04,1.39.04,2.31.02,2.39-.06,4.97-.03,6.86,0-.84.05-.5.09-.53-.06-2.67-.01-4.65-.02-8.61l-.09-.04Zm.06-15.44s-.05.25-.07.54c0,1.43.03,1.81.07,2.32.03-.74.03-2.1,0-2.86Zm-.2-6.39c.01,1.01-.03,3.35.02,3.45.03-.72.04-3.41-.02-3.45Zm-.15-12.67c-.04,1.12,0,.73,0,2.29.09.49.09-2.7,0-2.29Zm.23-.47c-.02,1.3-.09,4.12-.03,5.72.01-1.4.07-4.78.03-5.72Zm.3-10.75c-.01.9-.07.46-.05,2.27l.07.03c0-.86,0-2.11-.02-2.3Zm-.09-4.62c-.04,1.92-.02,4.32.09,4.05,0-.35.06-2.18,0-2.29,0,.35,0,.68-.02.56.02-1.83-.03-1.81-.07-2.32Zm.1-7.98c-.11-.28,0,2.3,0,3.44,0,1.4-.06,3.93.02,4.59,0-2.62.03-6.3-.02-8.03Zm-.25-4.69c-.03.72-.04,3.41.02,3.45-.01-1.02.03-3.35-.02-3.45Zm.5,31.74c0,1.88-.07,2.16-.05,4.56.11.1.09-2.84.05-4.56Zm.03-6.29c.03,1.94-.09,2.99-.03,4,.03-2.3.05-1.33.09.04,0-1.71-.01-3.49-.06-4.04Zm.21-6.78c-.05.54-.14.12-.14,2.23.08.29.1-1.16.14-2.23Zm-.11-1.77c-.03,3.09-.13-2.18-.14,1.65.07.9.18-.23.14-1.65Zm-.08-15.51c0-.67.04-.61.07-.54,0-1,0-1.79-.02-2.3-.06-.43-.1,2.4-.05,2.84Zm.3-4.45c-.03.08-.08-.24-.09.53.05-.15,0,1.65-.02,1.71-.04-.07-.02-1.47-.07-1.17,0,2.54.01,6,.02,8.6-.01,1.42-.09,2.02-.09,3.4,0-1.83-.07-5.07-.11-4.06.07,1.2.07,5.09.13,5.79,0-.08.02-1.83.05-1.12-.01,1.01.06,2.41,0,2.86,0-.67,0-1.62-.02-1.73-.03.84-.03,2.33-.07,2.83-.03-.65-.05-.64-.07.54.07-.4.03,1.99.11,1.2,0-1.44-.04-1.81.02-2.28.07.6.13,1.21.2,1.81,0-.76,0-1.53,0-2.29-.06-.78-.07,2.23-.09.53,0-.55,0-2.53.02-2.28,0-.05.01,1.6.02,1.16.03-1.62,0-3.33,0-5.16,0-1.18.06-3.21-.02-3.45,0,2.73-.08,3.42-.09,5.69-.07-1.69.05-3.3.07-4.55,0-1.15-.05-4.28,0-5.16.06-.07-.03,3.73.07,2.89-.04-2.72.02-3.49.03-6.29Zm-.51-11.12c-.07.25-.19,1.98-.12,3.96,0-.64.03-.88.05-1.12.03.75.02,2.5.02,4.02-.07-.69-.06.87-.09,1.1-.02,1.98.03,2.22.02,4.02.07-.37.04-.38.11.05v-12.03Zm-.07-16.08c0,2.08.01,3.72.02,5.16-.05.15-.02-1.67-.07-1.75,0,.22,0,.5,0,.73,0,.23,0,.4-.02.4v1.14c.03.11.08-.17.09.62-.1.75,0,2.96,0,4.58l-.07-.03c.07,2.37-.08,6,.02,6.31-.02-2.42.06-4.21.11-2.81,0-2.23-.01-4.19-.06-5.18-.02-3.01.14-8.07-.02-9.18Zm.66-11.73c.03,1.69-.03,2.12.04,2.88.01-1.36,0-1.06.02-2.85l-.07-.03Zm-.43-3.63c-.03.66-.03,2.01-.03,3.42.04.42.05-.43.05-1.39,0-.48,0-.98,0-1.37,0-.39-.02-.66-.02-.66Zm-.2-.67c0,3.81-.08-.55-.11,1.09,0,2.57.01,4.3.02,6.31.03,1.42.07-1,.09.61-.05,1.33-.1,2.46-.12,4.53.03,1,.07,1.59.13,1.78,0-2.07.01-4.58-.04-2.31.03-1.96.04-3.04.07-5.13-.1-1.36.02-5.13-.04-6.89Zm-.11-.62c0-.69.03-.34.05.02,0-1.53.07-1.21.07-2.83-.03-1.14-.18,1.52-.11,2.81ZM59.54,2.53c.68,0,1.63,0,1.73-.02-2.08-.02,1.6-.11-1.1-.09-.65.02-.2.04-.63.11Zm-28.38-.58c2.52,0,3.93.04,5.74-.02-.62-.01-4.54-.02-5.74.02ZM3.97,2.51c1.76-.01,2.08.02,3.43.03.1-.07-3.31-.1-3.43-.03Zm-1.04,5.24c-.03-.79-.02-1.6,0-2.39,0-.39,0-.78,0-1.15,0-.18,0-.36,0-.54v-.26s-.01-.13-.01-.13v-.05c0,.29-.02,1.48-.04,2.56,0,1.12,0,2.13.05,1.96Zm-.04,54.99c-.03-.6-.08-.6-.11-1.2,0,.76,0,1.53,0,2.29.06.11.11.16.11-1.09Zm-.49,26.13c0-2.19.11-1.12.07-3.98-.07-.31-.06,1.95-.11.52,0,1.64,0,2.91.04,3.46Zm.56,9.42c-.02-1.82.04-1.38.05-2.27-.07-.17-.08,1.04-.11,1.67-.04-.03-.03-1.57-.09-1.18-.01,3.42.06,1.35.16,1.79Zm-.09,32.62c0-1.64,0-2.91-.04-3.45.01,2.14-.06,3.33.04,3.45Zm-.46,14.69v-2.86c-.09-.6-.09,3.38,0,2.86Zm.34,4.74c0-1.52.01-3.36-.04-3.45.01,1.19-.04,3.96.04,3.45Zm-.07,9.13c.02-1.94-.05-4.79-.09-3.48.03.24-.05,4.42.09,3.48Zm-.35,13.02c.07-.38.1-1.74.09-3.97-.12-1.03-.09,1.93-.09,3.97Zm.44,11.09c.06-1.74,0-3.76.07-5.69-.06-.39-.03.94-.05,1.7-.03,1.31-.12,3.36-.03,4Zm-.66,8.86c-.01-2.5-.07-3.99-.13-5.21,0,1.58-.07,3.99,0,5.15.01-1.27.12-.39.14.06Zm-.08-14.36c-.09-.39-.03,3.14-.05,4.56,0,.78.03,1.11.02,2.3-.06-.37-.08.19-.07,1.69.07.46.04-1.55.11-1.09-.02,2.21.04,2.49.07,3.47-.02-3.49-.12-7.85-.08-10.93Zm.04-30.35c0,.45-.02.66-.05.55.01,1.77.01,1.1,0,2.86.07.56.06-3.76.05-3.42Zm-.04-10.9c0,1.3,0,2.15.04,2.31,0-.77.03-1.08.02-2.28l-.07-.03Zm.03-4c-.06.65-.14.87-.14,3.38.08.64.04-.67.09-1.11,0,.05.03.86.05.02v-2.29Zm-.11-38.44c0,1.65,0,2.91.04,3.46.02-1.66.02-1.76.05-3.42l-.09-.04ZM125.13,1.95c.2.04-1.29.06-2.9.09,1.14,0,.7.06,2.27.05.34-.03,2.98-.14.63-.14Zm12.62-.04c-.44,0-.66-.02-.55-.05-1.92-.02-1.9.05-2.89.07,1.01-.01,3.35.03,3.45-.02Zm160.37,122.55c-.02-1.44.1-2.31.03-3.43-.02.6-.09,2.6-.03,3.43Zm-.16,8.52c0-1.03.02-1.33.07-1.11.01-1.8-.04-2.04-.02-4.02-.04-.17-.1,2.75-.09,3.4,0,.26.06-.06.04.59-.03,0-.08,1.53,0,1.15Zm.13,9.8c.06.28.09-2.95.05-3.42-.01,1.07-.03,2.09-.05,3.42Zm.08,169.07c-.02,2.2.11,2.26.09.04l-.09-.04Zm-.03-15.49c-.07-.09-.07,1.7-.07,3.41.08.37.07-1.66.07-3.41Zm1.72-6.09c-.04.75-.14-.27-.14,1.65.03.49.06.79.11.63.01-1.08.01-1.26.02-2.28Zm.06-14.87c-.04-.19-.05.75-.07,1.11-.05-.39-.12-1.21-.11,1.09.03.04.05-.25.07-.54,0,1.25.02,1.83.07,1.75-.02-1.99.03-2.41.05-3.42Zm-2.1-2.68c.02,1.59-.05,5.36.04,5.17.07-.47-.05-.88-.02-2.3.03-.05.05-.15.05-1.12-.08.85-.01-1.95-.07-1.75Zm1.92-2.56c0,1.41.05,3.64.11,2.92,0-2.16-.14-3.36-.06-5.76-.06-.55-.05,1.83-.05,2.84Zm-.11-6.93c.05.88.05,2.89.13,2.93.03-2.62-.09-5.4-.13-2.93Zm-1.78-35.19c0-1.35.08-1.03.07-2.83-.06-.36-.12,2.3-.07,2.83Zm.64-42.68l.09.04v-1.72c-.06-.19-.1.16-.09,1.68Zm-.06-72.22c0,1.7.02,5.54.04,4.6-.02-1.1-.01-5.7-.04-4.6Zm.16-7.37c-.01,1.39-.09,1.18-.07,3.41.03-.02.06-.63.08-1.36s.02-1.57,0-2.05Zm-.31-5.3c.09.22.02-3.32,0-4.01-.01,1.3-.05,2.91,0,4.01Zm.24-21.09c.01,1.55-.05,1.09-.07,1.69,0,2.28,0,4.23.04,5.18-.03.13-.03,1.24-.05,1.69.07,3.11.04,7.58.01,10.9.04-.52.01,3.28.04,1.17,0-1.07-.01-1.28-.02-2.3.05-.18.08-2.2.09-3.4,0-1.03-.01-1.47-.02-2.87.01-1.37.03-3.25.05-4.56,0-.74-.03-.79-.02-1.73,0-.76,0-2.18,0-3.43,0-1.24-.02-2.3-.07-2.33Zm-.04-69.35c-.02,1.33-.05,2.68-.07,3.98,0,1.52.04,1.79.04,2.89,0,.57-.02.42-.02.56,0,.51.02.54.02.58,0,2.92.02,4.53.09,5.19.02-2.11-.03-5.42-.04-8.61,0-1.64.08-3.95-.02-4.59Zm-71.45-7.87c1.34,0,2.35.05,3.44,0,.57-.08-3.76-.05-3.44,0Zm10.38-.15c-2.15-.05-2.32.1-1.2.11-.4-.07,1.99-.03,1.2-.11Zm-2.81-.11c1.35,0,1.03.08,2.83.07,3.03-.06-1.75-.18-2.83-.07Zm63.79,6.95c.07.18.07-1.26.14-1.08,0,.45,0,1.13.02,1.16,0-3.1-.15-3.61-.16-.07ZM273.72.29c1.11.04,3.54,0,4.59-.02-2.28,0-3.48-.06-4.59.02Zm-15.49.03c2.17-.05,2.09.03,3.99.05.09-.06,1.1-.07.05-.11-.97.04-4.18-.02-4.04.06Zm-32.68.04c.72.03,2.79.04,2.88-.02-.72-.03-2.79-.04-2.88.02Zm2.32,1.2c2,.04,2.57,0,4.59-.02-.59.09,2.15.02,2.28.02,1.2,0,1.45.07,2.83.07-.38-.1,3.14-.04,3.49-.11,1.01,0,2.88-.02,2.27.05-1.8.01-2.32-.05-2.87.02.93.02,1.82.03,2.85.02,1.05-.01,4.83-.16,5.18-.04-.32,0-.66.02-.01.02.75-.06,3.31.1,4.02-.02-.34-.03-2.2,0-2.27-.05,2.75,0,4.77.06,6.31-.02.45,0,.91.06,1.12.07.5,0,3.66,0,4.01,0,.09,0-.1.04-.02.05,1.11,0,2.34-.04,3.45-.02.08.03-.13.06.54.07,1.26-.05-.04-.07-.52-.11,2.39-.02.66-.09,3.49-.11,1.14,0,.7.06,2.27.05.41-.04,1.56-.04,2.31-.04,3.43-.02,7.56-.02,11.45,0,.52-.03.89-.07,2.32-.07,4.54-.01,7.29-.02,11.43-.03,0,.91,0,2.35,0,4.02.11.35.09-1.92.07-4.1-.87,0-1.7.01-2.29.02-3.5-.02-6.72-.04-9.72-.05.01.04-.47.06-1.18.07-4.93-.04-7.54.01-12.05.04-.34-.05,1.66-.07-.54-.07-.77.02-2.13.06-2.9.09-4.2-.02-8.26.03-10.3-.03-2.24.04-4.69.04-6.3,0,.65.11-2.93.05-4.05.09.19-.05,1.57-.04,1.76-.09-1.97.04-2.75,0-5.16,0-.96.09,2.47,0,2.26.07-.4.08-2.74,0-5.16.02-.08.03-.2.05-1.17.04,1.15-.07-.2-.02-1.71-.02-2.42-.01-4.25-.02-5.18.04-.03-.04.16-.07.61-.09-2.12-.03-1.87.05-2.9.07-3.68-.02-7.1-.02-7.99-.07.09-.03,1.04-.05.03-.07-.86.03-.93.08-1.77.11-1.56,0-2.64-.1-3.44,0,2.46.03,4.42-.02,5.14.05-.97.01-2.62.03-4.03.04-2.45.02-.84-.01-2.86-.02-2.89.15,10.49.11,10.29.05Zm-26.97.09c.44-.08-1.97-.08-2.84-.05-.44.08,1.97.08,2.84.05Zm-17.4.46c1.65,0,3.75,0,4.57.03-.38-.04-2.04-.14-2.82-.09.35,0,.68,0,.56.02-1.07,0-1.92.01-2.31.04Zm-3.91-.23c.91.04,2.94.02,3.45-.02-.91-.04-2.94-.02-3.45.02Zm-1.67-.11c-.12.09,1.44.06,2.84.05.62-.08-1.77-.04-2.84-.05Zm-1.13-1.29c1.64.06,2.77-.04,4.04-.06-2.03,0-3.44.01-4.04.06Zm-1.08-.14c.3-.07-1.19-.07-2.83-.07-.3.07,1.19.07,2.83.07Zm-8.08.13c1.42,0,2.78,0,2.89-.04-.84-.04-3.25-.04-2.89.04Zm-6.81,1.1c2.15.03,1.13-.06,2.89-.04,1.12.02,5.7.11,6.3,0-2.06-.02-4.38.03-5.14-.03.14.01,1.82-.02.58-.02-.99.05-5.12-.03-4.62.09Zm-.64-1.11c1.63-.02,1.47.03,2.85.02.06-.04-.1-.07-.53-.09-1.43,0-1.81.03-2.32.07Zm-17.15,1.16c2.9-.05,4.59.06,5.74-.02-1.74-.02-1.75-.11-3.96-.12-.68.03-.69.06-.04.09-.99,0-1.48.02-1.74.04Zm-5.65-.16c1.51,0,1.89-.03,1.76-.09-1.54,0-2.78.05-1.76.09Zm-31.49-.04c.44,0,.65.02.55.05.81,0,1.79,0,2.58,0,.79,0,1.39-.01,1.42,0-.18.05-2.54,0-2.32.07,2.03.05,2.1,0,4.02-.02-.82-.07.23-.09-.51-.14-2.17.02-4.26.03-5.75.04Zm-34.45.16c1.08.01,1.26.01,2.28.02-.44-.06.83-.06.62-.11-1.68,0-2.15.05-2.9.09Zm-8.02,0c1.28.02,2.19.08,3.41.05.04-.03-.25-.05-.54-.07,2-.07,3.48.05,4.58,0-.57-.07-3.66-.04-5.13-.07-.11.03.16.08-.61.09-.07-.04-1.93-.02-2.27-.05-3.71.06-1.35.02.55.05ZM.51,14.66c0-2.38.04-3.13-.02-4.59,0,.69-.03.34-.05-.02.04,1.97-.08,3.78.06,4.62Zm.04,1.17s.02-.25.02-.51c0-.27,0-.55-.02-.63-.02,1.17-.09,1.14-.09,2.82.07.54.05-1.46.09-1.68Zm-.05,8c.02-.39.02-1.25.02-2.01,0-.77-.02-1.44-.06-1.45.04,1.58-.04,2.67.04,3.46Zm.78,11.24c-.02-1.47-.02-3.26-.06-4.04-.03,2.43,0,2.92.06,4.04Zm-.77,2.52c.01-2.15.03-2.6-.04-3.46-.05,1.2-.01,3.12.04,3.46Zm.63,39.25c0-1.41,0-2.76-.02-3.45-.04.06-.08.34-.09,1.1.1-.71.07,1.66.11,2.35Zm-.05,3.41c.01-.35.09-1.69.02-2.28-.1,1.42-.01-1.46-.04-2.31-.13.14-.03,3.96.02,4.59Zm-.38,23.89c.02-.38.03-1.37.03-2.28,0-.91-.01-1.72-.05-1.74.05,1.55-.04,2.9.02,4.02Zm0,21.78c-.03-.25-.05-.76-.04-1.74-.07-.31-.09.67-.11,1.67.04-.06.05.59.04,1.74.07.31.09-.67.11-1.66Zm-.12,5.1c.06-.26.09-1.04.14-1.66-.06.14-.17-.88-.14,1.66Zm.45.21c-.03-2.18.01-6.28-.09-6.92-.03.97.01.68.02,1.73.01,1.76-.03,5.34.06,5.19Zm-.19,19.39c.02,1.09.03,2.65.09,2.9-.02-1.63.03-1.47.02-2.85l-.11-.05Zm-.13-2.93c0-1.32,0-2.2-.02-2.87-.05-.48-.15.56-.09,1.1.03-1.31.09,1.16.11,1.77Zm-.07,9.13c-.02-1.45.05-4.91-.04-4.6.02,1.45-.05,4.91.04,4.6Zm.02,0c.1-.18.02-4.79.05-6.85-.04-.08-.01-1.9-.07-1.75,0,3.88.06,4.66.02,8.6ZM261.67,1.57c.38-.06,1.61-.09,3.48-.09-.26.03-.75.05-1.74.04-.12.02.21.02.56.02-.19.03-1.44.02-2.3.02ZM88.88,347.31c-.36.07-2.18.03-3.45.02.6-.06,2.32-.03,3.45-.02ZM53.63,1.67c-1.43.04-6.16.07-8.03.02-.05-.1.88,0,1.72,0,1.57-.05,4.63-.02,6.31-.02ZM2.01,30.25c0,1.77,0,4.08.02,7.46-.03-2.09-.05-5.54-.02-7.46Zm35.89,318.28c-.89.12-5.15.05-7.47.04-1.57,0-4.26.04-4.56-.05,4.03.05,9,.02,12.03,0Zm68.51-.7c-1.02,0-1.23.01-2.3.02-.54-.05-.95-.11-1.07-.18,1.76.03,3.2.07,3.37.16Zm-57.08.77c-1.38.05-5.14,0-7.46.02,1.7-.06,5.3-.02,7.46-.02Zm-48.33-4.26c0,1.39,0,2.86,0,4.13,2.71,0,5.22,0,7.13,0-1.09.01-2.13.02-3.18.04-1.32,0-2.64,0-4,0,0-3.51.02-7.31.03-12.21.04-1.13.02,5.63.02,8.03Zm108.79,3.6c-1.91,0-3.82,0-5.72,0,1.09-.01,5.47-.1,5.72,0Zm16.07-.06c-.83.06-1.99.04-3.45.02.83-.06,1.99-.04,3.45-.02Zm-9.18.04c-2.23.05-3.55,0-5.72-.03.93-.04,2.6-.05,4.6-.04-.04.04.4.06,1.12.07Zm-54.19-.54c-2.36-.03-2.26.05-4.03.04-1.33-.14-3.71.01-5.15-.03.31-.02.62-.04.61-.07,1.18.01,3.77-.03,4,.03,1.27-.02,4.71-.09,4.57.03ZM297.6,63.48c0-3.77,0-7.53,0-12.03.01,3.11.02,6.88.04,10.9,0,.98-.02,1.07-.05,1.12ZM121.43,0h4.01c-.14.04-4.29.09-4.01,0Zm178.38,167.06c.04.11.07,2.4.07,3.47,0,.88-.02,3.18-.07,2.83.03-2.48,0-3.2,0-6.3ZM149.51,0c1.21.04,3.97.02,6.29.03,2.31,0,5.44-.03,5.71.05-3.74-.04-11.04.06-12-.08Zm143.19.12c-.96-.04.12-.05,1.55-.05,1.79,0,3.97-.02,4.59-.02.05.01.39.02.85.02,0,.58,0,1.36,0,1.99-.02-.32-.03-1.03-.04-1.95-1.27,0-3,0-4.54,0-1.12,0-2.08-.01-2.4,0Zm-107.78.13c1.46,0,2.95,0,2.83.07-1.64,0-3.13,0-2.83-.07Zm-39.51-.05c-.23-.06,3.11.02,2.88-.04.45.06,4.49-.02,3.98.07-2.43,0-3.99-.02-6.86-.03Zm-18.33-.01c2.63-.01,3.16.06,5.12.07-.11,0-5.82.03-5.12-.07Zm20.01.1c1.89,0,4.06,0,3.98.07-.94-.04-4.19.01-3.98-.07Zm7.41.07c.47-.08-2.31-.03-1.67-.11,1.91,0,1.92.07,3.98.07-.15.04-1.01.05-2.31.04Zm143.15,91.22c-.08-1.07-.04-4.38-.04-6.32,0-5.35,0-9.6.01-14.32,0-2.37-.08-5.5.03-6.29-.05,4.55.02,9.46.01,14.33,0,3.72,0,7.97,0,12.6Zm-.03-49.86c0-1.08-.03-4.25,0-5.73.06,1.44.03,3.89,0,5.73Zm.05-33.21c-.03-.88-.03-2.53-.04-4.03.09-.42.03,2.72.04,4.03Zm-.02,26.35c-.04.05-.05-1.51-.05-3.24.01-1.72.03-3.61.03-4.22.05,1.38,0,5.14.02,7.45Zm.04,99.72c-.06-1.81-.03-3.22-.02-5.74.05.82,0,3.99.02,5.74Zm.08,45.88c-.07-.64-.02-2.06-.02-3.45,0-4.93-.02-11.83-.03-16.63.13.88.04,3.7.04,5.18,0,4.13,0,8.35.01,14.9Zm-.12-81.42c-.08-.74-.05-6.93,0-6.3,0,1.69,0,3.43,0,6.3Zm.05,28.67c-.06-.04-.05-2.73-.02-3.45.05.09,0,2.43.02,3.45ZM69.28.03c1.19-.05,4.76,0,6.88-.02-1.19.05-4.76,0-6.88.02ZM.68,246.23c-.02-.86-.05-2.52-.07-3.47-.02.24-.04.49-.05,1.13-.08-.94.05-.83.02-2.28.05,1.06.12,3.4.09,4.62Zm-.05,13.73c-.11-.53-.04-2.78-.02-4.59.05.45,0,3.22.02,4.59Zm-.26-19.03c0-1.71,0-3.49.07-3.41-.05.39.02,3.97-.07,3.41Zm.06,13.21c-.06-.91,0-3.44.03-4,0-1.42-.04-1.79,0-2.86.06,1.92,0,5.22-.03,6.87Zm.12-12.55c-.05-.51,0-1.86-.02-2.88,0-.36-.04-.47-.04-.59-.01-.91.03-1,.02-1.71,0-.53-.09-1.63-.07-3.47.07-.55.04,1.3.04,2.31.07-.26.09,1.39.11-.52.08.74-.02,1.18-.02,1.71,0,.79.04.18.04.59.02.88-.05,2.32-.03,4-.03-.11-.04.11-.05.55Zm0-32.09c0-2.85-.07-3.46-.04-6.9.05.29.04-.8.05-1.7.1,1.45.09,4.83.02,6.88.06-.04.07-1.04.11.05-.02-2.51-.01-9.11.12-9.69-.03,2.37-.04,3.39-.07,5.69,0,.69.06,2.01.07.61.07,3.68-.03,10.04.01,13.18-.08-1.03-.06-4.02-.09-5.2-.05-.45-.09,2.07-.05,2.27-.06,2.1-.05-2.2-.04-3.46.04-1.04.07.28.11.63.01-2.31.02-3.27.03-5.15-.09-.51-.05,1.82-.07,2.26,0,.16-.03-.88-.04-.59-.01.41,0,2.15-.07,1.69,0-.56-.03-.46-.04-.59Zm-.34,31.93c-.04-2.28-.07-4.32-.11-6.35-.02-1.51.04-.77,0-2.29-.07-2.98-.09-8.07-.1-14.37.03-.55.03-1.92.07-2.26.1-.15.06,3.31.16,1.79,0,2.06.01,2.53.02,4.59.05,0,.06-.84.07-1.98,0-1.14,0-2.57,0-3.71.04-.05.05.72.09.62-.09,2.86-.02,6.71-.03,10.87-.05.25-.04-.84-.04-1.74-.02-1.31-.07-1.74-.11-2.35-.07,2.04.02,1.82.04,2.89,0,4.54-.08,8.49,0,12.03-.03.36-.04,1.2-.05,2.27Zm-.04-10.9c.03-.14.03-1.24.05-1.7-.09-.42-.07,2.15-.07,3.98,0,3.9.04-.64.02-2.28Zm.33-15.89c.02.15.01,1.15.04,1.17.05-.05.01-2.43.03-3.43-.02,0-.02.69-.02,1.14-.07.26-.1-1.61-.09,1.1-.06-1.29-.04-1.7-.02-3.45,0-.44.03,1.23.02,1.16.02.22,0-3.27,0-4.01.05-.24.04.84.04,1.74.09,1.63.14,4.16.13,8.08-.02-.31-.04-.62-.07-.6.03,1.18.11,1.09.09,3.48-.06-.19-.1.17-.09,1.68-.13-.62-.08-3.6-.11-5.78.06-.02.04.97.09.04,0-.9-.07-.52-.04-2.31Zm.28,47.11c-.03-.14,0-1.71-.04-1.74,0-1.5,0-3.32,0-4.58,0-2.01,0-4.42.07-4.55,0,1.38-.04,1.23-.02,2.86.02,0,.04.02.07.03.08-1.61.01-3.32.03-6.29.09-.61.03,1.79.04,2.88.01.87.03,2.01.04,2.89,0,2.89.01,5.97.02,8.03-.05,1.38-.04-.87-.11-.62.09-.48.08-4.82.05-6.85-.06.45-.1,1.55-.12,3.38.06.37.08-.19.07-1.69.06,2.2-.08,4.05-.09,6.26Zm-.27-60.86c-.1-2.31.05-2.89.03-6.29-.03,2.5-.08,1.11-.09-1.18.11.37.03-2.21.12-3.39.02.4.07,2.45.07.03.09.58.02,2.9.02,4.59-.05-.41-.01-3.01-.11-2.34,0,.56.03.46.04.59,0,1.33,0,2.67,0,4.01,0,.93.11-.88.09,1.76-.07,1.11-.16-2.34-.16,2.22Zm.06,77.95c0,2.03-.06,1.38-.02,3.43-.09.29-.03-3.79.02-3.43Zm275.5,68.87c1.38-.05,5.14,0,7.46-.02-1.38.05-5.15,0-7.46.02ZM.61,279.43c-.03-1.15-.04-2.69-.11-2.92,0-1.99,0-4.41.07-4.55-.05,1.17-.02,3.79,0,5.16.02,0,.02-.7.02-1.14.04.5.06,2.54.02,3.45Zm284.1,69.41c-.16.04-1.01.05-2.31.04-.08.06.93.05-.04.09-2.17.01-4.5.03-6.89.04-3.69.02-7.5.04-11.49.06-.87-.01-1.56-.02-1.71-.02-5.75.03-11.52.05-17.22.08-1.01,0-2.37-.02-3.43-.02-.63.01-1.63.03-2.31.04-.9,0-1.96-.02-2.85-.02-3.95,0-8.92,0-13.18.01.5-.06-.78-.06-.52-.11-2.31.03.14.05-.05.11-4.22.02-6.24,0-8.05.06-1.31.05-1.6-.02-2.28-.02-1.25,0-2.41.07-4.01,0,.62.15-1.67.04-2.9.09,1.17.02,1.55.07,2.24.11.96-.04-.22-.08,1.21-.13,1.81,0,2,.04,4,.03l-.04.09c1.92,0,.38-.12,2.93-.13.05.04-.72.05-.62.09,2.23.02,3.01-.08,4.59-.02,1.62-.05,3.15-.1,6.34-.09-.82.04-2,.06-3.47.07.61.02,1.5.05,2.26.07,1.26,0-.53-.05-.55-.05.32-.03,1.02,0,1.73-.02.89-.02.95-.11,2.88-.04.56.06-1.26.03-1.74.04-.49.02.12.08-1.19.09,2.14.09,3.42.03,5.71.05.05-.11-2.29-.02-2.83-.07-.67-.1,1.93-.06,2.34-.11,1.92.02.27.04.52.11,1.03.04,1.51.1,3.97.09-.04.08-2.16.14-2.89.07-1.57.02,1.5.04.52.11-1.21.05-2.66,0-4.01,0-.54,0-1.26.01-2.3.02-2.63-.02-5.68-.03-8.57-.05-1.16.01-1.56.01-2.3.02-4.11,0-9.17-.02-13.16-.03-1.72,0-2.96-.02-4.57-.03-9.64-.04-19.76-.09-29.16-.13-.92-.02-1.48-.03-2.27-.05-1.98,0-3.93,0-6.3,0-1.82,0-2.57-.04-4.58,0-1.8,0-1.48-.06-2.83-.07-2.88,0-5.99.01-9.18.02-1.03,0,0-.09,1.18-.07-2.07-.08-5.14.03-4.62.06-2.09-.02-4.78-.02-5.1-.12-2.74.1-7.34-.08-9.76.04-1.07.02-1.35-.04-1.7-.05-.4,0-.97.01-1.73.02-2.49-.02-6.84-.05-10.28-.08-.83,0-2.84,0-2.89.04-.67,0-.46-.04-.54-.07-3.15.02-5.65.02-8.02,0-.56,0-.46.03-.59.04-2.12-.04-3.26.02-4.56-.05-1.27-.01-.84.04-1.74.04-1.31-.01-3.85-.03-6.28-.05-1.48,0-4.29.02-5.17.02-1.19.01-2.37.03-3.46.04-4.19,0-8.46,0-12.03,0-3.37,0-6.91.08-9.17,0-.95.02-1.32.02-2.31.04-.9-.01-1.02-.01-1.71-.02-1.3.01-3.18.03-4.6.04-3.24,0-6.31-.02-9.73-.03-.87.01-1.03.01-1.73.02-.98,0-1.9-.02-2.86-.02-.72.01-1.66.03-2.31.04-.3,0-1.06-.01-1.71-.02-1.02,0-1.23.01-2.3.02-4.44,0-9.24,0-13.18,0-.92-.01-.99-.01-1.71-.02-2.08,0-4.76.09-8.03.02-.53,0-1.1.02-1.72.03-1.09,0-2.26,0-3.54,0,0-2.15,0-4.66.01-7.49.04.08.01,1.9.07,1.75,0-1.43-.03-1.81-.07-2.32.04-1.07.02-3.77.03-5.72,0-1.31-.06-.66-.07-1.75,0-5.81,0-11.08.01-16.04-.02-1.31-.03-2.24-.04-3.46.01-3.6.02-7.27.03-10.87,0-1.09-.01-2.39-.02-3.45.02-1.04.03-1.69.05-2.84,0-1.04-.01-1.78-.02-2.87.02-4.23.04-9.18.05-13.73.07-.31,0,2.22.02,4.02,0,1.08.1,3.75,0,4.01-.01,2.02.08,1.44.07,3.47-.04-.04-.06.4-.07,1.11.05-.26.1,2,.02,3.45.08.65.04-2.13.11-1.67,0,3.88.01,5.49.02,8.6.09.54.04-2.48.14-1.66-.05,3.98.08,6.74-.03,9.73.01,1.2.03,1.23.07.6.03,1.32-.06,2.13,0,2.29,0,1.35-.06-.68-.09-.61.05,4.04.08,6.59.04,10.9.02,0,.02-.69.02-1.14,0,2.05.05,7.35,0,10.31-.01,2.02.08,1.44.07,3.47-.03.69-.04,1.95-.05,3.42,0,.97.02,1.09.04,1.17-.01,1.27-.05,3.08.02,3.45.05-.4.01-3.21.03-4.57.06.19.1-.16.09-1.68,0-.46-.01-.59-.02-1.16-.02.36-.02,1.31-.07,1.12.02-14.19.03-20.38.05-33.78.03-.68.04-.21.07.03,0-3.65,0-6.75,0-9.74,0-.62-.04-.41-.04-1.17.01-1.57.03-3.2.11-2.81-.03-1.53-.02-1.79-.09-1.19.02-.58.05-.57.05-1.7.08.27.08,2.46.13,3.5-.04,2.1-.03,2.05-.03,5.15-.08.85-.01-1.95-.07-1.75-.05,1.12,0,4.52.07,2.89-.02,2.23.05,3.35,0,4.58-.05.25-.04-.84-.04-1.74-.06.8-.01,3.68.04,3.45-.02,2.89-.03,6.19,0,9.74-.03,1.59-.04,2.43-.07,3.98,0,.63.04.41.04,1.17-.02,5.34.02,12.23-.03,16.6-.08.55-.03-1.79-.04-2.88-.08,2,.03,4.19.06,5.18-.02,3.67-.03,6.88-.04,10.03,3.63,0,7.17,0,11.22,0,.41.04,1.7.02.54.07,1.79.03,1.41-.03,2.31-.04,4.54.01,9.64.02,13.74.03,2.14,0,4.83-.01,6.88-.02,1.77,0,2.99.02,4.57.03.9,0,1.97-.01,2.87-.02.86.02,1.34.03,2.27.05.79,0,5.45-.03,6.9-.04.6,0,.43-.04,1.17-.04,1.38.03,1.91.03,4,.03,1.91,0,2.42.05,3.45-.02,1.82,0,1.89.06,3.99.05-.08-.03-1.04-.02-1.71-.02.64-.09,2.15-.02,3.45-.02,7.16,0,13.58,0,22.34.02,2.7,0,7.63,0,11.45,0,1.02.01,1.2.01,2.28.02,2.3,0,5.15-.06,6.29.03.52-.05,5.79-.07,6.9-.04.25,0-1.33.03-1.73.02-.2.04,3.19.04,2.3-.02.91.04,2.37.06,4.56.05,0-.01-.17-.02-.4-.02-.23,0-.51,0-.73,0,2.32-.05,7.06,0,10.32-.02,2.11.06,4.48.11,8.55.1-.34-.05-2.89,0-2.25-.09,3.29.02,3.83-.06,7.46-.04,2.13.02,4.4.03,6.85.05-.11.03-1.05.02-1.73.02,1.22.06,3.82,0,2.32-.07,1.31,0,2.15,0,2.27.05,3.4-.06,8.94,0,13.19-.04-1.97.07,2.42.09,3.42.05-.32-.08-2.92.06-2.27-.05,5.51,0,12.19,0,16.03.01-.17.04.52.04.55.07.59-.02,1.17-.04,1.75-.07,2.47,0,5.05,0,7.45,0,4.15.01,8.63.02,13.16.03,1.07,0,2.38-.01,3.45-.02,4.81,0,13.34,0,19.48.01,1.86-.01,3.44-.03,5.18-.04,3.73,0,7.24,0,10.88,0,4.55-.01,9-.02,13.19-.04,1.02.01,1.2.01,2.28.02,1.13-.01,1.59-.01,2.3-.02,1.5,0,3.14.06,4.59-.02,6.99,0,7.9,0,14.89.01.05.04-.72.05-.61.09h-4.58c-1.24,0-.3.08-.63.11,1.26.01.84-.04,1.74-.04,1.44,0,.51.04,1.12.05.96.01,1.54-.02,1.73-.02,1.42,0,1.64.09,2.84.05ZM.82,332.24c0-1.15.1-2.27.02-3.43,0,1.15-.1,2.27-.02,3.43Zm-.32-24.21c.01-1.1.03-2.69.05-3.99-.08-.37-.14,2.98-.12,3.38.01-1.65.03.9.07.61Zm-.25,5.61s.03-.23.04-.59c0-.38.01-.87.02-1.39,0-1.05,0-2.19-.01-2.58-.03,1.24-.06,2.31-.05,4.56Zm.05,19.51c.02-1.29.06-4.78-.02-5.17.04,1.99-.04,3.44.02,5.17Zm.49,15.5c.01-.3.02-.93.02-1.67,0-.62,0-1.34-.01-2-.01-1.05-.04-1.87-.05-1.31.02.25.02,1.16.02,2.06,0,1.28,0,2.68.02,2.92Zm39.72.45c-1.51-.02-2.91-.03-4.02.02,1.24.01,3.68.06,4.02-.02Zm17.21-.03c-.15-.05-1.56.02-1.74.04,1.72,0,3.44,0,5.15,0,.58-.08-2.24-.03-3.41-.05Zm69.4-.15c-1.79-.01-2.35.03-2.9.07,1.46,0,2.95,0,2.9-.07Zm2.96-.2c-2.12.02-6.74-.1-7.46.02,2.19.03.87.01,1.73-.02,1.84-.07,5.44.15,5.73,0Zm12.62-.04c-1.08-.04-3.52,0-3.47.07,2.21.02,2.5-.04,3.47-.07Zm1.13.05c1.65.02,1.76.02,3.41.05.76-.08-2.86-.1-3.41-.05Zm24.4.54c-.77,0-1.53,0-2.29,0-.96.1,2.92.08,2.29,0Zm8.6-.02c-3.05.03-1.73-.11-4.54-.09.02.07,1.94.07,2.81.11.67.07-1.86.02-1.19.09,1.95,0,2.17-.06,2.92-.11Zm18.22.24h2.29c.49-.08-2.7-.09-2.29,0Zm3.54-.22c-1.64,0-2.91,0-3.46.04.64,0,.88.03,1.13.05,1.46,0,2.24-.03,2.33-.09Zm29.7.2c1.13.05,1.62.12,3.38.14.96-.08-1.6-.07-2.25-.09-.18,0,.16-.04.02-.05-.07,0-1.01-.02-1.13-.02-.76,0-1.51-.02-2.28-.02-.6.07,1.26.04,2.27.05Zm-4.04.06h-2.86c-.91.07,3.71.07,2.86,0Zm-5.08-.16c.44.11,2.97.02,3.97.09-.15-.05,1.66-.02,1.75-.07-2.18-.01-3.16-.01-5.72-.03Zm-4.68.2c1.43.03,1.65-.03,2.89-.04.6,0,3.04.08,2.87-.02-1.08-.04-5.85-.03-5.76.06Zm-9.14-.05c1.4-.01,2.96-.02,2.91-.09-1.4.01-2.96.02-2.91.09Zm58.75-.66c-.22-.04-.16-.1-1.68-.09-1.03.05-1.32.07-.63.14,1.55.02,1.17-.04,2.31-.04Zm8.08-.13c-.64,0-.88-.03-1.13-.05.61,0,1.46,0,.58-.02-1.26.05-1.94-.02-4.01,0-.24.1,2.06.06,3.42.05-.19.04.74.06,1.14.02ZM.8,270.92c0-2.78-.05-3.22-.09-5.77.04-1.56.09-2.76.14-3.95.08,1.21.1,3.94.13,6.37-.04-.97-.09-1.96-.09-4.05-.06-.2-.07.76-.07,2.26.11.45.24,7.25.06,8.05,0-1.42.04-1.76,0-2.86-.11,2.35.04,6.87-.05,8.57l.09.04c.02-2.15-.03-2.75-.02-4.59.13-1.11.11,5.45.04,5.75.02,1.62.02,2.99,0,4.58-.04-.54-.04-2.12-.09-2.33,0-1.08.08-.36.07-1.69,0-.83-.07-.23-.07-1.18-.03.17-.02,1.43-.02,2.28-.1-.7-.11-3.21-.11-5.21.02-1.88.05-4.18.07-6.27Zm-.29.44v-1.72c.05,1.42.04-.84.11-.52,0,1.81-.06,1.94-.11,2.24Zm.13,9.8c-.02,2.21-.01,2.02-.02,3.43,0,0-.02-.28-.02-.67,0-.39,0-.9,0-1.37,0-.96.02-1.81.05-1.39Z"/>
</svg>